solid AutoSave_AutoSave_AutoSave_AutoSave_AutoSave_AutoSave_mousepusher 0506
facet normal -0.9999999999005127 -1.4105838686597968e-05 0.0
  outer loop
    vertex -33.093586625169216 142.21568773125608 4.673039478174
    vertex -33.09292175314795 95.08116166924465 1.7265355948179077
    vertex -33.09292175314795 95.08116166924465 4.673039478174
  endloop
endfacet
facet normal -0.9999999999005127 -1.4105838686597968e-05 0.0
  outer loop
    vertex -33.09292175314795 95.08116166924465 1.7265355948179077
    vertex -33.093586625169216 142.21568773125608 4.673039478174
    vertex -33.093586625169216 142.21568773125608 1.7265355948179077
  endloop
endfacet
facet normal 0.0 0.0 1.0
  outer loop
    vertex 62.065378292655836 102.94484435388756 4.673039478174003
    vertex -27.401523707344143 106.94484435388755 4.673039478174003
    vertex -27.401523707344143 102.94484435388756 4.673039478174003
  endloop
endfacet
facet normal 0.0 0.0 1.0
  outer loop
    vertex -27.401523707344143 106.94484435388755 4.673039478174003
    vertex 62.065378292655836 102.94484435388756 4.673039478174003
    vertex 61.845864292655826 106.94484435388755 4.673039478174003
  endloop
endfacet
facet normal 0.0 0.0 1.0
  outer loop
    vertex 61.845864292655826 106.94484435388755 4.673039478174003
    vertex 62.065378292655836 102.94484435388756 4.673039478174003
    vertex 61.845864292655826 109.94484435388759 4.673039478174003
  endloop
endfacet
facet normal 0.0 0.0 1.0
  outer loop
    vertex 61.845864292655826 109.94484435388759 4.673039478174003
    vertex 62.065378292655836 102.94484435388756 4.673039478174003
    vertex 61.845864292655826 113.94484435388758 4.673039478174003
  endloop
endfacet
facet normal 0.0 0.0 1.0
  outer loop
    vertex 61.845864292655826 113.94484435388758 4.673039478174003
    vertex 62.065378292655836 102.94484435388756 4.673039478174003
    vertex 61.845864292655826 116.94484435388758 4.673039478174003
  endloop
endfacet
facet normal 0.0 0.0 1.0
  outer loop
    vertex 61.845864292655826 116.94484435388758 4.673039478174003
    vertex 62.065378292655836 102.94484435388756 4.673039478174003
    vertex 61.845864292655826 120.94484435388758 4.673039478174003
  endloop
endfacet
facet normal 0.0 0.0 1.0
  outer loop
    vertex 61.845864292655826 120.94484435388758 4.673039478174003
    vertex 62.065378292655836 102.94484435388756 4.673039478174003
    vertex 61.845864292655826 123.94484435388756 4.673039478174003
  endloop
endfacet
facet normal 0.0 0.0 1.0
  outer loop
    vertex 61.845864292655826 123.94484435388756 4.673039478174003
    vertex 62.065378292655836 102.94484435388756 4.673039478174003
    vertex 61.845864292655826 127.94484435388756 4.673039478174003
  endloop
endfacet
facet normal 0.0 0.0 1.0
  outer loop
    vertex 61.845864292655826 127.94484435388756 4.673039478174003
    vertex 62.065378292655836 102.94484435388756 4.673039478174003
    vertex 61.845864292655826 130.9448443538876 4.673039478174003
  endloop
endfacet
facet normal 0.0 0.0 1.0
  outer loop
    vertex 61.845864292655826 130.9448443538876 4.673039478174003
    vertex 62.065378292655836 102.94484435388756 4.673039478174003
    vertex 61.845864292655826 134.9448443538876 4.673039478174003
  endloop
endfacet
facet normal 0.0 0.0 1.0
  outer loop
    vertex 61.845864292655826 134.9448443538876 4.673039478174003
    vertex 62.065378292655836 102.94484435388756 4.673039478174003
    vertex 61.845864292655826 137.9448443538876 4.673039478174003
  endloop
endfacet
facet normal 0.0 0.0 1.0
  outer loop
    vertex 67.29529553031563 94.99031966502137 4.673039478174
    vertex -27.401523707344143 99.94484435388756 4.673039478174003
    vertex -33.09292175314795 95.08116166924465 4.673039478174
  endloop
endfacet
facet normal 0.0 0.0 1.0
  outer loop
    vertex -27.401523707344143 99.94484435388756 4.673039478174003
    vertex 67.29529553031563 94.99031966502137 4.673039478174
    vertex 62.065378292655836 99.94484435388756 4.673039478174003
  endloop
endfacet
facet normal 0.0 0.0 1.0
  outer loop
    vertex 62.065378292655836 99.94484435388756 4.673039478174003
    vertex 67.29529553031563 94.99031966502137 4.673039478174
    vertex 62.065378292655836 102.94484435388756 4.673039478174003
  endloop
endfacet
facet normal 0.0 0.0 1.0
  outer loop
    vertex 62.065378292655836 102.94484435388756 4.673039478174003
    vertex 67.29529553031563 94.99031966502137 4.673039478174
    vertex 67.29463065829457 142.21582854563647 4.673039478174
  endloop
endfacet
facet normal 0.0 0.0 1.0
  outer loop
    vertex -33.093586625169216 142.21568773125608 4.673039478174
    vertex -27.401523707344143 137.9448443538876 4.673039478174003
    vertex 67.29463065829457 142.21582854563647 4.673039478174
  endloop
endfacet
facet normal 0.0 0.0 1.0
  outer loop
    vertex -27.401523707344143 137.9448443538876 4.673039478174003
    vertex -33.093586625169216 142.21568773125608 4.673039478174
    vertex -33.09292175314795 95.08116166924465 4.673039478174
  endloop
endfacet
facet normal 0.0 0.0 1.0
  outer loop
    vertex -27.401523707344143 137.9448443538876 4.673039478174003
    vertex -33.09292175314795 95.08116166924465 4.673039478174
    vertex -27.401523707344143 99.94484435388756 4.673039478174003
  endloop
endfacet
facet normal 0.0 0.0 1.0
  outer loop
    vertex -27.401523707344143 137.9448443538876 4.673039478174003
    vertex -27.401523707344143 99.94484435388756 4.673039478174003
    vertex -27.401523707344143 102.94484435388756 4.673039478174003
  endloop
endfacet
facet normal 0.0 0.0 1.0
  outer loop
    vertex -27.401523707344143 137.9448443538876 4.673039478174003
    vertex -27.401523707344143 102.94484435388756 4.673039478174003
    vertex -27.401523707344143 106.94484435388755 4.673039478174003
  endloop
endfacet
facet normal 0.0 0.0 1.0
  outer loop
    vertex -27.401523707344143 137.9448443538876 4.673039478174003
    vertex -27.401523707344143 106.94484435388755 4.673039478174003
    vertex -27.401523707344143 109.94484435388759 4.673039478174003
  endloop
endfacet
facet normal 0.0 0.0 1.0
  outer loop
    vertex -27.401523707344143 137.9448443538876 4.673039478174003
    vertex -27.401523707344143 109.94484435388759 4.673039478174003
    vertex -27.401523707344143 113.94484435388758 4.673039478174003
  endloop
endfacet
facet normal 0.0 0.0 1.0
  outer loop
    vertex -27.401523707344143 137.9448443538876 4.673039478174003
    vertex -27.401523707344143 113.94484435388758 4.673039478174003
    vertex -27.401523707344143 116.94484435388758 4.673039478174003
  endloop
endfacet
facet normal 0.0 0.0 1.0
  outer loop
    vertex -27.401523707344143 137.9448443538876 4.673039478174003
    vertex -27.401523707344143 116.94484435388758 4.673039478174003
    vertex -27.401523707344143 120.94484435388758 4.673039478174003
  endloop
endfacet
facet normal 0.0 0.0 1.0
  outer loop
    vertex -27.401523707344143 137.9448443538876 4.673039478174003
    vertex -27.401523707344143 120.94484435388758 4.673039478174003
    vertex -27.401523707344143 123.94484435388756 4.673039478174003
  endloop
endfacet
facet normal 0.0 0.0 1.0
  outer loop
    vertex -27.401523707344143 137.9448443538876 4.673039478174003
    vertex -27.401523707344143 123.94484435388756 4.673039478174003
    vertex -27.401523707344143 127.94484435388756 4.673039478174003
  endloop
endfacet
facet normal 0.0 0.0 1.0
  outer loop
    vertex -27.401523707344143 137.9448443538876 4.673039478174003
    vertex -27.401523707344143 127.94484435388756 4.673039478174003
    vertex -27.401523707344143 130.9448443538876 4.673039478174003
  endloop
endfacet
facet normal 0.0 0.0 1.0
  outer loop
    vertex -27.401523707344143 137.9448443538876 4.673039478174003
    vertex -27.401523707344143 130.9448443538876 4.673039478174003
    vertex -27.401523707344143 134.9448443538876 4.673039478174003
  endloop
endfacet
facet normal 0.0 0.0 1.0
  outer loop
    vertex 67.29463065829457 142.21582854563647 4.673039478174
    vertex -27.401523707344143 137.9448443538876 4.673039478174003
    vertex 61.845864292655826 137.9448443538876 4.673039478174003
  endloop
endfacet
facet normal 0.0 0.0 1.0
  outer loop
    vertex 67.29463065829457 142.21582854563647 4.673039478174
    vertex 61.845864292655826 137.9448443538876 4.673039478174003
    vertex 62.065378292655836 102.94484435388756 4.673039478174003
  endloop
endfacet
facet normal 0.0 0.0 1.0
  outer loop
    vertex 61.845864292655826 130.9448443538876 4.673039478174003
    vertex -27.401523707344143 134.9448443538876 4.673039478174003
    vertex -27.401523707344143 130.9448443538876 4.673039478174003
  endloop
endfacet
facet normal 0.0 0.0 1.0
  outer loop
    vertex -27.401523707344143 134.9448443538876 4.673039478174003
    vertex 61.845864292655826 130.9448443538876 4.673039478174003
    vertex 61.845864292655826 134.9448443538876 4.673039478174003
  endloop
endfacet
facet normal 0.0 0.0 1.0
  outer loop
    vertex 61.845864292655826 123.94484435388756 4.673039478174003
    vertex -27.401523707344143 127.94484435388756 4.673039478174003
    vertex -27.401523707344143 123.94484435388756 4.673039478174003
  endloop
endfacet
facet normal 0.0 0.0 1.0
  outer loop
    vertex -27.401523707344143 127.94484435388756 4.673039478174003
    vertex 61.845864292655826 123.94484435388756 4.673039478174003
    vertex 61.845864292655826 127.94484435388756 4.673039478174003
  endloop
endfacet
facet normal 0.0 0.0 1.0
  outer loop
    vertex 61.845864292655826 116.94484435388758 4.673039478174003
    vertex -27.401523707344143 120.94484435388758 4.673039478174003
    vertex -27.401523707344143 116.94484435388758 4.673039478174003
  endloop
endfacet
facet normal 0.0 0.0 1.0
  outer loop
    vertex -27.401523707344143 120.94484435388758 4.673039478174003
    vertex 61.845864292655826 116.94484435388758 4.673039478174003
    vertex 61.845864292655826 120.94484435388758 4.673039478174003
  endloop
endfacet
facet normal 0.0 0.0 1.0
  outer loop
    vertex 61.845864292655826 109.94484435388759 4.673039478174003
    vertex -27.401523707344143 113.94484435388758 4.673039478174003
    vertex -27.401523707344143 109.94484435388759 4.673039478174003
  endloop
endfacet
facet normal 0.0 0.0 1.0
  outer loop
    vertex -27.401523707344143 113.94484435388758 4.673039478174003
    vertex 61.845864292655826 109.94484435388759 4.673039478174003
    vertex 61.845864292655826 113.94484435388758 4.673039478174003
  endloop
endfacet
facet normal 1.0 0.0 0.0
  outer loop
    vertex -27.401523707344143 109.94484435388759 1.7265355948179089
    vertex -27.401523707344143 106.94484435388755 4.673039478174003
    vertex -27.401523707344143 106.94484435388755 1.7265355948179082
  endloop
endfacet
facet normal 1.0 0.0 0.0
  outer loop
    vertex -27.401523707344143 106.94484435388755 4.673039478174003
    vertex -27.401523707344143 109.94484435388759 1.7265355948179089
    vertex -27.401523707344143 109.94484435388759 4.673039478174003
  endloop
endfacet
facet normal 1.0 0.0 0.0
  outer loop
    vertex -27.401523707344143 116.94484435388758 1.7265355948179075
    vertex -27.401523707344143 113.94484435388758 4.673039478174003
    vertex -27.401523707344143 113.94484435388758 1.7265355948179075
  endloop
endfacet
facet normal 1.0 0.0 0.0
  outer loop
    vertex -27.401523707344143 113.94484435388758 4.673039478174003
    vertex -27.401523707344143 116.94484435388758 1.7265355948179075
    vertex -27.401523707344143 116.94484435388758 4.673039478174003
  endloop
endfacet
facet normal -0.0009129928354166154 -0.9999995832219545 0.0
  outer loop
    vertex -33.09292175314795 95.08116166924465 4.673039478174
    vertex -33.09292175314795 95.08116166924465 1.7265355948179077
    vertex 66.4196815304024 94.99030733754701 1.7265355948179077
  endloop
endfacet
facet normal 1.0 0.0 0.0
  outer loop
    vertex -27.401523707344143 102.94484435388756 1.7265355948179075
    vertex -27.401523707344143 99.94484435388756 4.673039478174003
    vertex -27.401523707344143 99.94484435388756 1.7265355948179075
  endloop
endfacet
facet normal 1.0 0.0 0.0
  outer loop
    vertex -27.401523707344143 99.94484435388756 4.673039478174003
    vertex -27.401523707344143 102.94484435388756 1.7265355948179075
    vertex -27.401523707344143 102.94484435388756 4.673039478174003
  endloop
endfacet
facet normal -1.4026982865731538e-06 0.9999999999990163 0.0
  outer loop
    vertex -33.093586625169216 142.21568773125608 4.673039478174
    vertex 67.29463065829457 142.21582854563647 1.7265355948179077
    vertex -33.093586625169216 142.21568773125608 1.7265355948179077
  endloop
endfacet
facet normal -1.4026982865731538e-06 0.9999999999990163 0.0
  outer loop
    vertex 67.29463065829457 142.21582854563647 1.7265355948179077
    vertex -33.093586625169216 142.21568773125608 4.673039478174
    vertex 67.29463065829457 142.21582854563647 4.673039478174
  endloop
endfacet
facet normal 0.0 1.0 0.0
  outer loop
    vertex -27.401523707344143 99.94484435388756 4.673039478174003
    vertex 62.065378292655836 99.94484435388756 1.7265355948179075
    vertex -27.401523707344143 99.94484435388756 1.7265355948179075
  endloop
endfacet
facet normal 0.0 1.0 0.0
  outer loop
    vertex 62.065378292655836 99.94484435388756 1.7265355948179075
    vertex -27.401523707344143 99.94484435388756 4.673039478174003
    vertex 62.065378292655836 99.94484435388756 4.673039478174003
  endloop
endfacet
facet normal 0.0 -1.0 0.0
  outer loop
    vertex 61.845864292655826 116.94484435388758 4.673039478174003
    vertex -27.401523707344143 116.94484435388758 1.7265355948179075
    vertex 61.845864292655826 116.94484435388758 1.7265355948179075
  endloop
endfacet
facet normal 0.0 -1.0 0.0
  outer loop
    vertex -27.401523707344143 116.94484435388758 1.7265355948179075
    vertex 61.845864292655826 116.94484435388758 4.673039478174003
    vertex -27.401523707344143 116.94484435388758 4.673039478174003
  endloop
endfacet
facet normal -0.000904836752116817 -0.999999585348197 0.00010282940279898713
  outer loop
    vertex 67.29529553031563 94.99031966502137 4.673039478174
    vertex 66.4196815304024 94.99030733754701 1.7265355948179077
    vertex 67.29529553031563 94.99031966502137 1.7265355948179077
  endloop
endfacet
facet normal -0.000904836752116817 -0.999999585348197 0.00010282940279898713
  outer loop
    vertex 66.4196815304024 94.99030733754701 1.7265355948179077
    vertex 67.29529553031563 94.99031966502137 4.673039478174
    vertex -33.09292175314795 95.08116166924465 4.673039478174
  endloop
endfacet
facet normal 1.0 0.0 0.0
  outer loop
    vertex -27.401523707344143 123.94484435388756 1.7265355948179075
    vertex -27.401523707344143 120.94484435388758 4.673039478174003
    vertex -27.401523707344143 120.94484435388758 1.7265355948179075
  endloop
endfacet
facet normal 1.0 0.0 0.0
  outer loop
    vertex -27.401523707344143 120.94484435388758 4.673039478174003
    vertex -27.401523707344143 123.94484435388756 1.7265355948179075
    vertex -27.401523707344143 123.94484435388756 4.673039478174003
  endloop
endfacet
facet normal -1.0 0.0 0.0
  outer loop
    vertex 61.845864292655826 109.94484435388759 4.673039478174003
    vertex 61.845864292655826 106.94484435388755 1.7265355948179075
    vertex 61.845864292655826 106.94484435388755 4.673039478174003
  endloop
endfacet
facet normal -1.0 0.0 0.0
  outer loop
    vertex 61.845864292655826 106.94484435388755 1.7265355948179075
    vertex 61.845864292655826 109.94484435388759 4.673039478174003
    vertex 61.845864292655826 109.94484435388759 1.7265355948179075
  endloop
endfacet
facet normal -1.0 0.0 0.0
  outer loop
    vertex 61.845864292655826 116.94484435388758 4.673039478174003
    vertex 61.845864292655826 113.94484435388758 1.7265355948179075
    vertex 61.845864292655826 113.94484435388758 4.673039478174003
  endloop
endfacet
facet normal -1.0 0.0 0.0
  outer loop
    vertex 61.845864292655826 113.94484435388758 1.7265355948179075
    vertex 61.845864292655826 116.94484435388758 4.673039478174003
    vertex 61.845864292655826 116.94484435388758 1.7265355948179075
  endloop
endfacet
facet normal 0.0 1.0 0.0
  outer loop
    vertex -27.401523707344143 106.94484435388755 1.7265355948179082
    vertex 61.845864292655826 106.94484435388755 4.673039478174003
    vertex 61.845864292655826 106.94484435388755 1.7265355948179075
  endloop
endfacet
facet normal 0.0 1.0 0.0
  outer loop
    vertex 61.845864292655826 106.94484435388755 4.673039478174003
    vertex -27.401523707344143 106.94484435388755 1.7265355948179082
    vertex -27.401523707344143 106.94484435388755 4.673039478174003
  endloop
endfacet
facet normal 0.0 -1.0 0.0
  outer loop
    vertex 61.845864292655826 137.9448443538876 4.673039478174003
    vertex -27.401523707344143 137.9448443538876 1.7265355948179075
    vertex 61.845864292655826 137.9448443538876 1.7265355948179075
  endloop
endfacet
facet normal 0.0 -1.0 0.0
  outer loop
    vertex -27.401523707344143 137.9448443538876 1.7265355948179075
    vertex 61.845864292655826 137.9448443538876 4.673039478174003
    vertex -27.401523707344143 137.9448443538876 4.673039478174003
  endloop
endfacet
facet normal 1.0 0.0 0.0
  outer loop
    vertex -27.401523707344143 137.9448443538876 1.7265355948179075
    vertex -27.401523707344143 134.9448443538876 4.673039478174003
    vertex -27.401523707344143 134.9448443538876 1.7265355948179075
  endloop
endfacet
facet normal 1.0 0.0 0.0
  outer loop
    vertex -27.401523707344143 134.9448443538876 4.673039478174003
    vertex -27.401523707344143 137.9448443538876 1.7265355948179075
    vertex -27.401523707344143 137.9448443538876 4.673039478174003
  endloop
endfacet
facet normal 0.0 -1.0 0.0
  outer loop
    vertex 61.845864292655826 123.94484435388756 4.673039478174003
    vertex -27.401523707344143 123.94484435388756 1.7265355948179075
    vertex 61.845864292655826 123.94484435388756 1.7265355948179075
  endloop
endfacet
facet normal 0.0 -1.0 0.0
  outer loop
    vertex -27.401523707344143 123.94484435388756 1.7265355948179075
    vertex 61.845864292655826 123.94484435388756 4.673039478174003
    vertex -27.401523707344143 123.94484435388756 4.673039478174003
  endloop
endfacet
facet normal 0.9999999999008957 1.4078662925114856e-05 0.0
  outer loop
    vertex 67.29463065829457 142.21582854563647 1.7265355948179077
    vertex 67.29529553031563 94.99031966502137 4.673039478174
    vertex 67.29529553031563 94.99031966502137 1.7265355948179077
  endloop
endfacet
facet normal 0.9999999999008957 1.4078662925114856e-05 0.0
  outer loop
    vertex 67.29529553031563 94.99031966502137 4.673039478174
    vertex 67.29463065829457 142.21582854563647 1.7265355948179077
    vertex 67.29463065829457 142.21582854563647 4.673039478174
  endloop
endfacet
facet normal -1.0 0.0 0.0
  outer loop
    vertex 61.845864292655826 130.9448443538876 4.673039478174003
    vertex 61.845864292655826 127.94484435388756 1.7265355948179075
    vertex 61.845864292655826 127.94484435388756 4.673039478174003
  endloop
endfacet
facet normal -1.0 0.0 0.0
  outer loop
    vertex 61.845864292655826 127.94484435388756 1.7265355948179075
    vertex 61.845864292655826 130.9448443538876 4.673039478174003
    vertex 61.845864292655826 130.9448443538876 1.7265355948179075
  endloop
endfacet
facet normal 0.0 -1.0 0.0
  outer loop
    vertex 61.845864292655826 130.9448443538876 4.673039478174003
    vertex -27.401523707344143 130.9448443538876 1.7265355948179075
    vertex 61.845864292655826 130.9448443538876 1.7265355948179075
  endloop
endfacet
facet normal 0.0 -1.0 0.0
  outer loop
    vertex -27.401523707344143 130.9448443538876 1.7265355948179075
    vertex 61.845864292655826 130.9448443538876 4.673039478174003
    vertex -27.401523707344143 130.9448443538876 4.673039478174003
  endloop
endfacet
facet normal 0.0 1.0 0.0
  outer loop
    vertex -27.401523707344143 120.94484435388758 4.673039478174003
    vertex 61.845864292655826 120.94484435388758 1.7265355948179075
    vertex -27.401523707344143 120.94484435388758 1.7265355948179075
  endloop
endfacet
facet normal 0.0 1.0 0.0
  outer loop
    vertex 61.845864292655826 120.94484435388758 1.7265355948179075
    vertex -27.401523707344143 120.94484435388758 4.673039478174003
    vertex 61.845864292655826 120.94484435388758 4.673039478174003
  endloop
endfacet
facet normal -1.0 0.0 0.0
  outer loop
    vertex 61.845864292655826 137.9448443538876 4.673039478174003
    vertex 61.845864292655826 134.9448443538876 1.7265355948179075
    vertex 61.845864292655826 134.9448443538876 4.673039478174003
  endloop
endfacet
facet normal -1.0 0.0 0.0
  outer loop
    vertex 61.845864292655826 134.9448443538876 1.7265355948179075
    vertex 61.845864292655826 137.9448443538876 4.673039478174003
    vertex 61.845864292655826 137.9448443538876 1.7265355948179075
  endloop
endfacet
facet normal 0.0 1.0 0.0
  outer loop
    vertex -27.401523707344143 127.94484435388756 4.673039478174003
    vertex 61.845864292655826 127.94484435388756 1.7265355948179075
    vertex -27.401523707344143 127.94484435388756 1.7265355948179075
  endloop
endfacet
facet normal 0.0 1.0 0.0
  outer loop
    vertex 61.845864292655826 127.94484435388756 1.7265355948179075
    vertex -27.401523707344143 127.94484435388756 4.673039478174003
    vertex 61.845864292655826 127.94484435388756 4.673039478174003
  endloop
endfacet
facet normal -1.0 0.0 0.0
  outer loop
    vertex 62.065378292655836 102.94484435388756 4.673039478174003
    vertex 62.065378292655836 99.94484435388756 1.7265355948179075
    vertex 62.065378292655836 99.94484435388756 4.673039478174003
  endloop
endfacet
facet normal -1.0 0.0 0.0
  outer loop
    vertex 62.065378292655836 99.94484435388756 1.7265355948179075
    vertex 62.065378292655836 102.94484435388756 4.673039478174003
    vertex 62.065378292655836 102.94484435388756 1.7265355948179075
  endloop
endfacet
facet normal 0.0 -1.0 0.0
  outer loop
    vertex 61.845864292655826 109.94484435388759 4.673039478174003
    vertex -27.401523707344143 109.94484435388759 1.7265355948179089
    vertex 61.845864292655826 109.94484435388759 1.7265355948179075
  endloop
endfacet
facet normal 0.0 -1.0 0.0
  outer loop
    vertex -27.401523707344143 109.94484435388759 1.7265355948179089
    vertex 61.845864292655826 109.94484435388759 4.673039478174003
    vertex -27.401523707344143 109.94484435388759 4.673039478174003
  endloop
endfacet
facet normal 0.0 1.0 0.0
  outer loop
    vertex -27.401523707344143 134.9448443538876 4.673039478174003
    vertex 61.845864292655826 134.9448443538876 1.7265355948179075
    vertex -27.401523707344143 134.9448443538876 1.7265355948179075
  endloop
endfacet
facet normal 0.0 1.0 0.0
  outer loop
    vertex 61.845864292655826 134.9448443538876 1.7265355948179075
    vertex -27.401523707344143 134.9448443538876 4.673039478174003
    vertex 61.845864292655826 134.9448443538876 4.673039478174003
  endloop
endfacet
facet normal 0.0 -1.0 0.0
  outer loop
    vertex 62.065378292655836 102.94484435388756 4.673039478174003
    vertex -27.401523707344143 102.94484435388756 1.7265355948179075
    vertex 62.065378292655836 102.94484435388756 1.7265355948179075
  endloop
endfacet
facet normal 0.0 -1.0 0.0
  outer loop
    vertex -27.401523707344143 102.94484435388756 1.7265355948179075
    vertex 62.065378292655836 102.94484435388756 4.673039478174003
    vertex -27.401523707344143 102.94484435388756 4.673039478174003
  endloop
endfacet
facet normal 0.0 1.0 0.0
  outer loop
    vertex -27.401523707344143 113.94484435388758 4.673039478174003
    vertex 61.845864292655826 113.94484435388758 1.7265355948179075
    vertex -27.401523707344143 113.94484435388758 1.7265355948179075
  endloop
endfacet
facet normal 0.0 1.0 0.0
  outer loop
    vertex 61.845864292655826 113.94484435388758 1.7265355948179075
    vertex -27.401523707344143 113.94484435388758 4.673039478174003
    vertex 61.845864292655826 113.94484435388758 4.673039478174003
  endloop
endfacet
facet normal 1.0 0.0 0.0
  outer loop
    vertex -27.401523707344143 130.9448443538876 1.7265355948179075
    vertex -27.401523707344143 127.94484435388756 4.673039478174003
    vertex -27.401523707344143 127.94484435388756 1.7265355948179075
  endloop
endfacet
facet normal 1.0 0.0 0.0
  outer loop
    vertex -27.401523707344143 127.94484435388756 4.673039478174003
    vertex -27.401523707344143 130.9448443538876 1.7265355948179075
    vertex -27.401523707344143 130.9448443538876 4.673039478174003
  endloop
endfacet
facet normal -1.0 0.0 0.0
  outer loop
    vertex 61.845864292655826 123.94484435388756 4.673039478174003
    vertex 61.845864292655826 120.94484435388758 1.7265355948179075
    vertex 61.845864292655826 120.94484435388758 4.673039478174003
  endloop
endfacet
facet normal -1.0 0.0 0.0
  outer loop
    vertex 61.845864292655826 120.94484435388758 1.7265355948179075
    vertex 61.845864292655826 123.94484435388756 4.673039478174003
    vertex 61.845864292655826 123.94484435388756 1.7265355948179075
  endloop
endfacet
facet normal 0.0 0.0 -1.0
  outer loop
    vertex -33.093586625169216 142.21568773125608 1.7265355948179077
    vertex -27.401523707344143 137.9448443538876 1.7265355948179075
    vertex -33.09292175314795 95.08116166924465 1.7265355948179077
  endloop
endfacet
facet normal 0.0 0.0 -1.0
  outer loop
    vertex -27.401523707344143 137.9448443538876 1.7265355948179075
    vertex -33.093586625169216 142.21568773125608 1.7265355948179077
    vertex 67.29463065829457 142.21582854563647 1.7265355948179077
  endloop
endfacet
facet normal 0.0 0.0 -1.0
  outer loop
    vertex -27.401523707344143 137.9448443538876 1.7265355948179075
    vertex 67.29463065829457 142.21582854563647 1.7265355948179077
    vertex 61.845864292655826 137.9448443538876 1.7265355948179075
  endloop
endfacet
facet normal 0.0 0.0 -1.0
  outer loop
    vertex 61.845864292655826 137.9448443538876 1.7265355948179075
    vertex 67.29463065829457 142.21582854563647 1.7265355948179077
    vertex 61.845864292655826 134.9448443538876 1.7265355948179075
  endloop
endfacet
facet normal 0.0 0.0 -1.0
  outer loop
    vertex 61.845864292655826 134.9448443538876 1.7265355948179075
    vertex 67.29463065829457 142.21582854563647 1.7265355948179077
    vertex 61.845864292655826 130.9448443538876 1.7265355948179075
  endloop
endfacet
facet normal 0.0 0.0 -1.0
  outer loop
    vertex 61.845864292655826 130.9448443538876 1.7265355948179075
    vertex 67.29463065829457 142.21582854563647 1.7265355948179077
    vertex 61.845864292655826 127.94484435388756 1.7265355948179075
  endloop
endfacet
facet normal 0.0 0.0 -1.0
  outer loop
    vertex 61.845864292655826 127.94484435388756 1.7265355948179075
    vertex 67.29463065829457 142.21582854563647 1.7265355948179077
    vertex 61.845864292655826 123.94484435388756 1.7265355948179075
  endloop
endfacet
facet normal 0.0 0.0 -1.0
  outer loop
    vertex 61.845864292655826 123.94484435388756 1.7265355948179075
    vertex 67.29463065829457 142.21582854563647 1.7265355948179077
    vertex 61.845864292655826 120.94484435388758 1.7265355948179075
  endloop
endfacet
facet normal 0.0 0.0 -1.0
  outer loop
    vertex 61.845864292655826 120.94484435388758 1.7265355948179075
    vertex 67.29463065829457 142.21582854563647 1.7265355948179077
    vertex 61.845864292655826 116.94484435388758 1.7265355948179075
  endloop
endfacet
facet normal 0.0 0.0 -1.0
  outer loop
    vertex 61.845864292655826 116.94484435388758 1.7265355948179075
    vertex 67.29463065829457 142.21582854563647 1.7265355948179077
    vertex 61.845864292655826 113.94484435388758 1.7265355948179075
  endloop
endfacet
facet normal 0.0 0.0 -1.0
  outer loop
    vertex 61.845864292655826 113.94484435388758 1.7265355948179075
    vertex 67.29463065829457 142.21582854563647 1.7265355948179077
    vertex 61.845864292655826 109.94484435388759 1.7265355948179075
  endloop
endfacet
facet normal 0.0 0.0 -1.0
  outer loop
    vertex 61.845864292655826 109.94484435388759 1.7265355948179075
    vertex 67.29463065829457 142.21582854563647 1.7265355948179077
    vertex 61.845864292655826 106.94484435388755 1.7265355948179075
  endloop
endfacet
facet normal 0.0 0.0 -1.0
  outer loop
    vertex 61.845864292655826 106.94484435388755 1.7265355948179075
    vertex 67.29463065829457 142.21582854563647 1.7265355948179077
    vertex 62.065378292655836 102.94484435388756 1.7265355948179075
  endloop
endfacet
facet normal 0.0 0.0 -1.0
  outer loop
    vertex 62.065378292655836 102.94484435388756 1.7265355948179075
    vertex 67.29463065829457 142.21582854563647 1.7265355948179077
    vertex 62.065378292655836 99.94484435388756 1.7265355948179075
  endloop
endfacet
facet normal 0.0 0.0 -1.0
  outer loop
    vertex 62.065378292655836 99.94484435388756 1.7265355948179075
    vertex 67.29463065829457 142.21582854563647 1.7265355948179077
    vertex 66.4196815304024 94.99030733754701 1.7265355948179077
  endloop
endfacet
facet normal 0.0 0.0 -1.0
  outer loop
    vertex 66.4196815304024 94.99030733754701 1.7265355948179077
    vertex 67.29463065829457 142.21582854563647 1.7265355948179077
    vertex 67.29529553031563 94.99031966502137 1.7265355948179077
  endloop
endfacet
facet normal 0.0 0.0 -1.0
  outer loop
    vertex -33.09292175314795 95.08116166924465 1.7265355948179077
    vertex -27.401523707344143 99.94484435388756 1.7265355948179075
    vertex 66.4196815304024 94.99030733754701 1.7265355948179077
  endloop
endfacet
facet normal 0.0 0.0 -1.0
  outer loop
    vertex -27.401523707344143 99.94484435388756 1.7265355948179075
    vertex -33.09292175314795 95.08116166924465 1.7265355948179077
    vertex -27.401523707344143 137.9448443538876 1.7265355948179075
  endloop
endfacet
facet normal 0.0 0.0 -1.0
  outer loop
    vertex -27.401523707344143 99.94484435388756 1.7265355948179075
    vertex -27.401523707344143 137.9448443538876 1.7265355948179075
    vertex -27.401523707344143 134.9448443538876 1.7265355948179075
  endloop
endfacet
facet normal 0.0 0.0 -1.0
  outer loop
    vertex -27.401523707344143 99.94484435388756 1.7265355948179075
    vertex -27.401523707344143 134.9448443538876 1.7265355948179075
    vertex -27.401523707344143 130.9448443538876 1.7265355948179075
  endloop
endfacet
facet normal 0.0 0.0 -1.0
  outer loop
    vertex -27.401523707344143 99.94484435388756 1.7265355948179075
    vertex -27.401523707344143 130.9448443538876 1.7265355948179075
    vertex -27.401523707344143 127.94484435388756 1.7265355948179075
  endloop
endfacet
facet normal 0.0 0.0 -1.0
  outer loop
    vertex -27.401523707344143 99.94484435388756 1.7265355948179075
    vertex -27.401523707344143 127.94484435388756 1.7265355948179075
    vertex -27.401523707344143 123.94484435388756 1.7265355948179075
  endloop
endfacet
facet normal 0.0 0.0 -1.0
  outer loop
    vertex -27.401523707344143 99.94484435388756 1.7265355948179075
    vertex -27.401523707344143 123.94484435388756 1.7265355948179075
    vertex -27.401523707344143 120.94484435388758 1.7265355948179075
  endloop
endfacet
facet normal 0.0 0.0 -1.0
  outer loop
    vertex -27.401523707344143 99.94484435388756 1.7265355948179075
    vertex -27.401523707344143 120.94484435388758 1.7265355948179075
    vertex -27.401523707344143 116.94484435388758 1.7265355948179075
  endloop
endfacet
facet normal 0.0 0.0 -1.0
  outer loop
    vertex -27.401523707344143 99.94484435388756 1.7265355948179075
    vertex -27.401523707344143 116.94484435388758 1.7265355948179075
    vertex -27.401523707344143 113.94484435388758 1.7265355948179075
  endloop
endfacet
facet normal 0.0 0.0 -1.0
  outer loop
    vertex -27.401523707344143 99.94484435388756 1.7265355948179075
    vertex -27.401523707344143 113.94484435388758 1.7265355948179075
    vertex -27.401523707344143 109.94484435388759 1.7265355948179089
  endloop
endfacet
facet normal 0.0 0.0 -1.0
  outer loop
    vertex -27.401523707344143 99.94484435388756 1.7265355948179075
    vertex -27.401523707344143 109.94484435388759 1.7265355948179089
    vertex -27.401523707344143 106.94484435388755 1.7265355948179082
  endloop
endfacet
facet normal 0.0 0.0 -1.0
  outer loop
    vertex -27.401523707344143 99.94484435388756 1.7265355948179075
    vertex -27.401523707344143 106.94484435388755 1.7265355948179082
    vertex -27.401523707344143 102.94484435388756 1.7265355948179075
  endloop
endfacet
facet normal 0.0 0.0 -1.0
  outer loop
    vertex 66.4196815304024 94.99030733754701 1.7265355948179077
    vertex -27.401523707344143 99.94484435388756 1.7265355948179075
    vertex 62.065378292655836 99.94484435388756 1.7265355948179075
  endloop
endfacet
facet normal 0.0 0.0 -1.0
  outer loop
    vertex 61.845864292655826 106.94484435388755 1.7265355948179075
    vertex -27.401523707344143 102.94484435388756 1.7265355948179075
    vertex -27.401523707344143 106.94484435388755 1.7265355948179082
  endloop
endfacet
facet normal 0.0 0.0 -1.0
  outer loop
    vertex -27.401523707344143 102.94484435388756 1.7265355948179075
    vertex 61.845864292655826 106.94484435388755 1.7265355948179075
    vertex 62.065378292655836 102.94484435388756 1.7265355948179075
  endloop
endfacet
facet normal 0.0 0.0 -1.0
  outer loop
    vertex 61.845864292655826 113.94484435388758 1.7265355948179075
    vertex -27.401523707344143 109.94484435388759 1.7265355948179089
    vertex -27.401523707344143 113.94484435388758 1.7265355948179075
  endloop
endfacet
facet normal 0.0 0.0 -1.0
  outer loop
    vertex -27.401523707344143 109.94484435388759 1.7265355948179089
    vertex 61.845864292655826 113.94484435388758 1.7265355948179075
    vertex 61.845864292655826 109.94484435388759 1.7265355948179075
  endloop
endfacet
facet normal 0.0 0.0 -1.0
  outer loop
    vertex 61.845864292655826 120.94484435388758 1.7265355948179075
    vertex -27.401523707344143 116.94484435388758 1.7265355948179075
    vertex -27.401523707344143 120.94484435388758 1.7265355948179075
  endloop
endfacet
facet normal 0.0 0.0 -1.0
  outer loop
    vertex -27.401523707344143 116.94484435388758 1.7265355948179075
    vertex 61.845864292655826 120.94484435388758 1.7265355948179075
    vertex 61.845864292655826 116.94484435388758 1.7265355948179075
  endloop
endfacet
facet normal 0.0 0.0 -1.0
  outer loop
    vertex 61.845864292655826 127.94484435388756 1.7265355948179075
    vertex -27.401523707344143 123.94484435388756 1.7265355948179075
    vertex -27.401523707344143 127.94484435388756 1.7265355948179075
  endloop
endfacet
facet normal 0.0 0.0 -1.0
  outer loop
    vertex -27.401523707344143 123.94484435388756 1.7265355948179075
    vertex 61.845864292655826 127.94484435388756 1.7265355948179075
    vertex 61.845864292655826 123.94484435388756 1.7265355948179075
  endloop
endfacet
facet normal 0.0 0.0 -1.0
  outer loop
    vertex 61.845864292655826 134.9448443538876 1.7265355948179075
    vertex -27.401523707344143 130.9448443538876 1.7265355948179075
    vertex -27.401523707344143 134.9448443538876 1.7265355948179075
  endloop
endfacet
facet normal 0.0 0.0 -1.0
  outer loop
    vertex -27.401523707344143 130.9448443538876 1.7265355948179075
    vertex 61.845864292655826 134.9448443538876 1.7265355948179075
    vertex 61.845864292655826 130.9448443538876 1.7265355948179075
  endloop
endfacet
endsolid AutoSave_AutoSave_AutoSave_AutoSave_AutoSave_AutoSave_mousepusher 0506
