solid Untitled-6259c870
facet normal 0.0 -1.0 0.0
  outer loop
    vertex 177.2228507726807 -24.22634324535447 6.499999999999998
    vertex 166.38576601503686 -24.22634324535447 1.5
    vertex 177.2228507726807 -24.22634324535447 1.5
  endloop
endfacet
facet normal 0.0 -1.0 0.0
  outer loop
    vertex 166.38576601503686 -24.22634324535447 1.5
    vertex 177.2228507726807 -24.22634324535447 6.499999999999998
    vertex 166.38576601503686 -24.22634324535447 6.499999999999998
  endloop
endfacet
facet normal 0.0 0.0 -1.0
  outer loop
    vertex 177.2228507726807 44.03134975464553 1.5
    vertex 128.2228507726807 -15.968650245354446 1.5
    vertex 128.2228507726807 44.03134975464553 1.5
  endloop
endfacet
facet normal 0.0 0.0 -1.0
  outer loop
    vertex 128.2228507726807 -15.968650245354446 1.5
    vertex 177.2228507726807 44.03134975464553 1.5
    vertex 166.38576601503686 -15.968650245354446 1.5
  endloop
endfacet
facet normal 0.0 0.0 -1.0
  outer loop
    vertex 166.38576601503686 -15.968650245354446 1.5
    vertex 177.2228507726807 44.03134975464553 1.5
    vertex 166.38576601503686 -24.22634324535447 1.5
  endloop
endfacet
facet normal 0.0 0.0 -1.0
  outer loop
    vertex 166.38576601503686 -24.22634324535447 1.5
    vertex 177.2228507726807 44.03134975464553 1.5
    vertex 177.2228507726807 -24.22634324535447 1.5
  endloop
endfacet
facet normal 0.0 1.0 0.0
  outer loop
    vertex 128.2228507726807 44.03134975464553 6.499999999999998
    vertex 177.2228507726807 44.03134975464553 1.5
    vertex 128.2228507726807 44.03134975464553 1.5
  endloop
endfacet
facet normal 0.0 1.0 0.0
  outer loop
    vertex 177.2228507726807 44.03134975464553 1.5
    vertex 128.2228507726807 44.03134975464553 6.499999999999998
    vertex 177.2228507726807 44.03134975464553 6.499999999999998
  endloop
endfacet
facet normal -1.0 0.0 0.0
  outer loop
    vertex 128.2228507726807 -11.123203487025235 6.999999999999997
    vertex 128.2228507726807 -12.968650245354407 6.499999999999998
    vertex 128.2228507726807 -12.968650245354407 6.999999999999997
  endloop
endfacet
facet normal -1.0 0.0 0.0
  outer loop
    vertex 128.2228507726807 -12.968650245354407 6.499999999999998
    vertex 128.2228507726807 -15.968650245354446 1.5
    vertex 128.2228507726807 -15.968650245354446 6.499999999999998
  endloop
endfacet
facet normal -1.0 0.0 0.0
  outer loop
    vertex 128.2228507726807 -15.968650245354446 1.5
    vertex 128.2228507726807 -12.968650245354407 6.499999999999998
    vertex 128.2228507726807 44.03134975464553 1.5
  endloop
endfacet
facet normal -1.0 0.0 0.0
  outer loop
    vertex 128.2228507726807 44.03134975464553 1.5
    vertex 128.2228507726807 -12.968650245354407 6.499999999999998
    vertex 128.2228507726807 -11.123203487025235 6.499999999999998
  endloop
endfacet
facet normal -1.0 0.0 0.0
  outer loop
    vertex 128.2228507726807 -11.123203487025235 6.499999999999998
    vertex 128.2228507726807 -12.968650245354407 6.499999999999998
    vertex 128.2228507726807 -11.123203487025235 6.999999999999997
  endloop
endfacet
facet normal -1.0 0.0 0.0
  outer loop
    vertex 128.2228507726807 44.03134975464553 1.5
    vertex 128.2228507726807 -11.123203487025235 6.499999999999998
    vertex 128.2228507726807 44.03134975464553 6.499999999999998
  endloop
endfacet
facet normal 0.0 0.0 1.0
  outer loop
    vertex 177.2228507726807 -24.22634324535447 6.499999999999998
    vertex 166.38576601503686 -15.968650245354446 6.499999999999998
    vertex 166.38576601503686 -24.22634324535447 6.499999999999998
  endloop
endfacet
facet normal 0.0 0.0 1.0
  outer loop
    vertex 166.38576601503686 -15.968650245354446 6.499999999999998
    vertex 128.2228507726807 -12.968650245354407 6.499999999999998
    vertex 128.2228507726807 -15.968650245354446 6.499999999999998
  endloop
endfacet
facet normal 0.0 0.0 1.0
  outer loop
    vertex 128.2228507726807 -12.968650245354407 6.499999999999998
    vertex 166.38576601503686 -15.968650245354446 6.499999999999998
    vertex 177.2228507726807 -12.968650245354407 6.499999999999998
  endloop
endfacet
facet normal 0.0 0.0 1.0
  outer loop
    vertex 177.2228507726807 -12.968650245354407 6.499999999999998
    vertex 166.38576601503686 -15.968650245354446 6.499999999999998
    vertex 177.2228507726807 -24.22634324535447 6.499999999999998
  endloop
endfacet
facet normal 1.0 0.0 0.0
  outer loop
    vertex 177.2228507726807 44.03134975464553 1.5
    vertex 177.2228507726807 -24.22634324535447 6.499999999999998
    vertex 177.2228507726807 -24.22634324535447 1.5
  endloop
endfacet
facet normal 1.0 0.0 0.0
  outer loop
    vertex 177.2228507726807 -24.22634324535447 6.499999999999998
    vertex 177.2228507726807 44.03134975464553 1.5
    vertex 177.2228507726807 -12.968650245354407 6.499999999999998
  endloop
endfacet
facet normal 1.0 0.0 0.0
  outer loop
    vertex 177.2228507726807 -12.968650245354407 6.499999999999998
    vertex 177.2228507726807 44.03134975464553 1.5
    vertex 177.2228507726807 -11.123203487025235 6.499999999999998
  endloop
endfacet
facet normal 1.0 0.0 0.0
  outer loop
    vertex 177.2228507726807 -12.968650245354407 6.499999999999998
    vertex 177.2228507726807 -11.123203487025235 6.499999999999998
    vertex 177.2228507726807 -12.968650245354407 6.999999999999997
  endloop
endfacet
facet normal 1.0 0.0 0.0
  outer loop
    vertex 177.2228507726807 -11.123203487025235 6.499999999999998
    vertex 177.2228507726807 44.03134975464553 1.5
    vertex 177.2228507726807 44.03134975464553 6.499999999999998
  endloop
endfacet
facet normal 1.0 0.0 0.0
  outer loop
    vertex 177.2228507726807 -11.123203487025235 6.999999999999997
    vertex 177.2228507726807 -12.968650245354407 6.999999999999997
    vertex 177.2228507726807 -11.123203487025235 6.499999999999998
  endloop
endfacet
facet normal 0.0 0.0 1.0
  outer loop
    vertex 177.2228507726807 -12.968650245354407 6.999999999999997
    vertex 128.2228507726807 -11.123203487025235 6.999999999999997
    vertex 128.2228507726807 -12.968650245354407 6.999999999999997
  endloop
endfacet
facet normal 0.0 0.0 1.0
  outer loop
    vertex 128.2228507726807 -11.123203487025235 6.999999999999997
    vertex 177.2228507726807 -12.968650245354407 6.999999999999997
    vertex 177.2228507726807 -11.123203487025235 6.999999999999997
  endloop
endfacet
facet normal 0.0 -1.0 0.0
  outer loop
    vertex 166.38576601503686 -15.968650245354446 6.499999999999998
    vertex 128.2228507726807 -15.968650245354446 1.5
    vertex 166.38576601503686 -15.968650245354446 1.5
  endloop
endfacet
facet normal 0.0 -1.0 0.0
  outer loop
    vertex 128.2228507726807 -15.968650245354446 1.5
    vertex 166.38576601503686 -15.968650245354446 6.499999999999998
    vertex 128.2228507726807 -15.968650245354446 6.499999999999998
  endloop
endfacet
facet normal 0.0 1.0 0.0
  outer loop
    vertex 128.2228507726807 -11.123203487025235 6.999999999999997
    vertex 177.2228507726807 -11.123203487025235 6.499999999999998
    vertex 128.2228507726807 -11.123203487025235 6.499999999999998
  endloop
endfacet
facet normal 0.0 1.0 0.0
  outer loop
    vertex 177.2228507726807 -11.123203487025235 6.499999999999998
    vertex 128.2228507726807 -11.123203487025235 6.999999999999997
    vertex 177.2228507726807 -11.123203487025235 6.999999999999997
  endloop
endfacet
facet normal 0.0 0.0 1.0
  outer loop
    vertex 177.2228507726807 -11.123203487025235 6.499999999999998
    vertex 128.2228507726807 44.03134975464553 6.499999999999998
    vertex 128.2228507726807 -11.123203487025235 6.499999999999998
  endloop
endfacet
facet normal 0.0 0.0 1.0
  outer loop
    vertex 128.2228507726807 44.03134975464553 6.499999999999998
    vertex 177.2228507726807 -11.123203487025235 6.499999999999998
    vertex 177.2228507726807 44.03134975464553 6.499999999999998
  endloop
endfacet
facet normal -1.0 0.0 0.0
  outer loop
    vertex 166.38576601503686 -15.968650245354446 6.499999999999998
    vertex 166.38576601503686 -24.22634324535447 1.5
    vertex 166.38576601503686 -24.22634324535447 6.499999999999998
  endloop
endfacet
facet normal -1.0 0.0 0.0
  outer loop
    vertex 166.38576601503686 -24.22634324535447 1.5
    vertex 166.38576601503686 -15.968650245354446 6.499999999999998
    vertex 166.38576601503686 -15.968650245354446 1.5
  endloop
endfacet
facet normal 0.0 -1.0 0.0
  outer loop
    vertex 177.2228507726807 -12.968650245354407 6.999999999999997
    vertex 128.2228507726807 -12.968650245354407 6.499999999999998
    vertex 177.2228507726807 -12.968650245354407 6.499999999999998
  endloop
endfacet
facet normal 0.0 -1.0 0.0
  outer loop
    vertex 128.2228507726807 -12.968650245354407 6.499999999999998
    vertex 177.2228507726807 -12.968650245354407 6.999999999999997
    vertex 128.2228507726807 -12.968650245354407 6.999999999999997
  endloop
endfacet
endsolid Untitled-6259c870
