solid AutoSave_mousepusher 0506
facet normal 0.0 -1.0 0.0
  outer loop
    vertex 252.1358438581481 36.73861351587256 12.088329718356082
    vertex 190.1358438581481 36.73861351587256 5.588329718356072
    vertex 252.1358438581482 36.73861351587256 5.58832971835605
  endloop
endfacet
facet normal 0.0 -1.0 0.0
  outer loop
    vertex 190.1358438581481 36.73861351587256 5.588329718356072
    vertex 252.1358438581481 36.73861351587256 12.088329718356082
    vertex 190.1358438581481 36.73861351587256 12.088329718356059
  endloop
endfacet
facet normal 0.9999999996596929 -2.4213148905628365e-06 2.5975986079049284e-05
  outer loop
    vertex 252.1358438581482 36.73861351587256 5.58832971835605
    vertex 252.1358438581481 -22.719545079798298 12.088329718356082
    vertex 252.1358438581482 -22.719545079798298 5.58832971835605
  endloop
endfacet
facet normal 0.9999999996596929 -2.4213148905628365e-06 2.5975986079049284e-05
  outer loop
    vertex 252.1358438581481 -22.719545079798298 12.088329718356082
    vertex 252.1358438581482 36.73861351587256 5.58832971835605
    vertex 252.1358438581481 -17.628203031793646 12.088329718356071
  endloop
endfacet
facet normal 0.9999999996596929 -2.4213148905628365e-06 2.5975986079049284e-05
  outer loop
    vertex 252.1358438581481 -17.628203031793646 12.088329718356071
    vertex 252.1358438581482 36.73861351587256 5.58832971835605
    vertex 252.1358438581481 -16.913874055795972 12.088329718356071
  endloop
endfacet
facet normal 0.9999999996596929 -2.4213148905628365e-06 2.5975986079049284e-05
  outer loop
    vertex 252.1358438581481 -16.913874055795972 12.088329718356071
    vertex 252.1358438581482 36.73861351587256 5.58832971835605
    vertex 252.13423655485798 -16.623922510685187 12.088329718356071
  endloop
endfacet
facet normal 0.9999999996596929 -2.4213148905628365e-06 2.5975986079049284e-05
  outer loop
    vertex 252.13423655485798 -16.623922510685187 12.088329718356071
    vertex 252.1358438581482 36.73861351587256 5.58832971835605
    vertex 252.1358438581481 36.73861351587256 12.088329718356082
  endloop
endfacet
facet normal -3.7645725690900657e-16 1.9753774708645884e-17 -1.0
  outer loop
    vertex 252.1358438581482 36.73861351587256 5.58832971835605
    vertex 190.1358438581481 -22.719545079798298 5.588329718356072
    vertex 190.1358438581481 36.73861351587256 5.588329718356072
  endloop
endfacet
facet normal -3.7645725690900657e-16 1.9753774708645884e-17 -1.0
  outer loop
    vertex 190.1358438581481 -22.719545079798298 5.588329718356072
    vertex 252.1358438581482 36.73861351587256 5.58832971835605
    vertex 245.5908638318337 -22.719545079798298 5.588329718356052
  endloop
endfacet
facet normal -3.7645725690900657e-16 1.9753774708645884e-17 -1.0
  outer loop
    vertex 245.5908638318337 -22.719545079798298 5.588329718356052
    vertex 252.1358438581482 36.73861351587256 5.58832971835605
    vertex 252.1358438581482 -22.719545079798298 5.58832971835605
  endloop
endfacet
facet normal 0.0 -1.0 0.0
  outer loop
    vertex 245.5908638318337 -22.719545079798298 12.088329718356079
    vertex 190.1358438581481 -22.719545079798298 5.588329718356072
    vertex 245.5908638318337 -22.719545079798298 5.588329718356052
  endloop
endfacet
facet normal 0.0 -1.0 0.0
  outer loop
    vertex 190.1358438581481 -22.719545079798298 5.588329718356072
    vertex 245.5908638318337 -22.719545079798298 12.088329718356079
    vertex 190.1358438581481 -22.719545079798298 12.088329718356059
  endloop
endfacet
facet normal -0.9999999993193085 3.6350049895013615e-06 -3.6717435663867735e-05
  outer loop
    vertex 190.1358438581481 -17.62820303179365 12.088329718356059
    vertex 190.1358438581481 -22.719545079798298 5.588329718356072
    vertex 190.1358438581481 -22.719545079798298 12.088329718356059
  endloop
endfacet
facet normal -0.9999999993193085 3.6350049895013615e-06 -3.6717435663867735e-05
  outer loop
    vertex 190.1358438581481 -22.719545079798298 5.588329718356072
    vertex 190.1358438581481 -17.62820303179365 12.088329718356059
    vertex 190.1358438581481 36.73861351587256 5.588329718356072
  endloop
endfacet
facet normal -0.9999999993193085 3.6350049895013615e-06 -3.6717435663867735e-05
  outer loop
    vertex 190.1358438581481 36.73861351587256 5.588329718356072
    vertex 190.1358438581481 -17.62820303179365 12.088329718356059
    vertex 190.1358438581481 -17.257561839733555 12.088329718356059
  endloop
endfacet
facet normal -0.9999999993193085 3.6350049895013615e-06 -3.6717435663867735e-05
  outer loop
    vertex 190.1358438581481 36.73861351587256 5.588329718356072
    vertex 190.1358438581481 -17.257561839733555 12.088329718356059
    vertex 190.13446104808227 -17.008108038669654 12.088329718356059
  endloop
endfacet
facet normal -0.9999999993193085 3.6350049895013615e-06 -3.6717435663867735e-05
  outer loop
    vertex 190.1358438581481 36.73861351587256 5.588329718356072
    vertex 190.13446104808227 -17.008108038669654 12.088329718356059
    vertex 190.13423655485798 -16.96761029462277 12.088329718356059
  endloop
endfacet
facet normal -0.9999999993193085 3.6350049895013615e-06 -3.6717435663867735e-05
  outer loop
    vertex 190.1358438581481 36.73861351587256 5.588329718356072
    vertex 190.13423655485798 -16.96761029462277 12.088329718356059
    vertex 190.1358438581481 -16.1995450797983 12.088329718356059
  endloop
endfacet
facet normal -0.9999999993193085 3.6350049895013615e-06 -3.6717435663867735e-05
  outer loop
    vertex 190.1358438581481 36.73861351587256 5.588329718356072
    vertex 190.1358438581481 -16.1995450797983 12.088329718356059
    vertex 190.1358438581481 36.73861351587256 12.088329718356059
  endloop
endfacet
facet normal -2.7289998218205475e-16 1.1077497665485166e-15 1.0
  outer loop
    vertex 245.5908638318337 -22.719545079798298 12.088329718356079
    vertex 190.1358438581481 -17.62820303179365 12.088329718356059
    vertex 190.1358438581481 -22.719545079798298 12.088329718356059
  endloop
endfacet
facet normal -2.7289998218205475e-16 1.1077497665485166e-15 1.0
  outer loop
    vertex 190.1358438581481 -17.62820303179365 12.088329718356059
    vertex 245.5908638318337 -22.719545079798298 12.088329718356079
    vertex 252.1358438581481 -17.628203031793646 12.088329718356071
  endloop
endfacet
facet normal -2.7289998218205475e-16 1.1077497665485166e-15 1.0
  outer loop
    vertex 252.1358438581481 -17.628203031793646 12.088329718356071
    vertex 245.5908638318337 -22.719545079798298 12.088329718356079
    vertex 252.1358438581481 -22.719545079798298 12.088329718356082
  endloop
endfacet
facet normal -4.308594481893145e-16 -1.0981411427221118e-31 1.0
  outer loop
    vertex 252.1358438581481 -22.719545079798298 12.088329718356082
    vertex 245.5908638318337 -22.719545079798298 12.088329718356079
    vertex 245.5908638318337 -27.775415079798297 12.088329718356079
  endloop
endfacet
facet normal -2.5993649167298823e-16 -9.065668204164355e-17 1.0
  outer loop
    vertex 252.13423655485798 -16.623922510685187 12.088329718356071
    vertex 190.1358438581481 -16.1995450797983 12.088329718356059
    vertex 190.13423655485798 -16.96761029462277 12.088329718356059
  endloop
endfacet
facet normal -2.5993649167298823e-16 -9.065668204164355e-17 1.0
  outer loop
    vertex 190.1358438581481 -16.1995450797983 12.088329718356059
    vertex 252.13423655485798 -16.623922510685187 12.088329718356071
    vertex 190.1358438581481 36.73861351587256 12.088329718356059
  endloop
endfacet
facet normal -2.5993649167298823e-16 -9.065668204164355e-17 1.0
  outer loop
    vertex 190.1358438581481 36.73861351587256 12.088329718356059
    vertex 252.13423655485798 -16.623922510685187 12.088329718356071
    vertex 252.1358438581481 36.73861351587256 12.088329718356082
  endloop
endfacet
facet normal -1.8193190180783008e-16 -3.0923541743534906e-19 1.0
  outer loop
    vertex 252.1358438581481 -17.628203031793646 12.088329718356071
    vertex 190.1358438581481 -17.257561839733555 12.088329718356059
    vertex 190.1358438581481 -17.62820303179365 12.088329718356059
  endloop
endfacet
facet normal -1.8193190180783008e-16 -3.0923541743534906e-19 1.0
  outer loop
    vertex 190.1358438581481 -17.257561839733555 12.088329718356059
    vertex 252.1358438581481 -17.628203031793646 12.088329718356071
    vertex 252.13423655485798 -16.623922510685187 12.088329718356071
  endloop
endfacet
facet normal -1.8193190180783008e-16 -3.0923541743534906e-19 1.0
  outer loop
    vertex 252.13423655485798 -16.623922510685187 12.088329718356071
    vertex 252.1358438581481 -17.628203031793646 12.088329718356071
    vertex 252.1358438581481 -16.913874055795972 12.088329718356071
  endloop
endfacet
facet normal -1.8193190180783008e-16 -3.0923541743534906e-19 1.0
  outer loop
    vertex 190.13446104808227 -17.008108038669654 12.088329718356059
    vertex 252.13423655485798 -16.623922510685187 12.088329718356071
    vertex 190.13423655485798 -16.96761029462277 12.088329718356059
  endloop
endfacet
facet normal -1.8193190180783008e-16 -3.0923541743534906e-19 1.0
  outer loop
    vertex 252.13423655485798 -16.623922510685187 12.088329718356071
    vertex 190.13446104808227 -17.008108038669654 12.088329718356059
    vertex 190.1358438581481 -17.257561839733555 12.088329718356059
  endloop
endfacet
facet normal -1.0 0.0 0.0
  outer loop
    vertex 190.1358438581481 -17.257561839733555 12.423384718356061
    vertex 190.1358438581481 -17.62820303179365 12.088329718356059
    vertex 190.1358438581481 -17.62820303179365 12.423384718356061
  endloop
endfacet
facet normal -1.0 0.0 0.0
  outer loop
    vertex 190.1358438581481 -17.62820303179365 12.088329718356059
    vertex 190.1358438581481 -17.257561839733555 12.423384718356061
    vertex 190.1358438581481 -17.257561839733555 12.088329718356059
  endloop
endfacet
facet normal 1.0 0.0 0.0
  outer loop
    vertex 252.1358438581481 -16.913874055795972 12.088329718356071
    vertex 252.1358438581481 -17.628203031793646 12.423384718356072
    vertex 252.1358438581481 -17.628203031793646 12.088329718356071
  endloop
endfacet
facet normal 1.0 0.0 0.0
  outer loop
    vertex 252.1358438581481 -17.628203031793646 12.423384718356072
    vertex 252.1358438581481 -16.913874055795972 12.088329718356071
    vertex 252.1358438581481 -16.913874055795972 12.423384718356072
  endloop
endfacet
facet normal 0.9999846359819713 0.005543266185614883 0.0
  outer loop
    vertex 252.13423655485798 -16.623922510685187 12.088329718356071
    vertex 252.1358438581481 -16.913874055795972 12.423384718356072
    vertex 252.1358438581481 -16.913874055795972 12.088329718356071
  endloop
endfacet
facet normal 0.9999846359819713 0.005543266185614883 0.0
  outer loop
    vertex 252.1358438581481 -16.913874055795972 12.423384718356072
    vertex 252.13423655485798 -16.623922510685187 12.088329718356071
    vertex 252.13423655485798 -16.623922510685187 12.423384718356072
  endloop
endfacet
facet normal -0.005543266185681857 0.9999846359819708 -1.880439053028659e-17
  outer loop
    vertex 190.13423655485798 -16.96761029462277 12.423384718356061
    vertex 252.13423655485798 -16.623922510685187 12.088329718356071
    vertex 190.13423655485798 -16.96761029462277 12.088329718356059
  endloop
endfacet
facet normal -0.005543266185681857 0.9999846359819708 -1.880439053028659e-17
  outer loop
    vertex 252.13423655485798 -16.623922510685187 12.088329718356071
    vertex 190.13423655485798 -16.96761029462277 12.423384718356061
    vertex 252.13423655485798 -16.623922510685187 12.423384718356072
  endloop
endfacet
facet normal 4.5483330363675785e-17 -1.0 8.274933363885086e-33
  outer loop
    vertex 252.1358438581481 -17.628203031793646 12.088329718356071
    vertex 190.1358438581481 -17.62820303179365 12.423384718356061
    vertex 190.1358438581481 -17.62820303179365 12.088329718356059
  endloop
endfacet
facet normal 4.5483330363675785e-17 -1.0 8.274933363885086e-33
  outer loop
    vertex 190.1358438581481 -17.62820303179365 12.423384718356061
    vertex 252.1358438581481 -17.628203031793646 12.088329718356071
    vertex 252.1358438581481 -17.628203031793646 12.423384718356072
  endloop
endfacet
facet normal -0.9999846359819708 -0.0055432661856842725 -1.0100041826355872e-14
  outer loop
    vertex 190.13423655485798 -16.96761029462277 12.423384718356061
    vertex 190.1358438581481 -17.257561839733555 12.088329718356059
    vertex 190.1358438581481 -17.257561839733555 12.423384718356061
  endloop
endfacet
facet normal -0.9999846359819708 -0.0055432661856842725 -1.0100041826355872e-14
  outer loop
    vertex 190.1358438581481 -17.257561839733555 12.088329718356059
    vertex 190.13423655485798 -16.96761029462277 12.423384718356061
    vertex 190.13446104808227 -17.008108038669654 12.088329718356059
  endloop
endfacet
facet normal -0.9999846359819708 -0.0055432661856842725 -1.0100041826355872e-14
  outer loop
    vertex 190.13446104808227 -17.008108038669654 12.088329718356059
    vertex 190.13423655485798 -16.96761029462277 12.423384718356061
    vertex 190.13423655485798 -16.96761029462277 12.088329718356059
  endloop
endfacet
facet normal 0.0 -1.0 0.0
  outer loop
    vertex 252.1358438581481 -22.719545079798298 12.088329718356082
    vertex 245.5908638318337 -22.719545079798298 5.588329718356052
    vertex 252.1358438581482 -22.719545079798298 5.58832971835605
  endloop
endfacet
facet normal 0.0 -1.0 0.0
  outer loop
    vertex 245.5908638318337 -22.719545079798298 5.588329718356052
    vertex 252.1358438581481 -22.719545079798298 12.088329718356082
    vertex 245.5908638318337 -22.719545079798298 12.088329718356079
  endloop
endfacet
facet normal -1.0 0.0 0.0
  outer loop
    vertex 245.5908638318337 -22.719545079798298 5.588329718356052
    vertex 245.5908638318337 -27.775415079798297 12.088329718356079
    vertex 245.5908638318337 -22.719545079798298 12.088329718356079
  endloop
endfacet
facet normal -1.0 0.0 0.0
  outer loop
    vertex 245.5908638318337 -22.719545079798298 5.588329718356052
    vertex 245.5908638318337 -27.775415079798297 5.588329718356052
    vertex 245.5908638318337 -27.775415079798297 12.088329718356079
  endloop
endfacet
facet normal 0.0 -1.0 0.0
  outer loop
    vertex 252.1358438581481 -27.775415079798297 12.088329718356082
    vertex 245.5908638318337 -27.775415079798297 12.088329718356079
    vertex 245.5908638318337 -27.775415079798297 5.588329718356052
  endloop
endfacet
facet normal 0.0 -1.0 0.0
  outer loop
    vertex 252.1358438581481 -27.775415079798297 12.088329718356082
    vertex 245.5908638318337 -27.775415079798297 5.588329718356052
    vertex 252.1358438581481 -27.775415079798297 5.588329718356052
  endloop
endfacet
facet normal -1.8193332145470314e-16 0.0 1.0
  outer loop
    vertex 252.1358438581481 -17.628203031793646 12.423384718356072
    vertex 190.1358438581481 -17.257561839733555 12.423384718356061
    vertex 190.1358438581481 -17.62820303179365 12.423384718356061
  endloop
endfacet
facet normal -1.8193332145470314e-16 0.0 1.0
  outer loop
    vertex 190.1358438581481 -17.257561839733555 12.423384718356061
    vertex 252.1358438581481 -17.628203031793646 12.423384718356072
    vertex 252.13423655485798 -16.623922510685187 12.423384718356072
  endloop
endfacet
facet normal -1.8193332145470314e-16 0.0 1.0
  outer loop
    vertex 252.13423655485798 -16.623922510685187 12.423384718356072
    vertex 252.1358438581481 -17.628203031793646 12.423384718356072
    vertex 252.1358438581481 -16.913874055795972 12.423384718356072
  endloop
endfacet
facet normal -1.8193332145470314e-16 0.0 1.0
  outer loop
    vertex 252.13423655485798 -16.623922510685187 12.423384718356072
    vertex 190.13423655485798 -16.96761029462277 12.423384718356061
    vertex 190.1358438581481 -17.257561839733555 12.423384718356061
  endloop
endfacet
facet normal -4.308594481893144e-16 5.49070571361056e-32 1.0
  outer loop
    vertex 252.1358438581481 -22.719545079798298 12.088329718356082
    vertex 245.5908638318337 -27.775415079798297 12.088329718356079
    vertex 252.1358438581481 -27.775415079798297 12.088329718356082
  endloop
endfacet
facet normal -2.1542972409465612e-16 -1.394402191189568e-16 -1.0
  outer loop
    vertex 252.1358438581482 -22.719545079798298 5.58832971835605
    vertex 245.5908638318337 -27.775415079798297 5.588329718356052
    vertex 245.5908638318337 -22.719545079798298 5.588329718356052
  endloop
endfacet
facet normal -2.1542972409465612e-16 -1.394402191189568e-16 -1.0
  outer loop
    vertex 245.5908638318337 -27.775415079798297 5.588329718356052
    vertex 252.1358438581482 -22.719545079798298 5.58832971835605
    vertex 252.1358438581481 -27.775415079798297 5.588329718356052
  endloop
endfacet
facet normal 1.0 -1.3386261035420124e-14 1.0412183935561418e-14
  outer loop
    vertex 252.1358438581482 -22.719545079798298 5.58832971835605
    vertex 252.1358438581481 -27.775415079798297 12.088329718356082
    vertex 252.1358438581481 -27.775415079798297 5.588329718356052
  endloop
endfacet
facet normal 1.0 -1.3386261035420124e-14 1.0412183935561418e-14
  outer loop
    vertex 252.1358438581481 -27.775415079798297 12.088329718356082
    vertex 252.1358438581482 -22.719545079798298 5.58832971835605
    vertex 252.1358438581481 -22.719545079798298 12.088329718356082
  endloop
endfacet
endsolid AutoSave_mousepusher 0506
