solid AutoSave_AutoSave_AutoSave_mousepusher 0506
facet normal -0.9999999063459597 0.0003441130117416267 -0.00026247725039988437
  outer loop
    vertex -81.44549569294325 -102.88276078996655 29.740790355791873
    vertex -81.46830272397649 -172.09824910052416 25.88932801739593
    vertex -81.46931366420405 -172.09824887717903 29.740787884718827
  endloop
endfacet
facet normal -0.9999999063459597 0.0003441130117416267 -0.00026247725039988437
  outer loop
    vertex -81.46830272397649 -172.09824910052416 25.88932801739593
    vertex -81.44549569294325 -102.88276078996655 29.740790355791873
    vertex -81.44448450970941 -102.88194101334639 25.889330255783037
  endloop
endfacet
facet normal 0.9999999063665351 -0.0003440534743120177 0.0002624769093523742
  outer loop
    vertex -78.95908763973746 -117.96240243150677 25.883161489170348
    vertex -78.95491248488545 -102.88361782824222 29.741610564181094
    vertex -78.9601005114376 -117.96240220773451 29.741981171732714
  endloop
endfacet
facet normal 0.9999999063665351 -0.0003440534743120177 0.0002624769093523742
  outer loop
    vertex -78.95491248488545 -102.88361782824222 29.741610564181094
    vertex -78.95908763973746 -117.96240243150677 25.883161489170348
    vertex -78.95390107850011 -102.8827977803952 25.88929149360947
  endloop
endfacet
facet normal -0.9999999063447053 0.00034411277254101574 -0.00026248234296696963
  outer loop
    vertex -44.863672324316006 -102.87855942316008 25.882921303166718
    vertex -44.87083031274602 -120.40923784188661 30.152924510157415
    vertex -44.86479781826635 -102.87855987981409 30.153062741612803
  endloop
endfacet
facet normal -0.9999999063447053 0.00034411277254101574 -0.00026248234296696963
  outer loop
    vertex -44.87083031274602 -120.40923784188661 30.152924510157415
    vertex -44.863672324316006 -102.87855942316008 25.882921303166718
    vertex -44.86970510500859 -120.40923619113558 25.886202736105027
  endloop
endfacet
facet normal 0.00034411277591013415 0.9999999407931964 3.2333888276190836e-08
  outer loop
    vertex -44.863672324316006 -102.87855942316008 25.882921303166718
    vertex -42.00403656610321 -102.8795443043921 30.153813640999232
    vertex -42.00291107215297 -102.87954384773857 25.883672202553257
  endloop
endfacet
facet normal 0.00034411277591013415 0.9999999407931964 3.2333888276190836e-08
  outer loop
    vertex -42.00403656610321 -102.8795443043921 30.153813640999232
    vertex -44.863672324316006 -102.87855942316008 25.882921303166718
    vertex -44.86479781826635 -102.87855987981409 30.153062741612803
  endloop
endfacet
facet normal -0.00034410902987187493 -0.999999940794485 4.620458064423851e-08
  outer loop
    vertex -77.70434223649522 -157.89794101014664 32.24315609205222
    vertex -77.7035982635975 -157.89794116928917 29.743156202751365
    vertex -44.884368864621514 -157.90923483075642 32.25292320196702
  endloop
endfacet
facet normal -0.00034410902987187493 -0.999999940794485 4.620458064423851e-08
  outer loop
    vertex -77.7035982635975 -157.89794116928917 29.743156202751365
    vertex -77.70434223649522 -157.89794101014664 32.24315609205222
    vertex -77.70382326454258 -157.89794124821196 30.14315613946957
  endloop
endfacet
facet normal -0.00034410902987187493 -0.999999940794485 4.620458064423851e-08
  outer loop
    vertex -44.88373454185955 -157.90923567098227 30.152923297636644
    vertex -77.70258794919128 -157.89794231560714 25.894079366888278
    vertex -44.882615685142234 -157.9092352622136 25.908068192577428
  endloop
endfacet
facet normal -0.00034410902987187493 -0.999999940794485 4.620458064423851e-08
  outer loop
    vertex -77.70258794919128 -157.89794231560714 25.894079366888278
    vertex -44.88373454185955 -157.90923567098227 30.152923297636644
    vertex -44.884368864621514 -157.90923483075642 32.25292320196702
  endloop
endfacet
facet normal -0.00034410902987187493 -0.999999940794485 4.620458064423851e-08
  outer loop
    vertex -77.70258794919128 -157.89794231560714 25.894079366888278
    vertex -44.884368864621514 -157.90923483075642 32.25292320196702
    vertex -77.7035982635975 -157.89794116928917 29.743156202751365
  endloop
endfacet
facet normal 0.9999999063550877 -0.0003440842977053358 0.00026248011763471777
  outer loop
    vertex -78.97873042745226 -172.09910592244668 29.741489597912814
    vertex -78.97404376292239 -161.4151308095517 25.891765567909857
    vertex -78.97505434439192 -161.41513058628635 29.741865840157732
  endloop
endfacet
facet normal 0.9999999063550877 -0.0003440842977053358 0.00026248011763471777
  outer loop
    vertex -78.97404376292239 -161.4151308095517 25.891765567909857
    vertex -78.97873042745226 -172.09910592244668 29.741489597912814
    vertex -78.97771950028611 -172.09910618614495 25.89002134839843
  endloop
endfacet
facet normal 0.0003441140846715382 0.9999999407927399 1.1571215378581349e-07
  outer loop
    vertex -77.68968371962983 -120.3979431857837 25.89408057940919
    vertex -44.87083031274602 -120.40923784188661 30.152924510157415
    vertex -44.86970510500859 -120.40923619113558 25.886202736105027
  endloop
endfacet
facet normal 0.0003441140846715382 0.9999999407927399 1.1571215378581349e-07
  outer loop
    vertex -44.87083031274602 -120.40923784188661 30.152924510157415
    vertex -77.68968371962983 -120.3979431857837 25.89408057940919
    vertex -44.87146463550767 -120.40923700166044 32.2529244144877
  endloop
endfacet
facet normal 0.0003441140846715382 0.9999999407927399 1.1571215378581349e-07
  outer loop
    vertex -44.87146463550767 -120.40923700166044 32.2529244144877
    vertex -77.68968371962983 -120.3979431857837 25.89408057940919
    vertex -77.69069355350085 -120.39794296689793 29.743157896380847
  endloop
endfacet
facet normal 0.0003441140846715382 0.9999999407927399 1.1571215378581349e-07
  outer loop
    vertex -77.69069355350085 -120.39794296689793 29.743157896380847
    vertex -77.68968371962983 -120.3979431857837 25.89408057940919
    vertex -78.01399866559255 -120.39783170928946 29.742346301343726
  endloop
endfacet
facet normal 0.0003441140846715382 0.9999999407927399 1.1571215378581349e-07
  outer loop
    vertex -78.01399866559255 -120.39783170928946 29.742346301343726
    vertex -77.68968371962983 -120.3979431857837 25.89408057940919
    vertex -78.0129854306601 -120.39783193314175 25.882144113042614
  endloop
endfacet
facet normal 0.0003441140846715382 0.9999999407927399 1.1571215378581349e-07
  outer loop
    vertex -77.69069355350085 -120.39794296689793 29.743157896380847
    vertex -77.69143752639908 -120.39794280775429 32.24315778568171
    vertex -44.87146463550767 -120.40923700166044 32.2529244144877
  endloop
endfacet
facet normal 0.0003441140846715382 0.9999999407927399 1.1571215378581349e-07
  outer loop
    vertex -77.69143752639908 -120.39794280775429 32.24315778568171
    vertex -77.69069355350085 -120.39794296689793 29.743157896380847
    vertex -77.69091855444633 -120.39794304581993 30.14315783309906
  endloop
endfacet
facet normal -0.0003441127759037676 -0.9999999407931964 -3.233390701562263e-08
  outer loop
    vertex -42.02786188748112 -172.116601948994 30.153673737675625
    vertex -44.88750308883944 -172.115617066559 25.90351858656333
    vertex -42.02674064260572 -172.11660149140144 25.89972033928324
  endloop
endfacet
facet normal -0.0003441127759037676 -0.9999999407931964 -3.233390701562263e-08
  outer loop
    vertex -44.88750308883944 -172.115617066559 25.90351858656333
    vertex -42.02786188748112 -172.116601948994 30.153673737675625
    vertex -44.88862313964428 -172.1156175244155 30.152922838289047
  endloop
endfacet
facet normal -0.9999999063447053 0.0003441127725418128 -0.0002624823429675248
  outer loop
    vertex -44.88373454185955 -157.90923567098227 30.152923297636644
    vertex -44.88750308883944 -172.115617066559 25.90351858656333
    vertex -44.88862313964428 -172.1156175244155 30.152922838289047
  endloop
endfacet
facet normal -0.9999999063447053 0.0003441127725418128 -0.0002624823429675248
  outer loop
    vertex -44.88750308883944 -172.115617066559 25.90351858656333
    vertex -44.88373454185955 -157.90923567098227 30.152923297636644
    vertex -44.882615685142234 -157.9092352622136 25.908068192577428
  endloop
endfacet
facet normal 0.9999999063447053 -0.0003441127725413588 0.0002624823429656929
  outer loop
    vertex -42.02786188748112 -172.116601948994 30.153673737675625
    vertex -42.00291107215297 -102.87954384773857 25.883672202553257
    vertex -42.00403656610321 -102.8795443043921 30.153813640999232
  endloop
endfacet
facet normal 0.9999999063447053 -0.0003441127725413588 0.0002624823429656929
  outer loop
    vertex -42.00291107215297 -102.87954384773857 25.883672202553257
    vertex -42.02786188748112 -172.116601948994 30.153673737675625
    vertex -42.02674064260572 -172.11660149140144 25.89972033928324
  endloop
endfacet
facet normal 0.932135105501139 0.3621105980770951 0.0002446479699815205
  outer loop
    vertex -78.0129854306601 -120.39783193314175 25.882144113042614
    vertex -78.9601005114376 -117.96240220773451 29.741981171732714
    vertex -78.01399866559255 -120.39783170928946 29.742346301343726
  endloop
endfacet
facet normal 0.932135105501139 0.3621105980770951 0.0002446479699815205
  outer loop
    vertex -78.9601005114376 -117.96240220773451 29.741981171732714
    vertex -78.0129854306601 -120.39783193314175 25.882144113042614
    vertex -78.95908763973746 -117.96240243150677 25.883161489170348
  endloop
endfacet
facet normal 0.9404376144263242 -0.3399662224520699 0.00024690847343713585
  outer loop
    vertex -78.97505434439192 -161.41513058628635 29.741865840157732
    vertex -77.70258794919128 -157.89794231560714 25.894079366888278
    vertex -77.7035982635975 -157.89794116928917 29.743156202751365
  endloop
endfacet
facet normal 0.9404376144263242 -0.3399662224520699 0.00024690847343713585
  outer loop
    vertex -77.70258794919128 -157.89794231560714 25.894079366888278
    vertex -78.97505434439192 -161.41513058628635 29.741865840157732
    vertex -78.97404376292239 -161.4151308095517 25.891765567909857
  endloop
endfacet
facet normal -0.0008597274770408643 -0.00032049675462718927 -0.9999995790751592
  outer loop
    vertex -42.02674064260572 -172.11660149140144 25.89972033928324
    vertex -44.863672324316006 -102.87855942316008 25.882921303166718
    vertex -42.00291107215297 -102.87954384773857 25.883672202553257
  endloop
endfacet
facet normal -0.0008597274770408643 -0.00032049675462718927 -0.9999995790751592
  outer loop
    vertex -44.863672324316006 -102.87855942316008 25.882921303166718
    vertex -42.02674064260572 -172.11660149140144 25.89972033928324
    vertex -44.86970510500859 -120.40923619113558 25.886202736105027
  endloop
endfacet
facet normal -0.0008597274770408643 -0.00032049675462718927 -0.9999995790751592
  outer loop
    vertex -44.86970510500859 -120.40923619113558 25.886202736105027
    vertex -42.02674064260572 -172.11660149140144 25.89972033928324
    vertex -44.882615685142234 -157.9092352622136 25.908068192577428
  endloop
endfacet
facet normal -0.0008597274770408643 -0.00032049675462718927 -0.9999995790751592
  outer loop
    vertex -44.882615685142234 -157.9092352622136 25.908068192577428
    vertex -42.02674064260572 -172.11660149140144 25.89972033928324
    vertex -44.88750308883944 -172.115617066559 25.90351858656333
  endloop
endfacet
facet normal 0.03689616831404825 0.015944318291157274 -0.9991918992255551
  outer loop
    vertex -77.68980503013825 -120.76375364816077 25.888238784310722
    vertex -78.0129854306601 -120.39783193314175 25.882144113042614
    vertex -77.68968371962983 -120.3979431857837 25.89408057940919
  endloop
endfacet
facet normal -0.0002457813107997848 -6.811754046769363e-05 -0.9999999674757735
  outer loop
    vertex -78.95908763973746 -117.96240243150677 25.883161489170348
    vertex -81.44448450970941 -102.88194101334639 25.889330255783037
    vertex -78.95390107850011 -102.8827977803952 25.88929149360947
  endloop
endfacet
facet normal -0.0002457813107997848 -6.811754046769363e-05 -0.9999999674757735
  outer loop
    vertex -81.44448450970941 -102.88194101334639 25.889330255783037
    vertex -78.95908763973746 -117.96240243150677 25.883161489170348
    vertex -81.46830272397649 -172.09824910052416 25.88932801739593
  endloop
endfacet
facet normal -0.0002457813107997848 -6.811754046769363e-05 -0.9999999674757735
  outer loop
    vertex -81.46830272397649 -172.09824910052416 25.88932801739593
    vertex -78.95908763973746 -117.96240243150677 25.883161489170348
    vertex -78.0129854306601 -120.39783193314175 25.882144113042614
  endloop
endfacet
facet normal -0.0002457813107997848 -6.811754046769363e-05 -0.9999999674757735
  outer loop
    vertex -81.46830272397649 -172.09824910052416 25.88932801739593
    vertex -78.0129854306601 -120.39783193314175 25.882144113042614
    vertex -78.97404376292239 -161.4151308095517 25.891765567909857
  endloop
endfacet
facet normal -0.0002457813107997848 -6.811754046769363e-05 -0.9999999674757735
  outer loop
    vertex -78.97404376292239 -161.4151308095517 25.891765567909857
    vertex -78.0129854306601 -120.39783193314175 25.882144113042614
    vertex -77.70258794919128 -157.89794231560714 25.894079366888278
  endloop
endfacet
facet normal -0.0002457813107997848 -6.811754046769363e-05 -0.9999999674757735
  outer loop
    vertex -81.46830272397649 -172.09824910052416 25.88932801739593
    vertex -78.97404376292239 -161.4151308095517 25.891765567909857
    vertex -78.97771950028611 -172.09910618614495 25.89002134839843
  endloop
endfacet
facet normal 0.00013610828802073066 -0.0003285860088907193 -0.9999999367528823
  outer loop
    vertex -44.882615685142234 -157.9092352622136 25.908068192577428
    vertex -77.68968371962983 -120.3979431857837 25.89408057940919
    vertex -44.86970510500859 -120.40923619113558 25.886202736105027
  endloop
endfacet
facet normal 0.00013610828802073066 -0.0003285860088907193 -0.9999999367528823
  outer loop
    vertex -77.68968371962983 -120.3979431857837 25.89408057940919
    vertex -44.882615685142234 -157.9092352622136 25.908068192577428
    vertex -77.68980503013825 -120.76375364816077 25.888238784310722
  endloop
endfacet
facet normal 0.00013610828802073066 -0.0003285860088907193 -0.9999999367528823
  outer loop
    vertex -77.68980503013825 -120.76375364816077 25.888238784310722
    vertex -77.70258794919128 -157.89794231560714 25.894079366888278
    vertex -78.0129854306601 -120.39783193314175 25.882144113042614
  endloop
endfacet
facet normal 0.00013610828802073066 -0.0003285860088907193 -0.9999999367528823
  outer loop
    vertex -77.70258794919128 -157.89794231560714 25.894079366888278
    vertex -77.68980503013825 -120.76375364816077 25.888238784310722
    vertex -44.882615685142234 -157.9092352622136 25.908068192577428
  endloop
endfacet
facet normal -0.00027412533993887307 -1.7027051543111432e-06 0.9999999624261988
  outer loop
    vertex -44.86479781826635 -102.87855987981409 30.153062741612803
    vertex -42.02786188748112 -172.116601948994 30.153673737675625
    vertex -42.00403656610321 -102.8795443043921 30.153813640999232
  endloop
endfacet
facet normal -0.00027412533993887307 -1.7027051543111432e-06 0.9999999624261988
  outer loop
    vertex -42.02786188748112 -172.116601948994 30.153673737675625
    vertex -44.86479781826635 -102.87855987981409 30.153062741612803
    vertex -44.87083031274602 -120.40923784188661 30.152924510157415
  endloop
endfacet
facet normal -0.00027412533993887307 -1.7027051543111432e-06 0.9999999624261988
  outer loop
    vertex -42.02786188748112 -172.116601948994 30.153673737675625
    vertex -44.87083031274602 -120.40923784188661 30.152924510157415
    vertex -44.88373454185955 -157.90923567098227 30.152923297636644
  endloop
endfacet
facet normal -0.00027412533993887307 -1.7027051543111432e-06 0.9999999624261988
  outer loop
    vertex -42.02786188748112 -172.116601948994 30.153673737675625
    vertex -44.88373454185955 -157.90923567098227 30.152923297636644
    vertex -44.88862313964428 -172.1156175244155 30.152922838289047
  endloop
endfacet
facet normal -0.9999999063210521 0.0003441208957425429 -0.0002625617956214042
  outer loop
    vertex -44.87083031274602 -120.40923784188661 30.152924510157415
    vertex -44.882615685142234 -157.9092352622136 25.908068192577428
    vertex -44.88373454185955 -157.90923567098227 30.152923297636644
  endloop
endfacet
facet normal -0.9999999063210521 0.0003441208957425429 -0.0002625617956214042
  outer loop
    vertex -44.882615685142234 -157.9092352622136 25.908068192577428
    vertex -44.87083031274602 -120.40923784188661 30.152924510157415
    vertex -44.86970510500859 -120.40923619113558 25.886202736105027
  endloop
endfacet
facet normal -0.00029758915919669306 6.365747504046585e-08 0.9999999557203433
  outer loop
    vertex -77.69143752639908 -120.39794280775429 32.24315778568171
    vertex -44.884368864621514 -157.90923483075642 32.25292320196702
    vertex -44.87146463550767 -120.40923700166044 32.2529244144877
  endloop
endfacet
facet normal -0.00029758915919669306 6.365747504046585e-08 0.9999999557203433
  outer loop
    vertex -44.884368864621514 -157.90923483075642 32.25292320196702
    vertex -77.69143752639908 -120.39794280775429 32.24315778568171
    vertex -77.70434223649522 -157.89794101014664 32.24315609205222
  endloop
endfacet
facet normal 0.9999998965135403 -0.00034411277029387544 0.0002975891634827393
  outer loop
    vertex -44.88373454185955 -157.90923567098227 30.152923297636644
    vertex -44.87146463550767 -120.40923700166044 32.2529244144877
    vertex -44.884368864621514 -157.90923483075642 32.25292320196702
  endloop
endfacet
facet normal 0.9999998965135403 -0.00034411277029387544 0.0002975891634827393
  outer loop
    vertex -44.87146463550767 -120.40923700166044 32.2529244144877
    vertex -44.88373454185955 -157.90923567098227 30.152923297636644
    vertex -44.87083031274602 -120.40923784188661 30.152924510157415
  endloop
endfacet
facet normal -0.9999998980047741 0.0003441255971788522 -0.0002925201106014894
  outer loop
    vertex -77.69091855444633 -120.39794304581993 30.14315783309906
    vertex -77.70434223649522 -157.89794101014664 32.24315609205222
    vertex -77.69143752639908 -120.39794280775429 32.24315778568171
  endloop
endfacet
facet normal -0.9999998980047741 0.0003441255971788522 -0.0002925201106014894
  outer loop
    vertex -77.70434223649522 -157.89794101014664 32.24315609205222
    vertex -77.69091855444633 -120.39794304581993 30.14315783309906
    vertex -77.70382326454258 -157.89794124821196 30.14315613946957
  endloop
endfacet
facet normal -0.0005625023633492054 -1.973053321101496e-07 0.9999998417955138
  outer loop
    vertex -81.44572069388846 -102.8827608688891 30.140790292510097
    vertex -78.96032551238305 -117.962402286657 30.141981108450913
    vertex -78.95513748583078 -102.88361790716444 30.14161050089931
  endloop
endfacet
facet normal -0.0005625023633492054 -1.973053321101496e-07 0.9999998417955138
  outer loop
    vertex -78.96032551238305 -117.962402286657 30.141981108450913
    vertex -81.44572069388846 -102.8827608688891 30.140790292510097
    vertex -81.46953866514939 -172.0982489561016 30.140787821437037
  endloop
endfacet
facet normal -0.0005625023633492054 -1.973053321101496e-07 0.9999998417955138
  outer loop
    vertex -78.96032551238305 -117.962402286657 30.141981108450913
    vertex -81.46953866514939 -172.0982489561016 30.140787821437037
    vertex -78.01422366653777 -120.39783178821178 30.14234623806194
  endloop
endfacet
facet normal -0.0005625023633492054 -1.973053321101496e-07 0.9999998417955138
  outer loop
    vertex -78.01422366653777 -120.39783178821178 30.14234623806194
    vertex -81.46953866514939 -172.0982489561016 30.140787821437037
    vertex -78.97527934533728 -161.4151306652081 30.14186577687604
  endloop
endfacet
facet normal -0.0005625023633492054 -1.973053321101496e-07 0.9999998417955138
  outer loop
    vertex -78.01422366653777 -120.39783178821178 30.14234623806194
    vertex -78.97527934533728 -161.4151306652081 30.14186577687604
    vertex -77.70382326454258 -157.89794124821196 30.14315613946957
  endloop
endfacet
facet normal -0.0005625023633492054 -1.973053321101496e-07 0.9999998417955138
  outer loop
    vertex -78.97527934533728 -161.4151306652081 30.14186577687604
    vertex -81.46953866514939 -172.0982489561016 30.140787821437037
    vertex -78.9789554283977 -172.099106001369 30.141489534631035
  endloop
endfacet
facet normal -0.0005625023633492054 -1.973053321101496e-07 0.9999998417955138
  outer loop
    vertex -77.70382326454258 -157.89794124821196 30.14315613946957
    vertex -77.69091855444633 -120.39794304581993 30.14315783309906
    vertex -78.01422366653777 -120.39783178821178 30.14234623806194
  endloop
endfacet
facet normal 0.9404374927929081 -0.33996623711928947 0.0005289313187516279
  outer loop
    vertex -78.97527934533728 -161.4151306652081 30.14186577687604
    vertex -77.7035982635975 -157.89794116928917 29.743156202751365
    vertex -77.70382326454258 -157.89794124821196 30.14315613946957
  endloop
endfacet
facet normal 0.9404374927929081 -0.33996623711928947 0.0005289313187516279
  outer loop
    vertex -77.7035982635975 -157.89794116928917 29.743156202751365
    vertex -78.97527934533728 -161.4151306652081 30.14186577687604
    vertex -78.97505434439192 -161.41513058628635 29.741865840157732
  endloop
endfacet
facet normal -0.999999782584375 0.00034412556965252147 -0.0005625022621062013
  outer loop
    vertex -77.69069355350085 -120.39794296689793 29.743157896380847
    vertex -77.70382326454258 -157.89794124821196 30.14315613946957
    vertex -77.69091855444633 -120.39794304581993 30.14315783309906
  endloop
endfacet
facet normal -0.999999782584375 0.00034412556965252147 -0.0005625022621062013
  outer loop
    vertex -77.70382326454258 -157.89794124821196 30.14315613946957
    vertex -77.69069355350085 -120.39794296689793 29.743157896380847
    vertex -77.7035982635975 -157.89794116928917 29.743156202751365
  endloop
endfacet
facet normal 0.0003441247307287117 0.9999999407890067 3.908764089393104e-07
  outer loop
    vertex -78.01399866559255 -120.39783170928946 29.742346301343726
    vertex -77.69091855444633 -120.39794304581993 30.14315783309906
    vertex -77.69069355350085 -120.39794296689793 29.743157896380847
  endloop
endfacet
facet normal 0.0003441247307287117 0.9999999407890067 3.908764089393104e-07
  outer loop
    vertex -77.69091855444633 -120.39794304581993 30.14315783309906
    vertex -78.01399866559255 -120.39783170928946 29.742346301343726
    vertex -78.01422366653777 -120.39783178821178 30.14234623806194
  endloop
endfacet
facet normal 0.932134991096006 0.36211059550838953 0.0005243996647654811
  outer loop
    vertex -78.01399866559255 -120.39783170928946 29.742346301343726
    vertex -78.96032551238305 -117.962402286657 30.141981108450913
    vertex -78.01422366653777 -120.39783178821178 30.14234623806194
  endloop
endfacet
facet normal 0.932134991096006 0.36211059550838953 0.0005243996647654811
  outer loop
    vertex -78.96032551238305 -117.962402286657 30.141981108450913
    vertex -78.01399866559255 -120.39783170928946 29.742346301343726
    vertex -78.9601005114376 -117.96240220773451 29.741981171732714
  endloop
endfacet
facet normal 0.9999997826112632 -0.0003440474262531416 0.0005625022622268436
  outer loop
    vertex -78.9601005114376 -117.96240220773451 29.741981171732714
    vertex -78.95513748583078 -102.88361790716444 30.14161050089931
    vertex -78.96032551238305 -117.962402286657 30.141981108450913
  endloop
endfacet
facet normal 0.9999997826112632 -0.0003440474262531416 0.0005625022622268436
  outer loop
    vertex -78.95513748583078 -102.88361790716444 30.14161050089931
    vertex -78.9601005114376 -117.96240220773451 29.741981171732714
    vertex -78.95491248488545 -102.88361782824222 29.741610564181094
  endloop
endfacet
facet normal -0.00034411415366118585 -0.9999999407926464 -3.9087040702229724e-07
  outer loop
    vertex -78.9789554283977 -172.099106001369 30.141489534631035
    vertex -81.46931366420405 -172.09824887717903 29.740787884718827
    vertex -78.97873042745226 -172.09910592244668 29.741489597912814
  endloop
endfacet
facet normal -0.00034411415366118585 -0.9999999407926464 -3.9087040702229724e-07
  outer loop
    vertex -81.46931366420405 -172.09824887717903 29.740787884718827
    vertex -78.9789554283977 -172.099106001369 30.141489534631035
    vertex -81.46953866514939 -172.0982489561016 30.140787821437037
  endloop
endfacet
facet normal 0.9999997825951713 -0.00034409419551360805 0.0005625022621569987
  outer loop
    vertex -78.9789554283977 -172.099106001369 30.141489534631035
    vertex -78.97505434439192 -161.41513058628635 29.741865840157732
    vertex -78.97527934533728 -161.4151306652081 30.14186577687604
  endloop
endfacet
facet normal 0.9999997825951713 -0.00034409419551360805 0.0005625022621569987
  outer loop
    vertex -78.97505434439192 -161.41513058628635 29.741865840157732
    vertex -78.9789554283977 -172.099106001369 30.141489534631035
    vertex -78.97873042745226 -172.09910592244668 29.741489597912814
  endloop
endfacet
facet normal 0.0003441113315898851 0.9999999407936175 3.908693680972935e-07
  outer loop
    vertex -81.44549569294325 -102.88276078996655 29.740790355791873
    vertex -78.95513748583078 -102.88361790716444 30.14161050089931
    vertex -78.95491248488545 -102.88361782824222 29.741610564181094
  endloop
endfacet
facet normal 0.0003441113315898851 0.9999999407936175 3.908693680972935e-07
  outer loop
    vertex -78.95513748583078 -102.88361790716444 30.14161050089931
    vertex -81.44549569294325 -102.88276078996655 29.740790355791873
    vertex -81.44572069388846 -102.8827608688891 30.140790292510097
  endloop
endfacet
facet normal -0.9999997825886101 0.00034411326324163135 -0.0005625022619301044
  outer loop
    vertex -81.44572069388846 -102.8827608688891 30.140790292510097
    vertex -81.46931366420405 -172.09824887717903 29.740787884718827
    vertex -81.46953866514939 -172.0982489561016 30.140787821437037
  endloop
endfacet
facet normal -0.9999997825886101 0.00034411326324163135 -0.0005625022619301044
  outer loop
    vertex -81.46931366420405 -172.09824887717903 29.740787884718827
    vertex -81.44572069388846 -102.8827608688891 30.140790292510097
    vertex -81.44549569294325 -102.88276078996655 29.740790355791873
  endloop
endfacet
facet normal -0.0005625228390052725 -1.7266143072358699e-07 0.9999998417840006
  outer loop
    vertex -81.44549569294325 -102.88276078996655 29.740790355791873
    vertex -78.9601005114376 -117.96240220773451 29.741981171732714
    vertex -78.95491248488545 -102.88361782824222 29.741610564181094
  endloop
endfacet
facet normal -0.0005625228390052725 -1.7266143072358699e-07 0.9999998417840006
  outer loop
    vertex -78.9601005114376 -117.96240220773451 29.741981171732714
    vertex -81.44549569294325 -102.88276078996655 29.740790355791873
    vertex -81.46931366420405 -172.09824887717903 29.740787884718827
  endloop
endfacet
facet normal -0.0005625228390052725 -1.7266143072358699e-07 0.9999998417840006
  outer loop
    vertex -78.9601005114376 -117.96240220773451 29.741981171732714
    vertex -81.46931366420405 -172.09824887717903 29.740787884718827
    vertex -78.01399866559255 -120.39783170928946 29.742346301343726
  endloop
endfacet
facet normal -0.0005625228390052725 -1.7266143072358699e-07 0.9999998417840006
  outer loop
    vertex -78.01399866559255 -120.39783170928946 29.742346301343726
    vertex -81.46931366420405 -172.09824887717903 29.740787884718827
    vertex -78.97505434439192 -161.41513058628635 29.741865840157732
  endloop
endfacet
facet normal -0.0005625228390052725 -1.7266143072358699e-07 0.9999998417840006
  outer loop
    vertex -78.01399866559255 -120.39783170928946 29.742346301343726
    vertex -78.97505434439192 -161.41513058628635 29.741865840157732
    vertex -77.7035982635975 -157.89794116928917 29.743156202751365
  endloop
endfacet
facet normal -0.0005625228390052725 -1.7266143072358699e-07 0.9999998417840006
  outer loop
    vertex -78.97505434439192 -161.41513058628635 29.741865840157732
    vertex -81.46931366420405 -172.09824887717903 29.740787884718827
    vertex -78.97873042745226 -172.09910592244668 29.741489597912814
  endloop
endfacet
facet normal -0.0005625228390052725 -1.7266143072358699e-07 0.9999998417840006
  outer loop
    vertex -77.7035982635975 -157.89794116928917 29.743156202751365
    vertex -77.69069355350085 -120.39794296689793 29.743157896380847
    vertex -78.01399866559255 -120.39783170928946 29.742346301343726
  endloop
endfacet
facet normal -0.0003441223581810432 -0.9999999407898992 -2.7097099336241957e-08
  outer loop
    vertex -81.46931366420405 -172.09824887717903 29.740787884718827
    vertex -78.97771950028611 -172.09910618614495 25.89002134839843
    vertex -78.97873042745226 -172.09910592244668 29.741489597912814
  endloop
endfacet
facet normal -0.0003441223581810432 -0.9999999407898992 -2.7097099336241957e-08
  outer loop
    vertex -78.97771950028611 -172.09910618614495 25.89002134839843
    vertex -81.46931366420405 -172.09824887717903 29.740787884718827
    vertex -81.46830272397649 -172.09824910052416 25.88932801739593
  endloop
endfacet
facet normal 0.00034402357905706727 0.9999999181500233 0.00021295005024061977
  outer loop
    vertex -78.95390107850011 -102.8827977803952 25.88929149360947
    vertex -81.44549569294325 -102.88276078996655 29.740790355791873
    vertex -78.95491248488545 -102.88361782824222 29.741610564181094
  endloop
endfacet
facet normal 0.00034402357905706727 0.9999999181500233 0.00021295005024061977
  outer loop
    vertex -81.44549569294325 -102.88276078996655 29.740790355791873
    vertex -78.95390107850011 -102.8827977803952 25.88929149360947
    vertex -81.44448450970941 -102.88194101334639 25.889330255783037
  endloop
endfacet
endsolid AutoSave_AutoSave_AutoSave_mousepusher 0506
