solid mousepusher 0506
facet normal 9.437580896155721e-14 2.3234236726775514e-14 1.0
  outer loop
    vertex 248.01242958918468 139.7985744397862 -11.032655080248198
    vertex 247.5054712594631 134.79874865395252 -11.032655080248094
    vertex 248.00898728669367 129.79857503225855 -11.032655080247938
  endloop
endfacet
facet normal 9.437580896155721e-14 2.3234236726775514e-14 1.0
  outer loop
    vertex 247.5054712594631 134.79874865395252 -11.032655080248094
    vertex 248.01242958918468 139.7985744397862 -11.032655080248198
    vertex 247.36953094607193 135.83407169047067 -11.032655080248082
  endloop
endfacet
facet normal 9.437580896155721e-14 2.3234236726775514e-14 1.0
  outer loop
    vertex 247.36953094607193 135.83407169047067 -11.032655080248082
    vertex 248.01242958918468 139.7985744397862 -11.032655080248198
    vertex 246.97026136684917 136.79893300789251 -11.03265508024816
  endloop
endfacet
facet normal 9.437580896155721e-14 2.3234236726775514e-14 1.0
  outer loop
    vertex 246.97026136684917 136.79893300789251 -11.03265508024816
    vertex 248.01242958918468 139.7985744397862 -11.032655080248198
    vertex 246.33487208379518 137.62757890194487 -11.032655080248016
  endloop
endfacet
facet normal 9.437580896155721e-14 2.3234236726775514e-14 1.0
  outer loop
    vertex 246.33487208379518 137.62757890194487 -11.032655080248016
    vertex 248.01242958918468 139.7985744397862 -11.032655080248198
    vertex 246.17070959758357 137.75363501383117 -11.032655080247967
  endloop
endfacet
facet normal 9.437580896155721e-14 2.3234236726775514e-14 1.0
  outer loop
    vertex 248.00898728669367 129.79857503225855 -11.032655080247938
    vertex 247.5054712594631 134.79874865395252 -11.032655080248094
    vertex 247.3688181993168 133.76351945232489 -11.032655080248105
  endloop
endfacet
facet normal 9.437580896155721e-14 2.3234236726775514e-14 1.0
  outer loop
    vertex 248.00898728669367 129.79857503225855 -11.032655080247938
    vertex 247.3688181993168 133.76351945232489 -11.032655080248105
    vertex 246.96888444585326 132.79893324488154 -11.03265508024808
  endloop
endfacet
facet normal 9.437580896155721e-14 2.3234236726775514e-14 1.0
  outer loop
    vertex 248.00898728669367 129.79857503225855 -11.032655080247938
    vertex 246.96888444585326 132.79893324488154 -11.03265508024808
    vertex 246.33292482344768 131.97072498760548 -11.032655080247787
  endloop
endfacet
facet normal 9.437580896155721e-14 2.3234236726775514e-14 1.0
  outer loop
    vertex 248.00898728669367 129.79857503225855 -11.032655080247938
    vertex 246.33292482344768 131.97072498760548 -11.032655080247787
    vertex 246.16867559149196 131.8447819249734 -11.032655080247933
  endloop
endfacet
facet normal 0.00034423024910162285 0.999999940752766 1.1279854166298582e-14
  outer loop
    vertex 248.01242958918468 139.79857443978628 -21.03265508024817
    vertex 239.0124301224097 139.80167251202812 -11.032655080247949
    vertex 248.01242958918468 139.7985744397862 -11.032655080248198
  endloop
endfacet
facet normal 2.2158438798249458e-14 2.7601006515291113e-15 1.0
  outer loop
    vertex 239.00898781991881 129.80167310450045 -11.032655080247766
    vertex 241.50427916638478 131.33671262554785 -11.032655080247977
    vertex 240.8464274594931 131.84185987497202 -11.032655080247693
  endloop
endfacet
facet normal 2.2158438798249458e-14 2.7601006515291113e-15 1.0
  outer loop
    vertex 241.50427916638478 131.33671262554785 -11.032655080247977
    vertex 239.00898781991881 129.80167310450045 -11.032655080247766
    vertex 242.46886537382755 130.936778872084 -11.032655080247663
  endloop
endfacet
facet normal 2.2158438798249458e-14 2.7601006515291113e-15 1.0
  outer loop
    vertex 242.46886537382755 130.936778872084 -11.032655080247663
    vertex 239.00898781991881 129.80167310450045 -11.032655080247766
    vertex 243.50409457545538 130.8001258119379 -11.032655080247745
  endloop
endfacet
facet normal 2.2158438798249458e-14 2.7601006515291113e-15 1.0
  outer loop
    vertex 245.5042789293957 131.33533570455165 -11.032655080247888
    vertex 248.00898728669367 129.79857503225855 -11.032655080247938
    vertex 246.16867559149196 131.8447819249734 -11.032655080247933
  endloop
endfacet
facet normal 2.2158438798249458e-14 2.7601006515291113e-15 1.0
  outer loop
    vertex 248.00898728669367 129.79857503225855 -11.032655080247938
    vertex 245.5042789293957 131.33533570455165 -11.032655080247888
    vertex 244.53941761197325 130.93606612532898 -11.03265508024786
  endloop
endfacet
facet normal 2.2158438798249458e-14 2.7601006515291113e-15 1.0
  outer loop
    vertex 248.00898728669367 129.79857503225855 -11.032655080247938
    vertex 244.53941761197325 130.93606612532898 -11.03265508024786
    vertex 243.50409457545538 130.8001258119379 -11.032655080247745
  endloop
endfacet
facet normal 2.2158438798249458e-14 2.7601006515291113e-15 1.0
  outer loop
    vertex 248.00898728669367 129.79857503225855 -11.032655080247938
    vertex 243.50409457545538 130.8001258119379 -11.032655080247745
    vertex 239.00898781991881 129.80167310450045 -11.032655080247766
  endloop
endfacet
facet normal -2.3190466719609316e-14 -1.1835877067808616e-14 -1.0
  outer loop
    vertex 248.01242958918468 139.79857443978628 -21.03265508024817
    vertex 239.00898781991881 129.80167310450037 -21.032655080247842
    vertex 239.0124301224097 139.80167251202803 -21.032655080247853
  endloop
endfacet
facet normal -2.3190466719609316e-14 -1.1835877067808616e-14 -1.0
  outer loop
    vertex 239.00898781991881 129.80167310450037 -21.032655080247842
    vertex 248.01242958918468 139.79857443978628 -21.03265508024817
    vertex 248.00898728669367 129.7985750322587 -21.032655080247945
  endloop
endfacet
facet normal 0.0003442302490840764 0.999999940752766 -4.5119416665194954e-15
  outer loop
    vertex 248.01242958918468 139.79857443978628 -21.03265508024817
    vertex 239.0124301224097 139.80167251202803 -21.032655080247853
    vertex 239.0124301224097 139.80167251202812 -11.032655080247949
  endloop
endfacet
facet normal 2.89753576643667e-14 2.357957528937308e-14 1.0
  outer loop
    vertex 239.0124301224097 139.80167251202812 -11.032655080247949
    vertex 240.67801816945612 137.62952616229234 -11.032655080248112
    vertex 240.8484647386141 137.76022122052356 -11.03265508024788
  endloop
endfacet
facet normal 2.89753576643667e-14 2.357957528937308e-14 1.0
  outer loop
    vertex 240.67801816945612 137.62952616229234 -11.032655080248112
    vertex 239.0124301224097 139.80167251202812 -11.032655080247949
    vertex 240.0420585470508 136.80131790501622 -11.032655080248114
  endloop
endfacet
facet normal 2.89753576643667e-14 2.357957528937308e-14 1.0
  outer loop
    vertex 240.0420585470508 136.80131790501622 -11.032655080248114
    vertex 239.0124301224097 139.80167251202812 -11.032655080247949
    vertex 239.64212479358665 135.836731697573 -11.03265508024797
  endloop
endfacet
facet normal 2.89753576643667e-14 2.357957528937308e-14 1.0
  outer loop
    vertex 239.64212479358665 135.836731697573 -11.03265508024797
    vertex 239.0124301224097 139.80167251202812 -11.032655080247949
    vertex 239.50547173344088 134.80150249594524 -11.032655080247848
  endloop
endfacet
facet normal 2.89753576643667e-14 2.357957528937308e-14 1.0
  outer loop
    vertex 239.50547173344088 134.80150249594524 -11.032655080247848
    vertex 239.0124301224097 139.80167251202812 -11.032655080247949
    vertex 239.00898781991881 129.80167310450045 -11.032655080247766
  endloop
endfacet
facet normal 2.89753576643667e-14 2.357957528937308e-14 1.0
  outer loop
    vertex 239.50547173344088 134.80150249594524 -11.032655080247848
    vertex 239.00898781991881 129.80167310450045 -11.032655080247766
    vertex 239.64141204683168 133.76617945942738 -11.03265508024788
  endloop
endfacet
facet normal 2.89753576643667e-14 2.357957528937308e-14 1.0
  outer loop
    vertex 239.64141204683168 133.76617945942738 -11.03265508024788
    vertex 239.00898781991881 129.80167310450045 -11.032655080247766
    vertex 240.04068162605463 132.80131814200527 -11.032655080247906
  endloop
endfacet
facet normal 2.89753576643667e-14 2.357957528937308e-14 1.0
  outer loop
    vertex 240.04068162605463 132.80131814200527 -11.032655080247906
    vertex 239.00898781991881 129.80167310450045 -11.032655080247766
    vertex 240.6760709091088 131.97267224795297 -11.03265508024803
  endloop
endfacet
facet normal 2.89753576643667e-14 2.357957528937308e-14 1.0
  outer loop
    vertex 240.6760709091088 131.97267224795297 -11.03265508024803
    vertex 239.00898781991881 129.80167310450045 -11.032655080247766
    vertex 240.8464274594931 131.84185987497202 -11.032655080247693
  endloop
endfacet
facet normal 1.9014836643847918e-14 7.144367966130808e-14 1.0
  outer loop
    vertex 239.0124301224097 139.80167251202812 -11.032655080247949
    vertex 242.4715253809304 138.66418502456892 -11.032655080247933
    vertex 248.01242958918468 139.7985744397862 -11.032655080248198
  endloop
endfacet
facet normal 1.9014836643847918e-14 7.144367966130808e-14 1.0
  outer loop
    vertex 242.4715253809304 138.66418502456892 -11.032655080247933
    vertex 239.0124301224097 139.80167251202812 -11.032655080247949
    vertex 241.50666406350828 138.2649154453463 -11.032655080247972
  endloop
endfacet
facet normal 1.9014836643847918e-14 7.144367966130808e-14 1.0
  outer loop
    vertex 241.50666406350828 138.2649154453463 -11.032655080247972
    vertex 239.0124301224097 139.80167251202812 -11.032655080247949
    vertex 240.8484647386141 137.76022122052356 -11.03265508024788
  endloop
endfacet
facet normal 1.9014836643847918e-14 7.144367966130808e-14 1.0
  outer loop
    vertex 248.01242958918468 139.7985744397862 -11.032655080248198
    vertex 242.4715253809304 138.66418502456892 -11.032655080247933
    vertex 243.50684841744825 138.80012533795994 -11.03265508024803
  endloop
endfacet
facet normal 1.9014836643847918e-14 7.144367966130808e-14 1.0
  outer loop
    vertex 248.01242958918468 139.7985744397862 -11.032655080248198
    vertex 245.5066638265192 138.26353852434994 -11.032655080247975
    vertex 246.17070959758357 137.75363501383117 -11.032655080247967
  endloop
endfacet
facet normal 1.9014836643847918e-14 7.144367966130808e-14 1.0
  outer loop
    vertex 245.5066638265192 138.26353852434994 -11.032655080247975
    vertex 248.01242958918468 139.7985744397862 -11.032655080248198
    vertex 244.54207761907588 138.66347227781404 -11.032655080247812
  endloop
endfacet
facet normal 1.9014836643847918e-14 7.144367966130808e-14 1.0
  outer loop
    vertex 244.54207761907588 138.66347227781404 -11.032655080247812
    vertex 248.01242958918468 139.7985744397862 -11.032655080248198
    vertex 243.50684841744825 138.80012533795994 -11.03265508024803
  endloop
endfacet
facet normal 0.999999940752766 -0.0003442302491001229 -4.656073724499199e-18
  outer loop
    vertex 248.01242958918468 139.7985744397862 -11.032655080248198
    vertex 248.00898728669367 129.7985750322587 -21.032655080247945
    vertex 248.01242958918468 139.79857443978628 -21.03265508024817
  endloop
endfacet
facet normal 0.999999940752766 -0.0003442302491001229 -4.656073724499199e-18
  outer loop
    vertex 248.00898728669367 129.7985750322587 -21.032655080247945
    vertex 248.01242958918468 139.7985744397862 -11.032655080248198
    vertex 248.00898728669367 129.79857503225855 -11.032655080247938
  endloop
endfacet
facet normal -0.0003442302490878399 -0.999999940752766 -5.63993530770112e-15
  outer loop
    vertex 248.00898728669367 129.7985750322587 -21.032655080247945
    vertex 239.00898781991881 129.80167310450045 -11.032655080247766
    vertex 239.00898781991881 129.80167310450037 -21.032655080247842
  endloop
endfacet
facet normal -0.0003442302490878399 -0.999999940752766 -5.63993530770112e-15
  outer loop
    vertex 239.00898781991881 129.80167310450045 -11.032655080247766
    vertex 248.00898728669367 129.7985750322587 -21.032655080247945
    vertex 248.00898728669367 129.79857503225855 -11.032655080247938
  endloop
endfacet
facet normal -0.999999940752766 0.0003442302490910973 -1.541420164267303e-18
  outer loop
    vertex 239.00898781991881 129.80167310450045 -11.032655080247766
    vertex 239.0124301224097 139.80167251202803 -21.032655080247853
    vertex 239.00898781991881 129.80167310450037 -21.032655080247842
  endloop
endfacet
facet normal -0.999999940752766 0.0003442302490910973 -1.541420164267303e-18
  outer loop
    vertex 239.0124301224097 139.80167251202803 -21.032655080247853
    vertex 239.00898781991881 129.80167310450045 -11.032655080247766
    vertex 239.0124301224097 139.80167251202812 -11.032655080247949
  endloop
endfacet
facet normal 0.9913998715698094 -0.1308674697981347 2.0224804146730105e-14
  outer loop
    vertex 239.64212479358665 135.836731697573 -11.03265508024797
    vertex 239.505471733441 134.80150249594521 -18.032655080247885
    vertex 239.64212479358682 135.83673169757293 -18.03265508024797
  endloop
endfacet
facet normal 0.9913998715698094 -0.1308674697981347 2.0224804146730105e-14
  outer loop
    vertex 239.505471733441 134.80150249594521 -18.032655080247885
    vertex 239.64212479358665 135.836731697573 -11.03265508024797
    vertex 239.50547173344088 134.80150249594524 -11.032655080247848
  endloop
endfacet
facet normal 0.7935628473855966 0.6084882967233342 -5.2132930677005973e-14
  outer loop
    vertex 240.0406816260543 132.80131814200527 -18.03265508024796
    vertex 240.6760709091088 131.97267224795297 -11.03265508024803
    vertex 240.67607090910826 131.97267224795294 -18.032655080248052
  endloop
endfacet
facet normal 0.7935628473855966 0.6084882967233342 -5.2132930677005973e-14
  outer loop
    vertex 240.6760709091088 131.97267224795297 -11.03265508024803
    vertex 240.0406816260543 132.80131814200527 -18.03265508024796
    vertex 240.04068162605463 132.80131814200527 -11.032655080247906
  endloop
endfacet
facet normal 0.9240112089871761 0.3823653824106691 -1.3759433912017733e-14
  outer loop
    vertex 239.64141204683187 133.76617945942732 -18.032655080247906
    vertex 240.04068162605463 132.80131814200527 -11.032655080247906
    vertex 240.0406816260543 132.80131814200527 -18.03265508024796
  endloop
endfacet
facet normal 0.9240112089871761 0.3823653824106691 -1.3759433912017733e-14
  outer loop
    vertex 240.04068162605463 132.80131814200527 -11.032655080247906
    vertex 239.64141204683187 133.76617945942732 -18.032655080247906
    vertex 239.64141204683168 133.76617945942738 -11.03265508024788
  endloop
endfacet
facet normal 0.9914897336971317 0.13018489917494722 1.8123535281575368e-14
  outer loop
    vertex 239.505471733441 134.80150249594521 -18.032655080247885
    vertex 239.64141204683168 133.76617945942738 -11.03265508024788
    vertex 239.64141204683187 133.76617945942732 -18.032655080247906
  endloop
endfacet
facet normal 0.9914897336971317 0.13018489917494722 1.8123535281575368e-14
  outer loop
    vertex 239.64141204683168 133.76617945942738 -11.03265508024788
    vertex 239.505471733441 134.80150249594521 -18.032655080247885
    vertex 239.50547173344088 134.80150249594524 -11.032655080247848
  endloop
endfacet
facet normal 0.7931437391890018 -0.6090344891591023 -2.163313798007976e-14
  outer loop
    vertex 240.67801816945612 137.62952616229234 -11.032655080248112
    vertex 240.04205854705089 136.80131790501613 -18.032655080247917
    vertex 240.67801816945558 137.6295261622923 -18.03265508024796
  endloop
endfacet
facet normal 0.7931437391890018 -0.6090344891591023 -2.163313798007976e-14
  outer loop
    vertex 240.04205854705089 136.80131790501613 -18.032655080247917
    vertex 240.67801816945612 137.62952616229234 -11.032655080248112
    vertex 240.0420585470508 136.80131790501622 -11.032655080248114
  endloop
endfacet
facet normal 0.9237477465606506 -0.3830014369739624 2.1563405052668848e-14
  outer loop
    vertex 240.04205854705089 136.80131790501613 -18.032655080247917
    vertex 239.64212479358665 135.836731697573 -11.03265508024797
    vertex 239.64212479358682 135.83673169757293 -18.03265508024797
  endloop
endfacet
facet normal 0.9237477465606506 -0.3830014369739624 2.1563405052668848e-14
  outer loop
    vertex 239.64212479358665 135.836731697573 -11.03265508024797
    vertex 240.04205854705089 136.80131790501613 -18.032655080247917
    vertex 240.0420585470508 136.80131790501622 -11.032655080248114
  endloop
endfacet
facet normal 0.864869367024362 -0.501996510245629 -0.0006940346456547162
  outer loop
    vertex 247.06119474284284 147.25502784633846 9.159378778990758
    vertex 246.5449915562513 146.34760839480487 9.169141950887903
    vertex 246.32178623921865 146.0048146552232 -19.87006064803892
  endloop
endfacet
facet normal 0.864869367024362 -0.501996510245629 -0.0006940346456547162
  outer loop
    vertex 246.5449915562513 146.34760839480487 9.169141950887903
    vertex 247.06119474284284 147.25502784633846 9.159378778990758
    vertex 247.07700405752027 147.27693053928337 12.030960732947905
  endloop
endfacet
facet normal 0.864869367024362 -0.501996510245629 -0.0006940346456547162
  outer loop
    vertex 246.5449915562513 146.34760839480487 9.169141950887903
    vertex 247.07700405752027 147.27693053928337 12.030960732947905
    vertex 246.56080087092874 146.3695110877498 12.04072390484509
  endloop
endfacet
facet normal 0.8648693670244478 -0.5019965102454814 -0.0006940346456616559
  outer loop
    vertex 247.06119474284284 147.25502784633846 9.159378778990758
    vertex 246.32178623921865 146.0048146552232 -19.87006064803892
    vertex 246.83798942581012 146.91223410675678 -19.87982381993632
  endloop
endfacet
facet normal 0.7050123204415493 -0.7091913185072964 0.0023025593379524074
  outer loop
    vertex 246.5449915562513 146.34760839480487 9.169141950887903
    vertex 245.59065878993815 145.2632768970383 -19.860379469446247
    vertex 246.32178623921865 146.0048146552232 -19.87006064803892
  endloop
endfacet
facet normal 0.705012320441543 -0.7091913185073023 0.0023025593379527544
  outer loop
    vertex 245.81386410697073 145.60607063662005 9.178823129480627
    vertex 245.59065878993815 145.2632768970383 -19.860379469446247
    vertex 246.5449915562513 146.34760839480487 9.169141950887903
  endloop
endfacet
facet normal 0.9657937141905713 -0.25928581976464093 -0.00365585817004523
  outer loop
    vertex 247.06119474284284 147.25502784633846 9.159378778990758
    vertex 246.83798942581012 146.91223410675678 -19.87982381993632
    vertex 247.3272952726456 148.2664898551806 9.150198957819239
  endloop
endfacet
facet normal 0.25840081130631687 -0.9660079367582863 0.00759518506924726
  outer loop
    vertex 244.91763752242446 145.08094914455566 9.187762558446348
    vertex 243.69418284623222 144.46523634090926 -19.843851568452386
    vertex 244.6944322053917 144.73815540497378 -19.851440040480526
  endloop
endfacet
facet normal 0.4980320434307081 -0.8671434661399067 0.0051276551270080795
  outer loop
    vertex 245.81386410697073 145.60607063662005 9.178823129480627
    vertex 244.91763752242446 145.08094914455566 9.187762558446348
    vertex 245.59065878993815 145.2632768970383 -19.860379469446247
  endloop
endfacet
facet normal 0.4980320434307316 -0.8671434661398935 0.005127655127008602
  outer loop
    vertex 245.59065878993815 145.2632768970383 -19.860379469446247
    vertex 244.91763752242446 145.08094914455566 9.187762558446348
    vertex 244.6944322053917 144.73815540497378 -19.851440040480526
  endloop
endfacet
facet normal -0.9657937141905664 0.25928581976465925 0.0036558581700442383
  outer loop
    vertex 239.45514640063644 149.2969797864626 9.18567862574832
    vertex 239.7212469304392 150.3084417953048 9.176498804577033
    vertex 239.49804161340631 149.96564805572297 -19.86270379435011
  endloop
endfacet
facet normal -0.9657937141905877 0.25928581976457943 0.0036558581700427205
  outer loop
    vertex 239.45514640063644 149.2969797864626 9.18567862574832
    vertex 239.49804161340631 149.96564805572297 -19.86270379435011
    vertex 239.2319410836038 148.95418604688092 -19.853523973178547
  endloop
endfacet
facet normal -0.9999776554525236 -0.0020228535348016216 0.006371550772844665
  outer loop
    vertex 239.45728283897708 148.25040468469453 9.193649506551651
    vertex 239.45514640063644 149.2969797864626 9.18567862574832
    vertex 239.2319410836038 148.95418604688092 -19.853523973178547
  endloop
endfacet
facet normal -0.25440313121243974 -0.9670372547660793 0.01086253763131271
  outer loop
    vertex 242.8812813703286 144.80591242762245 9.201071403736737
    vertex 241.65672079227397 144.73194676091148 -19.83466875467838
    vertex 242.6580760532959 144.46311868804065 -19.838131195190183
  endloop
endfacet
facet normal -0.25440313121238906 -0.9670372547660924 0.010862537631310969
  outer loop
    vertex 242.8812813703286 144.80591242762245 9.201071403736737
    vertex 241.8799261093067 145.07474050049322 9.20453384424854
    vertex 241.65672079227397 144.73194676091148 -19.83466875467838
  endloop
endfacet
facet normal -0.4944360288838017 -0.8691385864796278 0.011451237217473658
  outer loop
    vertex 241.8799261093067 145.07474050049322 9.20453384424854
    vertex 240.98156308641987 145.59619411019665 9.205502392411049
    vertex 240.7583577693872 145.25340037061486 -19.833700206515875
  endloop
endfacet
facet normal -0.4944360288837338 -0.8691385864796665 0.01145123721747132
  outer loop
    vertex 241.8799261093067 145.07474050049322 9.20453384424854
    vertex 240.7583577693872 145.25340037061486 -19.833700206515875
    vertex 241.65672079227397 144.73194676091148 -19.83466875467838
  endloop
endfacet
facet normal -0.7020629100328158 -0.7120257754133089 0.011267897023421425
  outer loop
    vertex 240.98156308641987 145.59619411019665 9.205502392411049
    vertex 240.24741425706307 146.33473705497417 9.203911043267624
    vertex 240.02420894003043 145.99194331539243 -19.835291555659285
  endloop
endfacet
facet normal -0.7020629100328603 -0.7120257754132652 0.011267897023423115
  outer loop
    vertex 240.98156308641987 145.59619411019665 9.205502392411049
    vertex 240.02420894003043 145.99194331539243 -19.835291555659285
    vertex 240.7583577693872 145.25340037061486 -19.833700206515875
  endloop
endfacet
facet normal 0.0020668728154326767 -0.999952280036542 0.009548072396345612
  outer loop
    vertex 243.917388163265 144.80803008049094 9.195351030474605
    vertex 242.6580760532959 144.46311868804065 -19.838131195190183
    vertex 243.69418284623222 144.46523634090926 -19.843851568452386
  endloop
endfacet
facet normal 0.258400811306456 -0.9660079367582491 0.007595185069241768
  outer loop
    vertex 244.91763752242446 145.08094914455566 9.187762558446348
    vertex 243.917388163265 144.80803008049094 9.195351030474605
    vertex 243.69418284623222 144.46523634090926 -19.843851568452386
  endloop
endfacet
facet normal 0.0020668728153464097 -0.9999522800365421 0.009548072396348709
  outer loop
    vertex 243.917388163265 144.80803008049094 9.195351030474605
    vertex 242.8812813703286 144.80591242762245 9.201071403736737
    vertex 242.6580760532959 144.46311868804065 -19.838131195190183
  endloop
endfacet
facet normal -0.862774328142571 -0.5054840076076957 0.010313910557966308
  outer loop
    vertex 240.24741425706307 146.33473705497417 9.203911043267624
    vertex 239.50430533368572 146.8972451140574 -19.839334354294373
    vertex 240.02420894003043 145.99194331539243 -19.835291555659285
  endloop
endfacet
facet normal -0.8627743281426129 -0.5054840076076251 0.010313910557968304
  outer loop
    vertex 240.24741425706307 146.33473705497417 9.203911043267624
    vertex 239.7275106507185 147.24003885363925 9.199868244632448
    vertex 239.50430533368572 146.8972451140574 -19.839334354294373
  endloop
endfacet
facet normal -0.964705611659506 -0.2631888153260768 0.008644670029260398
  outer loop
    vertex 239.7275106507185 147.24003885363925 9.199868244632448
    vertex 239.45728283897708 148.25040468469453 9.193649506551651
    vertex 239.50430533368572 146.8972451140574 -19.839334354294373
  endloop
endfacet
facet normal -0.9647056116595076 -0.2631888153260706 0.008644670029260173
  outer loop
    vertex 239.45728283897708 148.25040468469453 9.193649506551651
    vertex 239.23407752194422 147.90761094511302 -19.84555309237525
    vertex 239.50430533368572 146.8972451140574 -19.839334354294373
  endloop
endfacet
facet normal -0.9999776554525238 -0.0020228535346892575 0.006371550772846873
  outer loop
    vertex 239.45728283897708 148.25040468469453 9.193649506551651
    vertex 239.2319410836038 148.95418604688092 -19.853523973178547
    vertex 239.23407752194422 147.90761094511302 -19.84555309237525
  endloop
endfacet
facet normal -0.8648693670243597 0.5019965102456335 0.0006940346456571411
  outer loop
    vertex 239.7212469304392 150.3084417953048 9.176498804577033
    vertex 240.23745011703085 151.21586124683844 9.166735632679826
    vertex 240.01424479999812 150.87306750725662 -19.872466966247313
  endloop
endfacet
facet normal -0.8648693670243597 0.5019965102456335 0.0006940346456571411
  outer loop
    vertex 240.23745011703085 151.21586124683844 9.166735632679826
    vertex 239.7212469304392 150.3084417953048 9.176498804577033
    vertex 240.25325943170827 151.23776393978343 12.038317586636973
  endloop
endfacet
facet normal -0.8648693670243597 0.5019965102456335 0.0006940346456571411
  outer loop
    vertex 240.25325943170827 151.23776393978343 12.038317586636973
    vertex 239.7212469304392 150.3084417953048 9.176498804577033
    vertex 239.7370562451167 150.33034448824978 12.048080758534203
  endloop
endfacet
facet normal -0.7050123204414552 0.7091913185073899 -0.0023025593379526273
  outer loop
    vertex 240.01424479999812 150.87306750725662 -19.872466966247313
    vertex 240.9685775663114 151.9573990050231 9.157054454087131
    vertex 240.74537224927866 151.61460526544138 -19.88214814483997
  endloop
endfacet
facet normal -0.7050123204414552 0.7091913185073899 -0.0023025593379526273
  outer loop
    vertex 240.9685775663114 151.9573990050231 9.157054454087131
    vertex 240.01424479999812 150.87306750725662 -19.872466966247313
    vertex 240.23745011703085 151.21586124683844 9.166735632679826
  endloop
endfacet
facet normal -0.8648693670243476 0.5019965102456538 0.0006940346456575645
  outer loop
    vertex 239.7212469304392 150.3084417953048 9.176498804577033
    vertex 240.01424479999812 150.87306750725662 -19.872466966247313
    vertex 239.49804161340631 149.96564805572297 -19.86270379435011
  endloop
endfacet
facet normal 0.7020629100327866 0.7120257754133376 -0.01126789702342289
  outer loop
    vertex 246.53502741621907 151.22873258666917 9.131966540300184
    vertex 246.3118220991863 150.88593884708743 -19.907236058626907
    vertex 245.80087858686224 151.96727553144666 9.13037519115664
  endloop
endfacet
facet normal 0.862774328142645 0.5054840076075701 -0.010313910557967938
  outer loop
    vertex 247.05493102256366 150.32343078800406 9.136009338935287
    vertex 246.83172570553094 149.9806370484223 -19.903193259991852
    vertex 246.53502741621907 151.22873258666917 9.131966540300184
  endloop
endfacet
facet normal 0.9999776554525237 0.0020228535347573883 -0.00637155077284405
  outer loop
    vertex 247.32515883430503 149.31306495694858 9.142228077015902
    vertex 247.1040899556129 147.92369611559883 -19.88900364110777
    vertex 247.10195351727228 148.9702712173668 -19.896974521910963
  endloop
endfacet
facet normal 0.9647056116595126 0.2631888153260526 -0.008644670029260667
  outer loop
    vertex 247.05493102256366 150.32343078800406 9.136009338935287
    vertex 247.10195351727228 148.9702712173668 -19.896974521910963
    vertex 246.83172570553094 149.9806370484223 -19.903193259991852
  endloop
endfacet
facet normal 0.9647056116595307 0.26318881532598604 -0.008644670029258119
  outer loop
    vertex 247.32515883430503 149.31306495694858 9.142228077015902
    vertex 247.10195351727228 148.9702712173668 -19.896974521910963
    vertex 247.05493102256366 150.32343078800406 9.136009338935287
  endloop
endfacet
facet normal 0.8627743281426549 0.5054840076075533 -0.01031391055796728
  outer loop
    vertex 246.53502741621907 151.22873258666917 9.131966540300184
    vertex 246.83172570553094 149.9806370484223 -19.903193259991852
    vertex 246.3118220991863 150.88593884708743 -19.907236058626907
  endloop
endfacet
facet normal 0.9999776554525236 0.0020228535348167224 -0.006371550772846352
  outer loop
    vertex 247.3272952726456 148.2664898551806 9.150198957819239
    vertex 247.1040899556129 147.92369611559883 -19.88900364110777
    vertex 247.32515883430503 149.31306495694858 9.142228077015902
  endloop
endfacet
facet normal 0.9657937141905516 -0.25928581976471365 -0.003655858170042215
  outer loop
    vertex 247.3272952726456 148.2664898551806 9.150198957819239
    vertex 246.83798942581012 146.91223410675678 -19.87982381993632
    vertex 247.1040899556129 147.92369611559883 -19.88900364110777
  endloop
endfacet
facet normal -0.006661136140023544 -0.009415912010420701 -0.9999334827208939
  outer loop
    vertex 244.67931024694275 152.1459354015684 -19.907858859607803
    vertex 242.6418481929844 152.41264582157046 -19.898676045833838
    vertex 243.6779549859207 152.4147634744392 -19.90439641909613
  endloop
endfacet
facet normal -0.006661136140023544 -0.009415912010420701 -0.9999334827208939
  outer loop
    vertex 242.6418481929844 152.41264582157046 -19.898676045833838
    vertex 244.67931024694275 152.1459354015684 -19.907858859607803
    vertex 241.64159883382493 152.13972675750594 -19.89108757380579
  endloop
endfacet
facet normal -0.006661136140023544 -0.009415912010420701 -0.9999334827208939
  outer loop
    vertex 241.64159883382493 152.13972675750594 -19.89108757380579
    vertex 244.67931024694275 152.1459354015684 -19.907858859607803
    vertex 245.57767326982952 151.62448179186495 -19.908827407770417
  endloop
endfacet
facet normal -0.006661136140023544 -0.009415912010420701 -0.9999334827208939
  outer loop
    vertex 241.64159883382493 152.13972675750594 -19.89108757380579
    vertex 245.57767326982952 151.62448179186495 -19.908827407770417
    vertex 240.74537224927866 151.61460526544138 -19.88214814483997
  endloop
endfacet
facet normal -0.006661136140023544 -0.009415912010420701 -0.9999334827208939
  outer loop
    vertex 240.74537224927866 151.61460526544138 -19.88214814483997
    vertex 245.57767326982952 151.62448179186495 -19.908827407770417
    vertex 246.3118220991863 150.88593884708743 -19.907236058626907
  endloop
endfacet
facet normal -0.006661136140023544 -0.009415912010420701 -0.9999334827208939
  outer loop
    vertex 240.74537224927866 151.61460526544138 -19.88214814483997
    vertex 246.3118220991863 150.88593884708743 -19.907236058626907
    vertex 240.01424479999812 150.87306750725662 -19.872466966247313
  endloop
endfacet
facet normal -0.006661136140023544 -0.009415912010420701 -0.9999334827208939
  outer loop
    vertex 240.01424479999812 150.87306750725662 -19.872466966247313
    vertex 246.3118220991863 150.88593884708743 -19.907236058626907
    vertex 246.83172570553094 149.9806370484223 -19.903193259991852
  endloop
endfacet
facet normal -0.006661136140023544 -0.009415912010420701 -0.9999334827208939
  outer loop
    vertex 240.01424479999812 150.87306750725662 -19.872466966247313
    vertex 246.83172570553094 149.9806370484223 -19.903193259991852
    vertex 239.49804161340631 149.96564805572297 -19.86270379435011
  endloop
endfacet
facet normal -0.006661136140023544 -0.009415912010420701 -0.9999334827208939
  outer loop
    vertex 239.49804161340631 149.96564805572297 -19.86270379435011
    vertex 246.83172570553094 149.9806370484223 -19.903193259991852
    vertex 247.10195351727228 148.9702712173668 -19.896974521910963
  endloop
endfacet
facet normal -0.006661136140023544 -0.009415912010420701 -0.9999334827208939
  outer loop
    vertex 239.49804161340631 149.96564805572297 -19.86270379435011
    vertex 247.10195351727228 148.9702712173668 -19.896974521910963
    vertex 239.2319410836038 148.95418604688092 -19.853523973178547
  endloop
endfacet
facet normal -0.006661136140023544 -0.009415912010420701 -0.9999334827208939
  outer loop
    vertex 239.2319410836038 148.95418604688092 -19.853523973178547
    vertex 247.10195351727228 148.9702712173668 -19.896974521910963
    vertex 247.1040899556129 147.92369611559883 -19.88900364110777
  endloop
endfacet
facet normal -0.006661136140023544 -0.009415912010420701 -0.9999334827208939
  outer loop
    vertex 239.2319410836038 148.95418604688092 -19.853523973178547
    vertex 247.1040899556129 147.92369611559883 -19.88900364110777
    vertex 239.23407752194422 147.90761094511302 -19.84555309237525
  endloop
endfacet
facet normal -0.006661136140023544 -0.009415912010420701 -0.9999334827208939
  outer loop
    vertex 239.23407752194422 147.90761094511302 -19.84555309237525
    vertex 247.1040899556129 147.92369611559883 -19.88900364110777
    vertex 246.83798942581012 146.91223410675678 -19.87982381993632
  endloop
endfacet
facet normal -0.006661136140023544 -0.009415912010420701 -0.9999334827208939
  outer loop
    vertex 239.23407752194422 147.90761094511302 -19.84555309237525
    vertex 246.83798942581012 146.91223410675678 -19.87982381993632
    vertex 239.50430533368572 146.8972451140574 -19.839334354294373
  endloop
endfacet
facet normal -0.006661136140023544 -0.009415912010420701 -0.9999334827208939
  outer loop
    vertex 239.50430533368572 146.8972451140574 -19.839334354294373
    vertex 246.83798942581012 146.91223410675678 -19.87982381993632
    vertex 246.32178623921865 146.0048146552232 -19.87006064803892
  endloop
endfacet
facet normal -0.006661136140023544 -0.009415912010420701 -0.9999334827208939
  outer loop
    vertex 239.50430533368572 146.8972451140574 -19.839334354294373
    vertex 246.32178623921865 146.0048146552232 -19.87006064803892
    vertex 240.02420894003043 145.99194331539243 -19.835291555659285
  endloop
endfacet
facet normal -0.006661136140023544 -0.009415912010420701 -0.9999334827208939
  outer loop
    vertex 240.02420894003043 145.99194331539243 -19.835291555659285
    vertex 246.32178623921865 146.0048146552232 -19.87006064803892
    vertex 245.59065878993815 145.2632768970383 -19.860379469446247
  endloop
endfacet
facet normal -0.006661136140023544 -0.009415912010420701 -0.9999334827208939
  outer loop
    vertex 240.02420894003043 145.99194331539243 -19.835291555659285
    vertex 245.59065878993815 145.2632768970383 -19.860379469446247
    vertex 240.7583577693872 145.25340037061486 -19.833700206515875
  endloop
endfacet
facet normal -0.006661136140023544 -0.009415912010420701 -0.9999334827208939
  outer loop
    vertex 240.7583577693872 145.25340037061486 -19.833700206515875
    vertex 245.59065878993815 145.2632768970383 -19.860379469446247
    vertex 244.6944322053917 144.73815540497378 -19.851440040480526
  endloop
endfacet
facet normal -0.006661136140023544 -0.009415912010420701 -0.9999334827208939
  outer loop
    vertex 240.7583577693872 145.25340037061486 -19.833700206515875
    vertex 244.6944322053917 144.73815540497378 -19.851440040480526
    vertex 241.65672079227397 144.73194676091148 -19.83466875467838
  endloop
endfacet
facet normal -0.006661136140023544 -0.009415912010420701 -0.9999334827208939
  outer loop
    vertex 241.65672079227397 144.73194676091148 -19.83466875467838
    vertex 244.6944322053917 144.73815540497378 -19.851440040480526
    vertex 243.69418284623222 144.46523634090926 -19.843851568452386
  endloop
endfacet
facet normal -0.006661136140023544 -0.009415912010420701 -0.9999334827208939
  outer loop
    vertex 241.65672079227397 144.73194676091148 -19.83466875467838
    vertex 243.69418284623222 144.46523634090926 -19.843851568452386
    vertex 242.6580760532959 144.46311868804065 -19.838131195190183
  endloop
endfacet
facet normal -0.0020668728154534274 0.999952280036542 -0.009548072396347066
  outer loop
    vertex 243.9011603029536 152.75755721402084 9.134806179831065
    vertex 242.6418481929844 152.41264582157046 -19.898676045833838
    vertex 242.86505351001713 152.7554395611522 9.140526553093192
  endloop
endfacet
facet normal 0.25434538261060186 0.9669379811484464 -0.01842191513478459
  outer loop
    vertex 244.9025155639753 152.48872914115015 9.131343739319318
    vertex 242.6418481929844 152.41264582157046 -19.898676045833838
    vertex 243.9011603029536 152.75755721402084 9.134806179831065
  endloop
endfacet
facet normal -0.2584008113062472 0.9660079367583049 -0.0075951850692454895
  outer loop
    vertex 242.86505351001713 152.7554395611522 9.140526553093192
    vertex 242.6418481929844 152.41264582157046 -19.898676045833838
    vertex 241.8648041508577 152.48252049708776 9.148115025121387
  endloop
endfacet
facet normal -0.0020164898125419706 0.9999959806484027 -0.0019931020734265336
  outer loop
    vertex 244.9025155639753 152.48872914115015 9.131343739319318
    vertex 243.6779549859207 152.4147634744392 -19.90439641909613
    vertex 242.6418481929844 152.41264582157046 -19.898676045833838
  endloop
endfacet
facet normal 0.7020629100327932 0.7120257754133312 -0.011267897023422607
  outer loop
    vertex 246.3118220991863 150.88593884708743 -19.907236058626907
    vertex 245.57767326982952 151.62448179186495 -19.908827407770417
    vertex 245.80087858686224 151.96727553144666 9.13037519115664
  endloop
endfacet
facet normal -0.25840081130625353 0.9660079367583032 -0.007595185069245636
  outer loop
    vertex 242.6418481929844 152.41264582157046 -19.898676045833838
    vertex 241.64159883382493 152.13972675750594 -19.89108757380579
    vertex 241.8648041508577 152.48252049708776 9.148115025121387
  endloop
endfacet
facet normal -0.49803204343088164 0.8671434661398072 -0.005127655127004268
  outer loop
    vertex 241.64159883382493 152.13972675750594 -19.89108757380579
    vertex 240.74537224927866 151.61460526544138 -19.88214814483997
    vertex 240.9685775663114 151.9573990050231 9.157054454087131
  endloop
endfacet
facet normal 0.25440313121243263 0.967037254766081 -0.010862537631311581
  outer loop
    vertex 244.9025155639753 152.48872914115015 9.131343739319318
    vertex 244.67931024694275 152.1459354015684 -19.907858859607803
    vertex 243.6779549859207 152.4147634744392 -19.90439641909613
  endloop
endfacet
facet normal -0.49803204343089896 0.8671434661397973 -0.005127655127004653
  outer loop
    vertex 241.8648041508577 152.48252049708776 9.148115025121387
    vertex 241.64159883382493 152.13972675750594 -19.89108757380579
    vertex 240.9685775663114 151.9573990050231 9.157054454087131
  endloop
endfacet
facet normal 0.49443602888379423 0.8691385864796323 -0.01145123721747195
  outer loop
    vertex 245.80087858686224 151.96727553144666 9.13037519115664
    vertex 244.67931024694275 152.1459354015684 -19.907858859607803
    vertex 244.9025155639753 152.48872914115015 9.131343739319318
  endloop
endfacet
facet normal 0.49443602888380594 0.8691385864796254 -0.011451237217472363
  outer loop
    vertex 245.80087858686224 151.96727553144666 9.13037519115664
    vertex 245.57767326982952 151.62448179186495 -19.908827407770417
    vertex 244.67931024694275 152.1459354015684 -19.907858859607803
  endloop
endfacet
facet normal 2.8828791206099917e-13 3.931630414058866e-15 0.9999999999999999
  outer loop
    vertex 238.81048058099333 143.7512941275056 -16.141107661711168
    vertex 274.376090159083 156.92981851561305 -16.141107661721367
    vertex 238.81048058099327 156.92981851561305 -16.14110766171115
  endloop
endfacet
facet normal 2.8828791206099917e-13 3.931630414058866e-15 0.9999999999999999
  outer loop
    vertex 274.376090159083 156.92981851561305 -16.141107661721367
    vertex 283.3245641590831 143.75129412750562 -16.141107661723957
    vertex 283.3245641590831 156.92981851561308 -16.141107661723936
  endloop
endfacet
facet normal 2.8828791206099917e-13 3.931630414058866e-15 0.9999999999999999
  outer loop
    vertex 283.3245641590831 143.75129412750562 -16.141107661723957
    vertex 274.376090159083 156.92981851561305 -16.141107661721367
    vertex 238.81048058099333 143.7512941275056 -16.141107661711168
  endloop
endfacet
facet normal -8.559278412362111e-16 1.0 -3.1780134079895145e-15
  outer loop
    vertex 274.376090159083 156.92981851561305 -16.141107661721367
    vertex 283.3245641590816 156.92981851561308 -21.02928666172393
    vertex 238.81048058099196 156.92981851561302 -21.029286661711136
  endloop
endfacet
facet normal -8.559278412362111e-16 1.0 -3.1780134079895145e-15
  outer loop
    vertex 283.3245641590816 156.92981851561308 -21.02928666172393
    vertex 274.376090159083 156.92981851561305 -16.141107661721367
    vertex 283.3245641590831 156.92981851561308 -16.141107661723936
  endloop
endfacet
facet normal -8.559278412362111e-16 1.0 -3.1780134079895145e-15
  outer loop
    vertex 274.376090159083 156.92981851561305 -16.141107661721367
    vertex 238.81048058099196 156.92981851561302 -21.029286661711136
    vertex 238.81048058099327 156.92981851561305 -16.14110766171115
  endloop
endfacet
facet normal -1.0 -8.55927841235299e-16 2.8734029745917256e-13
  outer loop
    vertex 238.81048058099333 143.7512941275056 -16.141107661711168
    vertex 238.81048058099196 156.92981851561302 -21.029286661711136
    vertex 238.81048058099196 143.7512941275055 -21.02928666171111
  endloop
endfacet
facet normal -1.0 -8.55927841235299e-16 2.8734029745917256e-13
  outer loop
    vertex 238.81048058099196 156.92981851561302 -21.029286661711136
    vertex 238.81048058099333 143.7512941275056 -16.141107661711168
    vertex 238.81048058099327 156.92981851561305 -16.14110766171115
  endloop
endfacet
facet normal -2.8828791206099917e-13 -8.158434568311758e-15 -0.9999999999999999
  outer loop
    vertex 283.3245641590817 143.75129412750556 -21.02928666172391
    vertex 238.81048058099196 156.92981851561302 -21.029286661711136
    vertex 283.3245641590816 156.92981851561308 -21.02928666172393
  endloop
endfacet
facet normal -2.8828791206099917e-13 -8.158434568311758e-15 -0.9999999999999999
  outer loop
    vertex 238.81048058099196 156.92981851561302 -21.029286661711136
    vertex 283.3245641590817 143.75129412750556 -21.02928666172391
    vertex 238.81048058099196 143.7512941275055 -21.02928666171111
  endloop
endfacet
facet normal 8.559278412360007e-16 -1.0 2.4485968808107863e-15
  outer loop
    vertex 238.81048058099196 143.7512941275055 -21.02928666171111
    vertex 283.3245641590831 143.75129412750562 -16.141107661723957
    vertex 238.81048058099333 143.7512941275056 -16.141107661711168
  endloop
endfacet
facet normal 8.559278412360007e-16 -1.0 2.4485968808107863e-15
  outer loop
    vertex 283.3245641590831 143.75129412750562 -16.141107661723957
    vertex 238.81048058099196 143.7512941275055 -21.02928666171111
    vertex 283.3245641590817 143.75129412750556 -21.02928666172391
  endloop
endfacet
facet normal 1.0 -1.7378802205381977e-17 -2.8734029745917256e-13
  outer loop
    vertex 283.3245641590816 156.92981851561308 -21.02928666172393
    vertex 283.3245641590831 143.75129412750562 -16.141107661723957
    vertex 283.3245641590817 143.75129412750556 -21.02928666172391
  endloop
endfacet
facet normal 1.0 -1.7378802205381977e-17 -2.8734029745917256e-13
  outer loop
    vertex 283.3245641590831 143.75129412750562 -16.141107661723957
    vertex 283.3245641590816 156.92981851561308 -21.02928666172393
    vertex 283.3245641590831 156.92981851561308 -16.141107661723936
  endloop
endfacet
facet normal 0.006661136140022559 0.009415912010404258 0.999933482720894
  outer loop
    vertex 242.88086282469465 152.7773422540972 12.01210850705038
    vertex 244.9183248786529 152.5106318340951 12.00292569327646
    vertex 243.91696961763114 152.77945990696585 12.006388133788201
  endloop
endfacet
facet normal 0.006661136140022559 0.009415912010404258 0.999933482720894
  outer loop
    vertex 244.9183248786529 152.5106318340951 12.00292569327646
    vertex 242.88086282469465 152.7773422540972 12.01210850705038
    vertex 241.8806134655351 152.50442319003275 12.019696979078534
  endloop
endfacet
facet normal 0.006661136140022559 0.009415912010404258 0.999933482720894
  outer loop
    vertex 244.9183248786529 152.5106318340951 12.00292569327646
    vertex 241.8806134655351 152.50442319003275 12.019696979078534
    vertex 245.81668790153975 151.9891782243916 12.001957145113787
  endloop
endfacet
facet normal 0.006661136140022559 0.009415912010404258 0.999933482720894
  outer loop
    vertex 245.81668790153975 151.9891782243916 12.001957145113787
    vertex 241.8806134655351 152.50442319003275 12.019696979078534
    vertex 240.9843868809889 151.97930169796808 12.028636408044278
  endloop
endfacet
facet normal 0.006661136140022559 0.009415912010404258 0.999933482720894
  outer loop
    vertex 245.81668790153975 151.9891782243916 12.001957145113787
    vertex 240.9843868809889 151.97930169796808 12.028636408044278
    vertex 246.55083673089655 151.2506352796141 12.003548494257377
  endloop
endfacet
facet normal 0.006661136140022559 0.009415912010404258 0.999933482720894
  outer loop
    vertex 246.55083673089655 151.2506352796141 12.003548494257377
    vertex 240.9843868809889 151.97930169796808 12.028636408044278
    vertex 240.25325943170827 151.23776393978343 12.038317586636973
  endloop
endfacet
facet normal 0.006661136140022559 0.009415912010404258 0.999933482720894
  outer loop
    vertex 246.55083673089655 151.2506352796141 12.003548494257377
    vertex 240.25325943170827 151.23776393978343 12.038317586636973
    vertex 247.07074033724118 150.34533348094902 12.007591292892434
  endloop
endfacet
facet normal 0.006661136140022559 0.009415912010404258 0.999933482720894
  outer loop
    vertex 247.07074033724118 150.34533348094902 12.007591292892434
    vertex 240.25325943170827 151.23776393978343 12.038317586636973
    vertex 239.7370562451167 150.33034448824978 12.048080758534203
  endloop
endfacet
facet normal 0.006661136140022559 0.009415912010404258 0.999933482720894
  outer loop
    vertex 247.07074033724118 150.34533348094902 12.007591292892434
    vertex 239.7370562451167 150.33034448824978 12.048080758534203
    vertex 247.3409681489825 149.33496764989354 12.013810030973039
  endloop
endfacet
facet normal 0.006661136140022559 0.009415912010404258 0.999933482720894
  outer loop
    vertex 247.3409681489825 149.33496764989354 12.013810030973039
    vertex 239.7370562451167 150.33034448824978 12.048080758534203
    vertex 239.47095571531395 149.31888247940762 12.057260579705469
  endloop
endfacet
facet normal 0.006661136140022559 0.009415912010404258 0.999933482720894
  outer loop
    vertex 247.3409681489825 149.33496764989354 12.013810030973039
    vertex 239.47095571531395 149.31888247940762 12.057260579705469
    vertex 247.34310458732307 148.28839254812553 12.021780911776437
  endloop
endfacet
facet normal 0.006661136140022559 0.009415912010404258 0.999933482720894
  outer loop
    vertex 247.34310458732307 148.28839254812553 12.021780911776437
    vertex 239.47095571531395 149.31888247940762 12.057260579705469
    vertex 239.47309215365448 148.27230737763955 12.065231460508805
  endloop
endfacet
facet normal 0.006661136140022559 0.009415912010404258 0.999933482720894
  outer loop
    vertex 247.34310458732307 148.28839254812553 12.021780911776437
    vertex 239.47309215365448 148.27230737763955 12.065231460508805
    vertex 247.07700405752027 147.27693053928337 12.030960732947905
  endloop
endfacet
facet normal 0.006661136140022559 0.009415912010404258 0.999933482720894
  outer loop
    vertex 247.07700405752027 147.27693053928337 12.030960732947905
    vertex 239.47309215365448 148.27230737763955 12.065231460508805
    vertex 239.74331996539593 147.2619415465842 12.071450198589613
  endloop
endfacet
facet normal 0.006661136140022559 0.009415912010404258 0.999933482720894
  outer loop
    vertex 247.07700405752027 147.27693053928337 12.030960732947905
    vertex 239.74331996539593 147.2619415465842 12.071450198589613
    vertex 246.56080087092874 146.3695110877498 12.04072390484509
  endloop
endfacet
facet normal 0.006661136140022559 0.009415912010404258 0.999933482720894
  outer loop
    vertex 246.56080087092874 146.3695110877498 12.04072390484509
    vertex 239.74331996539593 147.2619415465842 12.071450198589613
    vertex 240.26322357174058 146.3566397479191 12.07549299722481
  endloop
endfacet
facet normal 0.006661136140022559 0.009415912010404258 0.999933482720894
  outer loop
    vertex 246.56080087092874 146.3695110877498 12.04072390484509
    vertex 240.26322357174058 146.3566397479191 12.07549299722481
    vertex 245.82967342164824 145.62797332956498 12.050405083437786
  endloop
endfacet
facet normal 0.006661136140022559 0.009415912010404258 0.999933482720894
  outer loop
    vertex 245.82967342164824 145.62797332956498 12.050405083437786
    vertex 240.26322357174058 146.3566397479191 12.07549299722481
    vertex 240.99737240109735 145.61809680314158 12.077084346368213
  endloop
endfacet
facet normal 0.006661136140022559 0.009415912010404258 0.999933482720894
  outer loop
    vertex 245.82967342164824 145.62797332956498 12.050405083437786
    vertex 240.99737240109735 145.61809680314158 12.077084346368213
    vertex 244.93344683710194 145.1028518375006 12.059344512403513
  endloop
endfacet
facet normal 0.006661136140022559 0.009415912010404258 0.999933482720894
  outer loop
    vertex 244.93344683710194 145.1028518375006 12.059344512403513
    vertex 240.99737240109735 145.61809680314158 12.077084346368213
    vertex 241.89573542398412 145.09664319343815 12.076115798205727
  endloop
endfacet
facet normal 0.006661136140022559 0.009415912010404258 0.999933482720894
  outer loop
    vertex 244.93344683710194 145.1028518375006 12.059344512403513
    vertex 241.89573542398412 145.09664319343815 12.076115798205727
    vertex 243.93319747794237 144.82993277343587 12.066932984431798
  endloop
endfacet
facet normal 0.006661136140022559 0.009415912010404258 0.999933482720894
  outer loop
    vertex 243.93319747794237 144.82993277343587 12.066932984431798
    vertex 241.89573542398412 145.09664319343815 12.076115798205727
    vertex 242.8970906850061 144.82781512056735 12.072653357693914
  endloop
endfacet
facet normal 0.2544262681278589 0.967065873535781 -0.007132343864927173
  outer loop
    vertex 243.91696961763114 152.77945990696585 12.006388133788201
    vertex 244.9025155639753 152.48872914115015 9.131343739319318
    vertex 243.9011603029536 152.75755721402084 9.134806179831065
  endloop
endfacet
facet normal 0.2544262681278589 0.967065873535781 -0.007132343864927173
  outer loop
    vertex 244.9025155639753 152.48872914115015 9.131343739319318
    vertex 243.91696961763114 152.77945990696585 12.006388133788201
    vertex 244.9183248786529 152.5106318340951 12.00292569327646
  endloop
endfacet
facet normal -0.00204435079631761 0.9999788833001698 -0.0061687586731167246
  outer loop
    vertex 242.88086282469465 152.7773422540972 12.01210850705038
    vertex 243.9011603029536 152.75755721402084 9.134806179831065
    vertex 242.86505351001713 152.7554395611522 9.140526553093192
  endloop
endfacet
facet normal -0.00204435079631761 0.9999788833001698 -0.0061687586731167246
  outer loop
    vertex 243.9011603029536 152.75755721402084 9.134806179831065
    vertex 242.88086282469465 152.7773422540972 12.01210850705038
    vertex 243.91696961763114 152.77945990696585 12.006388133788201
  endloop
endfacet
facet normal -0.25838128705302665 0.9660311281201993 -0.004792703165896727
  outer loop
    vertex 241.8806134655351 152.50442319003275 12.019696979078534
    vertex 242.86505351001713 152.7554395611522 9.140526553093192
    vertex 241.8648041508577 152.48252049708776 9.148115025121387
  endloop
endfacet
facet normal -0.25838128705302665 0.9660311281201993 -0.004792703165896727
  outer loop
    vertex 242.86505351001713 152.7554395611522 9.140526553093192
    vertex 241.8806134655351 152.50442319003275 12.019696979078534
    vertex 242.88086282469465 152.7773422540972 12.01210850705038
  endloop
endfacet
facet normal -0.4980177309733243 0.8671613356567734 -0.003091533299575634
  outer loop
    vertex 240.9843868809889 151.97930169796808 12.028636408044278
    vertex 241.8648041508577 152.48252049708776 9.148115025121387
    vertex 240.9685775663114 151.9573990050231 9.157054454087131
  endloop
endfacet
facet normal -0.4980177309733243 0.8671613356567734 -0.003091533299575634
  outer loop
    vertex 241.8648041508577 152.48252049708776 9.148115025121387
    vertex 240.9843868809889 151.97930169796808 12.028636408044278
    vertex 241.8806134655351 152.50442319003275 12.019696979078534
  endloop
endfacet
facet normal -0.7050046076860611 0.7092017521265124 -0.0011738492697159397
  outer loop
    vertex 240.23745011703085 151.21586124683844 9.166735632679826
    vertex 240.9843868809889 151.97930169796808 12.028636408044278
    vertex 240.9685775663114 151.9573990050231 9.157054454087131
  endloop
endfacet
facet normal -0.7050046076860611 0.7092017521265124 -0.0011738492697159397
  outer loop
    vertex 240.9843868809889 151.97930169796808 12.028636408044278
    vertex 240.23745011703085 151.21586124683844 9.166735632679826
    vertex 240.25325943170827 151.23776393978343 12.038317586636973
  endloop
endfacet
facet normal -0.9657988252876191 0.25927751771333074 0.0027924687050380173
  outer loop
    vertex 239.45514640063644 149.2969797864626 9.18567862574832
    vertex 239.7370562451167 150.33034448824978 12.048080758534203
    vertex 239.7212469304392 150.3084417953048 9.176498804577033
  endloop
endfacet
facet normal -0.9657988252876191 0.25927751771333074 0.0027924687050380173
  outer loop
    vertex 239.7370562451167 150.33034448824978 12.048080758534203
    vertex 239.45514640063644 149.2969797864626 9.18567862574832
    vertex 239.47095571531395 149.31888247940762 12.057260579705469
  endloop
endfacet
facet normal -0.999987511181818 -0.0020398840124531323 0.004562494231139061
  outer loop
    vertex 239.45728283897708 148.25040468469453 9.193649506551651
    vertex 239.47095571531395 149.31888247940762 12.057260579705469
    vertex 239.45514640063644 149.2969797864626 9.18567862574832
  endloop
endfacet
facet normal -0.999987511181818 -0.0020398840124531323 0.004562494231139061
  outer loop
    vertex 239.47095571531395 149.31888247940762 12.057260579705469
    vertex 239.45728283897708 148.25040468469453 9.193649506551651
    vertex 239.47309215365448 148.27230737763955 12.065231460508805
  endloop
endfacet
facet normal -0.9647191310687271 -0.26321248207058756 0.006015599075790868
  outer loop
    vertex 239.7275106507185 147.24003885363925 9.199868244632448
    vertex 239.47309215365448 148.27230737763955 12.065231460508805
    vertex 239.45728283897708 148.25040468469453 9.193649506551651
  endloop
endfacet
facet normal -0.9647191310687271 -0.26321248207058756 0.006015599075790868
  outer loop
    vertex 239.47309215365448 148.27230737763955 12.065231460508805
    vertex 239.7275106507185 147.24003885363925 9.199868244632448
    vertex 239.74331996539593 147.2619415465842 12.071450198589613
  endloop
endfacet
facet normal -0.8627909341550595 -0.5055117390613122 0.00704880210020328
  outer loop
    vertex 240.24741425706307 146.33473705497417 9.203911043267624
    vertex 239.74331996539593 147.2619415465842 12.071450198589613
    vertex 239.7275106507185 147.24003885363925 9.199868244632448
  endloop
endfacet
facet normal -0.8627909341550595 -0.5055117390613122 0.00704880210020328
  outer loop
    vertex 239.74331996539593 147.2619415465842 12.071450198589613
    vertex 240.24741425706307 146.33473705497417 9.203911043267624
    vertex 240.26322357174058 146.3566397479191 12.07549299722481
  endloop
endfacet
facet normal -0.7020823529149354 -0.7120552690480543 0.007593651712544585
  outer loop
    vertex 240.98156308641987 145.59619411019665 9.205502392411049
    vertex 240.26322357174058 146.3566397479191 12.07549299722481
    vertex 240.24741425706307 146.33473705497417 9.203911043267624
  endloop
endfacet
facet normal -0.7020823529149354 -0.7120552690480543 0.007593651712544585
  outer loop
    vertex 240.26322357174058 146.3566397479191 12.07549299722481
    vertex 240.98156308641987 145.59619411019665 9.205502392411049
    vertex 240.99737240109735 145.61809680314158 12.077084346368213
  endloop
endfacet
facet normal -0.49445787230224353 -0.8691681963422102 0.007619644713976901
  outer loop
    vertex 241.8799261093067 145.07474050049322 9.20453384424854
    vertex 240.99737240109735 145.61809680314158 12.077084346368213
    vertex 240.98156308641987 145.59619411019665 9.205502392411049
  endloop
endfacet
facet normal -0.49445787230224353 -0.8691681963422102 0.007619644713976901
  outer loop
    vertex 240.99737240109735 145.61809680314158 12.077084346368213
    vertex 241.8799261093067 145.07474050049322 9.20453384424854
    vertex 241.89573542398412 145.09664319343815 12.076115798205727
  endloop
endfacet
facet normal -0.25442626812786645 -0.9670658735357789 0.007132343864927198
  outer loop
    vertex 242.8812813703286 144.80591242762245 9.201071403736737
    vertex 241.89573542398412 145.09664319343815 12.076115798205727
    vertex 241.8799261093067 145.07474050049322 9.20453384424854
  endloop
endfacet
facet normal -0.25442626812786645 -0.9670658735357789 0.007132343864927198
  outer loop
    vertex 241.89573542398412 145.09664319343815 12.076115798205727
    vertex 242.8812813703286 144.80591242762245 9.201071403736737
    vertex 242.8970906850061 144.82781512056735 12.072653357693914
  endloop
endfacet
facet normal 0.002044350796211 -0.99997888330017 0.006168758673117211
  outer loop
    vertex 243.917388163265 144.80803008049094 9.195351030474605
    vertex 242.8970906850061 144.82781512056735 12.072653357693914
    vertex 242.8812813703286 144.80591242762245 9.201071403736737
  endloop
endfacet
facet normal 0.002044350796211 -0.99997888330017 0.006168758673117211
  outer loop
    vertex 242.8970906850061 144.82781512056735 12.072653357693914
    vertex 243.917388163265 144.80803008049094 9.195351030474605
    vertex 243.93319747794237 144.82993277343587 12.066932984431798
  endloop
endfacet
facet normal 0.25838128705323643 -0.9660311281201431 0.004792703165895425
  outer loop
    vertex 244.91763752242446 145.08094914455566 9.187762558446348
    vertex 243.93319747794237 144.82993277343587 12.066932984431798
    vertex 243.917388163265 144.80803008049094 9.195351030474605
  endloop
endfacet
facet normal 0.25838128705323643 -0.9660311281201431 0.004792703165895425
  outer loop
    vertex 243.93319747794237 144.82993277343587 12.066932984431798
    vertex 244.91763752242446 145.08094914455566 9.187762558446348
    vertex 244.93344683710194 145.1028518375006 12.059344512403513
  endloop
endfacet
facet normal 0.49801773097314117 -0.8671613356568787 0.003091533299577113
  outer loop
    vertex 245.81386410697073 145.60607063662005 9.178823129480627
    vertex 244.93344683710194 145.1028518375006 12.059344512403513
    vertex 244.91763752242446 145.08094914455566 9.187762558446348
  endloop
endfacet
facet normal 0.49801773097314117 -0.8671613356568787 0.003091533299577113
  outer loop
    vertex 244.93344683710194 145.1028518375006 12.059344512403513
    vertex 245.81386410697073 145.60607063662005 9.178823129480627
    vertex 245.82967342164824 145.62797332956498 12.050405083437786
  endloop
endfacet
facet normal 0.7050046076861597 -0.7092017521264141 0.0011738492697148837
  outer loop
    vertex 246.56080087092874 146.3695110877498 12.04072390484509
    vertex 245.81386410697073 145.60607063662005 9.178823129480627
    vertex 246.5449915562513 146.34760839480487 9.169141950887903
  endloop
endfacet
facet normal 0.7050046076861597 -0.7092017521264141 0.0011738492697148837
  outer loop
    vertex 245.81386410697073 145.60607063662005 9.178823129480627
    vertex 246.56080087092874 146.3695110877498 12.04072390484509
    vertex 245.82967342164824 145.62797332956498 12.050405083437786
  endloop
endfacet
facet normal 0.9657988252876236 -0.25927751771331375 -0.002792468705038143
  outer loop
    vertex 247.34310458732307 148.28839254812553 12.021780911776437
    vertex 247.06119474284284 147.25502784633846 9.159378778990758
    vertex 247.3272952726456 148.2664898551806 9.150198957819239
  endloop
endfacet
facet normal 0.9657988252876236 -0.25927751771331375 -0.002792468705038143
  outer loop
    vertex 247.06119474284284 147.25502784633846 9.159378778990758
    vertex 247.34310458732307 148.28839254812553 12.021780911776437
    vertex 247.07700405752027 147.27693053928337 12.030960732947905
  endloop
endfacet
facet normal 0.999987511181818 0.0020398840124682604 -0.004562494231139156
  outer loop
    vertex 247.3409681489825 149.33496764989354 12.013810030973039
    vertex 247.3272952726456 148.2664898551806 9.150198957819239
    vertex 247.32515883430503 149.31306495694858 9.142228077015902
  endloop
endfacet
facet normal 0.999987511181818 0.0020398840124682604 -0.004562494231139156
  outer loop
    vertex 247.3272952726456 148.2664898551806 9.150198957819239
    vertex 247.3409681489825 149.33496764989354 12.013810030973039
    vertex 247.34310458732307 148.28839254812553 12.021780911776437
  endloop
endfacet
facet normal 0.9647191310687526 0.26321248207049386 -0.006015599075790404
  outer loop
    vertex 247.07074033724118 150.34533348094902 12.007591292892434
    vertex 247.32515883430503 149.31306495694858 9.142228077015902
    vertex 247.05493102256366 150.32343078800406 9.136009338935287
  endloop
endfacet
facet normal 0.9647191310687526 0.26321248207049386 -0.006015599075790404
  outer loop
    vertex 247.32515883430503 149.31306495694858 9.142228077015902
    vertex 247.07074033724118 150.34533348094902 12.007591292892434
    vertex 247.3409681489825 149.33496764989354 12.013810030973039
  endloop
endfacet
facet normal 0.8627909341550934 0.505511739061254 -0.007048802100203073
  outer loop
    vertex 246.55083673089655 151.2506352796141 12.003548494257377
    vertex 247.05493102256366 150.32343078800406 9.136009338935287
    vertex 246.53502741621907 151.22873258666917 9.131966540300184
  endloop
endfacet
facet normal 0.8627909341550934 0.505511739061254 -0.007048802100203073
  outer loop
    vertex 247.05493102256366 150.32343078800406 9.136009338935287
    vertex 246.55083673089655 151.2506352796141 12.003548494257377
    vertex 247.07074033724118 150.34533348094902 12.007591292892434
  endloop
endfacet
facet normal 0.7020823529149064 0.7120552690480826 -0.007593651712544627
  outer loop
    vertex 245.81668790153975 151.9891782243916 12.001957145113787
    vertex 246.53502741621907 151.22873258666917 9.131966540300184
    vertex 245.80087858686224 151.96727553144666 9.13037519115664
  endloop
endfacet
facet normal 0.7020823529149064 0.7120552690480826 -0.007593651712544627
  outer loop
    vertex 246.53502741621907 151.22873258666917 9.131966540300184
    vertex 245.81668790153975 151.9891782243916 12.001957145113787
    vertex 246.55083673089655 151.2506352796141 12.003548494257377
  endloop
endfacet
facet normal 0.49445787230222765 0.8691681963422192 -0.007619644713976878
  outer loop
    vertex 244.9183248786529 152.5106318340951 12.00292569327646
    vertex 245.80087858686224 151.96727553144666 9.13037519115664
    vertex 244.9025155639753 152.48872914115015 9.131343739319318
  endloop
endfacet
facet normal 0.49445787230222765 0.8691681963422192 -0.007619644713976878
  outer loop
    vertex 245.80087858686224 151.96727553144666 9.13037519115664
    vertex 244.9183248786529 152.5106318340951 12.00292569327646
    vertex 245.81668790153975 151.9891782243916 12.001957145113787
  endloop
endfacet
facet normal 0.3830014369738115 0.9237477465607131 -1.1438396971519292e-14
  outer loop
    vertex 241.50427916638478 131.33671262554785 -11.032655080247977
    vertex 242.46886537382792 130.9367788720839 -18.032655080247874
    vertex 241.5042791663846 131.33671262554773 -18.03265508024788
  endloop
endfacet
facet normal 0.3830014369738115 0.9237477465607131 -1.1438396971519292e-14
  outer loop
    vertex 242.46886537382792 130.9367788720839 -18.032655080247874
    vertex 241.50427916638478 131.33671262554785 -11.032655080247977
    vertex 242.46886537382755 130.936778872084 -11.032655080247663
  endloop
endfacet
facet normal -0.6084882967234652 0.7935628473854962 -2.0458825560598044e-14
  outer loop
    vertex 246.16867559149196 131.8447819249734 -11.032655080247933
    vertex 245.5042789293957 131.3353357045514 -18.032655080248027
    vertex 245.5042789293957 131.33533570455165 -11.032655080247888
  endloop
endfacet
facet normal -0.6084882967234652 0.7935628473854962 -2.0458825560598044e-14
  outer loop
    vertex 245.5042789293957 131.3353357045514 -18.032655080248027
    vertex 246.16867559149196 131.8447819249734 -11.032655080247933
    vertex 246.16867559149196 131.8447819249733 -18.032655080247988
  endloop
endfacet
facet normal 3.2648578297584243e-15 1.45806293514071e-16 1.0
  outer loop
    vertex 242.47152538093002 138.6641850245688 -18.03265508024801
    vertex 244.5420776190757 138.6634722778139 -18.032655080247817
    vertex 243.50684841744825 138.80012533795988 -18.03265508024794
  endloop
endfacet
facet normal 3.2648578297584243e-15 1.45806293514071e-16 1.0
  outer loop
    vertex 244.5420776190757 138.6634722778139 -18.032655080247817
    vertex 242.47152538093002 138.6641850245688 -18.03265508024801
    vertex 241.5066640635081 138.26491544534625 -18.032655080248027
  endloop
endfacet
facet normal 3.2648578297584243e-15 1.45806293514071e-16 1.0
  outer loop
    vertex 244.5420776190757 138.6634722778139 -18.032655080247817
    vertex 241.5066640635081 138.26491544534625 -18.032655080248027
    vertex 245.50666382651937 138.26353852434985 -18.032655080247928
  endloop
endfacet
facet normal 3.2648578297584243e-15 1.45806293514071e-16 1.0
  outer loop
    vertex 245.50666382651937 138.26353852434985 -18.032655080247928
    vertex 241.5066640635081 138.26491544534625 -18.032655080248027
    vertex 240.84846473861393 137.76022122052345 -18.032655080247824
  endloop
endfacet
facet normal 3.2648578297584243e-15 1.45806293514071e-16 1.0
  outer loop
    vertex 245.50666382651937 138.26353852434985 -18.032655080247928
    vertex 240.84846473861393 137.76022122052345 -18.032655080247824
    vertex 246.17070959758357 137.75363501383126 -18.032655080247814
  endloop
endfacet
facet normal 3.2648578297584243e-15 1.45806293514071e-16 1.0
  outer loop
    vertex 246.17070959758357 137.75363501383126 -18.032655080247814
    vertex 240.84846473861393 137.76022122052345 -18.032655080247824
    vertex 240.67801816945558 137.6295261622923 -18.03265508024796
  endloop
endfacet
facet normal 3.2648578297584243e-15 1.45806293514071e-16 1.0
  outer loop
    vertex 246.17070959758357 137.75363501383126 -18.032655080247814
    vertex 240.67801816945558 137.6295261622923 -18.03265508024796
    vertex 246.33487208379537 137.62757890194493 -18.03265508024796
  endloop
endfacet
facet normal 3.2648578297584243e-15 1.45806293514071e-16 1.0
  outer loop
    vertex 246.33487208379537 137.62757890194493 -18.03265508024796
    vertex 240.67801816945558 137.6295261622923 -18.03265508024796
    vertex 240.04205854705089 136.80131790501613 -18.032655080247917
  endloop
endfacet
facet normal 3.2648578297584243e-15 1.45806293514071e-16 1.0
  outer loop
    vertex 246.33487208379537 137.62757890194493 -18.03265508024796
    vertex 240.04205854705089 136.80131790501613 -18.032655080247917
    vertex 246.9702613668495 136.7989330078924 -18.032655080248006
  endloop
endfacet
facet normal 3.2648578297584243e-15 1.45806293514071e-16 1.0
  outer loop
    vertex 246.9702613668495 136.7989330078924 -18.032655080248006
    vertex 240.04205854705089 136.80131790501613 -18.032655080247917
    vertex 239.64212479358682 135.83673169757293 -18.03265508024797
  endloop
endfacet
facet normal 3.2648578297584243e-15 1.45806293514071e-16 1.0
  outer loop
    vertex 246.9702613668495 136.7989330078924 -18.032655080248006
    vertex 239.64212479358682 135.83673169757293 -18.03265508024797
    vertex 247.3695309460721 135.83407169047047 -18.03265508024801
  endloop
endfacet
facet normal 3.2648578297584243e-15 1.45806293514071e-16 1.0
  outer loop
    vertex 247.3695309460721 135.83407169047047 -18.03265508024801
    vertex 239.64212479358682 135.83673169757293 -18.03265508024797
    vertex 239.505471733441 134.80150249594521 -18.032655080247885
  endloop
endfacet
facet normal 3.2648578297584243e-15 1.45806293514071e-16 1.0
  outer loop
    vertex 247.3695309460721 135.83407169047047 -18.03265508024801
    vertex 239.505471733441 134.80150249594521 -18.032655080247885
    vertex 247.50547125946326 134.79874865395246 -18.03265508024804
  endloop
endfacet
facet normal 3.2648578297584243e-15 1.45806293514071e-16 1.0
  outer loop
    vertex 247.50547125946326 134.79874865395246 -18.03265508024804
    vertex 239.505471733441 134.80150249594521 -18.032655080247885
    vertex 239.64141204683187 133.76617945942732 -18.032655080247906
  endloop
endfacet
facet normal 3.2648578297584243e-15 1.45806293514071e-16 1.0
  outer loop
    vertex 247.50547125946326 134.79874865395246 -18.03265508024804
    vertex 239.64141204683187 133.76617945942732 -18.032655080247906
    vertex 247.36881819931696 133.76351945232489 -18.032655080248045
  endloop
endfacet
facet normal 3.2648578297584243e-15 1.45806293514071e-16 1.0
  outer loop
    vertex 247.36881819931696 133.76351945232489 -18.032655080248045
    vertex 239.64141204683187 133.76617945942732 -18.032655080247906
    vertex 240.0406816260543 132.80131814200527 -18.03265508024796
  endloop
endfacet
facet normal 3.2648578297584243e-15 1.45806293514071e-16 1.0
  outer loop
    vertex 247.36881819931696 133.76351945232489 -18.032655080248045
    vertex 240.0406816260543 132.80131814200527 -18.03265508024796
    vertex 246.9688844458529 132.7989332448815 -18.032655080247793
  endloop
endfacet
facet normal 3.2648578297584243e-15 1.45806293514071e-16 1.0
  outer loop
    vertex 246.9688844458529 132.7989332448815 -18.032655080247793
    vertex 240.0406816260543 132.80131814200527 -18.03265508024796
    vertex 240.67607090910826 131.97267224795294 -18.032655080248052
  endloop
endfacet
facet normal 3.2648578297584243e-15 1.45806293514071e-16 1.0
  outer loop
    vertex 246.9688844458529 132.7989332448815 -18.032655080247793
    vertex 240.67607090910826 131.97267224795294 -18.032655080248052
    vertex 246.33292482344785 131.97072498760548 -18.03265508024786
  endloop
endfacet
facet normal 3.2648578297584243e-15 1.45806293514071e-16 1.0
  outer loop
    vertex 246.33292482344785 131.97072498760548 -18.03265508024786
    vertex 240.67607090910826 131.97267224795294 -18.032655080248052
    vertex 240.84642745949327 131.84185987497168 -18.032655080247896
  endloop
endfacet
facet normal 3.2648578297584243e-15 1.45806293514071e-16 1.0
  outer loop
    vertex 246.33292482344785 131.97072498760548 -18.03265508024786
    vertex 240.84642745949327 131.84185987497168 -18.032655080247896
    vertex 246.16867559149196 131.8447819249733 -18.032655080247988
  endloop
endfacet
facet normal 3.2648578297584243e-15 1.45806293514071e-16 1.0
  outer loop
    vertex 246.16867559149196 131.8447819249733 -18.032655080247988
    vertex 240.84642745949327 131.84185987497168 -18.032655080247896
    vertex 245.5042789293957 131.3353357045514 -18.032655080248027
  endloop
endfacet
facet normal 3.2648578297584243e-15 1.45806293514071e-16 1.0
  outer loop
    vertex 245.5042789293957 131.3353357045514 -18.032655080248027
    vertex 240.84642745949327 131.84185987497168 -18.032655080247896
    vertex 241.5042791663846 131.33671262554773 -18.03265508024788
  endloop
endfacet
facet normal 3.2648578297584243e-15 1.45806293514071e-16 1.0
  outer loop
    vertex 245.5042789293957 131.3353357045514 -18.032655080248027
    vertex 241.5042791663846 131.33671262554773 -18.03265508024788
    vertex 242.46886537382792 130.9367788720839 -18.032655080247874
  endloop
endfacet
facet normal 3.2648578297584243e-15 1.45806293514071e-16 1.0
  outer loop
    vertex 245.5042789293957 131.3353357045514 -18.032655080248027
    vertex 242.46886537382792 130.9367788720839 -18.032655080247874
    vertex 244.5394176119736 130.93606612532895 -18.032655080247974
  endloop
endfacet
facet normal 3.2648578297584243e-15 1.45806293514071e-16 1.0
  outer loop
    vertex 244.5394176119736 130.93606612532895 -18.032655080247974
    vertex 242.46886537382792 130.9367788720839 -18.032655080247874
    vertex 243.50409457545555 130.8001258119378 -18.032655080247874
  endloop
endfacet
facet normal 0.6090344891592119 0.7931437391889176 -2.6840630777229346e-14
  outer loop
    vertex 241.50427916638478 131.33671262554785 -11.032655080247977
    vertex 240.84642745949327 131.84185987497168 -18.032655080247896
    vertex 240.8464274594931 131.84185987497202 -11.032655080247693
  endloop
endfacet
facet normal 0.6090344891592119 0.7931437391889176 -2.6840630777229346e-14
  outer loop
    vertex 240.84642745949327 131.84185987497168 -18.032655080247896
    vertex 241.50427916638478 131.33671262554785 -11.032655080247977
    vertex 241.5042791663846 131.33671262554773 -18.03265508024788
  endloop
endfacet
facet normal -0.6090344891594802 -0.7931437391887115 -1.551971444239329e-14
  outer loop
    vertex 246.33487208379537 137.62757890194493 -18.03265508024796
    vertex 246.17070959758357 137.75363501383117 -11.032655080247967
    vertex 246.17070959758357 137.75363501383126 -18.032655080247814
  endloop
endfacet
facet normal -0.6090344891594802 -0.7931437391887115 -1.551971444239329e-14
  outer loop
    vertex 246.17070959758357 137.75363501383117 -11.032655080247967
    vertex 246.33487208379537 137.62757890194493 -18.03265508024796
    vertex 246.33487208379518 137.62757890194487 -11.032655080248016
  endloop
endfacet
facet normal 0.6084882967225435 -0.7935628473862029 -2.3704240957691045e-14
  outer loop
    vertex 240.84846473861393 137.76022122052345 -18.032655080247824
    vertex 240.67801816945612 137.62952616229234 -11.032655080248112
    vertex 240.67801816945558 137.6295261622923 -18.03265508024796
  endloop
endfacet
facet normal 0.6084882967225435 -0.7935628473862029 -2.3704240957691045e-14
  outer loop
    vertex 240.67801816945612 137.62952616229234 -11.032655080248112
    vertex 240.84846473861393 137.76022122052345 -18.032655080247824
    vertex 240.8484647386141 137.76022122052356 -11.03265508024788
  endloop
endfacet
facet normal -0.3830014369738246 -0.9237477465607077 1.3395766547209854e-14
  outer loop
    vertex 245.50666382651937 138.26353852434985 -18.032655080247928
    vertex 244.54207761907588 138.66347227781404 -11.032655080247812
    vertex 244.5420776190757 138.6634722778139 -18.032655080247817
  endloop
endfacet
facet normal -0.3830014369738246 -0.9237477465607077 1.3395766547209854e-14
  outer loop
    vertex 244.54207761907588 138.66347227781404 -11.032655080247812
    vertex 245.50666382651937 138.26353852434985 -18.032655080247928
    vertex 245.5066638265192 138.26353852434994 -11.032655080247975
  endloop
endfacet
facet normal -0.13086746979831498 -0.9913998715697855 1.606575001834175e-14
  outer loop
    vertex 244.5420776190757 138.6634722778139 -18.032655080247817
    vertex 243.50684841744825 138.80012533795994 -11.03265508024803
    vertex 243.50684841744825 138.80012533795988 -18.03265508024794
  endloop
endfacet
facet normal -0.13086746979831498 -0.9913998715697855 1.606575001834175e-14
  outer loop
    vertex 243.50684841744825 138.80012533795994 -11.03265508024803
    vertex 244.5420776190757 138.6634722778139 -18.032655080247817
    vertex 244.54207761907588 138.66347227781404 -11.032655080247812
  endloop
endfacet
facet normal -0.7931437391888237 0.6090344891593342 1.0223874087254188e-14
  outer loop
    vertex 246.33292482344768 131.97072498760548 -11.032655080247787
    vertex 246.9688844458529 132.7989332448815 -18.032655080247793
    vertex 246.33292482344785 131.97072498760548 -18.03265508024786
  endloop
endfacet
facet normal -0.7931437391888237 0.6090344891593342 1.0223874087254188e-14
  outer loop
    vertex 246.9688844458529 132.7989332448815 -18.032655080247793
    vertex 246.33292482344768 131.97072498760548 -11.032655080247787
    vertex 246.96888444585326 132.79893324488154 -11.03265508024808
  endloop
endfacet
facet normal -0.9914897336970958 -0.13018489917521944 -2.325541743287632e-14
  outer loop
    vertex 247.5054712594631 134.79874865395252 -11.032655080248094
    vertex 247.3695309460721 135.83407169047047 -18.03265508024801
    vertex 247.50547125946326 134.79874865395246 -18.03265508024804
  endloop
endfacet
facet normal -0.9914897336970958 -0.13018489917521944 -2.325541743287632e-14
  outer loop
    vertex 247.3695309460721 135.83407169047047 -18.03265508024801
    vertex 247.5054712594631 134.79874865395252 -11.032655080248094
    vertex 247.36953094607193 135.83407169047067 -11.032655080248082
  endloop
endfacet
facet normal 0.1301848991751387 -0.9914897336971064 9.424897471377914e-15
  outer loop
    vertex 243.50684841744825 138.80012533795988 -18.03265508024794
    vertex 242.4715253809304 138.66418502456892 -11.032655080247933
    vertex 242.47152538093002 138.6641850245688 -18.03265508024801
  endloop
endfacet
facet normal 0.1301848991751387 -0.9914897336971064 9.424897471377914e-15
  outer loop
    vertex 242.4715253809304 138.66418502456892 -11.032655080247933
    vertex 243.50684841744825 138.80012533795988 -18.03265508024794
    vertex 243.50684841744825 138.80012533795994 -11.03265508024803
  endloop
endfacet
facet normal -0.9240112089871492 -0.3823653824107339 -2.7109801771340366e-14
  outer loop
    vertex 247.36953094607193 135.83407169047067 -11.032655080248082
    vertex 246.9702613668495 136.7989330078924 -18.032655080248006
    vertex 247.3695309460721 135.83407169047047 -18.03265508024801
  endloop
endfacet
facet normal -0.9240112089871492 -0.3823653824107339 -2.7109801771340366e-14
  outer loop
    vertex 246.9702613668495 136.7989330078924 -18.032655080248006
    vertex 247.36953094607193 135.83407169047067 -11.032655080248082
    vertex 246.97026136684917 136.79893300789251 -11.03265508024816
  endloop
endfacet
facet normal -0.1301848991752136 0.9914897336970967 -1.4620592645917235e-14
  outer loop
    vertex 244.53941761197325 130.93606612532898 -11.03265508024786
    vertex 243.50409457545555 130.8001258119378 -18.032655080247874
    vertex 243.50409457545538 130.8001258119379 -11.032655080247745
  endloop
endfacet
facet normal -0.1301848991752136 0.9914897336970967 -1.4620592645917235e-14
  outer loop
    vertex 243.50409457545555 130.8001258119378 -18.032655080247874
    vertex 244.53941761197325 130.93606612532898 -11.03265508024786
    vertex 244.5394176119736 130.93606612532895 -18.032655080247974
  endloop
endfacet
facet normal 0.6090344891591237 0.7931437391889855 -3.6151649058537116e-14
  outer loop
    vertex 240.6760709091088 131.97267224795297 -11.03265508024803
    vertex 240.84642745949327 131.84185987497168 -18.032655080247896
    vertex 240.67607090910826 131.97267224795294 -18.032655080248052
  endloop
endfacet
facet normal 0.6090344891591237 0.7931437391889855 -3.6151649058537116e-14
  outer loop
    vertex 240.84642745949327 131.84185987497168 -18.032655080247896
    vertex 240.6760709091088 131.97267224795297 -11.03265508024803
    vertex 240.8464274594931 131.84185987497202 -11.032655080247693
  endloop
endfacet
facet normal 0.38236538241061263 -0.9240112089871995 -4.3661109283865594e-15
  outer loop
    vertex 242.47152538093002 138.6641850245688 -18.03265508024801
    vertex 241.50666406350828 138.2649154453463 -11.032655080247972
    vertex 241.5066640635081 138.26491544534625 -18.032655080248027
  endloop
endfacet
facet normal 0.38236538241061263 -0.9240112089871995 -4.3661109283865594e-15
  outer loop
    vertex 241.50666406350828 138.2649154453463 -11.032655080247972
    vertex 242.47152538093002 138.6641850245688 -18.03265508024801
    vertex 242.4715253809304 138.66418502456892 -11.032655080247933
  endloop
endfacet
facet normal -0.38236538241049345 0.9240112089872488 -2.7725064453892924e-14
  outer loop
    vertex 245.5042789293957 131.33533570455165 -11.032655080247888
    vertex 244.5394176119736 130.93606612532895 -18.032655080247974
    vertex 244.53941761197325 130.93606612532898 -11.03265508024786
  endloop
endfacet
facet normal -0.38236538241049345 0.9240112089872488 -2.7725064453892924e-14
  outer loop
    vertex 244.5394176119736 130.93606612532895 -18.032655080247974
    vertex 245.5042789293957 131.33533570455165 -11.032655080247888
    vertex 245.5042789293957 131.3353357045514 -18.032655080248027
  endloop
endfacet
facet normal -0.7935628473856406 -0.6084882967232768 -2.872650527682161e-14
  outer loop
    vertex 246.97026136684917 136.79893300789251 -11.03265508024816
    vertex 246.33487208379537 137.62757890194493 -18.03265508024796
    vertex 246.9702613668495 136.7989330078924 -18.032655080248006
  endloop
endfacet
facet normal -0.7935628473856406 -0.6084882967232768 -2.872650527682161e-14
  outer loop
    vertex 246.33487208379537 137.62757890194493 -18.03265508024796
    vertex 246.97026136684917 136.79893300789251 -11.03265508024816
    vertex 246.33487208379518 137.62757890194487 -11.032655080248016
  endloop
endfacet
facet normal 0.13086746979840932 0.991399871569773 -1.0913668339945954e-14
  outer loop
    vertex 243.50409457545538 130.8001258119379 -11.032655080247745
    vertex 242.46886537382792 130.9367788720839 -18.032655080247874
    vertex 242.46886537382755 130.936778872084 -11.032655080247663
  endloop
endfacet
facet normal 0.13086746979840932 0.991399871569773 -1.0913668339945954e-14
  outer loop
    vertex 242.46886537382792 130.9367788720839 -18.032655080247874
    vertex 243.50409457545538 130.8001258119379 -11.032655080247745
    vertex 243.50409457545555 130.8001258119378 -18.032655080247874
  endloop
endfacet
facet normal 0.6084882967234423 -0.7935628473855137 -6.738301465582714e-15
  outer loop
    vertex 241.5066640635081 138.26491544534625 -18.032655080248027
    vertex 240.8484647386141 137.76022122052356 -11.03265508024788
    vertex 240.84846473861393 137.76022122052345 -18.032655080247824
  endloop
endfacet
facet normal 0.6084882967234423 -0.7935628473855137 -6.738301465582714e-15
  outer loop
    vertex 240.8484647386141 137.76022122052356 -11.03265508024788
    vertex 241.5066640635081 138.26491544534625 -18.032655080248027
    vertex 241.50666406350828 138.2649154453463 -11.032655080247972
  endloop
endfacet
facet normal -0.6084882967230141 0.7935628473858422 -1.2959037770254967e-14
  outer loop
    vertex 246.33292482344768 131.97072498760548 -11.032655080247787
    vertex 246.16867559149196 131.8447819249733 -18.032655080247988
    vertex 246.16867559149196 131.8447819249734 -11.032655080247933
  endloop
endfacet
facet normal -0.6084882967230141 0.7935628473858422 -1.2959037770254967e-14
  outer loop
    vertex 246.16867559149196 131.8447819249733 -18.032655080247988
    vertex 246.33292482344768 131.97072498760548 -11.032655080247787
    vertex 246.33292482344785 131.97072498760548 -18.03265508024786
  endloop
endfacet
facet normal -0.9237477465607782 0.38300143697365474 1.1290469977317512e-14
  outer loop
    vertex 246.9688844458529 132.7989332448815 -18.032655080247793
    vertex 247.3688181993168 133.76351945232489 -11.032655080248105
    vertex 247.36881819931696 133.76351945232489 -18.032655080248045
  endloop
endfacet
facet normal -0.9237477465607782 0.38300143697365474 1.1290469977317512e-14
  outer loop
    vertex 247.3688181993168 133.76351945232489 -11.032655080248105
    vertex 246.9688844458529 132.7989332448815 -18.032655080247793
    vertex 246.96888444585326 132.79893324488154 -11.03265508024808
  endloop
endfacet
facet normal -0.9913998715697456 0.13086746979861724 -2.5982689690578526e-14
  outer loop
    vertex 247.3688181993168 133.76351945232489 -11.032655080248105
    vertex 247.50547125946326 134.79874865395246 -18.03265508024804
    vertex 247.36881819931696 133.76351945232489 -18.032655080248045
  endloop
endfacet
facet normal -0.9913998715697456 0.13086746979861724 -2.5982689690578526e-14
  outer loop
    vertex 247.50547125946326 134.79874865395246 -18.03265508024804
    vertex 247.3688181993168 133.76351945232489 -11.032655080248105
    vertex 247.5054712594631 134.79874865395252 -11.032655080248094
  endloop
endfacet
facet normal -0.6090344891591001 -0.7931437391890036 -7.85041758088132e-15
  outer loop
    vertex 245.50666382651937 138.26353852434985 -18.032655080247928
    vertex 246.17070959758357 137.75363501383117 -11.032655080247967
    vertex 245.5066638265192 138.26353852434994 -11.032655080247975
  endloop
endfacet
facet normal -0.6090344891591001 -0.7931437391890036 -7.85041758088132e-15
  outer loop
    vertex 246.17070959758357 137.75363501383117 -11.032655080247967
    vertex 245.50666382651937 138.26353852434985 -18.032655080247928
    vertex 246.17070959758357 137.75363501383126 -18.032655080247814
  endloop
endfacet
endsolid mousepusher 0506
