solid AutoSave_AutoSave_AutoSave_AutoSave_AutoSave_mousepusher 0506
facet normal 6.938893903907228e-17 0.0 -1.0
  outer loop
    vertex 25.639687512398716 -7.632160888122711 -31.933470407294276
    vertex 22.6396875123987 -61.63216088812267 -31.933470407294276
    vertex 22.639687512398694 -7.632160888122711 -31.933470407294276
  endloop
endfacet
facet normal 6.938893903907228e-17 0.0 -1.0
  outer loop
    vertex 22.6396875123987 -61.63216088812267 -31.933470407294276
    vertex 25.639687512398716 -7.632160888122711 -31.933470407294276
    vertex 25.639687512398723 -61.63216088812267 -31.933470407294276
  endloop
endfacet
facet normal 6.938893903907228e-17 0.0 -1.0
  outer loop
    vertex 25.639687512398723 -61.63216088812267 -31.933470407294276
    vertex 25.639687512398716 -7.632160888122711 -31.933470407294276
    vertex 25.639687512398723 -4.132160888122661 -31.933470407294276
  endloop
endfacet
facet normal 6.938893903907228e-17 0.0 -1.0
  outer loop
    vertex 25.639687512398723 -61.63216088812267 -31.933470407294276
    vertex 25.639687512398723 -4.132160888122661 -31.933470407294276
    vertex 27.18968751239872 -4.132160888122661 -31.933470407294276
  endloop
endfacet
facet normal 6.938893903907228e-17 0.0 -1.0
  outer loop
    vertex 25.639687512398723 -61.63216088812267 -31.933470407294276
    vertex 27.18968751239872 -4.132160888122661 -31.933470407294276
    vertex 25.639687512398723 -65.13216088812267 -31.933470407294276
  endloop
endfacet
facet normal 6.938893903907228e-17 0.0 -1.0
  outer loop
    vertex 25.639687512398723 -65.13216088812267 -31.933470407294276
    vertex 27.18968751239872 -4.132160888122661 -31.933470407294276
    vertex 27.18968751239872 -65.13216088812267 -31.933470407294276
  endloop
endfacet
facet normal 6.938893903907228e-17 0.0 -1.0
  outer loop
    vertex 27.18968751239872 -65.13216088812267 -31.933470407294276
    vertex 27.18968751239872 -4.132160888122661 -31.933470407294276
    vertex 27.18968751239872 -7.632160888122659 -31.933470407294276
  endloop
endfacet
facet normal 6.938893903907228e-17 0.0 -1.0
  outer loop
    vertex 27.18968751239872 -65.13216088812267 -31.933470407294276
    vertex 27.18968751239872 -7.632160888122659 -31.933470407294276
    vertex 27.18968751239872 -16.132160888122666 -31.933470407294276
  endloop
endfacet
facet normal 6.938893903907228e-17 0.0 -1.0
  outer loop
    vertex 27.18968751239872 -65.13216088812267 -31.933470407294276
    vertex 27.18968751239872 -16.132160888122666 -31.933470407294276
    vertex 27.18968751239872 -21.13216088812266 -31.933470407294276
  endloop
endfacet
facet normal 6.938893903907228e-17 0.0 -1.0
  outer loop
    vertex 27.18968751239872 -65.13216088812267 -31.933470407294276
    vertex 27.18968751239872 -21.13216088812266 -31.933470407294276
    vertex 27.18968751239872 -33.13216088812266 -31.933470407294276
  endloop
endfacet
facet normal 6.938893903907228e-17 0.0 -1.0
  outer loop
    vertex 27.18968751239872 -65.13216088812267 -31.933470407294276
    vertex 27.18968751239872 -33.13216088812266 -31.933470407294276
    vertex 27.18968751239872 -52.132160888122655 -31.933470407294276
  endloop
endfacet
facet normal 6.938893903907228e-17 0.0 -1.0
  outer loop
    vertex 27.18968751239872 -65.13216088812267 -31.933470407294276
    vertex 27.18968751239872 -52.132160888122655 -31.933470407294276
    vertex 27.18968751239872 -61.63216088812267 -31.933470407294276
  endloop
endfacet
facet normal -5.20388235897291e-16 -1.3317841697288009e-17 1.0
  outer loop
    vertex 27.189687512398674 -65.13216088812267 24.066529592705706
    vertex 25.639687512398684 -61.63216088812267 24.066529592705702
    vertex 25.639687512398677 -65.13216088812267 24.066529592705706
  endloop
endfacet
facet normal -5.20388235897291e-16 -1.3317841697288009e-17 1.0
  outer loop
    vertex 25.639687512398684 -61.63216088812267 24.066529592705702
    vertex 27.189687512398674 -65.13216088812267 24.066529592705706
    vertex 26.25594599609019 -7.483147871734114 24.066529592705706
  endloop
endfacet
facet normal -5.20388235897291e-16 -1.3317841697288009e-17 1.0
  outer loop
    vertex 26.25594599609019 -7.483147871734114 24.066529592705706
    vertex 27.189687512398674 -65.13216088812267 24.066529592705706
    vertex 27.189687512398674 -4.632160888122661 24.066529592705706
  endloop
endfacet
facet normal -5.20388235897291e-16 -1.3317841697288009e-17 1.0
  outer loop
    vertex 22.639687512398694 -61.63216088812267 24.066529592705702
    vertex 25.639687512398677 -7.632160888122655 24.066529592705706
    vertex 22.639687512398687 -7.632160888122655 24.066529592705706
  endloop
endfacet
facet normal -5.20388235897291e-16 -1.3317841697288009e-17 1.0
  outer loop
    vertex 25.639687512398677 -7.632160888122655 24.066529592705706
    vertex 22.639687512398694 -61.63216088812267 24.066529592705702
    vertex 25.639687512398684 -61.63216088812267 24.066529592705702
  endloop
endfacet
facet normal -5.20388235897291e-16 -1.3317841697288009e-17 1.0
  outer loop
    vertex 25.639687512398677 -7.632160888122655 24.066529592705706
    vertex 25.639687512398684 -61.63216088812267 24.066529592705702
    vertex 26.25594599609019 -7.483147871734114 24.066529592705706
  endloop
endfacet
facet normal 1.0 6.953742673768399e-19 7.204352074520561e-16
  outer loop
    vertex 27.18968751239872 -33.13216088812266 -31.933470407294276
    vertex 27.18968751239872 -52.132160888122655 -23.179469407294285
    vertex 27.18968751239872 -52.132160888122655 -31.933470407294276
  endloop
endfacet
facet normal 1.0 6.953742673768399e-19 7.204352074520561e-16
  outer loop
    vertex 27.18968751239872 -4.132160888122661 -31.933470407294276
    vertex 27.18968751239872 -7.632160888122659 -26.933470407294273
    vertex 27.18968751239872 -7.632160888122659 -31.933470407294276
  endloop
endfacet
facet normal 1.0 6.953742673768399e-19 7.204352074520561e-16
  outer loop
    vertex 27.18968751239872 -7.632160888122659 -26.933470407294273
    vertex 27.18968751239872 -4.132160888122661 -31.933470407294276
    vertex 27.18968751239872 -7.632160888122659 -23.179469407294285
  endloop
endfacet
facet normal 1.0 6.953742673768399e-19 7.204352074520561e-16
  outer loop
    vertex 27.18968751239872 -7.632160888122659 -23.179469407294285
    vertex 27.18968751239872 -4.132160888122661 -31.933470407294276
    vertex 27.189687512398674 -4.632160888122661 24.066529592705706
  endloop
endfacet
facet normal 1.0 6.953742673768399e-19 7.204352074520561e-16
  outer loop
    vertex 27.189687512398674 -4.632160888122661 24.066529592705706
    vertex 27.18968751239872 -4.132160888122661 -31.933470407294276
    vertex 27.189687512398674 -4.132160888122661 24.066529592705706
  endloop
endfacet
facet normal 1.0 6.953742673768399e-19 7.204352074520561e-16
  outer loop
    vertex 27.18968751239872 -61.63216088812267 -31.933470407294276
    vertex 27.189687512398674 -65.13216088812267 24.066529592705706
    vertex 27.18968751239872 -65.13216088812267 -31.933470407294276
  endloop
endfacet
facet normal 1.0 6.953742673768399e-19 7.204352074520561e-16
  outer loop
    vertex 27.189687512398674 -65.13216088812267 24.066529592705706
    vertex 27.18968751239872 -61.63216088812267 -31.933470407294276
    vertex 27.18968751239872 -61.63216088812267 -23.179469407294274
  endloop
endfacet
facet normal 1.0 6.953742673768399e-19 7.204352074520561e-16
  outer loop
    vertex 27.189687512398674 -65.13216088812267 24.066529592705706
    vertex 27.18968751239872 -61.63216088812267 -23.179469407294274
    vertex 27.189687512398674 -4.632160888122661 24.066529592705706
  endloop
endfacet
facet normal 1.0 6.953742673768399e-19 7.204352074520561e-16
  outer loop
    vertex 27.189687512398674 -4.632160888122661 24.066529592705706
    vertex 27.18968751239872 -61.63216088812267 -23.179469407294274
    vertex 27.18968751239872 -52.132160888122655 -23.179469407294285
  endloop
endfacet
facet normal 1.0 6.953742673768399e-19 7.204352074520561e-16
  outer loop
    vertex 27.189687512398674 -4.632160888122661 24.066529592705706
    vertex 27.18968751239872 -52.132160888122655 -23.179469407294285
    vertex 27.18968751239872 -33.13216088812266 -31.933470407294276
  endloop
endfacet
facet normal 1.0 6.953742673768399e-19 7.204352074520561e-16
  outer loop
    vertex 27.189687512398674 -4.632160888122661 24.066529592705706
    vertex 27.18968751239872 -33.13216088812266 -31.933470407294276
    vertex 27.18968751239872 -21.132160888122655 -23.179469407294285
  endloop
endfacet
facet normal 1.0 6.953742673768399e-19 7.204352074520561e-16
  outer loop
    vertex 27.18968751239872 -21.132160888122655 -23.179469407294285
    vertex 27.18968751239872 -33.13216088812266 -31.933470407294276
    vertex 27.18968751239872 -21.13216088812266 -26.933470407294273
  endloop
endfacet
facet normal 1.0 6.953742673768399e-19 7.204352074520561e-16
  outer loop
    vertex 27.18968751239872 -21.13216088812266 -26.933470407294273
    vertex 27.18968751239872 -33.13216088812266 -31.933470407294276
    vertex 27.18968751239872 -21.13216088812266 -31.933470407294276
  endloop
endfacet
facet normal 1.0 6.953742673768399e-19 7.204352074520561e-16
  outer loop
    vertex 27.189687512398674 -4.632160888122661 24.066529592705706
    vertex 27.18968751239872 -21.132160888122655 -23.179469407294285
    vertex 27.18968751239872 -7.632160888122659 -23.179469407294285
  endloop
endfacet
facet normal -1.0 9.399888275159677e-16 -2.517827216560624e-16
  outer loop
    vertex 25.639687512398684 -61.63216088812267 24.066529592705702
    vertex 25.639687512398723 -65.13216088812267 -31.933470407294276
    vertex 25.639687512398677 -65.13216088812267 24.066529592705706
  endloop
endfacet
facet normal -1.0 9.399888275159677e-16 -2.517827216560624e-16
  outer loop
    vertex 25.639687512398723 -65.13216088812267 -31.933470407294276
    vertex 25.639687512398684 -61.63216088812267 24.066529592705702
    vertex 25.639687512398723 -61.63216088812267 -31.933470407294276
  endloop
endfacet
facet normal 0.0 0.0 1.0
  outer loop
    vertex 26.25594599609019 -7.483147871734114 24.066529592705706
    vertex 25.639687512398677 -4.132160888122661 24.066529592705706
    vertex 25.639687512398677 -7.632160888122655 24.066529592705706
  endloop
endfacet
facet normal 0.0 0.0 1.0
  outer loop
    vertex 25.639687512398677 -4.132160888122661 24.066529592705706
    vertex 26.25594599609019 -7.483147871734114 24.066529592705706
    vertex 27.189687512398674 -4.132160888122661 24.066529592705706
  endloop
endfacet
facet normal 0.0 0.0 1.0
  outer loop
    vertex 27.189687512398674 -4.132160888122661 24.066529592705706
    vertex 26.25594599609019 -7.483147871734114 24.066529592705706
    vertex 27.189687512398674 -4.632160888122661 24.066529592705706
  endloop
endfacet
facet normal -1.0 9.399888275159675e-16 -2.517827216560628e-16
  outer loop
    vertex 25.639687512398677 -7.632160888122655 24.066529592705706
    vertex 25.639687512398723 -4.132160888122661 -31.933470407294276
    vertex 25.639687512398716 -7.632160888122711 -31.933470407294276
  endloop
endfacet
facet normal -1.0 9.399888275159675e-16 -2.517827216560628e-16
  outer loop
    vertex 25.639687512398723 -4.132160888122661 -31.933470407294276
    vertex 25.639687512398677 -7.632160888122655 24.066529592705706
    vertex 25.639687512398677 -4.132160888122661 24.066529592705706
  endloop
endfacet
facet normal 0.0 -1.0 0.0
  outer loop
    vertex 27.189687512398674 -65.13216088812267 24.066529592705706
    vertex 25.639687512398723 -65.13216088812267 -31.933470407294276
    vertex 27.18968751239872 -65.13216088812267 -31.933470407294276
  endloop
endfacet
facet normal 0.0 -1.0 0.0
  outer loop
    vertex 25.639687512398723 -65.13216088812267 -31.933470407294276
    vertex 27.189687512398674 -65.13216088812267 24.066529592705706
    vertex 25.639687512398677 -65.13216088812267 24.066529592705706
  endloop
endfacet
facet normal 1.0 0.0 0.0
  outer loop
    vertex 27.18968751239872 -16.132160888122666 -31.933470407294276
    vertex 27.18968751239872 -21.13216088812266 -26.933470407294273
    vertex 27.18968751239872 -21.13216088812266 -31.933470407294276
  endloop
endfacet
facet normal 1.0 0.0 0.0
  outer loop
    vertex 27.18968751239872 -21.13216088812266 -26.933470407294273
    vertex 27.18968751239872 -16.132160888122666 -31.933470407294276
    vertex 27.18968751239872 -7.632160888122659 -26.933470407294273
  endloop
endfacet
facet normal 1.0 0.0 0.0
  outer loop
    vertex 27.18968751239872 -7.632160888122659 -26.933470407294273
    vertex 27.18968751239872 -16.132160888122666 -31.933470407294276
    vertex 27.18968751239872 -7.632160888122659 -31.933470407294276
  endloop
endfacet
facet normal 1.0444320305732957e-16 -1.0 3.155639270910145e-32
  outer loop
    vertex 25.639687512398684 -61.63216088812267 24.066529592705702
    vertex 22.6396875123987 -61.63216088812267 -31.933470407294276
    vertex 25.639687512398723 -61.63216088812267 -31.933470407294276
  endloop
endfacet
facet normal 1.0444320305732957e-16 -1.0 3.155639270910145e-32
  outer loop
    vertex 22.6396875123987 -61.63216088812267 -31.933470407294276
    vertex 25.639687512398684 -61.63216088812267 24.066529592705702
    vertex 22.639687512398694 -61.63216088812267 24.066529592705702
  endloop
endfacet
facet normal 1.0 0.0 0.0
  outer loop
    vertex 177.1896875123987 -21.132160888122662 -31.93347040729425
    vertex 177.1896875123987 -52.132160888122655 -26.93347040729425
    vertex 177.1896875123987 -52.132160888122655 -31.933470407294262
  endloop
endfacet
facet normal 1.0 0.0 0.0
  outer loop
    vertex 177.1896875123987 -52.132160888122655 -26.93347040729425
    vertex 177.1896875123987 -21.132160888122662 -31.93347040729425
    vertex 177.1896875123987 -21.132160888122662 -26.93347040729425
  endloop
endfacet
facet normal -1.4102053214176818e-16 -6.112602231899976e-17 1.0
  outer loop
    vertex 187.18968751239868 -61.63216088812267 -26.933470407294262
    vertex 37.94622380525379 -52.132160888122655 -26.933470407294273
    vertex 37.94622380525379 -61.63216088812267 -26.933470407294273
  endloop
endfacet
facet normal -1.4102053214176818e-16 -6.112602231899976e-17 1.0
  outer loop
    vertex 37.94622380525379 -52.132160888122655 -26.933470407294273
    vertex 187.18968751239868 -61.63216088812267 -26.933470407294262
    vertex 177.1896875123987 -52.132160888122655 -26.93347040729425
  endloop
endfacet
facet normal -1.4102053214176818e-16 -6.112602231899976e-17 1.0
  outer loop
    vertex 177.1896875123987 -52.132160888122655 -26.93347040729425
    vertex 187.18968751239868 -61.63216088812267 -26.933470407294262
    vertex 177.1896875123987 -21.132160888122662 -26.93347040729425
  endloop
endfacet
facet normal -1.4102053214176818e-16 -6.112602231899976e-17 1.0
  outer loop
    vertex 177.1896875123987 -21.132160888122662 -26.93347040729425
    vertex 37.94622380525379 -7.632160888122659 -26.933470407294273
    vertex 37.94622380525379 -21.13216088812266 -26.933470407294273
  endloop
endfacet
facet normal -1.4102053214176818e-16 -6.112602231899976e-17 1.0
  outer loop
    vertex 37.94622380525379 -7.632160888122659 -26.933470407294273
    vertex 177.1896875123987 -21.132160888122662 -26.93347040729425
    vertex 187.18968751239868 -7.632160888122666 -26.93347040729425
  endloop
endfacet
facet normal -1.4102053214176818e-16 -6.112602231899976e-17 1.0
  outer loop
    vertex 187.18968751239868 -7.632160888122666 -26.93347040729425
    vertex 177.1896875123987 -21.132160888122662 -26.93347040729425
    vertex 187.18968751239868 -61.63216088812267 -26.933470407294262
  endloop
endfacet
facet normal -3.989608915197589e-17 -1.0 2.250944138285809e-16
  outer loop
    vertex 177.1896875123987 -21.132160888122662 -26.93347040729425
    vertex 37.94622380525379 -21.13216088812266 -26.933470407294273
    vertex 177.1896875123987 -21.132160888122662 -31.93347040729425
  endloop
endfacet
facet normal -3.989608915197589e-17 -1.0 2.250944138285809e-16
  outer loop
    vertex 177.1896875123987 -21.132160888122662 -31.93347040729425
    vertex 27.18968751239872 -21.13216088812266 -26.933470407294273
    vertex 27.18968751239872 -21.13216088812266 -31.933470407294276
  endloop
endfacet
facet normal -3.989608915197589e-17 -1.0 2.250944138285809e-16
  outer loop
    vertex 27.18968751239872 -21.13216088812266 -26.933470407294273
    vertex 177.1896875123987 -21.132160888122662 -31.93347040729425
    vertex 37.94622380525379 -21.13216088812266 -26.933470407294273
  endloop
endfacet
facet normal -3.989608915197589e-17 -1.0 2.250944138285809e-16
  outer loop
    vertex 27.18968751239872 -21.13216088812266 -26.933470407294273
    vertex 37.94622380525379 -21.13216088812266 -26.933470407294273
    vertex 27.18968751239872 -21.132160888122655 -23.179469407294285
  endloop
endfacet
facet normal 0.0 1.0 0.0
  outer loop
    vertex 27.18968751239872 -7.632160888122659 -26.933470407294273
    vertex 187.18968751239868 -7.632160888122666 -31.93347040729425
    vertex 27.18968751239872 -7.632160888122659 -31.933470407294276
  endloop
endfacet
facet normal 0.0 1.0 0.0
  outer loop
    vertex 187.18968751239868 -7.632160888122666 -31.93347040729425
    vertex 27.18968751239872 -7.632160888122659 -26.933470407294273
    vertex 37.94622380525379 -7.632160888122659 -26.933470407294273
  endloop
endfacet
facet normal 0.0 1.0 0.0
  outer loop
    vertex 187.18968751239868 -7.632160888122666 -31.93347040729425
    vertex 37.94622380525379 -7.632160888122659 -26.933470407294273
    vertex 187.18968751239868 -7.632160888122666 -26.93347040729425
  endloop
endfacet
facet normal 1.0 0.0 0.0
  outer loop
    vertex 27.18968751239872 -7.632160888122659 -26.933470407294273
    vertex 27.18968751239872 -21.132160888122655 -23.179469407294285
    vertex 27.18968751239872 -21.13216088812266 -26.933470407294273
  endloop
endfacet
facet normal 1.0 0.0 0.0
  outer loop
    vertex 27.18968751239872 -21.132160888122655 -23.179469407294285
    vertex 27.18968751239872 -7.632160888122659 -26.933470407294273
    vertex 27.18968751239872 -7.632160888122659 -23.179469407294285
  endloop
endfacet
facet normal 7.519910620127728e-17 -5.621446656056294e-32 -1.0
  outer loop
    vertex 187.18968751239868 -7.632160888122666 -31.93347040729425
    vertex 27.18968751239872 -16.132160888122666 -31.933470407294276
    vertex 27.18968751239872 -7.632160888122659 -31.933470407294276
  endloop
endfacet
facet normal 7.519910620127728e-17 -5.621446656056294e-32 -1.0
  outer loop
    vertex 27.18968751239872 -16.132160888122666 -31.933470407294276
    vertex 187.18968751239868 -7.632160888122666 -31.93347040729425
    vertex 27.18968751239872 -21.13216088812266 -31.933470407294276
  endloop
endfacet
facet normal 7.519910620127728e-17 -5.621446656056294e-32 -1.0
  outer loop
    vertex 27.18968751239872 -21.13216088812266 -31.933470407294276
    vertex 187.18968751239868 -7.632160888122666 -31.93347040729425
    vertex 177.1896875123987 -17.632160888122666 -31.93347040729425
  endloop
endfacet
facet normal 7.519910620127728e-17 -5.621446656056294e-32 -1.0
  outer loop
    vertex 177.1896875123987 -17.632160888122666 -31.93347040729425
    vertex 187.18968751239868 -7.632160888122666 -31.93347040729425
    vertex 187.18968751239868 -17.632160888122666 -31.93347040729425
  endloop
endfacet
facet normal 7.519910620127728e-17 -5.621446656056294e-32 -1.0
  outer loop
    vertex 177.1896875123987 -21.132160888122662 -31.93347040729425
    vertex 27.18968751239872 -21.13216088812266 -31.933470407294276
    vertex 177.1896875123987 -17.632160888122666 -31.93347040729425
  endloop
endfacet
facet normal 0.0 1.0 0.0
  outer loop
    vertex 27.18968751239872 -7.632160888122659 -23.179469407294285
    vertex 37.94622380525379 -7.632160888122659 -26.933470407294273
    vertex 27.18968751239872 -7.632160888122659 -26.933470407294273
  endloop
endfacet
facet normal 0.32950681751382577 -1.447807210073543e-17 0.9441531958384246
  outer loop
    vertex 37.94622380525379 -21.13216088812266 -26.933470407294273
    vertex 27.18968751239872 -7.632160888122659 -23.179469407294285
    vertex 27.18968751239872 -21.132160888122655 -23.179469407294285
  endloop
endfacet
facet normal 0.32950681751382577 -1.447807210073543e-17 0.9441531958384246
  outer loop
    vertex 27.18968751239872 -7.632160888122659 -23.179469407294285
    vertex 37.94622380525379 -21.13216088812266 -26.933470407294273
    vertex 37.94622380525379 -7.632160888122659 -26.933470407294273
  endloop
endfacet
facet normal 6.917169848117563e-17 3.0482300308343166e-16 -1.0
  outer loop
    vertex 187.18968751239868 -17.632160888122666 -31.93347040729425
    vertex 177.1896875123987 -21.132160888122662 -31.93347040729425
    vertex 177.1896875123987 -17.632160888122666 -31.93347040729425
  endloop
endfacet
facet normal 6.917169848117563e-17 3.0482300308343166e-16 -1.0
  outer loop
    vertex 177.1896875123987 -21.132160888122662 -31.93347040729425
    vertex 187.18968751239868 -17.632160888122666 -31.93347040729425
    vertex 177.1896875123987 -52.132160888122655 -31.933470407294262
  endloop
endfacet
facet normal 6.917169848117563e-17 3.0482300308343166e-16 -1.0
  outer loop
    vertex 177.1896875123987 -52.132160888122655 -31.933470407294262
    vertex 27.18968751239872 -61.63216088812267 -31.933470407294276
    vertex 27.18968751239872 -52.132160888122655 -31.933470407294276
  endloop
endfacet
facet normal 6.917169848117563e-17 3.0482300308343166e-16 -1.0
  outer loop
    vertex 27.18968751239872 -61.63216088812267 -31.933470407294276
    vertex 177.1896875123987 -52.132160888122655 -31.933470407294262
    vertex 187.18968751239868 -61.632160888122655 -31.933470407294262
  endloop
endfacet
facet normal 6.917169848117563e-17 3.0482300308343166e-16 -1.0
  outer loop
    vertex 187.18968751239868 -61.632160888122655 -31.933470407294262
    vertex 177.1896875123987 -52.132160888122655 -31.933470407294262
    vertex 187.18968751239868 -17.632160888122666 -31.93347040729425
  endloop
endfacet
facet normal 1.0 0.0 0.0
  outer loop
    vertex 187.18968751239868 -61.632160888122655 -31.933470407294262
    vertex 187.18968751239868 -7.632160888122666 -26.93347040729425
    vertex 187.18968751239868 -61.63216088812267 -26.933470407294262
  endloop
endfacet
facet normal 1.0 0.0 0.0
  outer loop
    vertex 187.18968751239868 -7.632160888122666 -26.93347040729425
    vertex 187.18968751239868 -61.632160888122655 -31.933470407294262
    vertex 187.18968751239868 -17.632160888122666 -31.93347040729425
  endloop
endfacet
facet normal 1.0 0.0 0.0
  outer loop
    vertex 187.18968751239868 -7.632160888122666 -26.93347040729425
    vertex 187.18968751239868 -17.632160888122666 -31.93347040729425
    vertex 187.18968751239868 -7.632160888122666 -31.93347040729425
  endloop
endfacet
facet normal 3.435782239819618e-17 -1.0 -7.01684465512601e-16
  outer loop
    vertex 187.18968751239868 -61.63216088812267 -26.933470407294262
    vertex 37.94622380525379 -61.63216088812267 -26.933470407294273
    vertex 187.18968751239868 -61.632160888122655 -31.933470407294262
  endloop
endfacet
facet normal 3.435782239819618e-17 -1.0 -7.01684465512601e-16
  outer loop
    vertex 27.18968751239872 -61.63216088812267 -31.933470407294276
    vertex 37.94622380525379 -61.63216088812267 -26.933470407294273
    vertex 27.18968751239872 -61.63216088812267 -23.179469407294274
  endloop
endfacet
facet normal 3.435782239819618e-17 -1.0 -7.01684465512601e-16
  outer loop
    vertex 37.94622380525379 -61.63216088812267 -26.933470407294273
    vertex 27.18968751239872 -61.63216088812267 -31.933470407294276
    vertex 187.18968751239868 -61.632160888122655 -31.933470407294262
  endloop
endfacet
facet normal -1.0444320305732937e-16 1.0 -1.0071308866242493e-15
  outer loop
    vertex 22.639687512398687 -7.632160888122655 24.066529592705706
    vertex 25.639687512398716 -7.632160888122711 -31.933470407294276
    vertex 22.639687512398694 -7.632160888122711 -31.933470407294276
  endloop
endfacet
facet normal -1.0444320305732937e-16 1.0 -1.0071308866242493e-15
  outer loop
    vertex 25.639687512398716 -7.632160888122711 -31.933470407294276
    vertex 22.639687512398687 -7.632160888122655 24.066529592705706
    vertex 25.639687512398677 -7.632160888122655 24.066529592705706
  endloop
endfacet
facet normal -1.0 -1.0444320305732957e-16 -2.0142617732484985e-16
  outer loop
    vertex 22.639687512398687 -7.632160888122655 24.066529592705706
    vertex 22.6396875123987 -61.63216088812267 -31.933470407294276
    vertex 22.639687512398694 -61.63216088812267 24.066529592705702
  endloop
endfacet
facet normal -1.0 -1.0444320305732957e-16 -2.0142617732484985e-16
  outer loop
    vertex 22.6396875123987 -61.63216088812267 -31.933470407294276
    vertex 22.639687512398687 -7.632160888122655 24.066529592705706
    vertex 22.639687512398694 -7.632160888122711 -31.933470407294276
  endloop
endfacet
facet normal 0.0 1.0 0.0
  outer loop
    vertex 25.639687512398677 -4.132160888122661 24.066529592705706
    vertex 27.18968751239872 -4.132160888122661 -31.933470407294276
    vertex 25.639687512398723 -4.132160888122661 -31.933470407294276
  endloop
endfacet
facet normal 0.0 1.0 0.0
  outer loop
    vertex 27.18968751239872 -4.132160888122661 -31.933470407294276
    vertex 25.639687512398677 -4.132160888122661 24.066529592705706
    vertex 27.189687512398674 -4.132160888122661 24.066529592705706
  endloop
endfacet
facet normal 0.3295068175138258 2.8099862041426343e-16 0.9441531958384246
  outer loop
    vertex 37.94622380525379 -61.63216088812267 -26.933470407294273
    vertex 27.18968751239872 -52.132160888122655 -23.179469407294285
    vertex 27.18968751239872 -61.63216088812267 -23.179469407294274
  endloop
endfacet
facet normal 0.3295068175138258 2.8099862041426343e-16 0.9441531958384246
  outer loop
    vertex 27.18968751239872 -52.132160888122655 -23.179469407294285
    vertex 37.94622380525379 -61.63216088812267 -26.933470407294273
    vertex 37.94622380525379 -52.132160888122655 -26.933470407294273
  endloop
endfacet
facet normal 0.0 1.0 0.0
  outer loop
    vertex 27.18968751239872 -52.132160888122655 -31.933470407294276
    vertex 37.94622380525379 -52.132160888122655 -26.933470407294273
    vertex 177.1896875123987 -52.132160888122655 -31.933470407294262
  endloop
endfacet
facet normal 0.0 1.0 0.0
  outer loop
    vertex 37.94622380525379 -52.132160888122655 -26.933470407294273
    vertex 27.18968751239872 -52.132160888122655 -31.933470407294276
    vertex 27.18968751239872 -52.132160888122655 -23.179469407294285
  endloop
endfacet
facet normal 0.0 1.0 0.0
  outer loop
    vertex 177.1896875123987 -52.132160888122655 -26.93347040729425
    vertex 177.1896875123987 -52.132160888122655 -31.933470407294262
    vertex 37.94622380525379 -52.132160888122655 -26.933470407294273
  endloop
endfacet
facet normal 1.0 0.0 0.0
  outer loop
    vertex 27.18968751239872 -52.132160888122655 -31.933470407294276
    vertex 27.18968751239872 -61.63216088812267 -23.179469407294274
    vertex 27.18968751239872 -61.63216088812267 -31.933470407294276
  endloop
endfacet
facet normal 1.0 0.0 0.0
  outer loop
    vertex 27.18968751239872 -61.63216088812267 -23.179469407294274
    vertex 27.18968751239872 -52.132160888122655 -31.933470407294276
    vertex 27.18968751239872 -52.132160888122655 -23.179469407294285
  endloop
endfacet
endsolid AutoSave_AutoSave_AutoSave_AutoSave_AutoSave_mousepusher 0506
