solid AutoSave_AutoSave_AutoSave_AutoSave_AutoSave_mousepusher 0506
facet normal 0.0 -1.0 0.0
  outer loop
    vertex 63.526885578999455 137.06703358578224 -0.23787285763002114
    vertex -29.591186421000785 137.06703358578224 -2.033838457630025
    vertex 63.526885578999455 137.06703358578224 -2.033838457630025
  endloop
endfacet
facet normal 0.0 -1.0 0.0
  outer loop
    vertex -29.591186421000785 137.06703358578224 -2.033838457630025
    vertex 63.526885578999455 137.06703358578224 -0.23787285763002114
    vertex -29.591186421000785 137.06703358578224 -0.23787285763002114
  endloop
endfacet
facet normal 0.0 0.0 -1.0
  outer loop
    vertex 66.21666819622064 142.27624269074988 -3.1098728576300196
    vertex -33.16333180377957 95.08624269075 -3.1098728576300196
    vertex -33.16333180377957 142.27624269074988 -3.1098728576300196
  endloop
endfacet
facet normal 0.0 0.0 -1.0
  outer loop
    vertex -33.16333180377957 95.08624269075 -3.1098728576300196
    vertex 66.21666819622064 142.27624269074988 -3.1098728576300196
    vertex -10.004392904763314 95.08624269075 -3.1098728576300196
  endloop
endfacet
facet normal 0.0 0.0 -1.0
  outer loop
    vertex -10.004392904763314 95.08624269075 -3.1098728576300196
    vertex 66.21666819622064 142.27624269074988 -3.1098728576300196
    vertex -0.5362969047633172 95.08624269075 -3.1098728576300196
  endloop
endfacet
facet normal 0.0 0.0 -1.0
  outer loop
    vertex -0.5362969047633172 95.08624269075 -3.1098728576300196
    vertex 66.21666819622064 142.27624269074988 -3.1098728576300196
    vertex 66.21666819622064 95.08624269075 -3.1098728576300196
  endloop
endfacet
facet normal 1.0 0.0 0.0
  outer loop
    vertex -29.591186421000785 137.06703358578224 -2.033838457630025
    vertex -29.591186421000785 100.19786758578239 -0.23787285763002114
    vertex -29.591186421000785 100.19786758578239 -2.033838457630025
  endloop
endfacet
facet normal 1.0 0.0 0.0
  outer loop
    vertex -29.591186421000785 100.19786758578239 -0.23787285763002114
    vertex -29.591186421000785 137.06703358578224 -2.033838457630025
    vertex -29.591186421000785 137.06703358578224 -0.23787285763002114
  endloop
endfacet
facet normal -1.0 0.0 0.0
  outer loop
    vertex -33.16333180377957 142.27624269074988 -3.1098728576300196
    vertex -33.16333180377957 95.08624269075 -0.23787285763002114
    vertex -33.16333180377957 142.27624269074988 -0.23787285763002114
  endloop
endfacet
facet normal 1.0 0.0 0.0
  outer loop
    vertex 66.21666819622064 142.27624269074988 -3.1098728576300196
    vertex 66.21666819622064 95.08624269075 -0.23787285763002114
    vertex 66.21666819622064 95.08624269075 -3.1098728576300196
  endloop
endfacet
facet normal 1.0 0.0 0.0
  outer loop
    vertex 66.21666819622064 95.08624269075 -0.23787285763002114
    vertex 66.21666819622064 142.27624269074988 -3.1098728576300196
    vertex 66.21666819622064 142.27624269074988 -0.23787285763002114
  endloop
endfacet
facet normal 0.0 1.0 0.0
  outer loop
    vertex -33.16333180377957 142.27624269074988 -0.23787285763002114
    vertex 66.21666819622064 142.27624269074988 -3.1098728576300196
    vertex -33.16333180377957 142.27624269074988 -3.1098728576300196
  endloop
endfacet
facet normal 0.0 1.0 0.0
  outer loop
    vertex 66.21666819622064 142.27624269074988 -3.1098728576300196
    vertex -33.16333180377957 142.27624269074988 -0.23787285763002114
    vertex 66.21666819622064 142.27624269074988 -0.23787285763002114
  endloop
endfacet
facet normal 0.0 0.0 1.0
  outer loop
    vertex -0.5362969047633172 91.68123009526691 0.14731914236997876
    vertex -10.004392904763314 92.99015469075 0.14731914236997876
    vertex -10.004392904763314 91.68123009526691 0.14731914236997876
  endloop
endfacet
facet normal 0.0 0.0 1.0
  outer loop
    vertex -10.004392904763314 92.99015469075 0.14731914236997876
    vertex -0.5362969047633172 91.68123009526691 0.14731914236997876
    vertex -0.5362969047633172 92.99015469075 0.14731914236997876
  endloop
endfacet
facet normal 0.0 0.0 1.0
  outer loop
    vertex 63.526885578999455 100.19786758578239 -2.033838457630025
    vertex -29.591186421000785 137.06703358578224 -2.033838457630025
    vertex -29.591186421000785 100.19786758578239 -2.033838457630025
  endloop
endfacet
facet normal 0.0 0.0 1.0
  outer loop
    vertex -29.591186421000785 137.06703358578224 -2.033838457630025
    vertex 63.526885578999455 100.19786758578239 -2.033838457630025
    vertex 63.526885578999455 137.06703358578224 -2.033838457630025
  endloop
endfacet
facet normal 0.0 0.0 1.0
  outer loop
    vertex -33.16333180377957 95.08624269075 -0.23787285763002114
    vertex -29.591186421000785 100.19786758578239 -0.23787285763002114
    vertex -33.16333180377957 142.27624269074988 -0.23787285763002114
  endloop
endfacet
facet normal 0.0 0.0 1.0
  outer loop
    vertex -29.591186421000785 100.19786758578239 -0.23787285763002114
    vertex -33.16333180377957 95.08624269075 -0.23787285763002114
    vertex -10.004392904763314 95.08624269075 -0.23787285763002114
  endloop
endfacet
facet normal 0.0 0.0 1.0
  outer loop
    vertex -29.591186421000785 100.19786758578239 -0.23787285763002114
    vertex -10.004392904763314 95.08624269075 -0.23787285763002114
    vertex 63.526885578999455 100.19786758578239 -0.23787285763002114
  endloop
endfacet
facet normal 0.0 0.0 1.0
  outer loop
    vertex 63.526885578999455 100.19786758578239 -0.23787285763002114
    vertex -10.004392904763314 95.08624269075 -0.23787285763002114
    vertex -0.5362969047633172 95.08624269075 -0.23787285763002114
  endloop
endfacet
facet normal 0.0 0.0 1.0
  outer loop
    vertex 63.526885578999455 100.19786758578239 -0.23787285763002114
    vertex -0.5362969047633172 95.08624269075 -0.23787285763002114
    vertex 66.21666819622064 95.08624269075 -0.23787285763002114
  endloop
endfacet
facet normal 0.0 0.0 1.0
  outer loop
    vertex 63.526885578999455 100.19786758578239 -0.23787285763002114
    vertex 66.21666819622064 95.08624269075 -0.23787285763002114
    vertex 63.526885578999455 137.06703358578224 -0.23787285763002114
  endloop
endfacet
facet normal 0.0 0.0 1.0
  outer loop
    vertex -33.16333180377957 142.27624269074988 -0.23787285763002114
    vertex -29.591186421000785 137.06703358578224 -0.23787285763002114
    vertex 66.21666819622064 142.27624269074988 -0.23787285763002114
  endloop
endfacet
facet normal 0.0 0.0 1.0
  outer loop
    vertex -29.591186421000785 137.06703358578224 -0.23787285763002114
    vertex -33.16333180377957 142.27624269074988 -0.23787285763002114
    vertex -29.591186421000785 100.19786758578239 -0.23787285763002114
  endloop
endfacet
facet normal 0.0 0.0 1.0
  outer loop
    vertex 66.21666819622064 142.27624269074988 -0.23787285763002114
    vertex -29.591186421000785 137.06703358578224 -0.23787285763002114
    vertex 63.526885578999455 137.06703358578224 -0.23787285763002114
  endloop
endfacet
facet normal 0.0 0.0 1.0
  outer loop
    vertex 66.21666819622064 142.27624269074988 -0.23787285763002114
    vertex 63.526885578999455 137.06703358578224 -0.23787285763002114
    vertex 66.21666819622064 95.08624269075 -0.23787285763002114
  endloop
endfacet
facet normal -1.0 0.0 0.0
  outer loop
    vertex 63.526885578999455 137.06703358578224 -0.23787285763002114
    vertex 63.526885578999455 100.19786758578239 -2.033838457630025
    vertex 63.526885578999455 100.19786758578239 -0.23787285763002114
  endloop
endfacet
facet normal -1.0 0.0 0.0
  outer loop
    vertex 63.526885578999455 100.19786758578239 -2.033838457630025
    vertex 63.526885578999455 137.06703358578224 -0.23787285763002114
    vertex 63.526885578999455 137.06703358578224 -2.033838457630025
  endloop
endfacet
facet normal 1.0 0.0 0.0
  outer loop
    vertex -0.5362969047633172 95.08624269075 -0.23787285763002114
    vertex -0.5362969047633172 89.82096369074999 -0.23787285763002114
    vertex -0.5362969047633172 89.82096369074999 -3.1098728576300196
  endloop
endfacet
facet normal 1.0 0.0 0.0
  outer loop
    vertex -0.5362969047633172 89.82096369074999 -0.23787285763002114
    vertex -0.5362969047633172 95.08624269075 -0.23787285763002114
    vertex -0.5362969047633172 91.68123009526691 -0.23787285763002114
  endloop
endfacet
facet normal 1.0 0.0 0.0
  outer loop
    vertex -0.5362969047633172 91.68123009526691 -0.23787285763002114
    vertex -0.5362969047633172 95.08624269075 -0.23787285763002114
    vertex -0.5362969047633172 92.99015469075 -0.23787285763002114
  endloop
endfacet
facet normal 1.0 0.0 0.0
  outer loop
    vertex -0.5362969047633172 91.68123009526691 -0.23787285763002114
    vertex -0.5362969047633172 92.99015469075 -0.23787285763002114
    vertex -0.5362969047633172 91.68123009526691 0.14731914236997876
  endloop
endfacet
facet normal 1.0 0.0 0.0
  outer loop
    vertex -0.5362969047633172 92.99015469075 0.14731914236997876
    vertex -0.5362969047633172 91.68123009526691 0.14731914236997876
    vertex -0.5362969047633172 92.99015469075 -0.23787285763002114
  endloop
endfacet
facet normal 0.0 1.0 0.0
  outer loop
    vertex -10.004392904763314 92.99015469075 0.14731914236997876
    vertex -0.5362969047633172 92.99015469075 -0.23787285763002114
    vertex -10.004392904763314 92.99015469075 -0.23787285763002114
  endloop
endfacet
facet normal 0.0 1.0 0.0
  outer loop
    vertex -0.5362969047633172 92.99015469075 -0.23787285763002114
    vertex -10.004392904763314 92.99015469075 0.14731914236997876
    vertex -0.5362969047633172 92.99015469075 0.14731914236997876
  endloop
endfacet
facet normal 0.0 0.0 1.0
  outer loop
    vertex -0.5362969047633172 89.82096369074999 -0.23787285763002114
    vertex -10.004392904763314 91.68123009526691 -0.23787285763002114
    vertex -10.004392904763314 89.82096369074999 -0.23787285763002114
  endloop
endfacet
facet normal 0.0 0.0 1.0
  outer loop
    vertex -10.004392904763314 91.68123009526691 -0.23787285763002114
    vertex -0.5362969047633172 89.82096369074999 -0.23787285763002114
    vertex -0.5362969047633172 91.68123009526691 -0.23787285763002114
  endloop
endfacet
facet normal 1.0 0.0 0.0
  outer loop
    vertex -0.5362969047633172 95.08624269075 -0.23787285763002114
    vertex -0.5362969047633172 89.82096369074999 -3.1098728576300196
    vertex -0.5362969047633172 95.08624269075 -3.1098728576300196
  endloop
endfacet
facet normal 0.0 -1.0 0.0
  outer loop
    vertex -0.5362969047633172 91.68123009526691 0.14731914236997876
    vertex -10.004392904763314 91.68123009526691 -0.23787285763002114
    vertex -0.5362969047633172 91.68123009526691 -0.23787285763002114
  endloop
endfacet
facet normal 0.0 -1.0 0.0
  outer loop
    vertex -10.004392904763314 91.68123009526691 -0.23787285763002114
    vertex -0.5362969047633172 91.68123009526691 0.14731914236997876
    vertex -10.004392904763314 91.68123009526691 0.14731914236997876
  endloop
endfacet
facet normal -1.0 0.0 0.0
  outer loop
    vertex -10.004392904763314 92.99015469075 0.14731914236997876
    vertex -10.004392904763314 91.68123009526691 -0.23787285763002114
    vertex -10.004392904763314 91.68123009526691 0.14731914236997876
  endloop
endfacet
facet normal -1.0 0.0 0.0
  outer loop
    vertex -10.004392904763314 91.68123009526691 -0.23787285763002114
    vertex -10.004392904763314 89.82096369074999 -3.1098728576300196
    vertex -10.004392904763314 89.82096369074999 -0.23787285763002114
  endloop
endfacet
facet normal -1.0 0.0 0.0
  outer loop
    vertex -10.004392904763314 89.82096369074999 -3.1098728576300196
    vertex -10.004392904763314 91.68123009526691 -0.23787285763002114
    vertex -10.004392904763314 95.08624269075 -3.1098728576300196
  endloop
endfacet
facet normal -1.0 0.0 0.0
  outer loop
    vertex -10.004392904763314 95.08624269075 -3.1098728576300196
    vertex -10.004392904763314 91.68123009526691 -0.23787285763002114
    vertex -10.004392904763314 92.99015469075 -0.23787285763002114
  endloop
endfacet
facet normal -1.0 0.0 0.0
  outer loop
    vertex -10.004392904763314 92.99015469075 -0.23787285763002114
    vertex -10.004392904763314 91.68123009526691 -0.23787285763002114
    vertex -10.004392904763314 92.99015469075 0.14731914236997876
  endloop
endfacet
facet normal -1.0 0.0 0.0
  outer loop
    vertex -10.004392904763314 95.08624269075 -3.1098728576300196
    vertex -10.004392904763314 92.99015469075 -0.23787285763002114
    vertex -10.004392904763314 95.08624269075 -0.23787285763002114
  endloop
endfacet
facet normal 0.0 0.0 -1.0
  outer loop
    vertex -0.5362969047633172 95.08624269075 -3.1098728576300196
    vertex -10.004392904763314 89.82096369074999 -3.1098728576300196
    vertex -10.004392904763314 95.08624269075 -3.1098728576300196
  endloop
endfacet
facet normal 0.0 0.0 -1.0
  outer loop
    vertex -10.004392904763314 89.82096369074999 -3.1098728576300196
    vertex -0.5362969047633172 95.08624269075 -3.1098728576300196
    vertex -0.5362969047633172 89.82096369074999 -3.1098728576300196
  endloop
endfacet
facet normal 0.0 -1.0 0.0
  outer loop
    vertex -10.004392904763314 95.08624269075 -0.23787285763002114
    vertex -33.16333180377957 95.08624269075 -3.1098728576300196
    vertex -10.004392904763314 95.08624269075 -3.1098728576300196
  endloop
endfacet
facet normal 0.0 -1.0 0.0
  outer loop
    vertex -33.16333180377957 95.08624269075 -3.1098728576300196
    vertex -10.004392904763314 95.08624269075 -0.23787285763002114
    vertex -33.16333180377957 95.08624269075 -0.23787285763002114
  endloop
endfacet
facet normal 0.0 -1.0 0.0
  outer loop
    vertex 66.21666819622064 95.08624269075 -0.23787285763002114
    vertex -0.5362969047633172 95.08624269075 -3.1098728576300196
    vertex 66.21666819622064 95.08624269075 -3.1098728576300196
  endloop
endfacet
facet normal 0.0 -1.0 0.0
  outer loop
    vertex -0.5362969047633172 95.08624269075 -3.1098728576300196
    vertex 66.21666819622064 95.08624269075 -0.23787285763002114
    vertex -0.5362969047633172 95.08624269075 -0.23787285763002114
  endloop
endfacet
facet normal 0.0 -1.0 0.0
  outer loop
    vertex -0.5362969047633172 95.08624269075 -0.23787285763002114
    vertex -10.004392904763314 95.08624269075 -3.1098728576300196
    vertex -0.5362969047633172 95.08624269075 -3.1098728576300196
  endloop
endfacet
facet normal 0.0 -1.0 0.0
  outer loop
    vertex -10.004392904763314 95.08624269075 -3.1098728576300196
    vertex -0.5362969047633172 95.08624269075 -0.23787285763002114
    vertex -10.004392904763314 95.08624269075 -0.23787285763002114
  endloop
endfacet
facet normal 0.0 -1.0 0.0
  outer loop
    vertex -0.5362969047633172 89.82096369074999 -0.23787285763002114
    vertex -10.004392904763314 89.82096369074999 -3.1098728576300196
    vertex -0.5362969047633172 89.82096369074999 -3.1098728576300196
  endloop
endfacet
facet normal 0.0 -1.0 0.0
  outer loop
    vertex -10.004392904763314 89.82096369074999 -3.1098728576300196
    vertex -0.5362969047633172 89.82096369074999 -0.23787285763002114
    vertex -10.004392904763314 89.82096369074999 -0.23787285763002114
  endloop
endfacet
facet normal 0.0 0.0 1.0
  outer loop
    vertex -0.5362969047633172 92.99015469075 -0.23787285763002114
    vertex -10.004392904763314 95.08624269075 -0.23787285763002114
    vertex -10.004392904763314 92.99015469075 -0.23787285763002114
  endloop
endfacet
facet normal 0.0 0.0 1.0
  outer loop
    vertex -10.004392904763314 95.08624269075 -0.23787285763002114
    vertex -0.5362969047633172 92.99015469075 -0.23787285763002114
    vertex -0.5362969047633172 95.08624269075 -0.23787285763002114
  endloop
endfacet
facet normal -1.0 0.0 0.0
  outer loop
    vertex -33.16333180377957 142.27624269074988 -3.1098728576300196
    vertex -33.16333180377957 95.08624269075 -3.1098728576300196
    vertex -33.16333180377957 95.08624269075 -0.23787285763002114
  endloop
endfacet
facet normal 0.0 1.0 0.0
  outer loop
    vertex -29.591186421000785 100.19786758578239 -0.23787285763002114
    vertex 63.526885578999455 100.19786758578239 -2.033838457630025
    vertex -29.591186421000785 100.19786758578239 -2.033838457630025
  endloop
endfacet
facet normal 0.0 1.0 0.0
  outer loop
    vertex 63.526885578999455 100.19786758578239 -2.033838457630025
    vertex -29.591186421000785 100.19786758578239 -0.23787285763002114
    vertex 63.526885578999455 100.19786758578239 -0.23787285763002114
  endloop
endfacet
endsolid AutoSave_AutoSave_AutoSave_AutoSave_AutoSave_mousepusher 0506
