solid Untitled-62e867f2
facet normal 3.499313815798197e-16 -2.0562736105185103e-14 1.0
  outer loop
    vertex 272.8971533354582 -174.78422399410135 2.7036379412336076
    vertex 99.75801933545814 -168.26564299410063 2.703637941233946
    vertex 99.75801933545814 -174.78422399410135 2.7036379412336076
  endloop
endfacet
facet normal 3.499313815798197e-16 -2.0562736105185103e-14 1.0
  outer loop
    vertex 99.75801933545814 -168.26564299410063 2.703637941233946
    vertex 272.8971533354582 -174.78422399410135 2.7036379412336076
    vertex 258.46364172886337 -168.26564299410063 2.703637941233946
  endloop
endfacet
facet normal 3.499313815798197e-16 -2.0562736105185103e-14 1.0
  outer loop
    vertex 258.46364172886337 -168.26564299410063 2.703637941233946
    vertex 272.8971533354582 -174.78422399410135 2.7036379412336076
    vertex 258.46364172886337 -158.26564299410066 2.703637941233946
  endloop
endfacet
facet normal 3.499313815798197e-16 -2.0562736105185103e-14 1.0
  outer loop
    vertex 258.46364172886337 -158.26564299410066 2.703637941233946
    vertex 272.8971533354582 -174.78422399410135 2.7036379412336076
    vertex 272.8971533354582 -158.26564299410066 2.703637941233946
  endloop
endfacet
facet normal -1.0 0.0 0.0
  outer loop
    vertex 229.63278176408215 -113.26564299410069 -32.29636205876616
    vertex 229.63278176408215 -118.26564299410082 -34.48830437626909
    vertex 229.63278176408215 -118.26564299410109 -32.29636205876646
  endloop
endfacet
facet normal -1.0 0.0 0.0
  outer loop
    vertex 229.63278176408215 -118.26564299410082 -34.48830437626909
    vertex 229.63278176408215 -113.26564299410069 -32.29636205876616
    vertex 229.63278176408215 -103.92677499410091 -34.48830437626904
  endloop
endfacet
facet normal -1.0 0.0 0.0
  outer loop
    vertex 229.63278176408215 -103.92677499410091 -34.48830437626904
    vertex 229.63278176408215 -113.26564299410069 -32.29636205876616
    vertex 229.63278176408215 -113.2656429941005 -0.3345200587666488
  endloop
endfacet
facet normal -1.0 0.0 0.0
  outer loop
    vertex 229.63278176408215 -103.92677499410091 -34.48830437626904
    vertex 229.63278176408215 -113.2656429941005 -0.3345200587666488
    vertex 229.63278176408215 -103.92677499410118 -0.3345200587663442
  endloop
endfacet
facet normal -2.351676085130828e-16 -1.0 1.9812087322708212e-15
  outer loop
    vertex 272.8971533354582 -174.78422399410135 2.7036379412336076
    vertex 229.63278176408215 -174.78422399410135 -34.488304376269014
    vertex 272.8971533354582 -174.78422399410135 -34.488304376269014
  endloop
endfacet
facet normal -2.351676085130828e-16 -1.0 1.9812087322708212e-15
  outer loop
    vertex 229.63278176408215 -174.78422399410135 -34.488304376269014
    vertex 272.8971533354582 -174.78422399410135 2.7036379412336076
    vertex 229.63278176408215 -174.78422399410115 -0.3345200587657464
  endloop
endfacet
facet normal -2.351676085130828e-16 -1.0 1.9812087322708212e-15
  outer loop
    vertex 229.63278176408215 -174.78422399410115 -0.3345200587657464
    vertex 272.8971533354582 -174.78422399410135 2.7036379412336076
    vertex 99.75801933545814 -174.78422399410115 -0.3345200587657464
  endloop
endfacet
facet normal -2.351676085130828e-16 -1.0 1.9812087322708212e-15
  outer loop
    vertex 99.75801933545814 -174.78422399410115 -0.3345200587657464
    vertex 272.8971533354582 -174.78422399410135 2.7036379412336076
    vertex 99.75801933545814 -174.78422399410135 2.7036379412336076
  endloop
endfacet
facet normal 0.0 3.261642011553057e-14 -1.0
  outer loop
    vertex 229.63278176408215 -103.92677499410118 -0.3345200587663442
    vertex 99.75801933545814 -113.2656429941005 -0.3345200587666488
    vertex 99.75801933545814 -103.92677499410118 -0.3345200587663442
  endloop
endfacet
facet normal 0.0 3.261642011553057e-14 -1.0
  outer loop
    vertex 99.75801933545814 -113.2656429941005 -0.3345200587666488
    vertex 229.63278176408215 -103.92677499410118 -0.3345200587663442
    vertex 229.63278176408215 -113.2656429941005 -0.3345200587666488
  endloop
endfacet
facet normal -1.0 0.0 0.0
  outer loop
    vertex 99.75801933545814 -168.26564299410063 2.703637941233946
    vertex 99.75801933545814 -174.78422399410115 -0.3345200587657464
    vertex 99.75801933545814 -174.78422399410135 2.7036379412336076
  endloop
endfacet
facet normal -1.0 0.0 0.0
  outer loop
    vertex 99.75801933545814 -174.78422399410115 -0.3345200587657464
    vertex 99.75801933545814 -168.26564299410063 2.703637941233946
    vertex 99.75801933545814 -168.26564299410109 -0.3345200587657802
  endloop
endfacet
facet normal -1.178883358096949e-15 5.3560994114079e-15 1.0
  outer loop
    vertex 258.46364172886337 -168.26564299410077 -32.29636205876599
    vertex 229.63278176408215 -163.26564299410023 -32.29636205876608
    vertex 229.63278176408215 -168.26564299410077 -32.29636205876599
  endloop
endfacet
facet normal -1.178883358096949e-15 5.3560994114079e-15 1.0
  outer loop
    vertex 229.63278176408215 -163.26564299410023 -32.29636205876608
    vertex 258.46364172886337 -168.26564299410077 -32.29636205876599
    vertex 229.63278176408215 -118.26564299410109 -32.29636205876646
  endloop
endfacet
facet normal -1.178883358096949e-15 5.3560994114079e-15 1.0
  outer loop
    vertex 229.63278176408215 -118.26564299410109 -32.29636205876646
    vertex 258.46364172886337 -168.26564299410077 -32.29636205876599
    vertex 229.63278176408215 -113.26564299410069 -32.29636205876616
  endloop
endfacet
facet normal -1.178883358096949e-15 5.3560994114079e-15 1.0
  outer loop
    vertex 229.63278176408215 -113.26564299410069 -32.29636205876616
    vertex 258.46364172886337 -168.26564299410077 -32.29636205876599
    vertex 258.46364172886337 -113.26564299410069 -32.29636205876616
  endloop
endfacet
facet normal -1.178883358096949e-15 5.3560994114079e-15 1.0
  outer loop
    vertex 229.63278176408215 -163.26564299410023 -32.29636205876608
    vertex 83.4367137640821 -118.26564299410109 -32.29636205876646
    vertex 83.4367137640821 -163.26564299410023 -32.29636205876608
  endloop
endfacet
facet normal -1.178883358096949e-15 5.3560994114079e-15 1.0
  outer loop
    vertex 83.4367137640821 -118.26564299410109 -32.29636205876646
    vertex 229.63278176408215 -163.26564299410023 -32.29636205876608
    vertex 229.63278176408215 -118.26564299410109 -32.29636205876646
  endloop
endfacet
facet normal -9.173075767785276e-32 1.0 1.2350543176384166e-13
  outer loop
    vertex 83.4367137640821 -118.26564299410109 -32.29636205876646
    vertex 229.63278176408215 -118.26564299410082 -34.48830437626909
    vertex 83.4367137640821 -118.26564299410082 -34.48830437626909
  endloop
endfacet
facet normal -9.173075767785276e-32 1.0 1.2350543176384166e-13
  outer loop
    vertex 229.63278176408215 -118.26564299410082 -34.48830437626909
    vertex 83.4367137640821 -118.26564299410109 -32.29636205876646
    vertex 229.63278176408215 -118.26564299410109 -32.29636205876646
  endloop
endfacet
facet normal 1.0 -0.0 -0.0
  outer loop
    vertex 272.8971533354582 -174.78422399410135 -34.488304376269014
    vertex 272.8971533354582 -158.26564299410066 -7.976893058766053
    vertex 272.8971533354582 -174.78422399410135 2.7036379412336076
  endloop
endfacet
facet normal 1.0 -0.0 -0.0
  outer loop
    vertex 272.8971533354582 -158.26564299410066 -7.976893058766053
    vertex 272.8971533354582 -174.78422399410135 -34.488304376269014
    vertex 272.8971533354582 -103.92677499410091 -34.48830437626904
  endloop
endfacet
facet normal 1.0 -0.0 -0.0
  outer loop
    vertex 272.8971533354582 -158.26564299410066 -7.976893058766053
    vertex 272.8971533354582 -103.92677499410091 -34.48830437626904
    vertex 272.8971533354582 -123.2656429941003 -7.97689305876608
  endloop
endfacet
facet normal 1.0 -0.0 -0.0
  outer loop
    vertex 272.8971533354582 -123.2656429941003 -7.97689305876608
    vertex 272.8971533354582 -103.92677499410091 -34.48830437626904
    vertex 272.8971533354582 -123.2656429941003 2.7036379412339238
  endloop
endfacet
facet normal 1.0 -0.0 -0.0
  outer loop
    vertex 272.8971533354582 -123.2656429941003 2.7036379412339238
    vertex 272.8971533354582 -103.92677499410091 -34.48830437626904
    vertex 272.8971533354582 -103.92677499410075 2.703637941233975
  endloop
endfacet
facet normal 1.0 -0.0 -0.0
  outer loop
    vertex 272.8971533354582 -158.26564299410066 2.703637941233946
    vertex 272.8971533354582 -174.78422399410135 2.7036379412336076
    vertex 272.8971533354582 -158.26564299410066 -7.976893058766053
  endloop
endfacet
facet normal -4.815234399446051e-16 1.0 -1.8935602854524243e-16
  outer loop
    vertex 99.75801933545814 -103.92677499410075 2.703637941233975
    vertex 229.63278176408215 -103.92677499410118 -0.3345200587663442
    vertex 99.75801933545814 -103.92677499410118 -0.3345200587663442
  endloop
endfacet
facet normal -4.815234399446051e-16 1.0 -1.8935602854524243e-16
  outer loop
    vertex 229.63278176408215 -103.92677499410118 -0.3345200587663442
    vertex 272.8971533354582 -103.92677499410091 -34.48830437626904
    vertex 229.63278176408215 -103.92677499410091 -34.48830437626904
  endloop
endfacet
facet normal -4.815234399446051e-16 1.0 -1.8935602854524243e-16
  outer loop
    vertex 272.8971533354582 -103.92677499410091 -34.48830437626904
    vertex 229.63278176408215 -103.92677499410118 -0.3345200587663442
    vertex 272.8971533354582 -103.92677499410075 2.703637941233975
  endloop
endfacet
facet normal -4.815234399446051e-16 1.0 -1.8935602854524243e-16
  outer loop
    vertex 272.8971533354582 -103.92677499410075 2.703637941233975
    vertex 229.63278176408215 -103.92677499410118 -0.3345200587663442
    vertex 99.75801933545814 -103.92677499410075 2.703637941233975
  endloop
endfacet
facet normal 0.0 -1.0 5.248980849962354e-13
  outer loop
    vertex 229.63278176408215 -163.26564299410023 -32.29636205876608
    vertex 83.4367137640821 -163.26564299410137 -34.48830437626909
    vertex 229.63278176408215 -163.26564299410137 -34.48830437626909
  endloop
endfacet
facet normal 0.0 -1.0 5.248980849962354e-13
  outer loop
    vertex 83.4367137640821 -163.26564299410137 -34.48830437626909
    vertex 229.63278176408215 -163.26564299410023 -32.29636205876608
    vertex 83.4367137640821 -163.26564299410023 -32.29636205876608
  endloop
endfacet
facet normal -1.0 0.0 0.0
  outer loop
    vertex 229.63278176408215 -174.78422399410135 -34.488304376269014
    vertex 229.63278176408215 -168.26564299410077 -32.29636205876599
    vertex 229.63278176408215 -163.26564299410137 -34.48830437626909
  endloop
endfacet
facet normal -1.0 0.0 0.0
  outer loop
    vertex 229.63278176408215 -168.26564299410077 -32.29636205876599
    vertex 229.63278176408215 -174.78422399410135 -34.488304376269014
    vertex 229.63278176408215 -174.78422399410115 -0.3345200587657464
  endloop
endfacet
facet normal -1.0 0.0 0.0
  outer loop
    vertex 229.63278176408215 -168.26564299410077 -32.29636205876599
    vertex 229.63278176408215 -174.78422399410115 -0.3345200587657464
    vertex 229.63278176408215 -168.26564299410109 -0.3345200587657802
  endloop
endfacet
facet normal -1.0 0.0 0.0
  outer loop
    vertex 229.63278176408215 -163.26564299410137 -34.48830437626909
    vertex 229.63278176408215 -168.26564299410077 -32.29636205876599
    vertex 229.63278176408215 -163.26564299410023 -32.29636205876608
  endloop
endfacet
facet normal 0.0 -5.184492731513902e-15 -1.0
  outer loop
    vertex 229.63278176408215 -168.26564299410109 -0.3345200587657802
    vertex 99.75801933545814 -174.78422399410115 -0.3345200587657464
    vertex 99.75801933545814 -168.26564299410109 -0.3345200587657802
  endloop
endfacet
facet normal 0.0 -5.184492731513902e-15 -1.0
  outer loop
    vertex 99.75801933545814 -174.78422399410115 -0.3345200587657464
    vertex 229.63278176408215 -168.26564299410109 -0.3345200587657802
    vertex 229.63278176408215 -174.78422399410115 -0.3345200587657464
  endloop
endfacet
facet normal -8.268581098075853e-16 1.0 -8.197712957726784e-16
  outer loop
    vertex 99.75801933545814 -168.26564299410063 2.703637941233946
    vertex 229.63278176408215 -168.26564299410109 -0.3345200587657802
    vertex 99.75801933545814 -168.26564299410109 -0.3345200587657802
  endloop
endfacet
facet normal -8.268581098075853e-16 1.0 -8.197712957726784e-16
  outer loop
    vertex 229.63278176408215 -168.26564299410109 -0.3345200587657802
    vertex 258.46364172886337 -168.26564299410077 -32.29636205876599
    vertex 229.63278176408215 -168.26564299410077 -32.29636205876599
  endloop
endfacet
facet normal -8.268581098075853e-16 1.0 -8.197712957726784e-16
  outer loop
    vertex 258.46364172886337 -168.26564299410077 -32.29636205876599
    vertex 229.63278176408215 -168.26564299410109 -0.3345200587657802
    vertex 258.46364172886337 -168.26564299410063 2.703637941233946
  endloop
endfacet
facet normal -8.268581098075853e-16 1.0 -8.197712957726784e-16
  outer loop
    vertex 258.46364172886337 -168.26564299410063 2.703637941233946
    vertex 229.63278176408215 -168.26564299410109 -0.3345200587657802
    vertex 99.75801933545814 -168.26564299410063 2.703637941233946
  endloop
endfacet
facet normal -2.9794889858408543e-15 1.994119155515994e-15 1.0
  outer loop
    vertex 272.8971533354582 -158.26564299410066 -7.976893058766053
    vertex 258.46364172886337 -123.2656429941003 -7.976893058766166
    vertex 258.46364172886337 -158.26564299410066 -7.976893058766053
  endloop
endfacet
facet normal -2.9794889858408543e-15 1.994119155515994e-15 1.0
  outer loop
    vertex 258.46364172886337 -123.2656429941003 -7.976893058766166
    vertex 272.8971533354582 -158.26564299410066 -7.976893058766053
    vertex 272.8971533354582 -123.2656429941003 -7.97689305876608
  endloop
endfacet
facet normal -1.0 0.0 0.0
  outer loop
    vertex 99.75801933545814 -113.2656429941003 2.7036379412337936
    vertex 99.75801933545814 -103.92677499410118 -0.3345200587663442
    vertex 99.75801933545814 -113.2656429941005 -0.3345200587666488
  endloop
endfacet
facet normal -1.0 0.0 0.0
  outer loop
    vertex 99.75801933545814 -103.92677499410118 -0.3345200587663442
    vertex 99.75801933545814 -113.2656429941003 2.7036379412337936
    vertex 99.75801933545814 -103.92677499410075 2.703637941233975
  endloop
endfacet
facet normal -3.57682925667325e-16 -4.108964795898843e-15 1.0
  outer loop
    vertex 272.8971533354582 -123.2656429941003 2.7036379412339238
    vertex 258.46364172886337 -113.26564299410023 2.703637941233879
    vertex 258.46364172886325 -123.26564299410022 2.7036379412339184
  endloop
endfacet
facet normal -3.57682925667325e-16 -4.108964795898843e-15 1.0
  outer loop
    vertex 258.46364172886337 -113.26564299410023 2.703637941233879
    vertex 99.75801933545814 -103.92677499410075 2.703637941233975
    vertex 99.75801933545814 -113.2656429941003 2.7036379412337936
  endloop
endfacet
facet normal -3.57682925667325e-16 -4.108964795898843e-15 1.0
  outer loop
    vertex 99.75801933545814 -103.92677499410075 2.703637941233975
    vertex 258.46364172886337 -113.26564299410023 2.703637941233879
    vertex 272.8971533354582 -103.92677499410075 2.703637941233975
  endloop
endfacet
facet normal -3.57682925667325e-16 -4.108964795898843e-15 1.0
  outer loop
    vertex 272.8971533354582 -103.92677499410075 2.703637941233975
    vertex 258.46364172886337 -113.26564299410023 2.703637941233879
    vertex 272.8971533354582 -123.2656429941003 2.7036379412339238
  endloop
endfacet
facet normal 3.532819171789565e-16 -2.0348800670668814e-16 -1.0
  outer loop
    vertex 272.8971533354582 -103.92677499410091 -34.48830437626904
    vertex 229.63278176408215 -118.26564299410082 -34.48830437626909
    vertex 229.63278176408215 -103.92677499410091 -34.48830437626904
  endloop
endfacet
facet normal 3.532819171789565e-16 -2.0348800670668814e-16 -1.0
  outer loop
    vertex 229.63278176408215 -118.26564299410082 -34.48830437626909
    vertex 272.8971533354582 -103.92677499410091 -34.48830437626904
    vertex 229.63278176408215 -163.26564299410137 -34.48830437626909
  endloop
endfacet
facet normal 3.532819171789565e-16 -2.0348800670668814e-16 -1.0
  outer loop
    vertex 229.63278176408215 -163.26564299410137 -34.48830437626909
    vertex 272.8971533354582 -103.92677499410091 -34.48830437626904
    vertex 229.63278176408215 -174.78422399410135 -34.488304376269014
  endloop
endfacet
facet normal 3.532819171789565e-16 -2.0348800670668814e-16 -1.0
  outer loop
    vertex 229.63278176408215 -174.78422399410135 -34.488304376269014
    vertex 272.8971533354582 -103.92677499410091 -34.48830437626904
    vertex 272.8971533354582 -174.78422399410135 -34.488304376269014
  endloop
endfacet
facet normal 3.532819171789565e-16 -2.0348800670668814e-16 -1.0
  outer loop
    vertex 229.63278176408215 -118.26564299410082 -34.48830437626909
    vertex 83.4367137640821 -163.26564299410137 -34.48830437626909
    vertex 83.4367137640821 -118.26564299410082 -34.48830437626909
  endloop
endfacet
facet normal 3.532819171789565e-16 -2.0348800670668814e-16 -1.0
  outer loop
    vertex 83.4367137640821 -163.26564299410137 -34.48830437626909
    vertex 229.63278176408215 -118.26564299410082 -34.48830437626909
    vertex 229.63278176408215 -163.26564299410137 -34.48830437626909
  endloop
endfacet
facet normal -3.1260212310461554e-15 -1.0 4.224458851415367e-15
  outer loop
    vertex 272.8971533354582 -123.2656429941003 -7.97689305876608
    vertex 258.46364172886325 -123.26564299410022 2.7036379412339184
    vertex 258.46364172886337 -123.2656429941003 -7.976893058766166
  endloop
endfacet
facet normal -3.1260212310461554e-15 -1.0 4.224458851415367e-15
  outer loop
    vertex 258.46364172886325 -123.26564299410022 2.7036379412339184
    vertex 272.8971533354582 -123.2656429941003 -7.97689305876608
    vertex 272.8971533354582 -123.2656429941003 2.7036379412339238
  endloop
endfacet
facet normal -0.0 1.0 -0.0
  outer loop
    vertex 258.46364172886337 -158.26564299410066 2.703637941233946
    vertex 272.8971533354582 -158.26564299410066 -7.976893058766053
    vertex 258.46364172886337 -158.26564299410066 -7.976893058766053
  endloop
endfacet
facet normal -0.0 1.0 -0.0
  outer loop
    vertex 272.8971533354582 -158.26564299410066 -7.976893058766053
    vertex 258.46364172886337 -158.26564299410066 2.703637941233946
    vertex 272.8971533354582 -158.26564299410066 2.703637941233946
  endloop
endfacet
facet normal 7.469614814843539e-16 -1.0 1.1061154015808143e-14
  outer loop
    vertex 258.46364172886337 -113.26564299410023 2.703637941233879
    vertex 229.63278176408215 -113.26564299410069 -32.29636205876616
    vertex 258.46364172886337 -113.26564299410069 -32.29636205876616
  endloop
endfacet
facet normal 7.469614814843539e-16 -1.0 1.1061154015808143e-14
  outer loop
    vertex 229.63278176408215 -113.26564299410069 -32.29636205876616
    vertex 258.46364172886337 -113.26564299410023 2.703637941233879
    vertex 229.63278176408215 -113.2656429941005 -0.3345200587666488
  endloop
endfacet
facet normal 7.469614814843539e-16 -1.0 1.1061154015808143e-14
  outer loop
    vertex 229.63278176408215 -113.2656429941005 -0.3345200587666488
    vertex 258.46364172886337 -113.26564299410023 2.703637941233879
    vertex 99.75801933545814 -113.2656429941005 -0.3345200587666488
  endloop
endfacet
facet normal 7.469614814843539e-16 -1.0 1.1061154015808143e-14
  outer loop
    vertex 99.75801933545814 -113.2656429941005 -0.3345200587666488
    vertex 258.46364172886337 -113.26564299410023 2.703637941233879
    vertex 99.75801933545814 -113.2656429941003 2.7036379412337936
  endloop
endfacet
facet normal -1.0 -3.7915769625665937e-16 -6.298498266522801e-16
  outer loop
    vertex 258.46364172886337 -168.26564299410077 -32.29636205876599
    vertex 258.46364172886337 -158.26564299410066 -7.976893058766053
    vertex 258.46364172886337 -113.26564299410069 -32.29636205876616
  endloop
endfacet
facet normal -1.0 -3.7915769625665937e-16 -6.298498266522801e-16
  outer loop
    vertex 258.46364172886337 -158.26564299410066 -7.976893058766053
    vertex 258.46364172886337 -168.26564299410077 -32.29636205876599
    vertex 258.46364172886337 -168.26564299410063 2.703637941233946
  endloop
endfacet
facet normal -1.0 -3.7915769625665937e-16 -6.298498266522801e-16
  outer loop
    vertex 258.46364172886337 -158.26564299410066 -7.976893058766053
    vertex 258.46364172886337 -168.26564299410063 2.703637941233946
    vertex 258.46364172886337 -158.26564299410066 2.703637941233946
  endloop
endfacet
facet normal -1.0 -3.7915769625665937e-16 -6.298498266522801e-16
  outer loop
    vertex 258.46364172886337 -113.26564299410069 -32.29636205876616
    vertex 258.46364172886337 -158.26564299410066 -7.976893058766053
    vertex 258.46364172886337 -123.2656429941003 -7.976893058766166
  endloop
endfacet
facet normal -1.0 -3.7915769625665937e-16 -6.298498266522801e-16
  outer loop
    vertex 258.46364172886337 -113.26564299410069 -32.29636205876616
    vertex 258.46364172886337 -123.2656429941003 -7.976893058766166
    vertex 258.46364172886325 -123.26564299410022 2.7036379412339184
  endloop
endfacet
facet normal -1.0 -3.7915769625665937e-16 -6.298498266522801e-16
  outer loop
    vertex 258.46364172886337 -113.26564299410069 -32.29636205876616
    vertex 258.46364172886325 -123.26564299410022 2.7036379412339184
    vertex 258.46364172886337 -113.26564299410023 2.703637941233879
  endloop
endfacet
facet normal -1.0 0.0 0.0
  outer loop
    vertex 83.4367137640821 -163.26564299410023 -32.29636205876608
    vertex 83.4367137640821 -118.26564299410082 -34.48830437626909
    vertex 83.4367137640821 -163.26564299410137 -34.48830437626909
  endloop
endfacet
facet normal -1.0 0.0 0.0
  outer loop
    vertex 83.4367137640821 -118.26564299410082 -34.48830437626909
    vertex 83.4367137640821 -163.26564299410023 -32.29636205876608
    vertex 83.4367137640821 -118.26564299410109 -32.29636205876646
  endloop
endfacet
endsolid Untitled-62e867f2
