solid Untitled-61451197
facet normal 0.0003442302490928497 0.9999999407527662 -1.1279937326361206e-15
  outer loop
    vertex 239.01243012240968 139.801672512028 -21.03265508024785
    vertex 248.01242958918465 139.7985744397862 -11.032655080248196
    vertex 248.01242958918465 139.79857443978625 -21.032655080248166
  endloop
endfacet
facet normal 0.0003442302490928497 0.9999999407527662 -1.1279937326361206e-15
  outer loop
    vertex 248.01242958918465 139.7985744397862 -11.032655080248196
    vertex 239.01243012240968 139.801672512028 -21.03265508024785
    vertex 239.01243012240968 139.80167251202812 -11.032655080247949
  endloop
endfacet
facet normal -2.3347082979025183e-14 -1.1694824823270323e-14 -1.0
  outer loop
    vertex 239.01243012240968 139.801672512028 -21.03265508024785
    vertex 248.00898728669364 129.7985750322587 -21.032655080247945
    vertex 239.00898781991881 129.80167310450037 -21.03265508024784
  endloop
endfacet
facet normal -2.3347082979025183e-14 -1.1694824823270323e-14 -1.0
  outer loop
    vertex 248.00898728669364 129.7985750322587 -21.032655080247945
    vertex 239.01243012240968 139.801672512028 -21.03265508024785
    vertex 248.01242958918465 139.79857443978625 -21.032655080248166
  endloop
endfacet
facet normal 1.6292102555424464e-14 1.9068821288723096e-14 1.0
  outer loop
    vertex 239.00898781991881 129.80167310450045 -11.032655080247766
    vertex 239.50547173344086 134.80150249594524 -11.032655080247848
    vertex 239.01243012240968 139.80167251202812 -11.032655080247949
  endloop
endfacet
facet normal 1.6292102555424464e-14 1.9068821288723096e-14 1.0
  outer loop
    vertex 239.50547173344086 134.80150249594524 -11.032655080247848
    vertex 239.00898781991881 129.80167310450045 -11.032655080247766
    vertex 239.64141204683165 133.76617945942738 -11.03265508024788
  endloop
endfacet
facet normal 1.6292102555424464e-14 1.9068821288723096e-14 1.0
  outer loop
    vertex 239.64141204683165 133.76617945942738 -11.03265508024788
    vertex 239.00898781991881 129.80167310450045 -11.032655080247766
    vertex 240.0406816260546 132.80131814200527 -11.032655080247906
  endloop
endfacet
facet normal 1.6292102555424464e-14 1.9068821288723096e-14 1.0
  outer loop
    vertex 240.0406816260546 132.80131814200527 -11.032655080247906
    vertex 239.00898781991881 129.80167310450045 -11.032655080247766
    vertex 240.6760709091088 131.97267224795297 -11.03265508024803
  endloop
endfacet
facet normal 1.6292102555424464e-14 1.9068821288723096e-14 1.0
  outer loop
    vertex 240.6760709091088 131.97267224795297 -11.03265508024803
    vertex 239.00898781991881 129.80167310450045 -11.032655080247766
    vertex 241.50427916638478 131.33671262554785 -11.032655080247977
  endloop
endfacet
facet normal 1.6292102555424464e-14 1.9068821288723096e-14 1.0
  outer loop
    vertex 241.50427916638478 131.33671262554785 -11.032655080247977
    vertex 239.00898781991881 129.80167310450045 -11.032655080247766
    vertex 242.46886537382755 130.936778872084 -11.032655080247663
  endloop
endfacet
facet normal 1.6292102555424464e-14 1.9068821288723096e-14 1.0
  outer loop
    vertex 242.46886537382755 130.936778872084 -11.032655080247663
    vertex 239.00898781991881 129.80167310450045 -11.032655080247766
    vertex 248.00898728669364 129.79857503225855 -11.032655080247936
  endloop
endfacet
facet normal 1.6292102555424464e-14 1.9068821288723096e-14 1.0
  outer loop
    vertex 242.46886537382755 130.936778872084 -11.032655080247663
    vertex 248.00898728669364 129.79857503225855 -11.032655080247936
    vertex 243.50409457545538 130.8001258119379 -11.032655080247745
  endloop
endfacet
facet normal 1.6292102555424464e-14 1.9068821288723096e-14 1.0
  outer loop
    vertex 243.50409457545538 130.8001258119379 -11.032655080247745
    vertex 248.00898728669364 129.79857503225855 -11.032655080247936
    vertex 244.53941761197325 130.93606612532895 -11.03265508024786
  endloop
endfacet
facet normal 1.6292102555424464e-14 1.9068821288723096e-14 1.0
  outer loop
    vertex 244.53941761197325 130.93606612532895 -11.03265508024786
    vertex 248.00898728669364 129.79857503225855 -11.032655080247936
    vertex 245.5042789293957 131.33533570455165 -11.032655080247888
  endloop
endfacet
facet normal 1.6292102555424464e-14 1.9068821288723096e-14 1.0
  outer loop
    vertex 245.5042789293957 131.33533570455165 -11.032655080247888
    vertex 248.00898728669364 129.79857503225855 -11.032655080247936
    vertex 246.33292482344768 131.97072498760548 -11.032655080247785
  endloop
endfacet
facet normal 1.6292102555424464e-14 1.9068821288723096e-14 1.0
  outer loop
    vertex 246.33292482344768 131.97072498760548 -11.032655080247785
    vertex 248.00898728669364 129.79857503225855 -11.032655080247936
    vertex 246.96888444585326 132.79893324488154 -11.03265508024808
  endloop
endfacet
facet normal 1.6292102555424464e-14 1.9068821288723096e-14 1.0
  outer loop
    vertex 246.96888444585326 132.79893324488154 -11.03265508024808
    vertex 248.00898728669364 129.79857503225855 -11.032655080247936
    vertex 247.3688181993168 133.76351945232489 -11.032655080248105
  endloop
endfacet
facet normal 1.6292102555424464e-14 1.9068821288723096e-14 1.0
  outer loop
    vertex 247.3688181993168 133.76351945232489 -11.032655080248105
    vertex 248.00898728669364 129.79857503225855 -11.032655080247936
    vertex 247.5054712594631 134.79874865395252 -11.032655080248093
  endloop
endfacet
facet normal 1.6292102555424464e-14 1.9068821288723096e-14 1.0
  outer loop
    vertex 239.01243012240968 139.80167251202812 -11.032655080247949
    vertex 242.4715253809304 138.66418502456892 -11.032655080247933
    vertex 248.01242958918465 139.7985744397862 -11.032655080248196
  endloop
endfacet
facet normal 1.6292102555424464e-14 1.9068821288723096e-14 1.0
  outer loop
    vertex 242.4715253809304 138.66418502456892 -11.032655080247933
    vertex 239.01243012240968 139.80167251202812 -11.032655080247949
    vertex 241.50666406350825 138.2649154453463 -11.03265508024797
  endloop
endfacet
facet normal 1.6292102555424464e-14 1.9068821288723096e-14 1.0
  outer loop
    vertex 241.50666406350825 138.2649154453463 -11.03265508024797
    vertex 239.01243012240968 139.80167251202812 -11.032655080247949
    vertex 240.67801816945612 137.62952616229234 -11.032655080248112
  endloop
endfacet
facet normal 1.6292102555424464e-14 1.9068821288723096e-14 1.0
  outer loop
    vertex 240.67801816945612 137.62952616229234 -11.032655080248112
    vertex 239.01243012240968 139.80167251202812 -11.032655080247949
    vertex 240.04205854705077 136.80131790501622 -11.032655080248114
  endloop
endfacet
facet normal 1.6292102555424464e-14 1.9068821288723096e-14 1.0
  outer loop
    vertex 240.04205854705077 136.80131790501622 -11.032655080248114
    vertex 239.01243012240968 139.80167251202812 -11.032655080247949
    vertex 239.64212479358665 135.836731697573 -11.03265508024797
  endloop
endfacet
facet normal 1.6292102555424464e-14 1.9068821288723096e-14 1.0
  outer loop
    vertex 239.64212479358665 135.836731697573 -11.03265508024797
    vertex 239.01243012240968 139.80167251202812 -11.032655080247949
    vertex 239.50547173344086 134.80150249594524 -11.032655080247848
  endloop
endfacet
facet normal 1.6292102555424464e-14 1.9068821288723096e-14 1.0
  outer loop
    vertex 248.01242958918465 139.7985744397862 -11.032655080248196
    vertex 242.4715253809304 138.66418502456892 -11.032655080247933
    vertex 243.50684841744825 138.80012533795994 -11.03265508024803
  endloop
endfacet
facet normal 1.6292102555424464e-14 1.9068821288723096e-14 1.0
  outer loop
    vertex 248.01242958918465 139.7985744397862 -11.032655080248196
    vertex 243.50684841744825 138.80012533795994 -11.03265508024803
    vertex 244.54207761907588 138.66347227781404 -11.032655080247812
  endloop
endfacet
facet normal 1.6292102555424464e-14 1.9068821288723096e-14 1.0
  outer loop
    vertex 248.01242958918465 139.7985744397862 -11.032655080248196
    vertex 244.54207761907588 138.66347227781404 -11.032655080247812
    vertex 245.5066638265192 138.26353852434994 -11.032655080247975
  endloop
endfacet
facet normal 1.6292102555424464e-14 1.9068821288723096e-14 1.0
  outer loop
    vertex 248.01242958918465 139.7985744397862 -11.032655080248196
    vertex 245.5066638265192 138.26353852434994 -11.032655080247975
    vertex 246.33487208379515 137.62757890194487 -11.032655080248016
  endloop
endfacet
facet normal 1.6292102555424464e-14 1.9068821288723096e-14 1.0
  outer loop
    vertex 248.01242958918465 139.7985744397862 -11.032655080248196
    vertex 246.33487208379515 137.62757890194487 -11.032655080248016
    vertex 246.97026136684917 136.7989330078925 -11.03265508024816
  endloop
endfacet
facet normal 1.6292102555424464e-14 1.9068821288723096e-14 1.0
  outer loop
    vertex 248.01242958918465 139.7985744397862 -11.032655080248196
    vertex 246.97026136684917 136.7989330078925 -11.03265508024816
    vertex 247.36953094607193 135.83407169047064 -11.03265508024808
  endloop
endfacet
facet normal 1.6292102555424464e-14 1.9068821288723096e-14 1.0
  outer loop
    vertex 248.01242958918465 139.7985744397862 -11.032655080248196
    vertex 247.36953094607193 135.83407169047064 -11.03265508024808
    vertex 247.5054712594631 134.79874865395252 -11.032655080248093
  endloop
endfacet
facet normal 1.6292102555424464e-14 1.9068821288723096e-14 1.0
  outer loop
    vertex 248.01242958918465 139.7985744397862 -11.032655080248196
    vertex 247.5054712594631 134.79874865395252 -11.032655080248093
    vertex 248.00898728669364 129.79857503225855 -11.032655080247936
  endloop
endfacet
facet normal 0.9999999407527662 -0.00034423024910012334 -3.5087296266954586e-18
  outer loop
    vertex 248.00898728669364 129.7985750322587 -21.032655080247945
    vertex 248.01242958918465 139.7985744397862 -11.032655080248196
    vertex 248.00898728669364 129.79857503225855 -11.032655080247936
  endloop
endfacet
facet normal 0.9999999407527662 -0.00034423024910012334 -3.5087296266954586e-18
  outer loop
    vertex 248.01242958918465 139.7985744397862 -11.032655080248196
    vertex 248.00898728669364 129.7985750322587 -21.032655080247945
    vertex 248.01242958918465 139.79857443978625 -21.032655080248166
  endloop
endfacet
facet normal -0.0003442302490865883 -0.9999999407527662 -2.255977123066895e-15
  outer loop
    vertex 248.00898728669364 129.79857503225855 -11.032655080247936
    vertex 239.00898781991881 129.80167310450037 -21.03265508024784
    vertex 248.00898728669364 129.7985750322587 -21.032655080247945
  endloop
endfacet
facet normal -0.0003442302490865883 -0.9999999407527662 -2.255977123066895e-15
  outer loop
    vertex 239.00898781991881 129.80167310450037 -21.03265508024784
    vertex 248.00898728669364 129.79857503225855 -11.032655080247936
    vertex 239.00898781991881 129.80167310450045 -11.032655080247766
  endloop
endfacet
facet normal -0.9999999407527662 0.00034423024908658545 -3.0978447602739787e-18
  outer loop
    vertex 239.00898781991881 129.80167310450045 -11.032655080247766
    vertex 239.01243012240968 139.801672512028 -21.03265508024785
    vertex 239.00898781991881 129.80167310450037 -21.03265508024784
  endloop
endfacet
facet normal -0.9999999407527662 0.00034423024908658545 -3.0978447602739787e-18
  outer loop
    vertex 239.01243012240968 139.801672512028 -21.03265508024785
    vertex 239.00898781991881 129.80167310450045 -11.032655080247766
    vertex 239.01243012240968 139.80167251202812 -11.032655080247949
  endloop
endfacet
facet normal 0.9913998715698096 -0.13086746979813332 2.001344771978983e-14
  outer loop
    vertex 239.6421247935868 135.83673169757293 -18.03265508024797
    vertex 239.50547173344086 134.80150249594524 -11.032655080247848
    vertex 239.505471733441 134.80150249594521 -18.032655080247885
  endloop
endfacet
facet normal 0.9913998715698096 -0.13086746979813332 2.001344771978983e-14
  outer loop
    vertex 239.50547173344086 134.80150249594524 -11.032655080247848
    vertex 239.6421247935868 135.83673169757293 -18.03265508024797
    vertex 239.64212479358665 135.836731697573 -11.03265508024797
  endloop
endfacet
facet normal 0.7935628473855904 0.6084882967233426 -5.05528620185497e-14
  outer loop
    vertex 240.0406816260543 132.80131814200527 -18.03265508024796
    vertex 240.6760709091088 131.97267224795297 -11.03265508024803
    vertex 240.67607090910826 131.97267224795291 -18.032655080248052
  endloop
endfacet
facet normal 0.7935628473855904 0.6084882967233426 -5.05528620185497e-14
  outer loop
    vertex 240.6760709091088 131.97267224795297 -11.03265508024803
    vertex 240.0406816260543 132.80131814200527 -18.03265508024796
    vertex 240.0406816260546 132.80131814200527 -11.032655080247906
  endloop
endfacet
facet normal 0.9240112089871746 0.3823653824106729 -7.185662896837017e-15
  outer loop
    vertex 239.64141204683187 133.76617945942732 -18.032655080247906
    vertex 240.0406816260546 132.80131814200527 -11.032655080247906
    vertex 240.0406816260543 132.80131814200527 -18.03265508024796
  endloop
endfacet
facet normal 0.9240112089871746 0.3823653824106729 -7.185662896837017e-15
  outer loop
    vertex 240.0406816260546 132.80131814200527 -11.032655080247906
    vertex 239.64141204683187 133.76617945942732 -18.032655080247906
    vertex 239.64141204683165 133.76617945942738 -11.03265508024788
  endloop
endfacet
facet normal 0.9914897336971317 0.13018489917494722 2.493417990398091e-14
  outer loop
    vertex 239.505471733441 134.80150249594521 -18.032655080247885
    vertex 239.64141204683165 133.76617945942738 -11.03265508024788
    vertex 239.64141204683187 133.76617945942732 -18.032655080247906
  endloop
endfacet
facet normal 0.9914897336971317 0.13018489917494722 2.493417990398091e-14
  outer loop
    vertex 239.64141204683165 133.76617945942738 -11.03265508024788
    vertex 239.505471733441 134.80150249594521 -18.032655080247885
    vertex 239.50547173344086 134.80150249594524 -11.032655080247848
  endloop
endfacet
facet normal 0.793143739188985 -0.6090344891591242 -2.065454857826774e-14
  outer loop
    vertex 240.67801816945558 137.6295261622923 -18.03265508024796
    vertex 240.04205854705077 136.80131790501622 -11.032655080248114
    vertex 240.04205854705086 136.8013179050161 -18.032655080247917
  endloop
endfacet
facet normal 0.793143739188985 -0.6090344891591242 -2.065454857826774e-14
  outer loop
    vertex 240.04205854705077 136.80131790501622 -11.032655080248114
    vertex 240.67801816945558 137.6295261622923 -18.03265508024796
    vertex 240.67801816945612 137.62952616229234 -11.032655080248112
  endloop
endfacet
facet normal 0.9237477465606567 -0.3830014369739479 1.920560301443657e-14
  outer loop
    vertex 240.04205854705086 136.8013179050161 -18.032655080247917
    vertex 239.64212479358665 135.836731697573 -11.03265508024797
    vertex 239.6421247935868 135.83673169757293 -18.03265508024797
  endloop
endfacet
facet normal 0.9237477465606567 -0.3830014369739479 1.920560301443657e-14
  outer loop
    vertex 239.64212479358665 135.836731697573 -11.03265508024797
    vertex 240.04205854705086 136.8013179050161 -18.032655080247917
    vertex 240.04205854705077 136.80131790501622 -11.032655080248114
  endloop
endfacet
facet normal 0.38300143697380246 0.9237477465607171 -9.948883780695914e-15
  outer loop
    vertex 241.50427916638478 131.33671262554785 -11.032655080247977
    vertex 242.46886537382792 130.9367788720839 -18.032655080247874
    vertex 241.5042791663846 131.33671262554773 -18.032655080247878
  endloop
endfacet
facet normal 0.38300143697380246 0.9237477465607171 -9.948883780695914e-15
  outer loop
    vertex 242.46886537382792 130.9367788720839 -18.032655080247874
    vertex 241.50427916638478 131.33671262554785 -11.032655080247977
    vertex 242.46886537382755 130.936778872084 -11.032655080247663
  endloop
endfacet
facet normal -0.6084882967234078 0.7935628473855402 -1.4524948157990872e-14
  outer loop
    vertex 245.5042789293957 131.33533570455165 -11.032655080247888
    vertex 246.33292482344783 131.97072498760548 -18.03265508024786
    vertex 245.5042789293957 131.33533570455137 -18.032655080248027
  endloop
endfacet
facet normal -0.6084882967234078 0.7935628473855402 -1.4524948157990872e-14
  outer loop
    vertex 246.33292482344783 131.97072498760548 -18.03265508024786
    vertex 245.5042789293957 131.33533570455165 -11.032655080247888
    vertex 246.33292482344768 131.97072498760548 -11.032655080247785
  endloop
endfacet
facet normal 3.2105658452975193e-15 9.4993756448615e-17 1.0
  outer loop
    vertex 239.64141204683187 133.76617945942732 -18.032655080247906
    vertex 239.6421247935868 135.83673169757293 -18.03265508024797
    vertex 239.505471733441 134.80150249594521 -18.032655080247885
  endloop
endfacet
facet normal 3.2105658452975193e-15 9.4993756448615e-17 1.0
  outer loop
    vertex 239.6421247935868 135.83673169757293 -18.03265508024797
    vertex 239.64141204683187 133.76617945942732 -18.032655080247906
    vertex 240.0406816260543 132.80131814200527 -18.03265508024796
  endloop
endfacet
facet normal 3.2105658452975193e-15 9.4993756448615e-17 1.0
  outer loop
    vertex 239.6421247935868 135.83673169757293 -18.03265508024797
    vertex 240.0406816260543 132.80131814200527 -18.03265508024796
    vertex 240.04205854705086 136.8013179050161 -18.032655080247917
  endloop
endfacet
facet normal 3.2105658452975193e-15 9.4993756448615e-17 1.0
  outer loop
    vertex 240.04205854705086 136.8013179050161 -18.032655080247917
    vertex 240.0406816260543 132.80131814200527 -18.03265508024796
    vertex 240.67607090910826 131.97267224795291 -18.032655080248052
  endloop
endfacet
facet normal 3.2105658452975193e-15 9.4993756448615e-17 1.0
  outer loop
    vertex 240.04205854705086 136.8013179050161 -18.032655080247917
    vertex 240.67607090910826 131.97267224795291 -18.032655080248052
    vertex 240.67801816945558 137.6295261622923 -18.03265508024796
  endloop
endfacet
facet normal 3.2105658452975193e-15 9.4993756448615e-17 1.0
  outer loop
    vertex 240.67801816945558 137.6295261622923 -18.03265508024796
    vertex 240.67607090910826 131.97267224795291 -18.032655080248052
    vertex 241.5042791663846 131.33671262554773 -18.032655080247878
  endloop
endfacet
facet normal 3.2105658452975193e-15 9.4993756448615e-17 1.0
  outer loop
    vertex 240.67801816945558 137.6295261622923 -18.03265508024796
    vertex 241.5042791663846 131.33671262554773 -18.032655080247878
    vertex 241.5066640635081 138.26491544534622 -18.032655080248027
  endloop
endfacet
facet normal 3.2105658452975193e-15 9.4993756448615e-17 1.0
  outer loop
    vertex 241.5066640635081 138.26491544534622 -18.032655080248027
    vertex 241.5042791663846 131.33671262554773 -18.032655080247878
    vertex 242.46886537382792 130.9367788720839 -18.032655080247874
  endloop
endfacet
facet normal 3.2105658452975193e-15 9.4993756448615e-17 1.0
  outer loop
    vertex 241.5066640635081 138.26491544534622 -18.032655080248027
    vertex 242.46886537382792 130.9367788720839 -18.032655080247874
    vertex 242.47152538093002 138.6641850245688 -18.03265508024801
  endloop
endfacet
facet normal 3.2105658452975193e-15 9.4993756448615e-17 1.0
  outer loop
    vertex 242.47152538093002 138.6641850245688 -18.03265508024801
    vertex 242.46886537382792 130.9367788720839 -18.032655080247874
    vertex 243.50409457545555 130.80012581193776 -18.032655080247874
  endloop
endfacet
facet normal 3.2105658452975193e-15 9.4993756448615e-17 1.0
  outer loop
    vertex 242.47152538093002 138.6641850245688 -18.03265508024801
    vertex 243.50409457545555 130.80012581193776 -18.032655080247874
    vertex 243.50684841744825 138.80012533795986 -18.03265508024794
  endloop
endfacet
facet normal 3.2105658452975193e-15 9.4993756448615e-17 1.0
  outer loop
    vertex 243.50684841744825 138.80012533795986 -18.03265508024794
    vertex 243.50409457545555 130.80012581193776 -18.032655080247874
    vertex 244.53941761197356 130.93606612532895 -18.032655080247974
  endloop
endfacet
facet normal 3.2105658452975193e-15 9.4993756448615e-17 1.0
  outer loop
    vertex 243.50684841744825 138.80012533795986 -18.03265508024794
    vertex 244.53941761197356 130.93606612532895 -18.032655080247974
    vertex 244.5420776190757 138.6634722778139 -18.032655080247817
  endloop
endfacet
facet normal 3.2105658452975193e-15 9.4993756448615e-17 1.0
  outer loop
    vertex 244.5420776190757 138.6634722778139 -18.032655080247817
    vertex 244.53941761197356 130.93606612532895 -18.032655080247974
    vertex 245.5042789293957 131.33533570455137 -18.032655080248027
  endloop
endfacet
facet normal 3.2105658452975193e-15 9.4993756448615e-17 1.0
  outer loop
    vertex 244.5420776190757 138.6634722778139 -18.032655080247817
    vertex 245.5042789293957 131.33533570455137 -18.032655080248027
    vertex 245.50666382651934 138.26353852434985 -18.032655080247928
  endloop
endfacet
facet normal 3.2105658452975193e-15 9.4993756448615e-17 1.0
  outer loop
    vertex 245.50666382651934 138.26353852434985 -18.032655080247928
    vertex 245.5042789293957 131.33533570455137 -18.032655080248027
    vertex 246.33292482344783 131.97072498760548 -18.03265508024786
  endloop
endfacet
facet normal 3.2105658452975193e-15 9.4993756448615e-17 1.0
  outer loop
    vertex 245.50666382651934 138.26353852434985 -18.032655080247928
    vertex 246.33292482344783 131.97072498760548 -18.03265508024786
    vertex 246.33487208379537 137.6275789019449 -18.03265508024796
  endloop
endfacet
facet normal 3.2105658452975193e-15 9.4993756448615e-17 1.0
  outer loop
    vertex 246.33487208379537 137.6275789019449 -18.03265508024796
    vertex 246.33292482344783 131.97072498760548 -18.03265508024786
    vertex 246.96888444585286 132.79893324488148 -18.032655080247793
  endloop
endfacet
facet normal 3.2105658452975193e-15 9.4993756448615e-17 1.0
  outer loop
    vertex 246.33487208379537 137.6275789019449 -18.03265508024796
    vertex 246.96888444585286 132.79893324488148 -18.032655080247793
    vertex 246.97026136684948 136.79893300789237 -18.032655080248002
  endloop
endfacet
facet normal 3.2105658452975193e-15 9.4993756448615e-17 1.0
  outer loop
    vertex 246.97026136684948 136.79893300789237 -18.032655080248002
    vertex 246.96888444585286 132.79893324488148 -18.032655080247793
    vertex 247.36881819931693 133.76351945232489 -18.03265508024804
  endloop
endfacet
facet normal 3.2105658452975193e-15 9.4993756448615e-17 1.0
  outer loop
    vertex 246.97026136684948 136.79893300789237 -18.032655080248002
    vertex 247.36881819931693 133.76351945232489 -18.03265508024804
    vertex 247.36953094607208 135.83407169047044 -18.03265508024801
  endloop
endfacet
facet normal 3.2105658452975193e-15 9.4993756448615e-17 1.0
  outer loop
    vertex 247.36953094607208 135.83407169047044 -18.03265508024801
    vertex 247.36881819931693 133.76351945232489 -18.03265508024804
    vertex 247.50547125946326 134.79874865395246 -18.03265508024804
  endloop
endfacet
facet normal 0.6084882967232764 -0.7935628473856409 -2.924289153830631e-14
  outer loop
    vertex 241.50666406350825 138.2649154453463 -11.03265508024797
    vertex 240.67801816945558 137.6295261622923 -18.03265508024796
    vertex 241.5066640635081 138.26491544534622 -18.032655080248027
  endloop
endfacet
facet normal 0.6084882967232764 -0.7935628473856409 -2.924289153830631e-14
  outer loop
    vertex 240.67801816945558 137.6295261622923 -18.03265508024796
    vertex 241.50666406350825 138.2649154453463 -11.03265508024797
    vertex 240.67801816945612 137.62952616229234 -11.032655080248112
  endloop
endfacet
facet normal -0.38300143697384137 -0.9237477465607007 1.611969413848524e-14
  outer loop
    vertex 245.5066638265192 138.26353852434994 -11.032655080247975
    vertex 244.5420776190757 138.6634722778139 -18.032655080247817
    vertex 245.50666382651934 138.26353852434985 -18.032655080247928
  endloop
endfacet
facet normal -0.38300143697384137 -0.9237477465607007 1.611969413848524e-14
  outer loop
    vertex 244.5420776190757 138.6634722778139 -18.032655080247817
    vertex 245.5066638265192 138.26353852434994 -11.032655080247975
    vertex 244.54207761907588 138.66347227781404 -11.032655080247812
  endloop
endfacet
facet normal -0.13086746979829372 -0.9913998715697884 1.6065868944632772e-14
  outer loop
    vertex 244.5420776190757 138.6634722778139 -18.032655080247817
    vertex 243.50684841744825 138.80012533795994 -11.03265508024803
    vertex 243.50684841744825 138.80012533795986 -18.03265508024794
  endloop
endfacet
facet normal -0.13086746979829372 -0.9913998715697884 1.6065868944632772e-14
  outer loop
    vertex 243.50684841744825 138.80012533795994 -11.03265508024803
    vertex 244.5420776190757 138.6634722778139 -18.032655080247817
    vertex 244.54207761907588 138.66347227781404 -11.032655080247812
  endloop
endfacet
facet normal -0.7931437391888237 0.6090344891593342 1.3372149906464652e-14
  outer loop
    vertex 246.96888444585326 132.79893324488154 -11.03265508024808
    vertex 246.33292482344783 131.97072498760548 -18.03265508024786
    vertex 246.33292482344768 131.97072498760548 -11.032655080247785
  endloop
endfacet
facet normal -0.7931437391888237 0.6090344891593342 1.3372149906464652e-14
  outer loop
    vertex 246.33292482344783 131.97072498760548 -18.03265508024786
    vertex 246.96888444585326 132.79893324488154 -11.03265508024808
    vertex 246.96888444585286 132.79893324488148 -18.032655080247793
  endloop
endfacet
facet normal -0.9914897336970928 -0.13018489917524206 -1.9849955361862107e-14
  outer loop
    vertex 247.5054712594631 134.79874865395252 -11.032655080248093
    vertex 247.36953094607208 135.83407169047044 -18.03265508024801
    vertex 247.50547125946326 134.79874865395246 -18.03265508024804
  endloop
endfacet
facet normal -0.9914897336970928 -0.13018489917524206 -1.9849955361862107e-14
  outer loop
    vertex 247.36953094607208 135.83407169047044 -18.03265508024801
    vertex 247.5054712594631 134.79874865395252 -11.032655080248093
    vertex 247.36953094607193 135.83407169047064 -11.03265508024808
  endloop
endfacet
facet normal 0.1301848991751175 -0.9914897336971094 9.425004512666997e-15
  outer loop
    vertex 243.50684841744825 138.80012533795986 -18.03265508024794
    vertex 242.4715253809304 138.66418502456892 -11.032655080247933
    vertex 242.47152538093002 138.6641850245688 -18.03265508024801
  endloop
endfacet
facet normal 0.1301848991751175 -0.9914897336971094 9.425004512666997e-15
  outer loop
    vertex 242.4715253809304 138.66418502456892 -11.032655080247933
    vertex 243.50684841744825 138.80012533795986 -18.03265508024794
    vertex 243.50684841744825 138.80012533795994 -11.03265508024803
  endloop
endfacet
facet normal -0.9240112089871494 -0.382365382410734 -2.1155278541294356e-14
  outer loop
    vertex 247.36953094607193 135.83407169047064 -11.03265508024808
    vertex 246.97026136684948 136.79893300789237 -18.032655080248002
    vertex 247.36953094607208 135.83407169047044 -18.03265508024801
  endloop
endfacet
facet normal -0.9240112089871494 -0.382365382410734 -2.1155278541294356e-14
  outer loop
    vertex 246.97026136684948 136.79893300789237 -18.032655080248002
    vertex 247.36953094607193 135.83407169047064 -11.03265508024808
    vertex 246.97026136684917 136.7989330078925 -11.03265508024816
  endloop
endfacet
facet normal -0.13018489917520573 0.9914897336970976 -1.579981617526136e-14
  outer loop
    vertex 243.50409457545555 130.80012581193776 -18.032655080247874
    vertex 244.53941761197325 130.93606612532895 -11.03265508024786
    vertex 244.53941761197356 130.93606612532895 -18.032655080247974
  endloop
endfacet
facet normal -0.13018489917520573 0.9914897336970976 -1.579981617526136e-14
  outer loop
    vertex 244.53941761197325 130.93606612532895 -11.03265508024786
    vertex 243.50409457545555 130.80012581193776 -18.032655080247874
    vertex 243.50409457545538 130.8001258119379 -11.032655080247745
  endloop
endfacet
facet normal 0.6090344891592063 0.7931437391889219 -3.6307875976343673e-14
  outer loop
    vertex 240.6760709091088 131.97267224795297 -11.03265508024803
    vertex 241.5042791663846 131.33671262554773 -18.032655080247878
    vertex 240.67607090910826 131.97267224795291 -18.032655080248052
  endloop
endfacet
facet normal 0.6090344891592063 0.7931437391889219 -3.6307875976343673e-14
  outer loop
    vertex 241.5042791663846 131.33671262554773 -18.032655080247878
    vertex 240.6760709091088 131.97267224795297 -11.03265508024803
    vertex 241.50427916638478 131.33671262554785 -11.032655080247977
  endloop
endfacet
facet normal 0.3823653824106143 -0.9240112089871989 -1.6421897575367118e-15
  outer loop
    vertex 242.47152538093002 138.6641850245688 -18.03265508024801
    vertex 241.50666406350825 138.2649154453463 -11.03265508024797
    vertex 241.5066640635081 138.26491544534622 -18.032655080248027
  endloop
endfacet
facet normal 0.3823653824106143 -0.9240112089871989 -1.6421897575367118e-15
  outer loop
    vertex 241.50666406350825 138.2649154453463 -11.03265508024797
    vertex 242.47152538093002 138.6641850245688 -18.03265508024801
    vertex 242.4715253809304 138.66418502456892 -11.032655080247933
  endloop
endfacet
facet normal -0.3823653824104951 0.9240112089872482 -2.798381802156748e-14
  outer loop
    vertex 244.53941761197356 130.93606612532895 -18.032655080247974
    vertex 245.5042789293957 131.33533570455165 -11.032655080247888
    vertex 245.5042789293957 131.33533570455137 -18.032655080248027
  endloop
endfacet
facet normal -0.3823653824104951 0.9240112089872482 -2.798381802156748e-14
  outer loop
    vertex 245.5042789293957 131.33533570455165 -11.032655080247888
    vertex 244.53941761197356 130.93606612532895 -18.032655080247974
    vertex 244.53941761197325 130.93606612532895 -11.03265508024786
  endloop
endfacet
facet normal -0.7935628473856445 -0.6084882967232716 -2.7750167334095335e-14
  outer loop
    vertex 246.97026136684917 136.7989330078925 -11.03265508024816
    vertex 246.33487208379537 137.6275789019449 -18.03265508024796
    vertex 246.97026136684948 136.79893300789237 -18.032655080248002
  endloop
endfacet
facet normal -0.7935628473856445 -0.6084882967232716 -2.7750167334095335e-14
  outer loop
    vertex 246.33487208379537 137.6275789019449 -18.03265508024796
    vertex 246.97026136684917 136.7989330078925 -11.03265508024816
    vertex 246.33487208379515 137.62757890194487 -11.032655080248016
  endloop
endfacet
facet normal 0.13086746979841998 0.9913998715697717 -1.2511475734127744e-14
  outer loop
    vertex 242.46886537382755 130.936778872084 -11.032655080247663
    vertex 243.50409457545555 130.80012581193776 -18.032655080247874
    vertex 242.46886537382792 130.9367788720839 -18.032655080247874
  endloop
endfacet
facet normal 0.13086746979841998 0.9913998715697717 -1.2511475734127744e-14
  outer loop
    vertex 243.50409457545555 130.80012581193776 -18.032655080247874
    vertex 242.46886537382755 130.936778872084 -11.032655080247663
    vertex 243.50409457545538 130.8001258119379 -11.032655080247745
  endloop
endfacet
facet normal -0.9237477465607766 0.3830014369736585 1.662845861454494e-14
  outer loop
    vertex 246.96888444585326 132.79893324488154 -11.03265508024808
    vertex 247.36881819931693 133.76351945232489 -18.03265508024804
    vertex 246.96888444585286 132.79893324488148 -18.032655080247793
  endloop
endfacet
facet normal -0.9237477465607766 0.3830014369736585 1.662845861454494e-14
  outer loop
    vertex 247.36881819931693 133.76351945232489 -18.03265508024804
    vertex 246.96888444585326 132.79893324488154 -11.03265508024808
    vertex 247.3688181993168 133.76351945232489 -11.032655080248105
  endloop
endfacet
facet normal -0.991399871569743 0.13086746979863706 -2.2999767286231125e-14
  outer loop
    vertex 247.5054712594631 134.79874865395252 -11.032655080248093
    vertex 247.36881819931693 133.76351945232489 -18.03265508024804
    vertex 247.3688181993168 133.76351945232489 -11.032655080248105
  endloop
endfacet
facet normal -0.991399871569743 0.13086746979863706 -2.2999767286231125e-14
  outer loop
    vertex 247.36881819931693 133.76351945232489 -18.03265508024804
    vertex 247.5054712594631 134.79874865395252 -11.032655080248093
    vertex 247.50547125946326 134.79874865395246 -18.03265508024804
  endloop
endfacet
facet normal -0.6090344891591604 -0.7931437391889572 -8.497993781358524e-15
  outer loop
    vertex 246.33487208379515 137.62757890194487 -11.032655080248016
    vertex 245.50666382651934 138.26353852434985 -18.032655080247928
    vertex 246.33487208379537 137.6275789019449 -18.03265508024796
  endloop
endfacet
facet normal -0.6090344891591604 -0.7931437391889572 -8.497993781358524e-15
  outer loop
    vertex 245.50666382651934 138.26353852434985 -18.032655080247928
    vertex 246.33487208379515 137.62757890194487 -11.032655080248016
    vertex 245.5066638265192 138.26353852434994 -11.032655080247975
  endloop
endfacet
facet normal 0.8691955155913481 -0.4944678385590866 -0.0008439825802693815
  outer loop
    vertex 246.83798942581012 146.91223410675678 -19.87982381993632
    vertex 246.5449915562513 146.34760839480484 9.169141950887903
    vertex 246.32178623921865 146.0048146552232 -19.87006064803892
  endloop
endfacet
facet normal 0.8664942246377316 -0.49918616909704966 -0.00096293907809971
  outer loop
    vertex 246.83798942581012 146.91223410675678 -19.87982381993632
    vertex 246.5800690493449 146.39620579299572 15.540569062850272
    vertex 246.5449915562513 146.34760839480484 9.169141950887903
  endloop
endfacet
facet normal 0.8691953514968458 -0.49446807392059516 -0.0008745338939783583
  outer loop
    vertex 247.09627223593637 147.30362524452934 15.53080589095309
    vertex 246.5800690493449 146.39620579299572 15.540569062850272
    vertex 246.83798942581012 146.91223410675678 -19.87982381993632
  endloop
endfacet
facet normal 0.8864499642174802 -0.4628224691981409 -0.00135016449519795
  outer loop
    vertex 247.09627223593637 147.30362524452934 15.53080589095309
    vertex 246.83798942581012 146.91223410675678 -19.87982381993632
    vertex 247.06119474284282 147.25502784633846 9.159378778990758
  endloop
endfacet
facet normal 0.7121030940799477 -0.7020692730346016 0.0028141184110177155
  outer loop
    vertex 246.32178623921865 146.0048146552232 -19.87006064803892
    vertex 245.8138641069707 145.60607063662005 9.178823129480627
    vertex 245.59065878993815 145.2632768970383 -19.860379469446244
  endloop
endfacet
facet normal 0.7121030940799477 -0.7020692730346016 0.0028141184110177155
  outer loop
    vertex 245.8138641069707 145.60607063662005 9.178823129480627
    vertex 246.32178623921865 146.0048146552232 -19.87006064803892
    vertex 246.5449915562513 146.34760839480484 9.169141950887903
  endloop
endfacet
facet normal 0.9670724944164542 -0.2544625130650789 -0.00442944553434996
  outer loop
    vertex 247.1040899556129 147.92369611559883 -19.889003641107767
    vertex 247.06119474284282 147.25502784633846 9.159378778990758
    vertex 246.83798942581012 146.91223410675678 -19.87982381993632
  endloop
endfacet
facet normal 0.9670724944164542 -0.2544625130650789 -0.00442944553434996
  outer loop
    vertex 247.06119474284282 147.25502784633846 9.159378778990758
    vertex 247.1040899556129 147.92369611559883 -19.889003641107767
    vertex 247.3272952726456 148.2664898551806 9.150198957819235
  endloop
endfacet
facet normal 0.2632831038616836 -0.9646731706544531 0.00936381548528063
  outer loop
    vertex 244.91763752242446 145.08094914455566 9.187762558446348
    vertex 243.69418284623222 144.46523634090926 -19.843851568452386
    vertex 244.69443220539168 144.73815540497375 -19.851440040480522
  endloop
endfacet
facet normal 0.2632831038616836 -0.9646731706544531 0.00936381548528063
  outer loop
    vertex 243.69418284623222 144.46523634090926 -19.843851568452386
    vertex 244.91763752242446 145.08094914455566 9.187762558446348
    vertex 243.917388163265 144.8080300804909 9.195351030474605
  endloop
endfacet
facet normal 0.5055751614766937 -0.8627595759074105 0.00629843455793943
  outer loop
    vertex 245.8138641069707 145.60607063662005 9.178823129480627
    vertex 244.69443220539168 144.73815540497375 -19.851440040480522
    vertex 245.59065878993815 145.2632768970383 -19.860379469446244
  endloop
endfacet
facet normal 0.5055751614766937 -0.8627595759074105 0.00629843455793943
  outer loop
    vertex 244.69443220539168 144.73815540497375 -19.851440040480522
    vertex 245.8138641069707 145.60607063662005 9.178823129480627
    vertex 244.91763752242446 145.08094914455566 9.187762558446348
  endloop
endfacet
facet normal -0.9670724944164942 0.2544625130649268 0.004429445534354125
  outer loop
    vertex 239.45514640063644 149.29697978646257 9.185678625748318
    vertex 239.4980416134063 149.96564805572297 -19.86270379435011
    vertex 239.2319410836038 148.95418604688092 -19.853523973178547
  endloop
endfacet
facet normal -0.9670724944164942 0.2544625130649268 0.004429445534354125
  outer loop
    vertex 239.4980416134063 149.96564805572297 -19.86270379435011
    vertex 239.45514640063644 149.29697978646257 9.185678625748318
    vertex 239.7212469304392 150.3084417953048 9.176498804577033
  endloop
endfacet
facet normal -0.9999683159565941 -0.001982580232568178 0.00770950442991915
  outer loop
    vertex 239.45728283897708 148.25040468469453 9.19364950655165
    vertex 239.2319410836038 148.95418604688092 -19.853523973178547
    vertex 239.23407752194422 147.90761094511302 -19.84555309237525
  endloop
endfacet
facet normal -0.9999683159565941 -0.001982580232568178 0.00770950442991915
  outer loop
    vertex 239.2319410836038 148.95418604688092 -19.853523973178547
    vertex 239.45728283897708 148.25040468469453 9.19364950655165
    vertex 239.45514640063644 149.29697978646257 9.185678625748318
  endloop
endfacet
facet normal -0.25921667395567205 -0.9657263383648661 0.013392360947456057
  outer loop
    vertex 242.8812813703286 144.80591242762245 9.201071403736735
    vertex 241.65672079227397 144.73194676091148 -19.834668754678372
    vertex 242.65807605329587 144.46311868804065 -19.838131195190183
  endloop
endfacet
facet normal -0.25921667395567205 -0.9657263383648661 0.013392360947456057
  outer loop
    vertex 241.65672079227397 144.73194676091148 -19.834668754678372
    vertex 242.8812813703286 144.80591242762245 9.201071403736735
    vertex 241.87992610930667 145.07474050049322 9.20453384424854
  endloop
endfacet
facet normal -0.5019474020975504 -0.8647837528874511 0.014066494567445223
  outer loop
    vertex 241.87992610930667 145.07474050049322 9.20453384424854
    vertex 240.75835776938717 145.25340037061486 -19.83370020651587
    vertex 241.65672079227397 144.73194676091148 -19.834668754678372
  endloop
endfacet
facet normal -0.5019474020975504 -0.8647837528874511 0.014066494567445223
  outer loop
    vertex 240.75835776938717 145.25340037061486 -19.83370020651587
    vertex 241.87992610930667 145.07474050049322 9.20453384424854
    vertex 240.98156308641987 145.59619411019662 9.205502392411049
  endloop
endfacet
facet normal -0.709161016549512 -0.7049120403136176 0.013772001574044944
  outer loop
    vertex 240.98156308641987 145.59619411019662 9.205502392411049
    vertex 240.02420894003043 145.99194331539243 -19.835291555659285
    vertex 240.75835776938717 145.25340037061486 -19.83370020651587
  endloop
endfacet
facet normal -0.709161016549512 -0.7049120403136176 0.013772001574044944
  outer loop
    vertex 240.02420894003043 145.99194331539243 -19.835291555659285
    vertex 240.98156308641987 145.59619411019662 9.205502392411049
    vertex 240.24741425706304 146.33473705497417 9.203911043267624
  endloop
endfacet
facet normal 0.0021087881369991207 -0.9999283018171372 0.011787461036601074
  outer loop
    vertex 243.917388163265 144.8080300804909 9.195351030474605
    vertex 242.65807605329587 144.46311868804065 -19.838131195190183
    vertex 243.69418284623222 144.46523634090926 -19.843851568452386
  endloop
endfacet
facet normal 0.0021087881369991207 -0.9999283018171372 0.011787461036601074
  outer loop
    vertex 242.65807605329587 144.46311868804065 -19.838131195190183
    vertex 243.917388163265 144.8080300804909 9.195351030474605
    vertex 242.8812813703286 144.80591242762245 9.201071403736735
  endloop
endfacet
facet normal -0.867129105136221 -0.497925489030606 0.012542822620465396
  outer loop
    vertex 240.24741425706304 146.33473705497417 9.203911043267624
    vertex 239.5043053336857 146.8972451140574 -19.839334354294373
    vertex 240.02420894003043 145.99194331539243 -19.835291555659285
  endloop
endfacet
facet normal -0.867129105136221 -0.497925489030606 0.012542822620465396
  outer loop
    vertex 239.5043053336857 146.8972451140574 -19.839334354294373
    vertex 240.24741425706304 146.33473705497417 9.203911043267624
    vertex 239.72751065071847 147.24003885363925 9.199868244632444
  endloop
endfacet
facet normal -0.9660080731095444 -0.25829962134598544 0.010474172984338318
  outer loop
    vertex 239.72751065071847 147.24003885363925 9.199868244632444
    vertex 239.23407752194422 147.90761094511302 -19.84555309237525
    vertex 239.5043053336857 146.8972451140574 -19.839334354294373
  endloop
endfacet
facet normal -0.9660080731095444 -0.25829962134598544 0.010474172984338318
  outer loop
    vertex 239.23407752194422 147.90761094511302 -19.84555309237525
    vertex 239.72751065071847 147.24003885363925 9.199868244632444
    vertex 239.45728283897708 148.25040468469453 9.19364950655165
  endloop
endfacet
facet normal -0.8691955155912102 0.494467838559329 0.0008439825802700945
  outer loop
    vertex 240.01424479999812 150.8730675072566 -19.87246696624731
    vertex 239.4980416134063 149.96564805572297 -19.86270379435011
    vertex 239.7212469304392 150.3084417953048 9.176498804577033
  endloop
endfacet
facet normal -0.8664942246375774 0.4991861690973176 0.0009629390781010696
  outer loop
    vertex 240.01424479999812 150.8730675072566 -19.87246696624731
    vertex 239.7212469304392 150.3084417953048 9.176498804577033
    vertex 239.75632442353285 150.3570391934957 15.547925916539388
  endloop
endfacet
facet normal -0.8691953514968297 0.49446807392062325 0.0008745338939752555
  outer loop
    vertex 240.2725276101244 151.2644586450294 15.538162744642156
    vertex 240.01424479999812 150.8730675072566 -19.87246696624731
    vertex 239.75632442353285 150.3570391934957 15.547925916539388
  endloop
endfacet
facet normal -0.8864499642169748 0.4628224691991089 0.001350164495180876
  outer loop
    vertex 240.2725276101244 151.2644586450294 15.538162744642156
    vertex 240.23745011703085 151.21586124683844 9.166735632679826
    vertex 240.01424479999812 150.8730675072566 -19.87246696624731
  endloop
endfacet
facet normal -0.7121030940798997 0.7020692730346504 -0.002814118411017214
  outer loop
    vertex 240.23745011703085 151.21586124683844 9.166735632679826
    vertex 240.74537224927863 151.61460526544138 -19.88214814483997
    vertex 240.01424479999812 150.8730675072566 -19.87246696624731
  endloop
endfacet
facet normal -0.7121030940798997 0.7020692730346504 -0.002814118411017214
  outer loop
    vertex 240.74537224927863 151.61460526544138 -19.88214814483997
    vertex 240.23745011703085 151.21586124683844 9.166735632679826
    vertex 240.9685775663114 151.9573990050231 9.157054454087131
  endloop
endfacet
facet normal 0.7091610165494644 0.7049120403136656 -0.013772001574047555
  outer loop
    vertex 245.57767326982952 151.62448179186492 -19.908827407770413
    vertex 246.53502741621907 151.22873258666917 9.131966540300182
    vertex 246.3118220991863 150.88593884708743 -19.9072360586269
  endloop
endfacet
facet normal 0.7091610165494644 0.7049120403136656 -0.013772001574047555
  outer loop
    vertex 246.53502741621907 151.22873258666917 9.131966540300182
    vertex 245.57767326982952 151.62448179186492 -19.908827407770413
    vertex 245.80087858686224 151.96727553144666 9.13037519115664
  endloop
endfacet
facet normal 0.8671291051362687 0.49792548903052286 -0.012542822620465055
  outer loop
    vertex 246.3118220991863 150.88593884708743 -19.9072360586269
    vertex 247.05493102256364 150.32343078800403 9.136009338935287
    vertex 246.83172570553094 149.9806370484223 -19.903193259991852
  endloop
endfacet
facet normal 0.8671291051362687 0.49792548903052286 -0.012542822620465055
  outer loop
    vertex 247.05493102256364 150.32343078800403 9.136009338935287
    vertex 246.3118220991863 150.88593884708743 -19.9072360586269
    vertex 246.53502741621907 151.22873258666917 9.131966540300182
  endloop
endfacet
facet normal 0.9999683159565939 0.001982580232633226 -0.0077095044299191435
  outer loop
    vertex 247.10195351727228 148.9702712173668 -19.89697452191096
    vertex 247.3272952726456 148.2664898551806 9.150198957819235
    vertex 247.1040899556129 147.92369611559883 -19.889003641107767
  endloop
endfacet
facet normal 0.9999683159565939 0.001982580232633226 -0.0077095044299191435
  outer loop
    vertex 247.3272952726456 148.2664898551806 9.150198957819235
    vertex 247.10195351727228 148.9702712173668 -19.89697452191096
    vertex 247.32515883430503 149.31306495694858 9.142228077015902
  endloop
endfacet
facet normal 0.9660080731095617 0.2582996213459204 -0.01047417298433468
  outer loop
    vertex 246.83172570553094 149.9806370484223 -19.903193259991852
    vertex 247.32515883430503 149.31306495694858 9.142228077015902
    vertex 247.10195351727228 148.9702712173668 -19.89697452191096
  endloop
endfacet
facet normal 0.9660080731095617 0.2582996213459204 -0.01047417298433468
  outer loop
    vertex 247.32515883430503 149.31306495694858 9.142228077015902
    vertex 246.83172570553094 149.9806370484223 -19.903193259991852
    vertex 247.05493102256364 150.32343078800403 9.136009338935287
  endloop
endfacet
facet normal -0.005505193833181781 -0.007627058641732569 -0.9999557594300533
  outer loop
    vertex 239.4980416134063 149.96564805572297 -19.86270379435011
    vertex 239.23407752194422 147.90761094511302 -19.84555309237525
    vertex 239.2319410836038 148.95418604688092 -19.853523973178547
  endloop
endfacet
facet normal -0.005505193833181781 -0.007627058641732569 -0.9999557594300533
  outer loop
    vertex 239.23407752194422 147.90761094511302 -19.84555309237525
    vertex 239.4980416134063 149.96564805572297 -19.86270379435011
    vertex 239.5043053336857 146.8972451140574 -19.839334354294373
  endloop
endfacet
facet normal -0.005505193833181781 -0.007627058641732569 -0.9999557594300533
  outer loop
    vertex 239.5043053336857 146.8972451140574 -19.839334354294373
    vertex 239.4980416134063 149.96564805572297 -19.86270379435011
    vertex 240.01424479999812 150.8730675072566 -19.87246696624731
  endloop
endfacet
facet normal -0.005505193833181781 -0.007627058641732569 -0.9999557594300533
  outer loop
    vertex 239.5043053336857 146.8972451140574 -19.839334354294373
    vertex 240.01424479999812 150.8730675072566 -19.87246696624731
    vertex 240.02420894003043 145.99194331539243 -19.835291555659285
  endloop
endfacet
facet normal -0.005505193833181781 -0.007627058641732569 -0.9999557594300533
  outer loop
    vertex 240.02420894003043 145.99194331539243 -19.835291555659285
    vertex 240.01424479999812 150.8730675072566 -19.87246696624731
    vertex 240.74537224927863 151.61460526544138 -19.88214814483997
  endloop
endfacet
facet normal -0.005505193833181781 -0.007627058641732569 -0.9999557594300533
  outer loop
    vertex 240.02420894003043 145.99194331539243 -19.835291555659285
    vertex 240.74537224927863 151.61460526544138 -19.88214814483997
    vertex 240.75835776938717 145.25340037061486 -19.83370020651587
  endloop
endfacet
facet normal -0.005505193833181781 -0.007627058641732569 -0.9999557594300533
  outer loop
    vertex 240.75835776938717 145.25340037061486 -19.83370020651587
    vertex 240.74537224927863 151.61460526544138 -19.88214814483997
    vertex 241.64159883382493 152.13972675750594 -19.89108757380579
  endloop
endfacet
facet normal -0.005505193833181781 -0.007627058641732569 -0.9999557594300533
  outer loop
    vertex 240.75835776938717 145.25340037061486 -19.83370020651587
    vertex 241.64159883382493 152.13972675750594 -19.89108757380579
    vertex 241.65672079227397 144.73194676091148 -19.834668754678372
  endloop
endfacet
facet normal -0.005505193833181781 -0.007627058641732569 -0.9999557594300533
  outer loop
    vertex 241.65672079227397 144.73194676091148 -19.834668754678372
    vertex 241.64159883382493 152.13972675750594 -19.89108757380579
    vertex 242.6418481929844 152.41264582157044 -19.898676045833838
  endloop
endfacet
facet normal -0.005505193833181781 -0.007627058641732569 -0.9999557594300533
  outer loop
    vertex 241.65672079227397 144.73194676091148 -19.834668754678372
    vertex 242.6418481929844 152.41264582157044 -19.898676045833838
    vertex 242.65807605329587 144.46311868804065 -19.838131195190183
  endloop
endfacet
facet normal -0.005505193833181781 -0.007627058641732569 -0.9999557594300533
  outer loop
    vertex 242.65807605329587 144.46311868804065 -19.838131195190183
    vertex 242.6418481929844 152.41264582157044 -19.898676045833838
    vertex 243.67795498592068 152.4147634744392 -19.90439641909613
  endloop
endfacet
facet normal -0.005505193833181781 -0.007627058641732569 -0.9999557594300533
  outer loop
    vertex 242.65807605329587 144.46311868804065 -19.838131195190183
    vertex 243.67795498592068 152.4147634744392 -19.90439641909613
    vertex 243.69418284623222 144.46523634090926 -19.843851568452386
  endloop
endfacet
facet normal -0.005505193833181781 -0.007627058641732569 -0.9999557594300533
  outer loop
    vertex 243.69418284623222 144.46523634090926 -19.843851568452386
    vertex 243.67795498592068 152.4147634744392 -19.90439641909613
    vertex 244.67931024694275 152.14593540156838 -19.907858859607803
  endloop
endfacet
facet normal -0.005505193833181781 -0.007627058641732569 -0.9999557594300533
  outer loop
    vertex 243.69418284623222 144.46523634090926 -19.843851568452386
    vertex 244.67931024694275 152.14593540156838 -19.907858859607803
    vertex 244.69443220539168 144.73815540497375 -19.851440040480522
  endloop
endfacet
facet normal -0.005505193833181781 -0.007627058641732569 -0.9999557594300533
  outer loop
    vertex 244.69443220539168 144.73815540497375 -19.851440040480522
    vertex 244.67931024694275 152.14593540156838 -19.907858859607803
    vertex 245.57767326982952 151.62448179186492 -19.908827407770413
  endloop
endfacet
facet normal -0.005505193833181781 -0.007627058641732569 -0.9999557594300533
  outer loop
    vertex 244.69443220539168 144.73815540497375 -19.851440040480522
    vertex 245.57767326982952 151.62448179186492 -19.908827407770413
    vertex 245.59065878993815 145.2632768970383 -19.860379469446244
  endloop
endfacet
facet normal -0.005505193833181781 -0.007627058641732569 -0.9999557594300533
  outer loop
    vertex 245.59065878993815 145.2632768970383 -19.860379469446244
    vertex 245.57767326982952 151.62448179186492 -19.908827407770413
    vertex 246.3118220991863 150.88593884708743 -19.9072360586269
  endloop
endfacet
facet normal -0.005505193833181781 -0.007627058641732569 -0.9999557594300533
  outer loop
    vertex 245.59065878993815 145.2632768970383 -19.860379469446244
    vertex 246.3118220991863 150.88593884708743 -19.9072360586269
    vertex 246.32178623921865 146.0048146552232 -19.87006064803892
  endloop
endfacet
facet normal -0.005505193833181781 -0.007627058641732569 -0.9999557594300533
  outer loop
    vertex 246.32178623921865 146.0048146552232 -19.87006064803892
    vertex 246.3118220991863 150.88593884708743 -19.9072360586269
    vertex 246.83172570553094 149.9806370484223 -19.903193259991852
  endloop
endfacet
facet normal -0.005505193833181781 -0.007627058641732569 -0.9999557594300533
  outer loop
    vertex 246.32178623921865 146.0048146552232 -19.87006064803892
    vertex 246.83172570553094 149.9806370484223 -19.903193259991852
    vertex 246.83798942581012 146.91223410675678 -19.87982381993632
  endloop
endfacet
facet normal -0.005505193833181781 -0.007627058641732569 -0.9999557594300533
  outer loop
    vertex 246.83798942581012 146.91223410675678 -19.87982381993632
    vertex 246.83172570553094 149.9806370484223 -19.903193259991852
    vertex 247.10195351727228 148.9702712173668 -19.89697452191096
  endloop
endfacet
facet normal -0.005505193833181781 -0.007627058641732569 -0.9999557594300533
  outer loop
    vertex 246.83798942581012 146.91223410675678 -19.87982381993632
    vertex 247.10195351727228 148.9702712173668 -19.89697452191096
    vertex 247.1040899556129 147.92369611559883 -19.889003641107767
  endloop
endfacet
facet normal -0.0021087881371289895 0.999928301817137 -0.011787461036600824
  outer loop
    vertex 242.8650535100171 152.75543956115217 9.140526553093192
    vertex 243.9011603029536 152.75755721402084 9.134806179831065
    vertex 242.6418481929844 152.41264582157044 -19.898676045833838
  endloop
endfacet
facet normal 0.259142994887334 0.9655719133514526 -0.022710974167524215
  outer loop
    vertex 243.9011603029536 152.75755721402084 9.134806179831065
    vertex 244.90251556397527 152.48872914115012 9.131343739319314
    vertex 242.6418481929844 152.41264582157044 -19.898676045833838
  endloop
endfacet
facet normal -0.26328310386152093 0.9646731706544975 -0.009363815485282756
  outer loop
    vertex 241.64159883382493 152.13972675750594 -19.89108757380579
    vertex 242.8650535100171 152.75543956115217 9.140526553093192
    vertex 242.6418481929844 152.41264582157044 -19.898676045833838
  endloop
endfacet
facet normal -0.26328310386152093 0.9646731706544975 -0.009363815485282756
  outer loop
    vertex 242.8650535100171 152.75543956115217 9.140526553093192
    vertex 241.64159883382493 152.13972675750594 -19.89108757380579
    vertex 241.8648041508577 152.48252049708776 9.148115025121387
  endloop
endfacet
facet normal -0.0020574304102377117 0.9999948561586247 -0.0024606170767813235
  outer loop
    vertex 244.90251556397527 152.48872914115012 9.131343739319314
    vertex 243.67795498592068 152.4147634744392 -19.90439641909613
    vertex 242.6418481929844 152.41264582157044 -19.898676045833838
  endloop
endfacet
facet normal -0.5055751614768275 0.8627595759073322 -0.006298434557933778
  outer loop
    vertex 240.74537224927863 151.61460526544138 -19.88214814483997
    vertex 241.8648041508577 152.48252049708776 9.148115025121387
    vertex 241.64159883382493 152.13972675750594 -19.89108757380579
  endloop
endfacet
facet normal -0.5055751614768275 0.8627595759073322 -0.006298434557933778
  outer loop
    vertex 241.8648041508577 152.48252049708776 9.148115025121387
    vertex 240.74537224927863 151.61460526544138 -19.88214814483997
    vertex 240.9685775663114 151.9573990050231 9.157054454087131
  endloop
endfacet
facet normal 0.259216673955656 0.9657263383648707 -0.013392360947453332
  outer loop
    vertex 244.90251556397527 152.48872914115012 9.131343739319314
    vertex 244.67931024694275 152.14593540156838 -19.907858859607803
    vertex 243.67795498592068 152.4147634744392 -19.90439641909613
  endloop
endfacet
facet normal 0.5019474020975774 0.8647837528874357 -0.01406649456744366
  outer loop
    vertex 244.67931024694275 152.14593540156838 -19.907858859607803
    vertex 245.80087858686224 151.96727553144666 9.13037519115664
    vertex 245.57767326982952 151.62448179186492 -19.908827407770413
  endloop
endfacet
facet normal 0.5019474020975774 0.8647837528874357 -0.01406649456744366
  outer loop
    vertex 245.80087858686224 151.96727553144666 9.13037519115664
    vertex 244.67931024694275 152.14593540156838 -19.907858859607803
    vertex 244.90251556397527 152.48872914115012 9.131343739319314
  endloop
endfacet
facet normal 2.8732385244231607e-13 -1.3908827420083471e-15 1.0
  outer loop
    vertex 238.81048058099333 143.7512941275056 -16.141107661711164
    vertex 283.3245641590831 156.92981851561308 -16.141107661723936
    vertex 238.81048058099327 156.92981851561305 -16.14110766171115
  endloop
endfacet
facet normal 2.8732385244231607e-13 -1.3908827420083471e-15 1.0
  outer loop
    vertex 283.3245641590831 156.92981851561308 -16.141107661723936
    vertex 238.81048058099333 143.7512941275056 -16.141107661711164
    vertex 283.3245641590831 143.7512941275056 -16.141107661723957
  endloop
endfacet
facet normal -7.601998080279583e-16 1.0 -2.307580375062067e-15
  outer loop
    vertex 238.81048058099196 156.92981851561302 -21.029286661711136
    vertex 283.3245641590831 156.92981851561308 -16.141107661723936
    vertex 283.32456415908155 156.92981851561308 -21.02928666172393
  endloop
endfacet
facet normal -7.601998080279583e-16 1.0 -2.307580375062067e-15
  outer loop
    vertex 283.3245641590831 156.92981851561308 -16.141107661723936
    vertex 238.81048058099196 156.92981851561302 -21.029286661711136
    vertex 238.81048058099327 156.92981851561305 -16.14110766171115
  endloop
endfacet
facet normal -1.0 -1.7118556824722958e-15 2.7229448425735164e-13
  outer loop
    vertex 238.81048058099333 143.7512941275056 -16.141107661711164
    vertex 238.81048058099196 156.92981851561302 -21.029286661711136
    vertex 238.81048058099196 143.75129412750547 -21.02928666171111
  endloop
endfacet
facet normal -1.0 -1.7118556824722958e-15 2.7229448425735164e-13
  outer loop
    vertex 238.81048058099196 156.92981851561302 -21.029286661711136
    vertex 238.81048058099333 143.7512941275056 -16.141107661711164
    vertex 238.81048058099327 156.92981851561305 -16.14110766171115
  endloop
endfacet
facet normal -2.874505524103214e-13 -1.8188466626289064e-15 -1.0
  outer loop
    vertex 283.32456415908155 156.92981851561308 -21.02928666172393
    vertex 238.81048058099196 143.75129412750547 -21.02928666171111
    vertex 238.81048058099196 156.92981851561302 -21.029286661711136
  endloop
endfacet
facet normal -2.874505524103214e-13 -1.8188466626289064e-15 -1.0
  outer loop
    vertex 238.81048058099196 143.75129412750547 -21.02928666171111
    vertex 283.32456415908155 156.92981851561308 -21.02928666172393
    vertex 283.3245641590817 143.75129412750556 -21.02928666172391
  endloop
endfacet
facet normal 1.0135997440403728e-15 -1.0 1.3845482250373578e-14
  outer loop
    vertex 283.3245641590831 143.7512941275056 -16.141107661723957
    vertex 238.81048058099196 143.75129412750547 -21.02928666171111
    vertex 283.3245641590817 143.75129412750556 -21.02928666172391
  endloop
endfacet
facet normal 1.0135997440403728e-15 -1.0 1.3845482250373578e-14
  outer loop
    vertex 238.81048058099196 143.75129412750547 -21.02928666171111
    vertex 283.3245641590831 143.7512941275056 -16.141107661723957
    vertex 238.81048058099333 143.7512941275056 -16.141107661711164
  endloop
endfacet
facet normal 1.0 6.8474227298896816e-15 -2.9537028800797437e-13
  outer loop
    vertex 283.32456415908155 156.92981851561308 -21.02928666172393
    vertex 283.3245641590831 143.7512941275056 -16.141107661723957
    vertex 283.3245641590817 143.75129412750556 -21.02928666172391
  endloop
endfacet
facet normal 1.0 6.8474227298896816e-15 -2.9537028800797437e-13
  outer loop
    vertex 283.3245641590831 143.7512941275056 -16.141107661723957
    vertex 283.32456415908155 156.92981851561308 -21.02928666172393
    vertex 283.3245641590831 156.92981851561308 -16.141107661723936
  endloop
endfacet
facet normal 0.0055051938331782905 0.007627058641704597 0.9999557594300535
  outer loop
    vertex 239.4923603320706 148.29900208288552 15.56507661851399
    vertex 239.75632442353285 150.3570391934957 15.547925916539388
    vertex 239.49022389373005 149.34557718465356 15.557105737710653
  endloop
endfacet
facet normal 0.0055051938331782905 0.007627058641704597 0.9999557594300535
  outer loop
    vertex 239.75632442353285 150.3570391934957 15.547925916539388
    vertex 239.4923603320706 148.29900208288552 15.56507661851399
    vertex 239.76258814381208 147.28863625183013 15.571295356594797
  endloop
endfacet
facet normal 0.0055051938331782905 0.007627058641704597 0.9999557594300535
  outer loop
    vertex 239.75632442353285 150.3570391934957 15.547925916539388
    vertex 239.76258814381208 147.28863625183013 15.571295356594797
    vertex 240.2725276101244 151.2644586450294 15.538162744642156
  endloop
endfacet
facet normal 0.0055051938331782905 0.007627058641704597 0.9999557594300535
  outer loop
    vertex 240.2725276101244 151.2644586450294 15.538162744642156
    vertex 239.76258814381208 147.28863625183013 15.571295356594797
    vertex 240.28249175015674 146.38333445316508 15.575338155229993
  endloop
endfacet
facet normal 0.0055051938331782905 0.007627058641704597 0.9999557594300535
  outer loop
    vertex 240.2725276101244 151.2644586450294 15.538162744642156
    vertex 240.28249175015674 146.38333445316508 15.575338155229993
    vertex 241.00365505940496 152.00599640321403 15.52848156604946
  endloop
endfacet
facet normal 0.0055051938331782905 0.007627058641704597 0.9999557594300535
  outer loop
    vertex 241.00365505940496 152.00599640321403 15.52848156604946
    vertex 240.28249175015674 146.38333445316508 15.575338155229993
    vertex 241.0166405795135 145.64479150838753 15.576929504373396
  endloop
endfacet
facet normal 0.0055051938331782905 0.007627058641704597 0.9999557594300535
  outer loop
    vertex 241.00365505940496 152.00599640321403 15.52848156604946
    vertex 241.0166405795135 145.64479150838753 15.576929504373396
    vertex 241.89988164395126 152.53111789527867 15.519542137083716
  endloop
endfacet
facet normal 0.0055051938331782905 0.007627058641704597 0.9999557594300535
  outer loop
    vertex 241.89988164395126 152.53111789527867 15.519542137083716
    vertex 241.0166405795135 145.64479150838753 15.576929504373396
    vertex 241.91500360240022 145.12333789868413 15.57596095621091
  endloop
endfacet
facet normal 0.0055051938331782905 0.007627058641704597 0.9999557594300535
  outer loop
    vertex 241.89988164395126 152.53111789527867 15.519542137083716
    vertex 241.91500360240022 145.12333789868413 15.57596095621091
    vertex 242.9001310031108 152.80403695934316 15.511953665055566
  endloop
endfacet
facet normal 0.0055051938331782905 0.007627058641704597 0.9999557594300535
  outer loop
    vertex 242.9001310031108 152.80403695934316 15.511953665055566
    vertex 241.91500360240022 145.12333789868413 15.57596095621091
    vertex 242.9163588634222 144.85450982581332 15.572498515699099
  endloop
endfacet
facet normal 0.0055051938331782905 0.007627058641704597 0.9999557594300535
  outer loop
    vertex 242.9001310031108 152.80403695934316 15.511953665055566
    vertex 242.9163588634222 144.85450982581332 15.572498515699099
    vertex 243.93623779604724 152.80615461221183 15.506233291793386
  endloop
endfacet
facet normal 0.0055051938331782905 0.007627058641704597 0.9999557594300535
  outer loop
    vertex 243.93623779604724 152.80615461221183 15.506233291793386
    vertex 242.9163588634222 144.85450982581332 15.572498515699099
    vertex 243.95246565635847 144.85662747868184 15.566778142436982
  endloop
endfacet
facet normal 0.0055051938331782905 0.007627058641704597 0.9999557594300535
  outer loop
    vertex 243.93623779604724 152.80615461221183 15.506233291793386
    vertex 243.95246565635847 144.85662747868184 15.566778142436982
    vertex 244.93759305706905 152.53732653934108 15.502770851281642
  endloop
endfacet
facet normal 0.0055051938331782905 0.007627058641704597 0.9999557594300535
  outer loop
    vertex 244.93759305706905 152.53732653934108 15.502770851281642
    vertex 243.95246565635847 144.85662747868184 15.566778142436982
    vertex 244.9527150155181 145.12954654274657 15.559189670408697
  endloop
endfacet
facet normal 0.0055051938331782905 0.007627058641704597 0.9999557594300535
  outer loop
    vertex 244.93759305706905 152.53732653934108 15.502770851281642
    vertex 244.9527150155181 145.12954654274657 15.559189670408697
    vertex 245.83595607995585 152.01587292963754 15.50180230311897
  endloop
endfacet
facet normal 0.0055051938331782905 0.007627058641704597 0.9999557594300535
  outer loop
    vertex 245.83595607995585 152.01587292963754 15.50180230311897
    vertex 244.9527150155181 145.12954654274657 15.559189670408697
    vertex 245.8489416000644 145.65466803481092 15.550250241442972
  endloop
endfacet
facet normal 0.0055051938331782905 0.007627058641704597 0.9999557594300535
  outer loop
    vertex 245.83595607995585 152.01587292963754 15.50180230311897
    vertex 245.8489416000644 145.65466803481092 15.550250241442972
    vertex 246.57010490931262 151.27732998486007 15.503393652262561
  endloop
endfacet
facet normal 0.0055051938331782905 0.007627058641704597 0.9999557594300535
  outer loop
    vertex 246.57010490931262 151.27732998486007 15.503393652262561
    vertex 245.8489416000644 145.65466803481092 15.550250241442972
    vertex 246.5800690493449 146.39620579299572 15.540569062850272
  endloop
endfacet
facet normal 0.0055051938331782905 0.007627058641704597 0.9999557594300535
  outer loop
    vertex 246.57010490931262 151.27732998486007 15.503393652262561
    vertex 246.5800690493449 146.39620579299572 15.540569062850272
    vertex 247.09000851565733 150.372028186195 15.507436450897618
  endloop
endfacet
facet normal 0.0055051938331782905 0.007627058641704597 0.9999557594300535
  outer loop
    vertex 247.09000851565733 150.372028186195 15.507436450897618
    vertex 246.5800690493449 146.39620579299572 15.540569062850272
    vertex 247.09627223593637 147.30362524452934 15.53080589095309
  endloop
endfacet
facet normal 0.0055051938331782905 0.007627058641704597 0.9999557594300535
  outer loop
    vertex 247.09000851565733 150.372028186195 15.507436450897618
    vertex 247.09627223593637 147.30362524452934 15.53080589095309
    vertex 247.36023632739867 149.36166235513952 15.513655188978223
  endloop
endfacet
facet normal 0.0055051938331782905 0.007627058641704597 0.9999557594300535
  outer loop
    vertex 247.36023632739867 149.36166235513952 15.513655188978223
    vertex 247.09627223593637 147.30362524452934 15.53080589095309
    vertex 247.36237276573922 148.3150872533715 15.521626069781622
  endloop
endfacet
facet normal 0.2592447345026593 0.9657716296369256 -0.008793578400343822
  outer loop
    vertex 243.9011603029536 152.75755721402084 9.134806179831065
    vertex 244.93759305706905 152.53732653934108 15.502770851281642
    vertex 244.90251556397527 152.48872914115012 9.131343739319314
  endloop
endfacet
facet normal 0.2592447345026593 0.9657716296369256 -0.008793578400343822
  outer loop
    vertex 244.93759305706905 152.53732653934108 15.502770851281642
    vertex 243.9011603029536 152.75755721402084 9.134806179831065
    vertex 243.93623779604724 152.80615461221183 15.506233291793386
  endloop
endfacet
facet normal -0.0020858384175391686 0.9999688249014366 -0.007615674844420219
  outer loop
    vertex 242.8650535100171 152.75543956115217 9.140526553093192
    vertex 243.93623779604724 152.80615461221183 15.506233291793386
    vertex 243.9011603029536 152.75755721402084 9.134806179831065
  endloop
endfacet
facet normal -0.0020858384175391686 0.9999688249014366 -0.007615674844420219
  outer loop
    vertex 243.93623779604724 152.80615461221183 15.506233291793386
    vertex 242.8650535100171 152.75543956115217 9.140526553093192
    vertex 242.9001310031108 152.80403695934316 15.511953665055566
  endloop
endfacet
facet normal -0.2632656537750128 0.9647052822825208 -0.005908796714827278
  outer loop
    vertex 241.8648041508577 152.48252049708776 9.148115025121387
    vertex 242.9001310031108 152.80403695934316 15.511953665055566
    vertex 242.8650535100171 152.75543956115217 9.140526553093192
  endloop
endfacet
facet normal -0.2632656537750128 0.9647052822825208 -0.005908796714827278
  outer loop
    vertex 242.9001310031108 152.80403695934316 15.511953665055566
    vertex 241.8648041508577 152.48252049708776 9.148115025121387
    vertex 241.89988164395126 152.53111789527867 15.519542137083716
  endloop
endfacet
facet normal -0.5055629735981965 0.8627813507798567 -0.00379742979330015
  outer loop
    vertex 240.9685775663114 151.9573990050231 9.157054454087131
    vertex 241.89988164395126 152.53111789527867 15.519542137083716
    vertex 241.8648041508577 152.48252049708776 9.148115025121387
  endloop
endfacet
facet normal -0.5055629735981965 0.8627813507798567 -0.00379742979330015
  outer loop
    vertex 241.89988164395126 152.53111789527867 15.519542137083716
    vertex 240.9685775663114 151.9573990050231 9.157054454087131
    vertex 241.00365505940496 152.00599640321403 15.52848156604946
  endloop
endfacet
facet normal -0.7120961770693613 0.7020804629081762 -0.0014346448486832189
  outer loop
    vertex 240.2725276101244 151.2644586450294 15.538162744642156
    vertex 240.9685775663114 151.9573990050231 9.157054454087131
    vertex 240.23745011703085 151.21586124683844 9.166735632679826
  endloop
endfacet
facet normal -0.7120961770693613 0.7020804629081762 -0.0014346448486832189
  outer loop
    vertex 240.9685775663114 151.9573990050231 9.157054454087131
    vertex 240.2725276101244 151.2644586450294 15.538162744642156
    vertex 241.00365505940496 152.00599640321403 15.52848156604946
  endloop
endfacet
facet normal -0.9670787827352766 0.2544546734169771 0.003383365117104732
  outer loop
    vertex 239.49022389373005 149.34557718465356 15.557105737710653
    vertex 239.7212469304392 150.3084417953048 9.176498804577033
    vertex 239.45514640063644 149.29697978646257 9.185678625748318
  endloop
endfacet
facet normal -0.9670787827352766 0.2544546734169771 0.003383365117104732
  outer loop
    vertex 239.7212469304392 150.3084417953048 9.176498804577033
    vertex 239.49022389373005 149.34557718465356 15.557105737710653
    vertex 239.75632442353285 150.3570391934957 15.547925916539388
  endloop
endfacet
facet normal -0.9999827628225859 -0.0019992808271984 0.005520591805405316
  outer loop
    vertex 239.4923603320706 148.29900208288552 15.56507661851399
    vertex 239.45514640063644 149.29697978646257 9.185678625748318
    vertex 239.45728283897708 148.25040468469453 9.19364950655165
  endloop
endfacet
facet normal -0.9999827628225859 -0.0019992808271984 0.005520591805405316
  outer loop
    vertex 239.45514640063644 149.29697978646257 9.185678625748318
    vertex 239.4923603320706 148.29900208288552 15.56507661851399
    vertex 239.49022389373005 149.34557718465356 15.557105737710653
  endloop
endfacet
facet normal -0.9660305119708341 -0.25832522869981694 0.007288769344393897
  outer loop
    vertex 239.76258814381208 147.28863625183013 15.571295356594797
    vertex 239.45728283897708 148.25040468469453 9.19364950655165
    vertex 239.72751065071847 147.24003885363925 9.199868244632444
  endloop
endfacet
facet normal -0.9660305119708341 -0.25832522869981694 0.007288769344393897
  outer loop
    vertex 239.45728283897708 148.25040468469453 9.19364950655165
    vertex 239.76258814381208 147.28863625183013 15.571295356594797
    vertex 239.4923603320706 148.29900208288552 15.56507661851399
  endloop
endfacet
facet normal -0.86715780195564 -0.4979597007502097 0.008572218862401284
  outer loop
    vertex 240.28249175015674 146.38333445316508 15.575338155229993
    vertex 239.72751065071847 147.24003885363925 9.199868244632444
    vertex 240.24741425706304 146.33473705497417 9.203911043267624
  endloop
endfacet
facet normal -0.86715780195564 -0.4979597007502097 0.008572218862401284
  outer loop
    vertex 239.72751065071847 147.24003885363925 9.199868244632444
    vertex 240.28249175015674 146.38333445316508 15.575338155229993
    vertex 239.76258814381208 147.28863625183013 15.571295356594797
  endloop
endfacet
facet normal -0.7091928915826365 -0.7049534017156105 0.009281375881196968
  outer loop
    vertex 241.0166405795135 145.64479150838753 15.576929504373396
    vertex 240.24741425706304 146.33473705497417 9.203911043267624
    vertex 240.98156308641987 145.59619411019662 9.205502392411049
  endloop
endfacet
facet normal -0.7091928915826365 -0.7049534017156105 0.009281375881196968
  outer loop
    vertex 240.24741425706304 146.33473705497417 9.203911043267624
    vertex 241.0166405795135 145.64479150838753 15.576929504373396
    vertex 240.28249175015674 146.38333445316508 15.575338155229993
  endloop
endfacet
facet normal -0.5019788743714297 -0.8648292316569105 0.009360008360590295
  outer loop
    vertex 241.91500360240022 145.12333789868413 15.57596095621091
    vertex 240.98156308641987 145.59619411019662 9.205502392411049
    vertex 241.87992610930667 145.07474050049322 9.20453384424854
  endloop
endfacet
facet normal -0.5019788743714297 -0.8648292316569105 0.009360008360590295
  outer loop
    vertex 240.98156308641987 145.59619411019662 9.205502392411049
    vertex 241.91500360240022 145.12333789868413 15.57596095621091
    vertex 241.0166405795135 145.64479150838753 15.576929504373396
  endloop
endfacet
facet normal -0.25924473450266533 -0.9657716296369242 0.008793578400324596
  outer loop
    vertex 242.9163588634222 144.85450982581332 15.572498515699099
    vertex 241.87992610930667 145.07474050049322 9.20453384424854
    vertex 242.8812813703286 144.80591242762245 9.201071403736735
  endloop
endfacet
facet normal -0.25924473450266533 -0.9657716296369242 0.008793578400324596
  outer loop
    vertex 241.87992610930667 145.07474050049322 9.20453384424854
    vertex 242.9163588634222 144.85450982581332 15.572498515699099
    vertex 241.91500360240022 145.12333789868413 15.57596095621091
  endloop
endfacet
facet normal 0.0020858384173758526 -0.999968824901437 0.007615674844408746
  outer loop
    vertex 243.95246565635847 144.85662747868184 15.566778142436982
    vertex 242.8812813703286 144.80591242762245 9.201071403736735
    vertex 243.917388163265 144.8080300804909 9.195351030474605
  endloop
endfacet
facet normal 0.0020858384173758526 -0.999968824901437 0.007615674844408746
  outer loop
    vertex 242.8812813703286 144.80591242762245 9.201071403736735
    vertex 243.95246565635847 144.85662747868184 15.566778142436982
    vertex 242.9163588634222 144.85450982581332 15.572498515699099
  endloop
endfacet
facet normal 0.2632656537752701 -0.9647052822824506 0.005908796714822991
  outer loop
    vertex 244.9527150155181 145.12954654274657 15.559189670408697
    vertex 243.917388163265 144.8080300804909 9.195351030474605
    vertex 244.91763752242446 145.08094914455566 9.187762558446348
  endloop
endfacet
facet normal 0.2632656537752701 -0.9647052822824506 0.005908796714822991
  outer loop
    vertex 243.917388163265 144.8080300804909 9.195351030474605
    vertex 244.9527150155181 145.12954654274657 15.559189670408697
    vertex 243.95246565635847 144.85662747868184 15.566778142436982
  endloop
endfacet
facet normal 0.5055629735979875 -0.8627813507799794 0.0037974297932886827
  outer loop
    vertex 245.8489416000644 145.65466803481092 15.550250241442972
    vertex 244.91763752242446 145.08094914455566 9.187762558446348
    vertex 245.8138641069707 145.60607063662005 9.178823129480627
  endloop
endfacet
facet normal 0.5055629735979875 -0.8627813507799794 0.0037974297932886827
  outer loop
    vertex 244.91763752242446 145.08094914455566 9.187762558446348
    vertex 245.8489416000644 145.65466803481092 15.550250241442972
    vertex 244.9527150155181 145.12954654274657 15.559189670408697
  endloop
endfacet
facet normal 0.7120961770694414 -0.702080462908095 0.0014346448486658512
  outer loop
    vertex 246.5449915562513 146.34760839480484 9.169141950887903
    vertex 245.8489416000644 145.65466803481092 15.550250241442972
    vertex 245.8138641069707 145.60607063662005 9.178823129480627
  endloop
endfacet
facet normal 0.7120961770694414 -0.702080462908095 0.0014346448486658512
  outer loop
    vertex 245.8489416000644 145.65466803481092 15.550250241442972
    vertex 246.5449915562513 146.34760839480484 9.169141950887903
    vertex 246.5800690493449 146.39620579299572 15.540569062850272
  endloop
endfacet
facet normal 0.9670787827352629 -0.25445467341702865 -0.0033833651171001097
  outer loop
    vertex 247.3272952726456 148.2664898551806 9.150198957819235
    vertex 247.09627223593637 147.30362524452934 15.53080589095309
    vertex 247.06119474284282 147.25502784633846 9.159378778990758
  endloop
endfacet
facet normal 0.9670787827352629 -0.25445467341702865 -0.0033833651171001097
  outer loop
    vertex 247.09627223593637 147.30362524452934 15.53080589095309
    vertex 247.3272952726456 148.2664898551806 9.150198957819235
    vertex 247.36237276573922 148.3150872533715 15.521626069781622
  endloop
endfacet
facet normal 0.9999827628225859 0.0019992808271766605 -0.005520591805415733
  outer loop
    vertex 247.32515883430503 149.31306495694858 9.142228077015902
    vertex 247.36237276573922 148.3150872533715 15.521626069781622
    vertex 247.3272952726456 148.2664898551806 9.150198957819235
  endloop
endfacet
facet normal 0.9999827628225859 0.0019992808271766605 -0.005520591805415733
  outer loop
    vertex 247.36237276573922 148.3150872533715 15.521626069781622
    vertex 247.32515883430503 149.31306495694858 9.142228077015902
    vertex 247.36023632739867 149.36166235513952 15.513655188978223
  endloop
endfacet
facet normal 0.9660305119708583 0.25832522869972535 -0.007288769344410458
  outer loop
    vertex 247.05493102256364 150.32343078800403 9.136009338935287
    vertex 247.36023632739867 149.36166235513952 15.513655188978223
    vertex 247.32515883430503 149.31306495694858 9.142228077015902
  endloop
endfacet
facet normal 0.9660305119708583 0.25832522869972535 -0.007288769344410458
  outer loop
    vertex 247.36023632739867 149.36166235513952 15.513655188978223
    vertex 247.05493102256364 150.32343078800403 9.136009338935287
    vertex 247.09000851565733 150.372028186195 15.507436450897618
  endloop
endfacet
facet normal 0.8671578019556384 0.4979597007502127 -0.008572218862400886
  outer loop
    vertex 246.53502741621907 151.22873258666917 9.131966540300182
    vertex 247.09000851565733 150.372028186195 15.507436450897618
    vertex 247.05493102256364 150.32343078800403 9.136009338935287
  endloop
endfacet
facet normal 0.8671578019556384 0.4979597007502127 -0.008572218862400886
  outer loop
    vertex 247.09000851565733 150.372028186195 15.507436450897618
    vertex 246.53502741621907 151.22873258666917 9.131966540300182
    vertex 246.57010490931262 151.27732998486007 15.503393652262561
  endloop
endfacet
facet normal 0.7091928915825999 0.7049534017156475 -0.009281375881185761
  outer loop
    vertex 245.80087858686224 151.96727553144666 9.13037519115664
    vertex 246.57010490931262 151.27732998486007 15.503393652262561
    vertex 246.53502741621907 151.22873258666917 9.131966540300182
  endloop
endfacet
facet normal 0.7091928915825999 0.7049534017156475 -0.009281375881185761
  outer loop
    vertex 246.57010490931262 151.27732998486007 15.503393652262561
    vertex 245.80087858686224 151.96727553144666 9.13037519115664
    vertex 245.83595607995585 152.01587292963754 15.50180230311897
  endloop
endfacet
facet normal 0.5019788743714529 0.8648292316568968 -0.009360008360600539
  outer loop
    vertex 244.90251556397527 152.48872914115012 9.131343739319314
    vertex 245.83595607995585 152.01587292963754 15.50180230311897
    vertex 245.80087858686224 151.96727553144666 9.13037519115664
  endloop
endfacet
facet normal 0.5019788743714529 0.8648292316568968 -0.009360008360600539
  outer loop
    vertex 245.83595607995585 152.01587292963754 15.50180230311897
    vertex 244.90251556397527 152.48872914115012 9.131343739319314
    vertex 244.93759305706905 152.53732653934108 15.502770851281642
  endloop
endfacet
endsolid Untitled-61451198
