solid Untitled-62032157
facet normal -1.351342843072146e-16 -7.47937782493789e-17 1.0
  outer loop
    vertex 187.18968751239868 -61.63216088812267 -26.933470407294262
    vertex 37.94622380525379 -52.132160888122655 -26.933470407294273
    vertex 37.94622380525379 -61.63216088812267 -26.933470407294273
  endloop
endfacet
facet normal -1.351342843072146e-16 -7.47937782493789e-17 1.0
  outer loop
    vertex 37.94622380525379 -52.132160888122655 -26.933470407294273
    vertex 187.18968751239868 -61.63216088812267 -26.933470407294262
    vertex 177.18968751239868 -52.132160888122655 -26.93347040729425
  endloop
endfacet
facet normal -1.351342843072146e-16 -7.47937782493789e-17 1.0
  outer loop
    vertex 177.18968751239868 -52.132160888122655 -26.93347040729425
    vertex 187.18968751239868 -61.63216088812267 -26.933470407294262
    vertex 177.18968751239868 -21.132160888122662 -26.93347040729425
  endloop
endfacet
facet normal -1.351342843072146e-16 -7.47937782493789e-17 1.0
  outer loop
    vertex 177.18968751239868 -21.132160888122662 -26.93347040729425
    vertex 37.94622380525379 -7.632160888122658 -26.933470407294273
    vertex 37.94622380525379 -21.13216088812266 -26.933470407294273
  endloop
endfacet
facet normal -1.351342843072146e-16 -7.47937782493789e-17 1.0
  outer loop
    vertex 37.94622380525379 -7.632160888122658 -26.933470407294273
    vertex 177.18968751239868 -21.132160888122662 -26.93347040729425
    vertex 187.18968751239868 -7.632160888122665 -26.93347040729425
  endloop
endfacet
facet normal -1.351342843072146e-16 -7.47937782493789e-17 1.0
  outer loop
    vertex 187.18968751239868 -7.632160888122665 -26.93347040729425
    vertex 177.18968751239868 -21.132160888122662 -26.93347040729425
    vertex 187.18968751239868 -61.63216088812267 -26.933470407294262
  endloop
endfacet
facet normal -2.9491116464041706e-16 -2.2943828545666207e-17 1.0
  outer loop
    vertex 27.18968751239867 -65.13216088812267 12.080323592705705
    vertex 25.639687512398684 -61.63216088812267 12.080323592705705
    vertex 25.639687512398673 -65.13216088812267 12.080323592705705
  endloop
endfacet
facet normal -2.9491116464041706e-16 -2.2943828545666207e-17 1.0
  outer loop
    vertex 22.63968751239869 -61.63216088812267 12.080323592705705
    vertex 25.639687512398673 -7.632160888122655 12.080323592705705
    vertex 22.639687512398687 -7.632160888122655 12.080323592705705
  endloop
endfacet
facet normal -2.9491116464041706e-16 -2.2943828545666207e-17 1.0
  outer loop
    vertex 25.639687512398673 -7.632160888122655 12.080323592705705
    vertex 22.63968751239869 -61.63216088812267 12.080323592705705
    vertex 25.639687512398684 -61.63216088812267 12.080323592705705
  endloop
endfacet
facet normal -2.9491116464041706e-16 -2.2943828545666207e-17 1.0
  outer loop
    vertex 25.639687512398673 -7.632160888122655 12.080323592705705
    vertex 25.639687512398684 -61.63216088812267 12.080323592705705
    vertex 25.639687512398673 -4.13216088812266 12.080323592705705
  endloop
endfacet
facet normal -2.9491116464041706e-16 -2.2943828545666207e-17 1.0
  outer loop
    vertex 25.639687512398673 -4.13216088812266 12.080323592705705
    vertex 25.639687512398684 -61.63216088812267 12.080323592705705
    vertex 27.18968751239867 -4.13216088812266 12.080323592705705
  endloop
endfacet
facet normal -2.9491116464041706e-16 -2.2943828545666207e-17 1.0
  outer loop
    vertex 27.18968751239867 -4.13216088812266 12.080323592705705
    vertex 25.639687512398684 -61.63216088812267 12.080323592705705
    vertex 27.18968751239867 -65.13216088812267 12.080323592705705
  endloop
endfacet
facet normal 1.0 -6.560671803773694e-18 9.270232564905115e-16
  outer loop
    vertex 27.18968751239872 -21.13216088812266 -31.933470407294276
    vertex 27.18968751239872 -52.132160888122655 -23.179469407294285
    vertex 27.18968751239872 -52.132160888122655 -31.933470407294276
  endloop
endfacet
facet normal 1.0 -6.560671803773694e-18 9.270232564905115e-16
  outer loop
    vertex 27.18968751239872 -4.13216088812266 -31.933470407294276
    vertex 27.18968751239872 -7.632160888122658 -23.179469407294285
    vertex 27.18968751239872 -7.632160888122658 -31.933470407294276
  endloop
endfacet
facet normal 1.0 -6.560671803773694e-18 9.270232564905115e-16
  outer loop
    vertex 27.18968751239872 -61.63216088812267 -31.933470407294276
    vertex 27.18968751239867 -65.13216088812267 12.080323592705705
    vertex 27.18968751239872 -65.13216088812267 -31.933470407294276
  endloop
endfacet
facet normal 1.0 -6.560671803773694e-18 9.270232564905115e-16
  outer loop
    vertex 27.18968751239867 -65.13216088812267 12.080323592705705
    vertex 27.18968751239872 -61.63216088812267 -31.933470407294276
    vertex 27.18968751239872 -61.63216088812267 -23.179469407294274
  endloop
endfacet
facet normal 1.0 -6.560671803773694e-18 9.270232564905115e-16
  outer loop
    vertex 27.18968751239867 -65.13216088812267 12.080323592705705
    vertex 27.18968751239872 -61.63216088812267 -23.179469407294274
    vertex 27.18968751239867 -4.13216088812266 12.080323592705705
  endloop
endfacet
facet normal 1.0 -6.560671803773694e-18 9.270232564905115e-16
  outer loop
    vertex 27.18968751239867 -4.13216088812266 12.080323592705705
    vertex 27.18968751239872 -61.63216088812267 -23.179469407294274
    vertex 27.18968751239872 -52.132160888122655 -23.179469407294285
  endloop
endfacet
facet normal 1.0 -6.560671803773694e-18 9.270232564905115e-16
  outer loop
    vertex 27.18968751239867 -4.13216088812266 12.080323592705705
    vertex 27.18968751239872 -52.132160888122655 -23.179469407294285
    vertex 27.18968751239872 -21.13216088812265 -23.179469407294285
  endloop
endfacet
facet normal 1.0 -6.560671803773694e-18 9.270232564905115e-16
  outer loop
    vertex 27.18968751239872 -21.13216088812265 -23.179469407294285
    vertex 27.18968751239872 -52.132160888122655 -23.179469407294285
    vertex 27.18968751239872 -21.13216088812266 -31.933470407294276
  endloop
endfacet
facet normal 1.0 -6.560671803773694e-18 9.270232564905115e-16
  outer loop
    vertex 27.18968751239867 -4.13216088812266 12.080323592705705
    vertex 27.18968751239872 -21.13216088812265 -23.179469407294285
    vertex 27.18968751239872 -7.632160888122658 -23.179469407294285
  endloop
endfacet
facet normal 1.0 -6.560671803773694e-18 9.270232564905115e-16
  outer loop
    vertex 27.18968751239867 -4.13216088812266 12.080323592705705
    vertex 27.18968751239872 -7.632160888122658 -23.179469407294285
    vertex 27.18968751239872 -4.13216088812266 -31.933470407294276
  endloop
endfacet
facet normal 0.0 0.0 -1.0
  outer loop
    vertex 25.639687512398712 -7.63216088812271 -31.933470407294276
    vertex 22.6396875123987 -61.63216088812267 -31.933470407294276
    vertex 22.63968751239869 -7.63216088812271 -31.933470407294276
  endloop
endfacet
facet normal 0.0 0.0 -1.0
  outer loop
    vertex 22.6396875123987 -61.63216088812267 -31.933470407294276
    vertex 25.639687512398712 -7.63216088812271 -31.933470407294276
    vertex 25.639687512398723 -61.63216088812267 -31.933470407294276
  endloop
endfacet
facet normal 0.0 0.0 -1.0
  outer loop
    vertex 25.639687512398723 -61.63216088812267 -31.933470407294276
    vertex 25.639687512398712 -7.63216088812271 -31.933470407294276
    vertex 25.639687512398723 -4.13216088812266 -31.933470407294276
  endloop
endfacet
facet normal 0.0 0.0 -1.0
  outer loop
    vertex 25.639687512398723 -61.63216088812267 -31.933470407294276
    vertex 25.639687512398723 -4.13216088812266 -31.933470407294276
    vertex 27.18968751239872 -4.13216088812266 -31.933470407294276
  endloop
endfacet
facet normal 0.0 0.0 -1.0
  outer loop
    vertex 25.639687512398723 -61.63216088812267 -31.933470407294276
    vertex 27.18968751239872 -4.13216088812266 -31.933470407294276
    vertex 25.639687512398723 -65.13216088812267 -31.933470407294276
  endloop
endfacet
facet normal 0.0 0.0 -1.0
  outer loop
    vertex 25.639687512398723 -65.13216088812267 -31.933470407294276
    vertex 27.18968751239872 -4.13216088812266 -31.933470407294276
    vertex 27.18968751239872 -65.13216088812267 -31.933470407294276
  endloop
endfacet
facet normal 0.0 0.0 -1.0
  outer loop
    vertex 27.18968751239872 -65.13216088812267 -31.933470407294276
    vertex 27.18968751239872 -4.13216088812266 -31.933470407294276
    vertex 27.18968751239872 -7.632160888122658 -31.933470407294276
  endloop
endfacet
facet normal 0.0 0.0 -1.0
  outer loop
    vertex 27.18968751239872 -65.13216088812267 -31.933470407294276
    vertex 27.18968751239872 -7.632160888122658 -31.933470407294276
    vertex 27.18968751239872 -21.13216088812266 -31.933470407294276
  endloop
endfacet
facet normal 0.0 0.0 -1.0
  outer loop
    vertex 27.18968751239872 -65.13216088812267 -31.933470407294276
    vertex 27.18968751239872 -21.13216088812266 -31.933470407294276
    vertex 27.18968751239872 -52.132160888122655 -31.933470407294276
  endloop
endfacet
facet normal 0.0 0.0 -1.0
  outer loop
    vertex 27.18968751239872 -65.13216088812267 -31.933470407294276
    vertex 27.18968751239872 -52.132160888122655 -31.933470407294276
    vertex 27.18968751239872 -61.63216088812267 -31.933470407294276
  endloop
endfacet
facet normal 4.4642949323578597e-17 1.0 -3.9702257685778315e-18
  outer loop
    vertex 27.18968751239872 -7.632160888122658 -31.933470407294276
    vertex 37.94622380525379 -7.632160888122658 -26.933470407294273
    vertex 187.18968751239868 -7.632160888122665 -31.933470407294248
  endloop
endfacet
facet normal 4.4642949323578597e-17 1.0 -3.9702257685778315e-18
  outer loop
    vertex 37.94622380525379 -7.632160888122658 -26.933470407294273
    vertex 27.18968751239872 -7.632160888122658 -31.933470407294276
    vertex 27.18968751239872 -7.632160888122658 -23.179469407294285
  endloop
endfacet
facet normal 4.4642949323578597e-17 1.0 -3.9702257685778315e-18
  outer loop
    vertex 187.18968751239868 -7.632160888122665 -26.93347040729425
    vertex 187.18968751239868 -7.632160888122665 -31.933470407294248
    vertex 37.94622380525379 -7.632160888122658 -26.933470407294273
  endloop
endfacet
facet normal -2.2611086119732826e-17 -1.0 4.450124340875718e-16
  outer loop
    vertex 177.18968751239868 -21.132160888122662 -26.93347040729425
    vertex 37.94622380525379 -21.13216088812266 -26.933470407294273
    vertex 177.18968751239868 -21.132160888122662 -31.933470407294248
  endloop
endfacet
facet normal -2.2611086119732826e-17 -1.0 4.450124340875718e-16
  outer loop
    vertex 27.18968751239872 -21.13216088812266 -31.933470407294276
    vertex 37.94622380525379 -21.13216088812266 -26.933470407294273
    vertex 27.18968751239872 -21.13216088812265 -23.179469407294285
  endloop
endfacet
facet normal -2.2611086119732826e-17 -1.0 4.450124340875718e-16
  outer loop
    vertex 37.94622380525379 -21.13216088812266 -26.933470407294273
    vertex 27.18968751239872 -21.13216088812266 -31.933470407294276
    vertex 177.18968751239868 -21.132160888122662 -31.933470407294248
  endloop
endfacet
facet normal 0.32950681751382555 5.619972408285262e-16 0.9441531958384246
  outer loop
    vertex 37.94622380525379 -61.63216088812267 -26.933470407294273
    vertex 27.18968751239872 -52.132160888122655 -23.179469407294285
    vertex 27.18968751239872 -61.63216088812267 -23.179469407294274
  endloop
endfacet
facet normal 0.32950681751382555 5.619972408285262e-16 0.9441531958384246
  outer loop
    vertex 27.18968751239872 -52.132160888122655 -23.179469407294285
    vertex 37.94622380525379 -61.63216088812267 -26.933470407294273
    vertex 37.94622380525379 -52.132160888122655 -26.933470407294273
  endloop
endfacet
facet normal -0.0 1.0 -0.0
  outer loop
    vertex 27.18968751239872 -52.132160888122655 -31.933470407294276
    vertex 37.94622380525379 -52.132160888122655 -26.933470407294273
    vertex 177.18968751239868 -52.132160888122655 -31.93347040729426
  endloop
endfacet
facet normal -0.0 1.0 -0.0
  outer loop
    vertex 37.94622380525379 -52.132160888122655 -26.933470407294273
    vertex 27.18968751239872 -52.132160888122655 -31.933470407294276
    vertex 27.18968751239872 -52.132160888122655 -23.179469407294285
  endloop
endfacet
facet normal -0.0 1.0 -0.0
  outer loop
    vertex 177.18968751239868 -52.132160888122655 -26.93347040729425
    vertex 177.18968751239868 -52.132160888122655 -31.93347040729426
    vertex 37.94622380525379 -52.132160888122655 -26.933470407294273
  endloop
endfacet
facet normal -0.0 1.0 -0.0
  outer loop
    vertex 25.639687512398673 -4.13216088812266 12.080323592705705
    vertex 27.18968751239872 -4.13216088812266 -31.933470407294276
    vertex 25.639687512398723 -4.13216088812266 -31.933470407294276
  endloop
endfacet
facet normal -0.0 1.0 -0.0
  outer loop
    vertex 27.18968751239872 -4.13216088812266 -31.933470407294276
    vertex 25.639687512398673 -4.13216088812266 12.080323592705705
    vertex 27.18968751239867 -4.13216088812266 12.080323592705705
  endloop
endfacet
facet normal -4.350837644767871e-31 1.0 -9.819526144586434e-16
  outer loop
    vertex 22.639687512398687 -7.632160888122655 12.080323592705705
    vertex 25.639687512398712 -7.63216088812271 -31.933470407294276
    vertex 22.63968751239869 -7.63216088812271 -31.933470407294276
  endloop
endfacet
facet normal -4.350837644767871e-31 1.0 -9.819526144586434e-16
  outer loop
    vertex 25.639687512398712 -7.63216088812271 -31.933470407294276
    vertex 22.639687512398687 -7.632160888122655 12.080323592705705
    vertex 25.639687512398673 -7.632160888122655 12.080323592705705
  endloop
endfacet
facet normal 1.0 -0.0 -0.0
  outer loop
    vertex 27.18968751239872 -52.132160888122655 -31.933470407294276
    vertex 27.18968751239872 -61.63216088812267 -23.179469407294274
    vertex 27.18968751239872 -61.63216088812267 -31.933470407294276
  endloop
endfacet
facet normal 1.0 -0.0 -0.0
  outer loop
    vertex 27.18968751239872 -61.63216088812267 -23.179469407294274
    vertex 27.18968751239872 -52.132160888122655 -31.933470407294276
    vertex 27.18968751239872 -52.132160888122655 -23.179469407294285
  endloop
endfacet
facet normal -1.0 -1.3055400382166194e-16 -1.2589136082803114e-16
  outer loop
    vertex 22.639687512398687 -7.632160888122655 12.080323592705705
    vertex 22.6396875123987 -61.63216088812267 -31.933470407294276
    vertex 22.63968751239869 -61.63216088812267 12.080323592705705
  endloop
endfacet
facet normal -1.0 -1.3055400382166194e-16 -1.2589136082803114e-16
  outer loop
    vertex 22.6396875123987 -61.63216088812267 -31.933470407294276
    vertex 22.639687512398687 -7.632160888122655 12.080323592705705
    vertex 22.63968751239869 -7.63216088812271 -31.933470407294276
  endloop
endfacet
facet normal 1.0 -0.0 -0.0
  outer loop
    vertex 187.18968751239868 -61.63216088812265 -31.93347040729426
    vertex 187.18968751239868 -7.632160888122665 -26.93347040729425
    vertex 187.18968751239868 -61.63216088812267 -26.933470407294262
  endloop
endfacet
facet normal 1.0 -0.0 -0.0
  outer loop
    vertex 187.18968751239868 -7.632160888122665 -26.93347040729425
    vertex 187.18968751239868 -61.63216088812265 -31.93347040729426
    vertex 187.18968751239868 -7.632160888122665 -31.933470407294248
  endloop
endfacet
facet normal 5.735111079323348e-17 -1.0 -1.1091227943626781e-15
  outer loop
    vertex 187.18968751239868 -61.63216088812267 -26.933470407294262
    vertex 37.94622380525379 -61.63216088812267 -26.933470407294273
    vertex 187.18968751239868 -61.63216088812265 -31.93347040729426
  endloop
endfacet
facet normal 5.735111079323348e-17 -1.0 -1.1091227943626781e-15
  outer loop
    vertex 27.18968751239872 -61.63216088812267 -31.933470407294276
    vertex 37.94622380525379 -61.63216088812267 -26.933470407294273
    vertex 27.18968751239872 -61.63216088812267 -23.179469407294274
  endloop
endfacet
facet normal 5.735111079323348e-17 -1.0 -1.1091227943626781e-15
  outer loop
    vertex 37.94622380525379 -61.63216088812267 -26.933470407294273
    vertex 27.18968751239872 -61.63216088812267 -31.933470407294276
    vertex 187.18968751239868 -61.63216088812265 -31.93347040729426
  endloop
endfacet
facet normal 0.3295068175138251 -9.416221012961675e-18 0.9441531958384248
  outer loop
    vertex 37.94622380525379 -21.13216088812266 -26.933470407294273
    vertex 27.18968751239872 -7.632160888122658 -23.179469407294285
    vertex 27.18968751239872 -21.13216088812265 -23.179469407294285
  endloop
endfacet
facet normal 0.3295068175138251 -9.416221012961675e-18 0.9441531958384248
  outer loop
    vertex 27.18968751239872 -7.632160888122658 -23.179469407294285
    vertex 37.94622380525379 -21.13216088812266 -26.933470407294273
    vertex 37.94622380525379 -7.632160888122658 -26.933470407294273
  endloop
endfacet
facet normal 1.4866051016549514e-16 1.3201677467912226e-16 -1.0
  outer loop
    vertex 187.18968751239868 -7.632160888122665 -31.933470407294248
    vertex 27.18968751239872 -21.13216088812266 -31.933470407294276
    vertex 27.18968751239872 -7.632160888122658 -31.933470407294276
  endloop
endfacet
facet normal 1.4866051016549514e-16 1.3201677467912226e-16 -1.0
  outer loop
    vertex 27.18968751239872 -21.13216088812266 -31.933470407294276
    vertex 187.18968751239868 -7.632160888122665 -31.933470407294248
    vertex 177.18968751239868 -21.132160888122662 -31.933470407294248
  endloop
endfacet
facet normal 1.4866051016549514e-16 1.3201677467912226e-16 -1.0
  outer loop
    vertex 177.18968751239868 -21.132160888122662 -31.933470407294248
    vertex 187.18968751239868 -7.632160888122665 -31.933470407294248
    vertex 177.18968751239868 -52.132160888122655 -31.93347040729426
  endloop
endfacet
facet normal 1.4866051016549514e-16 1.3201677467912226e-16 -1.0
  outer loop
    vertex 177.18968751239868 -52.132160888122655 -31.93347040729426
    vertex 27.18968751239872 -61.63216088812267 -31.933470407294276
    vertex 27.18968751239872 -52.132160888122655 -31.933470407294276
  endloop
endfacet
facet normal 1.4866051016549514e-16 1.3201677467912226e-16 -1.0
  outer loop
    vertex 27.18968751239872 -61.63216088812267 -31.933470407294276
    vertex 177.18968751239868 -52.132160888122655 -31.93347040729426
    vertex 187.18968751239868 -61.63216088812265 -31.93347040729426
  endloop
endfacet
facet normal 1.4866051016549514e-16 1.3201677467912226e-16 -1.0
  outer loop
    vertex 187.18968751239868 -61.63216088812265 -31.93347040729426
    vertex 177.18968751239868 -52.132160888122655 -31.93347040729426
    vertex 187.18968751239868 -7.632160888122665 -31.933470407294248
  endloop
endfacet
facet normal 1.0 -0.0 -0.0
  outer loop
    vertex 27.18968751239872 -7.632160888122658 -31.933470407294276
    vertex 27.18968751239872 -21.13216088812265 -23.179469407294285
    vertex 27.18968751239872 -21.13216088812266 -31.933470407294276
  endloop
endfacet
facet normal 1.0 -0.0 -0.0
  outer loop
    vertex 27.18968751239872 -21.13216088812265 -23.179469407294285
    vertex 27.18968751239872 -7.632160888122658 -31.933470407294276
    vertex 27.18968751239872 -7.632160888122658 -23.179469407294285
  endloop
endfacet
facet normal -1.0 1.6114094185988006e-15 -8.057047092994004e-16
  outer loop
    vertex 25.639687512398673 -7.632160888122655 12.080323592705705
    vertex 25.639687512398723 -4.13216088812266 -31.933470407294276
    vertex 25.639687512398712 -7.63216088812271 -31.933470407294276
  endloop
endfacet
facet normal -1.0 1.6114094185988006e-15 -8.057047092994004e-16
  outer loop
    vertex 25.639687512398723 -4.13216088812266 -31.933470407294276
    vertex 25.639687512398673 -7.632160888122655 12.080323592705705
    vertex 25.639687512398673 -4.13216088812266 12.080323592705705
  endloop
endfacet
facet normal 0.0 -1.0 0.0
  outer loop
    vertex 27.18968751239867 -65.13216088812267 12.080323592705705
    vertex 25.639687512398723 -65.13216088812267 -31.933470407294276
    vertex 27.18968751239872 -65.13216088812267 -31.933470407294276
  endloop
endfacet
facet normal 0.0 -1.0 0.0
  outer loop
    vertex 25.639687512398723 -65.13216088812267 -31.933470407294276
    vertex 27.18968751239867 -65.13216088812267 12.080323592705705
    vertex 25.639687512398673 -65.13216088812267 12.080323592705705
  endloop
endfacet
facet normal -1.0 1.611409418598801e-15 -8.057047092993999e-16
  outer loop
    vertex 25.639687512398684 -61.63216088812267 12.080323592705705
    vertex 25.639687512398723 -65.13216088812267 -31.933470407294276
    vertex 25.639687512398673 -65.13216088812267 12.080323592705705
  endloop
endfacet
facet normal -1.0 1.611409418598801e-15 -8.057047092993999e-16
  outer loop
    vertex 25.639687512398723 -65.13216088812267 -31.933470407294276
    vertex 25.639687512398684 -61.63216088812267 12.080323592705705
    vertex 25.639687512398723 -61.63216088812267 -31.933470407294276
  endloop
endfacet
facet normal 1.0 -0.0 -0.0
  outer loop
    vertex 177.18968751239868 -21.132160888122662 -31.933470407294248
    vertex 177.18968751239868 -52.132160888122655 -26.93347040729425
    vertex 177.18968751239868 -52.132160888122655 -31.93347040729426
  endloop
endfacet
facet normal 1.0 -0.0 -0.0
  outer loop
    vertex 177.18968751239868 -52.132160888122655 -26.93347040729425
    vertex 177.18968751239868 -21.132160888122662 -31.933470407294248
    vertex 177.18968751239868 -21.132160888122662 -26.93347040729425
  endloop
endfacet
facet normal 0.0 -1.0 0.0
  outer loop
    vertex 25.639687512398684 -61.63216088812267 12.080323592705705
    vertex 22.6396875123987 -61.63216088812267 -31.933470407294276
    vertex 25.639687512398723 -61.63216088812267 -31.933470407294276
  endloop
endfacet
facet normal 0.0 -1.0 0.0
  outer loop
    vertex 22.6396875123987 -61.63216088812267 -31.933470407294276
    vertex 25.639687512398684 -61.63216088812267 12.080323592705705
    vertex 22.63968751239869 -61.63216088812267 12.080323592705705
  endloop
endfacet
endsolid Untitled-62032157
