solid Untitled-6164b12a
facet normal 0.0 -1.0 0.0
  outer loop
    vertex 252.1358438581481 36.73861351587256 10.788329718356074
    vertex 190.1358438581481 36.73861351587256 5.5883297183560625
    vertex 252.13584385814818 36.73861351587256 5.588329718356047
  endloop
endfacet
facet normal 0.0 -1.0 0.0
  outer loop
    vertex 190.1358438581481 36.73861351587256 5.5883297183560625
    vertex 252.1358438581481 36.73861351587256 10.788329718356074
    vertex 190.1358438581481 36.73861351587256 10.788329718356055
  endloop
endfacet
facet normal 1.0 6.792635058042665e-31 1.73536398926024e-14
  outer loop
    vertex 252.13584385814818 36.73861351587256 5.588329718356047
    vertex 252.1358438581481 -22.719545079798294 10.788329718356074
    vertex 252.13584385814818 -22.719545079798294 5.588329718356047
  endloop
endfacet
facet normal 1.0 6.792635058042665e-31 1.73536398926024e-14
  outer loop
    vertex 252.1358438581481 -22.719545079798294 10.788329718356074
    vertex 252.13584385814818 36.73861351587256 5.588329718356047
    vertex 252.1358438581481 -17.628203031793646 10.788329718356064
  endloop
endfacet
facet normal 1.0 6.792635058042665e-31 1.73536398926024e-14
  outer loop
    vertex 252.1358438581481 -17.628203031793646 10.788329718356064
    vertex 252.13584385814818 36.73861351587256 5.588329718356047
    vertex 252.1358438581481 -16.913874055795972 10.788329718356064
  endloop
endfacet
facet normal -0.9997709546309177 0.002092185811470791 0.021299320057548986
  outer loop
    vertex 190.1358438581481 36.73861351587256 5.5883297183560625
    vertex 190.13423655485798 -16.96761029462277 10.788329718356055
    vertex 190.1358438581481 -16.1995450797983 10.788329718356055
  endloop
endfacet
facet normal -0.9983321546598498 -0.0055341059010085855 -0.057465490897566536
  outer loop
    vertex 190.1358438581481 36.73861351587256 5.5883297183560625
    vertex 190.1358438581481 -17.25756183973355 10.788329718356055
    vertex 190.13423655485798 -16.96761029462277 10.788329718356055
  endloop
endfacet
facet normal 0.9983530726374245 0.005534221856674031 0.05710091718926005
  outer loop
    vertex 252.13584385814818 36.73861351587256 5.588329718356047
    vertex 252.13423655485798 -16.623922510685187 10.788329718356064
    vertex 252.1358438581481 -16.913874055795972 10.788329718356064
  endloop
endfacet
facet normal 0.0 -1.0 0.0
  outer loop
    vertex 245.5908638318337 -22.719545079798294 10.788329718356067
    vertex 190.1358438581481 -22.719545079798294 5.5883297183560625
    vertex 245.5908638318337 -22.719545079798294 5.588329718356048
  endloop
endfacet
facet normal 0.0 -1.0 0.0
  outer loop
    vertex 190.1358438581481 -22.719545079798294 5.5883297183560625
    vertex 245.5908638318337 -22.719545079798294 10.788329718356067
    vertex 190.1358438581481 -22.719545079798294 10.788329718356055
  endloop
endfacet
facet normal -1.0 0.0 0.0
  outer loop
    vertex 190.1358438581481 -17.628203031793646 10.788329718356055
    vertex 190.1358438581481 -22.719545079798294 5.5883297183560625
    vertex 190.1358438581481 -22.719545079798294 10.788329718356055
  endloop
endfacet
facet normal -1.0 0.0 0.0
  outer loop
    vertex 190.1358438581481 -22.719545079798294 5.5883297183560625
    vertex 190.1358438581481 -17.628203031793646 10.788329718356055
    vertex 190.1358438581481 36.73861351587256 5.5883297183560625
  endloop
endfacet
facet normal -1.0 0.0 0.0
  outer loop
    vertex 190.1358438581481 36.73861351587256 5.5883297183560625
    vertex 190.1358438581481 -17.628203031793646 10.788329718356055
    vertex 190.1358438581481 -17.25756183973355 10.788329718356055
  endloop
endfacet
facet normal -1.0 0.0 0.0
  outer loop
    vertex 190.1358438581481 36.73861351587256 5.5883297183560625
    vertex 190.1358438581481 -16.1995450797983 10.788329718356055
    vertex 190.1358438581481 36.73861351587256 10.788329718356055
  endloop
endfacet
facet normal -2.381272000379902e-16 9.111127487550075e-16 1.0
  outer loop
    vertex 245.5908638318337 -22.719545079798294 10.788329718356067
    vertex 190.1358438581481 -17.628203031793646 10.788329718356055
    vertex 190.1358438581481 -22.719545079798294 10.788329718356055
  endloop
endfacet
facet normal -2.381272000379902e-16 9.111127487550075e-16 1.0
  outer loop
    vertex 190.1358438581481 -17.628203031793646 10.788329718356055
    vertex 245.5908638318337 -22.719545079798294 10.788329718356067
    vertex 252.1358438581481 -17.628203031793646 10.788329718356064
  endloop
endfacet
facet normal -2.381272000379902e-16 9.111127487550075e-16 1.0
  outer loop
    vertex 252.1358438581481 -17.628203031793646 10.788329718356064
    vertex 245.5908638318337 -22.719545079798294 10.788329718356067
    vertex 252.1358438581481 -22.719545079798294 10.788329718356074
  endloop
endfacet
facet normal 0.9999999995463795 -3.012044421177994e-05 1.735360216056762e-14
  outer loop
    vertex 252.1358438581481 36.73861351587256 10.788329718356074
    vertex 252.13423655485798 -16.623922510685187 10.788329718356064
    vertex 252.13584385814818 36.73861351587256 5.588329718356047
  endloop
endfacet
facet normal -2.847544490963968e-16 3.6453296345353744e-18 -1.0
  outer loop
    vertex 252.13584385814818 36.73861351587256 5.588329718356047
    vertex 190.1358438581481 -22.719545079798294 5.5883297183560625
    vertex 190.1358438581481 36.73861351587256 5.5883297183560625
  endloop
endfacet
facet normal -2.847544490963968e-16 3.6453296345353744e-18 -1.0
  outer loop
    vertex 190.1358438581481 -22.719545079798294 5.5883297183560625
    vertex 252.13584385814818 36.73861351587256 5.588329718356047
    vertex 245.5908638318337 -22.719545079798294 5.588329718356048
  endloop
endfacet
facet normal -2.847544490963968e-16 3.6453296345353744e-18 -1.0
  outer loop
    vertex 245.5908638318337 -22.719545079798294 5.588329718356048
    vertex 252.13584385814818 36.73861351587256 5.588329718356047
    vertex 252.13584385814818 -22.719545079798294 5.588329718356047
  endloop
endfacet
facet normal -1.6373871162704702e-16 -2.7831187568864723e-19 1.0
  outer loop
    vertex 252.1358438581481 -17.628203031793646 10.788329718356064
    vertex 190.1358438581481 -17.25756183973355 10.788329718356055
    vertex 190.1358438581481 -17.628203031793646 10.788329718356055
  endloop
endfacet
facet normal -1.6373871162704702e-16 -2.7831187568864723e-19 1.0
  outer loop
    vertex 190.1358438581481 -17.25756183973355 10.788329718356055
    vertex 252.1358438581481 -17.628203031793646 10.788329718356064
    vertex 252.13423655485798 -16.623922510685187 10.788329718356064
  endloop
endfacet
facet normal -1.6373871162704702e-16 -2.7831187568864723e-19 1.0
  outer loop
    vertex 252.13423655485798 -16.623922510685187 10.788329718356064
    vertex 252.1358438581481 -17.628203031793646 10.788329718356064
    vertex 252.1358438581481 -16.913874055795972 10.788329718356064
  endloop
endfacet
facet normal -1.6373871162704702e-16 -2.7831187568864723e-19 1.0
  outer loop
    vertex 252.13423655485798 -16.623922510685187 10.788329718356064
    vertex 190.13423655485798 -16.96761029462277 10.788329718356055
    vertex 190.1358438581481 -17.25756183973355 10.788329718356055
  endloop
endfacet
facet normal -0.005543266185681857 0.9999846359819708 -7.218305454211782e-17
  outer loop
    vertex 190.13423655485798 -16.96761029462277 11.056373718356056
    vertex 252.13423655485798 -16.623922510685187 10.788329718356064
    vertex 190.13423655485798 -16.96761029462277 10.788329718356055
  endloop
endfacet
facet normal -0.005543266185681857 0.9999846359819708 -7.218305454211782e-17
  outer loop
    vertex 252.13423655485798 -16.623922510685187 10.788329718356064
    vertex 190.13423655485798 -16.96761029462277 11.056373718356056
    vertex 252.13423655485798 -16.623922510685187 11.05637371835606
  endloop
endfacet
facet normal 4.548333036367577e-17 -1.0 4.998527136493286e-31
  outer loop
    vertex 252.1358438581481 -17.628203031793646 10.788329718356064
    vertex 190.1358438581481 -17.628203031793646 11.056373718356056
    vertex 190.1358438581481 -17.628203031793646 10.788329718356055
  endloop
endfacet
facet normal 4.548333036367577e-17 -1.0 4.998527136493286e-31
  outer loop
    vertex 190.1358438581481 -17.628203031793646 11.056373718356056
    vertex 252.1358438581481 -17.628203031793646 10.788329718356064
    vertex 252.1358438581481 -17.628203031793646 11.05637371835606
  endloop
endfacet
facet normal -1.0 0.0 0.0
  outer loop
    vertex 190.1358438581481 -17.25756183973355 11.056373718356056
    vertex 190.1358438581481 -17.628203031793646 10.788329718356055
    vertex 190.1358438581481 -17.628203031793646 11.056373718356056
  endloop
endfacet
facet normal -1.0 0.0 0.0
  outer loop
    vertex 190.1358438581481 -17.628203031793646 10.788329718356055
    vertex 190.1358438581481 -17.25756183973355 11.056373718356056
    vertex 190.1358438581481 -17.25756183973355 10.788329718356055
  endloop
endfacet
facet normal -5.170313378271774e-16 0.0 1.0
  outer loop
    vertex 252.1358438581481 -27.775415079798297 10.788329718356074
    vertex 245.5908638318337 -22.719545079798294 10.788329718356067
    vertex 245.5908638318337 -27.775415079798297 10.788329718356067
  endloop
endfacet
facet normal -5.170313378271774e-16 0.0 1.0
  outer loop
    vertex 245.5908638318337 -22.719545079798294 10.788329718356067
    vertex 252.1358438581481 -27.775415079798297 10.788329718356074
    vertex 252.1358438581481 -22.719545079798294 10.788329718356074
  endloop
endfacet
facet normal 0.9999846359819713 0.005543266185614883 0.0
  outer loop
    vertex 252.13423655485798 -16.623922510685187 10.788329718356064
    vertex 252.1358438581481 -16.913874055795972 11.05637371835606
    vertex 252.1358438581481 -16.913874055795972 10.788329718356064
  endloop
endfacet
facet normal 0.9999846359819713 0.005543266185614883 0.0
  outer loop
    vertex 252.1358438581481 -16.913874055795972 11.05637371835606
    vertex 252.13423655485798 -16.623922510685187 10.788329718356064
    vertex 252.13423655485798 -16.623922510685187 11.05637371835606
  endloop
endfacet
facet normal -0.9999846359819713 -0.005543266185604112 -1.6246573605005485e-14
  outer loop
    vertex 190.13423655485798 -16.96761029462277 11.056373718356056
    vertex 190.1358438581481 -17.25756183973355 10.788329718356055
    vertex 190.1358438581481 -17.25756183973355 11.056373718356056
  endloop
endfacet
facet normal -0.9999846359819713 -0.005543266185604112 -1.6246573605005485e-14
  outer loop
    vertex 190.1358438581481 -17.25756183973355 10.788329718356055
    vertex 190.13423655485798 -16.96761029462277 11.056373718356056
    vertex 190.13423655485798 -16.96761029462277 10.788329718356055
  endloop
endfacet
facet normal -1.0 0.0 0.0
  outer loop
    vertex 245.5908638318337 -22.719545079798294 10.788329718356067
    vertex 245.5908638318337 -27.775415079798297 5.588329718356048
    vertex 245.5908638318337 -27.775415079798297 10.788329718356067
  endloop
endfacet
facet normal -1.0 0.0 0.0
  outer loop
    vertex 245.5908638318337 -27.775415079798297 5.588329718356048
    vertex 245.5908638318337 -22.719545079798294 10.788329718356067
    vertex 245.5908638318337 -22.719545079798294 5.588329718356048
  endloop
endfacet
facet normal 0.0 -1.0 0.0
  outer loop
    vertex 252.1358438581481 -22.719545079798294 10.788329718356074
    vertex 245.5908638318337 -22.719545079798294 5.588329718356048
    vertex 252.13584385814818 -22.719545079798294 5.588329718356047
  endloop
endfacet
facet normal 0.0 -1.0 0.0
  outer loop
    vertex 245.5908638318337 -22.719545079798294 5.588329718356048
    vertex 252.1358438581481 -22.719545079798294 10.788329718356074
    vertex 245.5908638318337 -22.719545079798294 10.788329718356067
  endloop
endfacet
facet normal 1.0 0.0 0.0
  outer loop
    vertex 252.1358438581481 -16.913874055795972 10.788329718356064
    vertex 252.1358438581481 -17.628203031793646 11.05637371835606
    vertex 252.1358438581481 -17.628203031793646 10.788329718356064
  endloop
endfacet
facet normal 1.0 0.0 0.0
  outer loop
    vertex 252.1358438581481 -17.628203031793646 11.05637371835606
    vertex 252.1358438581481 -16.913874055795972 10.788329718356064
    vertex 252.1358438581481 -16.913874055795972 11.05637371835606
  endloop
endfacet
facet normal -2.261426605761545e-16 -7.252495064115214e-17 1.0
  outer loop
    vertex 252.13423655485798 -16.623922510685187 10.788329718356064
    vertex 190.1358438581481 -16.1995450797983 10.788329718356055
    vertex 190.13423655485798 -16.96761029462277 10.788329718356055
  endloop
endfacet
facet normal -2.261426605761545e-16 -7.252495064115214e-17 1.0
  outer loop
    vertex 190.1358438581481 -16.1995450797983 10.788329718356055
    vertex 252.13423655485798 -16.623922510685187 10.788329718356064
    vertex 190.1358438581481 36.73861351587256 10.788329718356055
  endloop
endfacet
facet normal -2.261426605761545e-16 -7.252495064115214e-17 1.0
  outer loop
    vertex 190.1358438581481 36.73861351587256 10.788329718356055
    vertex 252.13423655485798 -16.623922510685187 10.788329718356064
    vertex 252.1358438581481 36.73861351587256 10.788329718356074
  endloop
endfacet
facet normal -1.2735257386358946e-16 -2.0324916351482886e-19 1.0
  outer loop
    vertex 252.1358438581481 -17.628203031793646 11.05637371835606
    vertex 190.1358438581481 -17.25756183973355 11.056373718356056
    vertex 190.1358438581481 -17.628203031793646 11.056373718356056
  endloop
endfacet
facet normal -1.2735257386358946e-16 -2.0324916351482886e-19 1.0
  outer loop
    vertex 190.1358438581481 -17.25756183973355 11.056373718356056
    vertex 252.1358438581481 -17.628203031793646 11.05637371835606
    vertex 252.13423655485798 -16.623922510685187 11.05637371835606
  endloop
endfacet
facet normal -1.2735257386358946e-16 -2.0324916351482886e-19 1.0
  outer loop
    vertex 252.13423655485798 -16.623922510685187 11.05637371835606
    vertex 252.1358438581481 -17.628203031793646 11.05637371835606
    vertex 252.1358438581481 -16.913874055795972 11.05637371835606
  endloop
endfacet
facet normal -1.2735257386358946e-16 -2.0324916351482886e-19 1.0
  outer loop
    vertex 252.13423655485798 -16.623922510685187 11.05637371835606
    vertex 190.13423655485798 -16.96761029462277 11.056373718356056
    vertex 190.1358438581481 -17.25756183973355 11.056373718356056
  endloop
endfacet
facet normal 1.0 -8.924174023613411e-15 8.676819946301188e-15
  outer loop
    vertex 252.13584385814818 -22.719545079798294 5.588329718356047
    vertex 252.1358438581481 -27.775415079798297 10.788329718356074
    vertex 252.1358438581481 -27.775415079798297 5.588329718356048
  endloop
endfacet
facet normal 1.0 -8.924174023613411e-15 8.676819946301188e-15
  outer loop
    vertex 252.1358438581481 -27.775415079798297 10.788329718356074
    vertex 252.13584385814818 -22.719545079798294 5.588329718356047
    vertex 252.1358438581481 -22.719545079798294 10.788329718356074
  endloop
endfacet
facet normal 0.0 -1.0 0.0
  outer loop
    vertex 252.1358438581481 -27.775415079798297 10.788329718356074
    vertex 245.5908638318337 -27.775415079798297 5.588329718356048
    vertex 252.1358438581481 -27.775415079798297 5.588329718356048
  endloop
endfacet
facet normal 0.0 -1.0 0.0
  outer loop
    vertex 245.5908638318337 -27.775415079798297 5.588329718356048
    vertex 252.1358438581481 -27.775415079798297 10.788329718356074
    vertex 245.5908638318337 -27.775415079798297 10.788329718356067
  endloop
endfacet
facet normal -8.617188963786288e-17 -1.1155217529516686e-16 -1.0
  outer loop
    vertex 252.13584385814818 -22.719545079798294 5.588329718356047
    vertex 245.5908638318337 -27.775415079798297 5.588329718356048
    vertex 245.5908638318337 -22.719545079798294 5.588329718356048
  endloop
endfacet
facet normal -8.617188963786288e-17 -1.1155217529516686e-16 -1.0
  outer loop
    vertex 245.5908638318337 -27.775415079798297 5.588329718356048
    vertex 252.13584385814818 -22.719545079798294 5.588329718356047
    vertex 252.1358438581481 -27.775415079798297 5.588329718356048
  endloop
endfacet
endsolid Untitled-6164b12a
