solid AutoSave_AutoSave_update-122021
facet normal -1.0 0.0 0.0
  outer loop
    vertex 19.74515912595381 434.74561251144195 6.907146891215135
    vertex 19.74515912595381 430.55330949753267 -3.4957802829848474
    vertex 19.74515912595381 430.55330949753267 6.907146891215135
  endloop
endfacet
facet normal -1.0 0.0 0.0
  outer loop
    vertex 19.74515912595381 430.55330949753267 -3.4957802829848474
    vertex 19.74515912595381 434.74561251144195 6.907146891215135
    vertex 19.74515912595381 434.74561251144195 -3.4957802829848474
  endloop
endfacet
facet normal 1.0 0.0 0.0
  outer loop
    vertex 92.40109700405787 492.9232429558812 -3.4957802829848474
    vertex 92.40109700405787 430.55330949753267 6.907146891215135
    vertex 92.40109700405787 430.55330949753267 -3.4957802829848474
  endloop
endfacet
facet normal 1.0 0.0 0.0
  outer loop
    vertex 92.40109700405787 430.55330949753267 6.907146891215135
    vertex 92.40109700405787 492.9232429558812 -3.4957802829848474
    vertex 92.40109700405787 492.9232429558812 6.907146891215135
  endloop
endfacet
facet normal -0.0 1.0 -0.0
  outer loop
    vertex 19.74515912595381 492.9232429558812 6.907146891215135
    vertex 92.40109700405787 492.9232429558812 -3.4957802829848474
    vertex 19.74515912595381 492.9232429558812 -3.4957802829848474
  endloop
endfacet
facet normal -0.0 1.0 -0.0
  outer loop
    vertex 92.40109700405787 492.9232429558812 -3.4957802829848474
    vertex 19.74515912595381 492.9232429558812 6.907146891215135
    vertex 92.40109700405787 492.9232429558812 6.907146891215135
  endloop
endfacet
facet normal 0.0 -1.0 0.0
  outer loop
    vertex 92.40109700405787 430.55330949753267 6.907146891215135
    vertex 19.74515912595381 430.55330949753267 -3.4957802829848474
    vertex 92.40109700405787 430.55330949753267 -3.4957802829848474
  endloop
endfacet
facet normal 0.0 -1.0 0.0
  outer loop
    vertex 19.74515912595381 430.55330949753267 -3.4957802829848474
    vertex 92.40109700405787 430.55330949753267 6.907146891215135
    vertex 19.74515912595381 430.55330949753267 6.907146891215135
  endloop
endfacet
facet normal -1.0 0.0 0.0
  outer loop
    vertex 84.05610773780182 487.4015692294741 6.907146891215135
    vertex 84.05610773780182 434.74561251144195 -3.4957802829848474
    vertex 84.05610773780182 434.74561251144195 6.907146891215135
  endloop
endfacet
facet normal -1.0 0.0 0.0
  outer loop
    vertex 84.05610773780182 434.74561251144195 -3.4957802829848474
    vertex 84.05610773780182 487.4015692294741 6.907146891215135
    vertex 84.05610773780182 487.4015692294741 -3.4957802829848474
  endloop
endfacet
facet normal 0.0 -1.0 0.0
  outer loop
    vertex 84.05610773780182 487.4015692294741 6.907146891215135
    vertex 19.74515912595381 487.4015692294741 -3.4957802829848474
    vertex 84.05610773780182 487.4015692294741 -3.4957802829848474
  endloop
endfacet
facet normal 0.0 -1.0 0.0
  outer loop
    vertex 19.74515912595381 487.4015692294741 -3.4957802829848474
    vertex 84.05610773780182 487.4015692294741 6.907146891215135
    vertex 19.74515912595381 487.4015692294741 6.907146891215135
  endloop
endfacet
facet normal -0.0 1.0 -0.0
  outer loop
    vertex 19.74515912595381 434.74561251144195 6.907146891215135
    vertex 84.05610773780182 434.74561251144195 -3.4957802829848474
    vertex 19.74515912595381 434.74561251144195 -3.4957802829848474
  endloop
endfacet
facet normal -0.0 1.0 -0.0
  outer loop
    vertex 84.05610773780182 434.74561251144195 -3.4957802829848474
    vertex 19.74515912595381 434.74561251144195 6.907146891215135
    vertex 84.05610773780182 434.74561251144195 6.907146891215135
  endloop
endfacet
facet normal -1.0 0.0 0.0
  outer loop
    vertex 19.74515912595381 492.9232429558812 6.907146891215135
    vertex 19.74515912595381 487.4015692294741 -3.4957802829848474
    vertex 19.74515912595381 487.4015692294741 6.907146891215135
  endloop
endfacet
facet normal -1.0 0.0 0.0
  outer loop
    vertex 19.74515912595381 487.4015692294741 -3.4957802829848474
    vertex 19.74515912595381 492.9232429558812 6.907146891215135
    vertex 19.74515912595381 492.9232429558812 -3.4957802829848474
  endloop
endfacet
facet normal 0.0 0.0 -1.0
  outer loop
    vertex 92.40109700405787 492.9232429558812 -3.4957802829848474
    vertex 19.74515912595381 487.4015692294741 -3.4957802829848474
    vertex 19.74515912595381 492.9232429558812 -3.4957802829848474
  endloop
endfacet
facet normal 0.0 0.0 -1.0
  outer loop
    vertex 19.74515912595381 487.4015692294741 -3.4957802829848474
    vertex 92.40109700405787 492.9232429558812 -3.4957802829848474
    vertex 84.05610773780182 487.4015692294741 -3.4957802829848474
  endloop
endfacet
facet normal 0.0 0.0 -1.0
  outer loop
    vertex 84.05610773780182 487.4015692294741 -3.4957802829848474
    vertex 92.40109700405787 492.9232429558812 -3.4957802829848474
    vertex 84.05610773780182 434.74561251144195 -3.4957802829848474
  endloop
endfacet
facet normal 0.0 0.0 -1.0
  outer loop
    vertex 84.05610773780182 434.74561251144195 -3.4957802829848474
    vertex 19.74515912595381 430.55330949753267 -3.4957802829848474
    vertex 19.74515912595381 434.74561251144195 -3.4957802829848474
  endloop
endfacet
facet normal 0.0 0.0 -1.0
  outer loop
    vertex 19.74515912595381 430.55330949753267 -3.4957802829848474
    vertex 84.05610773780182 434.74561251144195 -3.4957802829848474
    vertex 92.40109700405787 430.55330949753267 -3.4957802829848474
  endloop
endfacet
facet normal 0.0 0.0 -1.0
  outer loop
    vertex 92.40109700405787 430.55330949753267 -3.4957802829848474
    vertex 84.05610773780182 434.74561251144195 -3.4957802829848474
    vertex 92.40109700405787 492.9232429558812 -3.4957802829848474
  endloop
endfacet
facet normal 0.0 0.0 1.0
  outer loop
    vertex 92.40109700405787 430.55330949753267 6.907146891215135
    vertex 19.74515912595381 434.74561251144195 6.907146891215135
    vertex 19.74515912595381 430.55330949753267 6.907146891215135
  endloop
endfacet
facet normal 0.0 0.0 1.0
  outer loop
    vertex 19.74515912595381 434.74561251144195 6.907146891215135
    vertex 92.40109700405787 430.55330949753267 6.907146891215135
    vertex 84.05610773780182 434.74561251144195 6.907146891215135
  endloop
endfacet
facet normal 0.0 0.0 1.0
  outer loop
    vertex 84.05610773780182 434.74561251144195 6.907146891215135
    vertex 92.40109700405787 430.55330949753267 6.907146891215135
    vertex 84.05610773780182 487.4015692294741 6.907146891215135
  endloop
endfacet
facet normal 0.0 0.0 1.0
  outer loop
    vertex 84.05610773780182 487.4015692294741 6.907146891215135
    vertex 19.74515912595381 492.9232429558812 6.907146891215135
    vertex 19.74515912595381 487.4015692294741 6.907146891215135
  endloop
endfacet
facet normal 0.0 0.0 1.0
  outer loop
    vertex 19.74515912595381 492.9232429558812 6.907146891215135
    vertex 84.05610773780182 487.4015692294741 6.907146891215135
    vertex 92.40109700405787 492.9232429558812 6.907146891215135
  endloop
endfacet
facet normal 0.0 0.0 1.0
  outer loop
    vertex 92.40109700405787 492.9232429558812 6.907146891215135
    vertex 84.05610773780182 487.4015692294741 6.907146891215135
    vertex 92.40109700405787 430.55330949753267 6.907146891215135
  endloop
endfacet
endsolid AutoSave_AutoSave_update-122021
