solid AutoSave_AutoSave_update-122021
facet normal 1.0 -0.0 -0.0
  outer loop
    vertex 177.22285077268072 511.0545337546456 1.5
    vertex 177.22285077268072 447.79684075464553 6.499999999999999
    vertex 177.22285077268072 447.79684075464553 1.5
  endloop
endfacet
facet normal 1.0 -0.0 -0.0
  outer loop
    vertex 177.22285077268072 447.79684075464553 6.499999999999999
    vertex 177.22285077268072 511.0545337546456 1.5
    vertex 177.22285077268072 459.0545337546456 6.499999999999999
  endloop
endfacet
facet normal 1.0 -0.0 -0.0
  outer loop
    vertex 177.22285077268072 459.0545337546456 6.499999999999999
    vertex 177.22285077268072 511.0545337546456 1.5
    vertex 177.22285077268072 460.89998051297476 6.499999999999999
  endloop
endfacet
facet normal 1.0 -0.0 -0.0
  outer loop
    vertex 177.22285077268072 459.0545337546456 6.499999999999999
    vertex 177.22285077268072 460.89998051297476 6.499999999999999
    vertex 177.22285077268072 459.0545337546456 6.999999999999998
  endloop
endfacet
facet normal 1.0 -0.0 -0.0
  outer loop
    vertex 177.22285077268072 460.89998051297476 6.499999999999999
    vertex 177.22285077268072 511.0545337546456 1.5
    vertex 177.22285077268072 511.0545337546456 6.499999999999999
  endloop
endfacet
facet normal 1.0 -0.0 -0.0
  outer loop
    vertex 177.22285077268072 460.89998051297476 6.999999999999998
    vertex 177.22285077268072 459.0545337546456 6.999999999999998
    vertex 177.22285077268072 460.89998051297476 6.499999999999999
  endloop
endfacet
facet normal -1.0 0.0 0.0
  outer loop
    vertex 128.22285077268072 460.89998051297476 6.999999999999998
    vertex 128.22285077268072 459.0545337546456 6.499999999999999
    vertex 128.22285077268072 459.0545337546456 6.999999999999998
  endloop
endfacet
facet normal -1.0 0.0 0.0
  outer loop
    vertex 128.22285077268072 459.0545337546456 6.499999999999999
    vertex 128.22285077268072 456.05453375464555 1.5
    vertex 128.22285077268072 456.05453375464555 6.499999999999999
  endloop
endfacet
facet normal -1.0 0.0 0.0
  outer loop
    vertex 128.22285077268072 456.05453375464555 1.5
    vertex 128.22285077268072 459.0545337546456 6.499999999999999
    vertex 128.22285077268072 511.0545337546456 1.5
  endloop
endfacet
facet normal -1.0 0.0 0.0
  outer loop
    vertex 128.22285077268072 511.0545337546456 1.5
    vertex 128.22285077268072 459.0545337546456 6.499999999999999
    vertex 128.22285077268072 460.89998051297476 6.499999999999999
  endloop
endfacet
facet normal -1.0 0.0 0.0
  outer loop
    vertex 128.22285077268072 460.89998051297476 6.499999999999999
    vertex 128.22285077268072 459.0545337546456 6.499999999999999
    vertex 128.22285077268072 460.89998051297476 6.999999999999998
  endloop
endfacet
facet normal -1.0 0.0 0.0
  outer loop
    vertex 128.22285077268072 511.0545337546456 1.5
    vertex 128.22285077268072 460.89998051297476 6.499999999999999
    vertex 128.22285077268072 511.0545337546456 6.499999999999999
  endloop
endfacet
facet normal -0.0 -0.0 1.0
  outer loop
    vertex 177.22285077268072 447.79684075464553 6.499999999999999
    vertex 166.38576601503686 456.05453375464555 6.499999999999999
    vertex 166.38576601503686 447.79684075464553 6.499999999999999
  endloop
endfacet
facet normal -0.0 -0.0 1.0
  outer loop
    vertex 166.38576601503686 456.05453375464555 6.499999999999999
    vertex 128.22285077268072 459.0545337546456 6.499999999999999
    vertex 128.22285077268072 456.05453375464555 6.499999999999999
  endloop
endfacet
facet normal -0.0 -0.0 1.0
  outer loop
    vertex 128.22285077268072 459.0545337546456 6.499999999999999
    vertex 166.38576601503686 456.05453375464555 6.499999999999999
    vertex 177.22285077268072 459.0545337546456 6.499999999999999
  endloop
endfacet
facet normal -0.0 -0.0 1.0
  outer loop
    vertex 177.22285077268072 459.0545337546456 6.499999999999999
    vertex 166.38576601503686 456.05453375464555 6.499999999999999
    vertex 177.22285077268072 447.79684075464553 6.499999999999999
  endloop
endfacet
facet normal 0.0 1.0 0.0
  outer loop
    vertex 128.22285077268072 511.0545337546456 6.499999999999999
    vertex 177.22285077268072 511.0545337546456 1.5
    vertex 128.22285077268072 511.0545337546456 1.5
  endloop
endfacet
facet normal 0.0 1.0 0.0
  outer loop
    vertex 177.22285077268072 511.0545337546456 1.5
    vertex 128.22285077268072 511.0545337546456 6.499999999999999
    vertex 177.22285077268072 511.0545337546456 6.499999999999999
  endloop
endfacet
facet normal 0.0 0.0 -1.0
  outer loop
    vertex 177.22285077268072 511.0545337546456 1.5
    vertex 128.22285077268072 456.05453375464555 1.5
    vertex 128.22285077268072 511.0545337546456 1.5
  endloop
endfacet
facet normal 0.0 0.0 -1.0
  outer loop
    vertex 128.22285077268072 456.05453375464555 1.5
    vertex 177.22285077268072 511.0545337546456 1.5
    vertex 166.38576601503686 456.05453375464555 1.5
  endloop
endfacet
facet normal 0.0 0.0 -1.0
  outer loop
    vertex 166.38576601503686 456.05453375464555 1.5
    vertex 177.22285077268072 511.0545337546456 1.5
    vertex 166.38576601503686 447.79684075464553 1.5
  endloop
endfacet
facet normal 0.0 0.0 -1.0
  outer loop
    vertex 166.38576601503686 447.79684075464553 1.5
    vertex 177.22285077268072 511.0545337546456 1.5
    vertex 177.22285077268072 447.79684075464553 1.5
  endloop
endfacet
facet normal 0.0 -1.0 0.0
  outer loop
    vertex 177.22285077268072 459.0545337546456 6.999999999999998
    vertex 128.22285077268072 459.0545337546456 6.499999999999999
    vertex 177.22285077268072 459.0545337546456 6.499999999999999
  endloop
endfacet
facet normal 0.0 -1.0 0.0
  outer loop
    vertex 128.22285077268072 459.0545337546456 6.499999999999999
    vertex 177.22285077268072 459.0545337546456 6.999999999999998
    vertex 128.22285077268072 459.0545337546456 6.999999999999998
  endloop
endfacet
facet normal 0.0 1.0 0.0
  outer loop
    vertex 128.22285077268072 460.89998051297476 6.999999999999998
    vertex 177.22285077268072 460.89998051297476 6.499999999999999
    vertex 128.22285077268072 460.89998051297476 6.499999999999999
  endloop
endfacet
facet normal 0.0 1.0 0.0
  outer loop
    vertex 177.22285077268072 460.89998051297476 6.499999999999999
    vertex 128.22285077268072 460.89998051297476 6.999999999999998
    vertex 177.22285077268072 460.89998051297476 6.999999999999998
  endloop
endfacet
facet normal 0.0 0.0 1.0
  outer loop
    vertex 177.22285077268072 459.0545337546456 6.999999999999998
    vertex 128.22285077268072 460.89998051297476 6.999999999999998
    vertex 128.22285077268072 459.0545337546456 6.999999999999998
  endloop
endfacet
facet normal 0.0 0.0 1.0
  outer loop
    vertex 128.22285077268072 460.89998051297476 6.999999999999998
    vertex 177.22285077268072 459.0545337546456 6.999999999999998
    vertex 177.22285077268072 460.89998051297476 6.999999999999998
  endloop
endfacet
facet normal -1.0 -0.0 -0.0
  outer loop
    vertex 166.38576601503686 456.05453375464555 6.499999999999999
    vertex 166.38576601503686 447.79684075464553 1.5
    vertex 166.38576601503686 447.79684075464553 6.499999999999999
  endloop
endfacet
facet normal -1.0 -0.0 -0.0
  outer loop
    vertex 166.38576601503686 447.79684075464553 1.5
    vertex 166.38576601503686 456.05453375464555 6.499999999999999
    vertex 166.38576601503686 456.05453375464555 1.5
  endloop
endfacet
facet normal 0.0 -1.0 0.0
  outer loop
    vertex 166.38576601503686 456.05453375464555 6.499999999999999
    vertex 128.22285077268072 456.05453375464555 1.5
    vertex 166.38576601503686 456.05453375464555 1.5
  endloop
endfacet
facet normal 0.0 -1.0 0.0
  outer loop
    vertex 128.22285077268072 456.05453375464555 1.5
    vertex 166.38576601503686 456.05453375464555 6.499999999999999
    vertex 128.22285077268072 456.05453375464555 6.499999999999999
  endloop
endfacet
facet normal -0.0 -0.0 1.0
  outer loop
    vertex 177.22285077268072 460.89998051297476 6.499999999999999
    vertex 128.22285077268072 511.0545337546456 6.499999999999999
    vertex 128.22285077268072 460.89998051297476 6.499999999999999
  endloop
endfacet
facet normal -0.0 -0.0 1.0
  outer loop
    vertex 128.22285077268072 511.0545337546456 6.499999999999999
    vertex 177.22285077268072 460.89998051297476 6.499999999999999
    vertex 177.22285077268072 511.0545337546456 6.499999999999999
  endloop
endfacet
facet normal 0.0 -1.0 0.0
  outer loop
    vertex 177.22285077268072 447.79684075464553 6.499999999999999
    vertex 166.38576601503686 447.79684075464553 1.5
    vertex 177.22285077268072 447.79684075464553 1.5
  endloop
endfacet
facet normal 0.0 -1.0 0.0
  outer loop
    vertex 166.38576601503686 447.79684075464553 1.5
    vertex 177.22285077268072 447.79684075464553 6.499999999999999
    vertex 166.38576601503686 447.79684075464553 6.499999999999999
  endloop
endfacet
endsolid AutoSave_AutoSave_update-122021
