solid AutoSave_update-122021_1-1
facet normal 1.578951622906532e-05 -0.9999999986697266 -4.910436206649461e-05
  outer loop
    vertex -28.914666339340357 382.9599836808913 114.52177845430852
    vertex -35.39106330673649 382.95916451858983 129.12135973855806
    vertex -35.39103459396147 382.9598814299131 114.52162075618865
  endloop
endfacet
facet normal 1.578951622906532e-05 -0.9999999986697266 -4.910436206649461e-05
  outer loop
    vertex -35.39106330673649 382.95916451858983 129.12135973855806
    vertex -28.914666339340357 382.9599836808913 114.52177845430852
    vertex -28.9146950521154 382.9592667695678 129.12151743667792
  endloop
endfacet
facet normal 4.639692050946578e-06 -4.170060507716097e-05 0.9999999991197666
  outer loop
    vertex -35.39106330673649 382.95916451858983 129.12135973855806
    vertex -28.914766196898444 387.4592667690055 129.12151743666888
    vertex -35.402407610938475 387.4627145578097 129.12173509721475
  endloop
endfacet
facet normal 4.639692050946578e-06 -4.170060507716097e-05 0.9999999991197666
  outer loop
    vertex -28.914766196898444 387.4592667690055 129.12151743666888
    vertex -35.39106330673649 382.95916451858983 129.12135973855806
    vertex -28.9146950521154 382.9592667695678 129.12151743667792
  endloop
endfacet
facet normal 0.00025224161243440077 0.9999999638579231 9.305010211107201e-05
  outer loop
    vertex -35.40299505241995 387.4631202916868 109.78463842601622
    vertex -28.914766196898444 387.4592667690055 129.12151743666888
    vertex -28.914816614572636 387.4628546064297 109.78451653590436
  endloop
endfacet
facet normal 0.00025224161243440077 0.9999999638579231 9.305010211107201e-05
  outer loop
    vertex -28.914766196898444 387.4592667690055 129.12151743666888
    vertex -35.40299505241995 387.4631202916868 109.78463842601622
    vertex -35.40298146984093 387.46306359692335 110.7846384243167
  endloop
endfacet
facet normal 0.00025224161243440077 0.9999999638579231 9.305010211107201e-05
  outer loop
    vertex -28.914766196898444 387.4592667690055 129.12151743666888
    vertex -35.40298146984093 387.46306359692335 110.7846384243167
    vertex -35.402407610938475 387.4627145578097 129.12173509721475
  endloop
endfacet
facet normal 3.106625326863307e-05 -0.999999999445794 -1.1970798913723685e-05
  outer loop
    vertex -28.914211541112028 358.21607265708775 114.5195410992934
    vertex -43.90314503790713 358.215663702837 109.78336984738901
    vertex -28.914295316175284 358.2161293507342 109.78321250315147
  endloop
endfacet
facet normal 3.106625326863307e-05 -0.999999999445794 -1.1970798913723685e-05
  outer loop
    vertex -43.90314503790713 358.215663702837 109.78336984738901
    vertex -28.914211541112028 358.21607265708775 114.5195410992934
    vertex -43.903061267202816 358.2156070091915 114.5194664153697
  endloop
endfacet
facet normal -1.8752635699267853e-05 -0.00010026316825589983 0.999999994797818
  outer loop
    vertex -43.903061267202816 358.2156070091915 114.5194664153697
    vertex -35.403346349887016 363.59293695797163 114.51931181240931
    vertex -43.903196640157276 363.592802575748 114.51947149472694
  endloop
endfacet
facet normal -1.8752635699267853e-05 -0.00010026316825589983 0.999999994797818
  outer loop
    vertex -35.403346349887016 363.59293695797163 114.51931181240931
    vertex -43.903061267202816 358.2156070091915 114.5194664153697
    vertex -28.914211541112028 358.21607265708775 114.5195410992934
  endloop
endfacet
facet normal -1.8752635699267853e-05 -0.00010026316825589983 0.999999994797818
  outer loop
    vertex -35.403346349887016 363.59293695797163 114.51931181240931
    vertex -28.914211541112028 358.21607265708775 114.5195410992934
    vertex -35.39103459396147 382.9598814299131 114.52162075618865
  endloop
endfacet
facet normal -1.8752635699267853e-05 -0.00010026316825589983 0.999999994797818
  outer loop
    vertex -35.39103459396147 382.9598814299131 114.52162075618865
    vertex -28.914211541112028 358.21607265708775 114.5195410992934
    vertex -28.914666339340357 382.9599836808913 114.52177845430852
  endloop
endfacet
facet normal 0.9999999998442266 1.7547150680061364e-05 -1.909023548089917e-06
  outer loop
    vertex -28.914295316175284 358.2161293507342 109.78321250315147
    vertex -28.914666339340357 382.9599836808913 114.52177845430852
    vertex -28.914211541112028 358.21607265708775 114.5195410992934
  endloop
endfacet
facet normal 0.9999999998442266 1.7547150680061364e-05 -1.909023548089917e-06
  outer loop
    vertex -28.914666339340357 382.9599836808913 114.52177845430852
    vertex -28.914295316175284 358.2161293507342 109.78321250315147
    vertex -28.914816614572636 387.4628546064297 109.78451653590436
  endloop
endfacet
facet normal 0.9999999998442266 1.7547150680061364e-05 -1.909023548089917e-06
  outer loop
    vertex -28.914666339340357 382.9599836808913 114.52177845430852
    vertex -28.914816614572636 387.4628546064297 109.78451653590436
    vertex -28.914766196898444 387.4592667690055 129.12151743666888
  endloop
endfacet
facet normal 0.9999999998442266 1.7547150680061364e-05 -1.909023548089917e-06
  outer loop
    vertex -28.914766196898444 387.4592667690055 129.12151743666888
    vertex -28.9146950521154 382.9592667695678 129.12151743667792
    vertex -28.914666339340357 382.9599836808913 114.52177845430852
  endloop
endfacet
facet normal -0.9999948351906399 1.4126112166821594e-05 0.0032139372268586153
  outer loop
    vertex -35.40298146984093 387.46306359692335 110.7846384243167
    vertex -35.40329512858321 365.59293695891574 110.78317067309223
    vertex -35.39103459396147 382.9598814299131 114.52162075618865
  endloop
endfacet
facet normal -0.9999966758413488 -0.0025783659457159166 1.8311268615381892e-05
  outer loop
    vertex -35.402407610938475 387.4627145578097 129.12173509721475
    vertex -35.39103459396147 382.9598814299131 114.52162075618865
    vertex -35.39106330673649 382.95916451858983 129.12135973855806
  endloop
endfacet
facet normal -0.9999966758413488 -0.0025783659457159166 1.8311268615381892e-05
  outer loop
    vertex -35.39103459396147 382.9598814299131 114.52162075618865
    vertex -35.402407610938475 387.4627145578097 129.12173509721475
    vertex -35.40298146984093 387.46306359692335 110.7846384243167
  endloop
endfacet
facet normal -0.9999997473321881 0.0007105509002534572 -2.1283286618875866e-05
  outer loop
    vertex -35.39103459396147 382.9598814299131 114.52162075618865
    vertex -35.403266832067104 363.59293695922094 110.78315017710213
    vertex -35.403346349887016 363.59293695797163 114.51931181240931
  endloop
endfacet
facet normal -0.9999997473321881 0.0007105509002534572 -2.1283286618875866e-05
  outer loop
    vertex -35.403266832067104 363.59293695922094 110.78315017710213
    vertex -35.39103459396147 382.9598814299131 114.52162075618865
    vertex -35.40329512858321 365.59293695891574 110.78317067309223
  endloop
endfacet
facet normal -1.4148258051760142e-05 0.9999999998474027 1.0247995049199401e-05
  outer loop
    vertex -43.903280412083845 363.59285926939367 109.78330986393087
    vertex -35.403266832067104 363.59293695922094 110.78315017710213
    vertex -35.403280414646154 363.59299365398454 109.78315017880153
  endloop
endfacet
facet normal -1.4148258051760142e-05 0.9999999998474027 1.0247995049199401e-05
  outer loop
    vertex -35.403266832067104 363.59293695922094 110.78315017710213
    vertex -43.903280412083845 363.59285926939367 109.78330986393087
    vertex -43.903196640157276 363.592802575748 114.51947149472694
  endloop
endfacet
facet normal -1.4148258051760142e-05 0.9999999998474027 1.0247995049199401e-05
  outer loop
    vertex -35.403266832067104 363.59293695922094 110.78315017710213
    vertex -43.903196640157276 363.592802575748 114.51947149472694
    vertex -35.403346349887016 363.59293695797163 114.51931181240931
  endloop
endfacet
facet normal -4.0180440219924954e-06 5.150193562349681e-05 -0.9999999986657031
  outer loop
    vertex -35.403280414646154 363.59299365398454 109.78315017880153
    vertex -43.90314503790713 358.215663702837 109.78336984738901
    vertex -43.903280412083845 363.59285926939367 109.78330986393087
  endloop
endfacet
facet normal -4.0180440219924954e-06 5.150193562349681e-05 -0.9999999986657031
  outer loop
    vertex -43.90314503790713 358.215663702837 109.78336984738901
    vertex -35.403280414646154 363.59299365398454 109.78315017880153
    vertex -28.914295316175284 358.2161293507342 109.78321250315147
  endloop
endfacet
facet normal -4.0180440219924954e-06 5.150193562349681e-05 -0.9999999986657031
  outer loop
    vertex -28.914295316175284 358.2161293507342 109.78321250315147
    vertex -35.403280414646154 363.59299365398454 109.78315017880153
    vertex -35.40299505241995 387.4631202916868 109.78463842601622
  endloop
endfacet
facet normal -4.0180440219924954e-06 5.150193562349681e-05 -0.9999999986657031
  outer loop
    vertex -28.914295316175284 358.2161293507342 109.78321250315147
    vertex -35.40299505241995 387.4631202916868 109.78463842601622
    vertex -28.914816614572636 387.4628546064297 109.78451653590436
  endloop
endfacet
facet normal -0.999999999804914 1.4340968864962476e-05 1.3583392118123845e-05
  outer loop
    vertex -35.40329512858321 365.59293695891574 110.78317067309223
    vertex -35.403280414646154 363.59299365398454 109.78315017880153
    vertex -35.403266832067104 363.59293695922094 110.78315017710213
  endloop
endfacet
facet normal -0.999999999804914 1.4340968864962476e-05 1.3583392118123845e-05
  outer loop
    vertex -35.403280414646154 363.59299365398454 109.78315017880153
    vertex -35.40329512858321 365.59293695891574 110.78317067309223
    vertex -35.40299505241995 387.4631202916868 109.78463842601622
  endloop
endfacet
facet normal -0.999999999804914 1.4340968864962476e-05 1.3583392118123845e-05
  outer loop
    vertex -35.40299505241995 387.4631202916868 109.78463842601622
    vertex -35.40329512858321 365.59293695891574 110.78317067309223
    vertex -35.40298146984093 387.46306359692335 110.7846384243167
  endloop
endfacet
facet normal -0.9999999996711066 -1.8572546730881855e-05 1.7687495570571218e-05
  outer loop
    vertex -43.903196640157276 363.592802575748 114.51947149472694
    vertex -43.90314503790713 358.215663702837 109.78336984738901
    vertex -43.903061267202816 358.2156070091915 114.5194664153697
  endloop
endfacet
facet normal -0.9999999996711066 -1.8572546730881855e-05 1.7687495570571218e-05
  outer loop
    vertex -43.90314503790713 358.215663702837 109.78336984738901
    vertex -43.903196640157276 363.592802575748 114.51947149472694
    vertex -43.903280412083845 363.59285926939367 109.78330986393087
  endloop
endfacet
endsolid AutoSave_update-122021_1-1
