solid AutoSave_AutoSave_update-122021
facet normal 0.0 0.0 -1.0
  outer loop
    vertex -560.6166076710477 541.6647050122272 158.97706461604733
    vertex -640.9566076710479 470.664705012227 158.97706461604733
    vertex -640.9566076710479 541.6647050122272 158.97706461604733
  endloop
endfacet
facet normal 0.0 0.0 -1.0
  outer loop
    vertex -640.9566076710479 470.664705012227 158.97706461604733
    vertex -560.6166076710477 541.6647050122272 158.97706461604733
    vertex -560.6166076710477 470.664705012227 158.97706461604733
  endloop
endfacet
facet normal 0.0 0.0 1.0
  outer loop
    vertex -563.7066076710479 473.664705012227 163.47706461604733
    vertex -637.8666076710477 538.6647050122272 163.47706461604733
    vertex -637.8666076710477 473.664705012227 163.47706461604733
  endloop
endfacet
facet normal 0.0 0.0 1.0
  outer loop
    vertex -637.8666076710477 538.6647050122272 163.47706461604733
    vertex -563.7066076710479 473.664705012227 163.47706461604733
    vertex -563.7066076710479 538.6647050122272 163.47706461604733
  endloop
endfacet
facet normal 1.0 0.0 0.0
  outer loop
    vertex -560.6166076710477 470.664705012227 158.97706461604733
    vertex -560.6166076710477 473.952535171371 175.6948264344481
    vertex -560.6166076710477 470.664705012227 181.97706461604733
  endloop
endfacet
facet normal 1.0 0.0 0.0
  outer loop
    vertex -560.6166076710477 473.952535171371 175.6948264344481
    vertex -560.6166076710477 470.664705012227 158.97706461604733
    vertex -560.6166076710477 474.3768177794173 175.0365564326205
  endloop
endfacet
facet normal 1.0 0.0 0.0
  outer loop
    vertex -560.6166076710477 474.3768177794173 175.0365564326205
    vertex -560.6166076710477 470.664705012227 158.97706461604733
    vertex -560.6166076710477 474.95701612146723 174.51052885665203
  endloop
endfacet
facet normal 1.0 0.0 0.0
  outer loop
    vertex -560.6166076710477 474.95701612146723 174.51052885665203
    vertex -560.6166076710477 470.664705012227 158.97706461604733
    vertex -560.6166076710477 475.6535906393331 174.15259161654328
  endloop
endfacet
facet normal 1.0 0.0 0.0
  outer loop
    vertex -560.6166076710477 475.6535906393331 174.15259161654328
    vertex -560.6166076710477 470.664705012227 158.97706461604733
    vertex -560.6166076710477 541.6647050122272 158.97706461604733
  endloop
endfacet
facet normal 1.0 0.0 0.0
  outer loop
    vertex -560.6166076710477 470.664705012227 181.97706461604733
    vertex -560.6166076710477 473.952535171371 175.6948264344481
    vertex -560.6166076710477 473.7130824559063 176.4404788493529
  endloop
endfacet
facet normal 1.0 0.0 0.0
  outer loop
    vertex -560.6166076710477 470.664705012227 181.97706461604733
    vertex -560.6166076710477 473.7130824559063 176.4404788493529
    vertex -560.6166076710477 473.6747779398681 177.22269869750804
  endloop
endfacet
facet normal 1.0 0.0 0.0
  outer loop
    vertex -560.6166076710477 475.6535906393331 174.15259161654328
    vertex -560.6166076710477 541.6647050122272 158.97706461604733
    vertex -560.6166076710477 476.4190709307663 173.98713754368842
  endloop
endfacet
facet normal 1.0 0.0 0.0
  outer loop
    vertex -560.6166076710477 476.4190709307663 173.98713754368842
    vertex -560.6166076710477 541.6647050122272 158.97706461604733
    vertex -560.6166076710477 477.20129077892136 174.02544205972669
  endloop
endfacet
facet normal 1.0 0.0 0.0
  outer loop
    vertex -560.6166076710477 477.20129077892136 174.02544205972669
    vertex -560.6166076710477 541.6647050122272 158.97706461604733
    vertex -560.6166076710477 477.94694319382614 174.26489477519132
  endloop
endfacet
facet normal 1.0 0.0 0.0
  outer loop
    vertex -560.6166076710477 477.94694319382614 174.26489477519132
    vertex -560.6166076710477 541.6647050122272 158.97706461604733
    vertex -560.6166076710477 478.6052131956538 174.6891773832377
  endloop
endfacet
facet normal 1.0 0.0 0.0
  outer loop
    vertex -560.6166076710477 478.6052131956538 174.6891773832377
    vertex -560.6166076710477 541.6647050122272 158.97706461604733
    vertex -560.6166076710477 479.1312407716223 175.26937572528763
  endloop
endfacet
facet normal 1.0 0.0 0.0
  outer loop
    vertex -560.6166076710477 479.1312407716223 175.26937572528763
    vertex -560.6166076710477 541.6647050122272 158.97706461604733
    vertex -560.6166076710477 479.489178011731 175.96595024315351
  endloop
endfacet
facet normal 1.0 0.0 0.0
  outer loop
    vertex -560.6166076710477 479.489178011731 175.96595024315351
    vertex -560.6166076710477 541.6647050122272 158.97706461604733
    vertex -560.6166076710477 479.65463208458584 176.73143053458662
  endloop
endfacet
facet normal 1.0 0.0 0.0
  outer loop
    vertex -560.6166076710477 479.65463208458584 176.73143053458662
    vertex -560.6166076710477 541.6647050122272 158.97706461604733
    vertex -560.6166076710477 520.8647050122271 169.07706461604732
  endloop
endfacet
facet normal 1.0 0.0 0.0
  outer loop
    vertex -560.6166076710477 520.8647050122271 169.07706461604732
    vertex -560.6166076710477 541.6647050122272 158.97706461604733
    vertex -560.6166076710477 528.8647050122271 169.07706461604732
  endloop
endfacet
facet normal 1.0 0.0 0.0
  outer loop
    vertex -560.6166076710477 528.8647050122271 169.07706461604732
    vertex -560.6166076710477 541.6647050122272 158.97706461604733
    vertex -560.6166076710477 528.8647050122271 177.07706461604732
  endloop
endfacet
facet normal 1.0 0.0 0.0
  outer loop
    vertex -560.6166076710477 470.664705012227 181.97706461604733
    vertex -560.6166076710477 476.91033909368764 179.96699168840624
    vertex -560.6166076710477 541.6647050122272 181.97706461604733
  endloop
endfacet
facet normal 1.0 0.0 0.0
  outer loop
    vertex -560.6166076710477 476.91033909368764 179.96699168840624
    vertex -560.6166076710477 470.664705012227 181.97706461604733
    vertex -560.6166076710477 476.12811924553256 179.92868717236797
  endloop
endfacet
facet normal 1.0 0.0 0.0
  outer loop
    vertex -560.6166076710477 476.12811924553256 179.92868717236797
    vertex -560.6166076710477 470.664705012227 181.97706461604733
    vertex -560.6166076710477 475.3824668306278 179.68923445690334
  endloop
endfacet
facet normal 1.0 0.0 0.0
  outer loop
    vertex -560.6166076710477 475.3824668306278 179.68923445690334
    vertex -560.6166076710477 470.664705012227 181.97706461604733
    vertex -560.6166076710477 474.72419682880013 179.26495184885695
  endloop
endfacet
facet normal 1.0 0.0 0.0
  outer loop
    vertex -560.6166076710477 474.72419682880013 179.26495184885695
    vertex -560.6166076710477 470.664705012227 181.97706461604733
    vertex -560.6166076710477 474.19816925283163 178.68475350680703
  endloop
endfacet
facet normal 1.0 0.0 0.0
  outer loop
    vertex -560.6166076710477 474.19816925283163 178.68475350680703
    vertex -560.6166076710477 470.664705012227 181.97706461604733
    vertex -560.6166076710477 473.84023201272294 177.98817898894114
  endloop
endfacet
facet normal 1.0 0.0 0.0
  outer loop
    vertex -560.6166076710477 473.84023201272294 177.98817898894114
    vertex -560.6166076710477 470.664705012227 181.97706461604733
    vertex -560.6166076710477 473.6747779398681 177.22269869750804
  endloop
endfacet
facet normal 1.0 0.0 0.0
  outer loop
    vertex -560.6166076710477 541.6647050122272 181.97706461604733
    vertex -560.6166076710477 476.91033909368764 179.96699168840624
    vertex -560.6166076710477 477.6758193851208 179.80153761555138
  endloop
endfacet
facet normal 1.0 0.0 0.0
  outer loop
    vertex -560.6166076710477 541.6647050122272 181.97706461604733
    vertex -560.6166076710477 477.6758193851208 179.80153761555138
    vertex -560.6166076710477 478.3723939029867 179.44360037544263
  endloop
endfacet
facet normal 1.0 0.0 0.0
  outer loop
    vertex -560.6166076710477 541.6647050122272 181.97706461604733
    vertex -560.6166076710477 478.3723939029867 179.44360037544263
    vertex -560.6166076710477 478.9525922450366 178.91757279947416
  endloop
endfacet
facet normal 1.0 0.0 0.0
  outer loop
    vertex -560.6166076710477 541.6647050122272 181.97706461604733
    vertex -560.6166076710477 478.9525922450366 178.91757279947416
    vertex -560.6166076710477 479.37687485308294 178.25930279764657
  endloop
endfacet
facet normal 1.0 0.0 0.0
  outer loop
    vertex -560.6166076710477 541.6647050122272 181.97706461604733
    vertex -560.6166076710477 479.37687485308294 178.25930279764657
    vertex -560.6166076710477 479.6163275685476 177.51365038274176
  endloop
endfacet
facet normal 1.0 0.0 0.0
  outer loop
    vertex -560.6166076710477 541.6647050122272 181.97706461604733
    vertex -560.6166076710477 479.6163275685476 177.51365038274176
    vertex -560.6166076710477 479.65463208458584 176.73143053458662
  endloop
endfacet
facet normal 1.0 0.0 0.0
  outer loop
    vertex -560.6166076710477 541.6647050122272 181.97706461604733
    vertex -560.6166076710477 479.65463208458584 176.73143053458662
    vertex -560.6166076710477 520.8647050122271 177.07706461604732
  endloop
endfacet
facet normal 1.0 0.0 0.0
  outer loop
    vertex -560.6166076710477 520.8647050122271 177.07706461604732
    vertex -560.6166076710477 479.65463208458584 176.73143053458662
    vertex -560.6166076710477 520.8647050122271 169.07706461604732
  endloop
endfacet
facet normal 1.0 0.0 0.0
  outer loop
    vertex -560.6166076710477 541.6647050122272 181.97706461604733
    vertex -560.6166076710477 520.8647050122271 177.07706461604732
    vertex -560.6166076710477 528.8647050122271 177.07706461604732
  endloop
endfacet
facet normal 1.0 0.0 0.0
  outer loop
    vertex -560.6166076710477 541.6647050122272 181.97706461604733
    vertex -560.6166076710477 528.8647050122271 177.07706461604732
    vertex -560.6166076710477 541.6647050122272 158.97706461604733
  endloop
endfacet
facet normal -1.0 0.0 0.0
  outer loop
    vertex -640.9566076710479 470.664705012227 181.97706461604733
    vertex -640.9566076710479 473.7176493151455 177.817185668454
    vertex -640.9566076710479 470.664705012227 158.97706461604733
  endloop
endfacet
facet normal -1.0 0.0 0.0
  outer loop
    vertex -640.9566076710479 473.7176493151455 177.817185668454
    vertex -640.9566076710479 470.664705012227 181.97706461604733
    vertex -640.9566076710479 474.03569814309134 178.53285323781776
  endloop
endfacet
facet normal -1.0 0.0 0.0
  outer loop
    vertex -640.9566076710479 474.03569814309134 178.53285323781776
    vertex -640.9566076710479 470.664705012227 181.97706461604733
    vertex -640.9566076710479 474.52813811693875 179.14181793215886
  endloop
endfacet
facet normal -1.0 0.0 0.0
  outer loop
    vertex -640.9566076710479 474.52813811693875 179.14181793215886
    vertex -640.9566076710479 470.664705012227 181.97706461604733
    vertex -640.9566076710479 475.16141026626553 179.60257981391965
  endloop
endfacet
facet normal -1.0 0.0 0.0
  outer loop
    vertex -640.9566076710479 475.16141026626553 179.60257981391965
    vertex -640.9566076710479 470.664705012227 181.97706461604733
    vertex -640.9566076710479 475.89235814062687 179.88373872230315
  endloop
endfacet
facet normal -1.0 0.0 0.0
  outer loop
    vertex -640.9566076710479 475.89235814062687 179.88373872230315
    vertex -640.9566076710479 470.664705012227 181.97706461604733
    vertex -640.9566076710479 476.6711688503335 179.96613414234014
  endloop
endfacet
facet normal -1.0 0.0 0.0
  outer loop
    vertex -640.9566076710479 476.6711688503335 179.96613414234014
    vertex -640.9566076710479 470.664705012227 181.97706461604733
    vertex -640.9566076710479 541.6647050122272 181.97706461604733
  endloop
endfacet
facet normal -1.0 0.0 0.0
  outer loop
    vertex -640.9566076710479 470.664705012227 158.97706461604733
    vertex -640.9566076710479 473.7176493151455 177.817185668454
    vertex -640.9566076710479 473.5956661351252 177.04358678622305
  endloop
endfacet
facet normal -1.0 0.0 0.0
  outer loop
    vertex -640.9566076710479 476.6711688503335 179.96613414234014
    vertex -640.9566076710479 541.6647050122272 181.97706461604733
    vertex -640.9566076710479 477.4447677325644 179.84415096231987
  endloop
endfacet
facet normal -1.0 0.0 0.0
  outer loop
    vertex -640.9566076710479 477.4447677325644 179.84415096231987
    vertex -640.9566076710479 541.6647050122272 181.97706461604733
    vertex -640.9566076710479 478.1604353019282 179.52610213437407
  endloop
endfacet
facet normal -1.0 0.0 0.0
  outer loop
    vertex -640.9566076710479 478.1604353019282 179.52610213437407
    vertex -640.9566076710479 541.6647050122272 181.97706461604733
    vertex -640.9566076710479 478.7693999962693 179.03366216052663
  endloop
endfacet
facet normal -1.0 0.0 0.0
  outer loop
    vertex -640.9566076710479 478.7693999962693 179.03366216052663
    vertex -640.9566076710479 541.6647050122272 181.97706461604733
    vertex -640.9566076710479 479.2301618780301 178.40039001119982
  endloop
endfacet
facet normal -1.0 0.0 0.0
  outer loop
    vertex -640.9566076710479 479.2301618780301 178.40039001119982
    vertex -640.9566076710479 541.6647050122272 181.97706461604733
    vertex -640.9566076710479 479.5113207864136 177.66944213683846
  endloop
endfacet
facet normal -1.0 0.0 0.0
  outer loop
    vertex -640.9566076710479 479.5113207864136 177.66944213683846
    vertex -640.9566076710479 541.6647050122272 181.97706461604733
    vertex -640.9566076710479 479.5937162064506 176.89063142713186
  endloop
endfacet
facet normal -1.0 0.0 0.0
  outer loop
    vertex -640.9566076710479 470.664705012227 158.97706461604733
    vertex -640.9566076710479 475.7446146090114 174.09006725103504
    vertex -640.9566076710479 541.6647050122272 158.97706461604733
  endloop
endfacet
facet normal -1.0 0.0 0.0
  outer loop
    vertex -640.9566076710479 475.7446146090114 174.09006725103504
    vertex -640.9566076710479 470.664705012227 158.97706461604733
    vertex -640.9566076710479 475.0289470396476 174.40811607898087
  endloop
endfacet
facet normal -1.0 0.0 0.0
  outer loop
    vertex -640.9566076710479 475.0289470396476 174.40811607898087
    vertex -640.9566076710479 470.664705012227 158.97706461604733
    vertex -640.9566076710479 474.41998234530655 174.90055605282828
  endloop
endfacet
facet normal -1.0 0.0 0.0
  outer loop
    vertex -640.9566076710479 474.41998234530655 174.90055605282828
    vertex -640.9566076710479 470.664705012227 158.97706461604733
    vertex -640.9566076710479 473.9592204635457 175.5338282021551
  endloop
endfacet
facet normal -1.0 0.0 0.0
  outer loop
    vertex -640.9566076710479 473.9592204635457 175.5338282021551
    vertex -640.9566076710479 470.664705012227 158.97706461604733
    vertex -640.9566076710479 473.67806155516223 176.26477607651645
  endloop
endfacet
facet normal -1.0 0.0 0.0
  outer loop
    vertex -640.9566076710479 473.67806155516223 176.26477607651645
    vertex -640.9566076710479 470.664705012227 158.97706461604733
    vertex -640.9566076710479 473.5956661351252 177.04358678622305
  endloop
endfacet
facet normal -1.0 0.0 0.0
  outer loop
    vertex -640.9566076710479 541.6647050122272 158.97706461604733
    vertex -640.9566076710479 475.7446146090114 174.09006725103504
    vertex -640.9566076710479 476.5182134912423 173.96808407101477
  endloop
endfacet
facet normal -1.0 0.0 0.0
  outer loop
    vertex -640.9566076710479 541.6647050122272 158.97706461604733
    vertex -640.9566076710479 476.5182134912423 173.96808407101477
    vertex -640.9566076710479 477.29702420094895 174.05047949105176
  endloop
endfacet
facet normal -1.0 0.0 0.0
  outer loop
    vertex -640.9566076710479 541.6647050122272 158.97706461604733
    vertex -640.9566076710479 477.29702420094895 174.05047949105176
    vertex -640.9566076710479 478.0279720753103 174.33163839943526
  endloop
endfacet
facet normal -1.0 0.0 0.0
  outer loop
    vertex -640.9566076710479 541.6647050122272 158.97706461604733
    vertex -640.9566076710479 478.0279720753103 174.33163839943526
    vertex -640.9566076710479 478.66124422463713 174.79240028119605
  endloop
endfacet
facet normal -1.0 0.0 0.0
  outer loop
    vertex -640.9566076710479 541.6647050122272 158.97706461604733
    vertex -640.9566076710479 478.66124422463713 174.79240028119605
    vertex -640.9566076710479 479.15368419848454 175.40136497553715
  endloop
endfacet
facet normal -1.0 0.0 0.0
  outer loop
    vertex -640.9566076710479 541.6647050122272 158.97706461604733
    vertex -640.9566076710479 479.15368419848454 175.40136497553715
    vertex -640.9566076710479 479.47173302643034 176.11703254490092
  endloop
endfacet
facet normal -1.0 0.0 0.0
  outer loop
    vertex -640.9566076710479 541.6647050122272 158.97706461604733
    vertex -640.9566076710479 479.47173302643034 176.11703254490092
    vertex -640.9566076710479 479.5937162064506 176.89063142713186
  endloop
endfacet
facet normal -1.0 0.0 0.0
  outer loop
    vertex -640.9566076710479 541.6647050122272 158.97706461604733
    vertex -640.9566076710479 479.5937162064506 176.89063142713186
    vertex -640.9566076710479 541.6647050122272 181.97706461604733
  endloop
endfacet
facet normal 0.0 1.0 0.0
  outer loop
    vertex -640.9566076710479 541.6647050122272 181.97706461604733
    vertex -560.6166076710477 541.6647050122272 158.97706461604733
    vertex -640.9566076710479 541.6647050122272 158.97706461604733
  endloop
endfacet
facet normal 0.0 1.0 0.0
  outer loop
    vertex -560.6166076710477 541.6647050122272 158.97706461604733
    vertex -640.9566076710479 541.6647050122272 181.97706461604733
    vertex -560.6166076710477 541.6647050122272 181.97706461604733
  endloop
endfacet
facet normal 0.0 0.0 1.0
  outer loop
    vertex -640.9566076710479 470.664705012227 181.97706461604733
    vertex -637.8666076710477 473.664705012227 181.97706461604733
    vertex -640.9566076710479 541.6647050122272 181.97706461604733
  endloop
endfacet
facet normal 0.0 0.0 1.0
  outer loop
    vertex -637.8666076710477 473.664705012227 181.97706461604733
    vertex -640.9566076710479 470.664705012227 181.97706461604733
    vertex -560.6166076710477 470.664705012227 181.97706461604733
  endloop
endfacet
facet normal 0.0 0.0 1.0
  outer loop
    vertex -637.8666076710477 473.664705012227 181.97706461604733
    vertex -560.6166076710477 470.664705012227 181.97706461604733
    vertex -563.7066076710479 473.664705012227 181.97706461604733
  endloop
endfacet
facet normal 0.0 0.0 1.0
  outer loop
    vertex -563.7066076710479 473.664705012227 181.97706461604733
    vertex -560.6166076710477 470.664705012227 181.97706461604733
    vertex -563.7066076710479 538.6647050122272 181.97706461604733
  endloop
endfacet
facet normal 0.0 0.0 1.0
  outer loop
    vertex -640.9566076710479 541.6647050122272 181.97706461604733
    vertex -637.8666076710477 538.6647050122272 181.97706461604733
    vertex -560.6166076710477 541.6647050122272 181.97706461604733
  endloop
endfacet
facet normal 0.0 0.0 1.0
  outer loop
    vertex -637.8666076710477 538.6647050122272 181.97706461604733
    vertex -640.9566076710479 541.6647050122272 181.97706461604733
    vertex -637.8666076710477 473.664705012227 181.97706461604733
  endloop
endfacet
facet normal 0.0 0.0 1.0
  outer loop
    vertex -560.6166076710477 541.6647050122272 181.97706461604733
    vertex -637.8666076710477 538.6647050122272 181.97706461604733
    vertex -563.7066076710479 538.6647050122272 181.97706461604733
  endloop
endfacet
facet normal 0.0 0.0 1.0
  outer loop
    vertex -560.6166076710477 541.6647050122272 181.97706461604733
    vertex -563.7066076710479 538.6647050122272 181.97706461604733
    vertex -560.6166076710477 470.664705012227 181.97706461604733
  endloop
endfacet
facet normal 0.0 -1.0 0.0
  outer loop
    vertex -560.6166076710477 470.664705012227 181.97706461604733
    vertex -640.9566076710479 470.664705012227 158.97706461604733
    vertex -560.6166076710477 470.664705012227 158.97706461604733
  endloop
endfacet
facet normal 0.0 -1.0 0.0
  outer loop
    vertex -640.9566076710479 470.664705012227 158.97706461604733
    vertex -560.6166076710477 470.664705012227 181.97706461604733
    vertex -640.9566076710479 470.664705012227 181.97706461604733
  endloop
endfacet
facet normal 1.0 0.0 0.0
  outer loop
    vertex -637.8666076710477 473.664705012227 163.47706461604733
    vertex -637.8666076710477 473.69478850544687 177.11484508204572
    vertex -637.8666076710477 473.664705012227 181.97706461604733
  endloop
endfacet
facet normal 1.0 0.0 0.0
  outer loop
    vertex -637.8666076710477 473.69478850544687 177.11484508204572
    vertex -637.8666076710477 473.664705012227 163.47706461604733
    vertex -637.8666076710477 473.76198485026754 176.33457603995862
  endloop
endfacet
facet normal 1.0 0.0 0.0
  outer loop
    vertex -637.8666076710477 473.76198485026754 176.33457603995862
    vertex -637.8666076710477 473.664705012227 163.47706461604733
    vertex -637.8666076710477 474.02884002355813 175.59828571455373
  endloop
endfacet
facet normal 1.0 0.0 0.0
  outer loop
    vertex -637.8666076710477 474.02884002355813 175.59828571455373
    vertex -637.8666076710477 473.664705012227 163.47706461604733
    vertex -637.8666076710477 474.4771682862578 174.9561510747301
  endloop
endfacet
facet normal 1.0 0.0 0.0
  outer loop
    vertex -637.8666076710477 474.4771682862578 174.9561510747301
    vertex -637.8666076710477 473.664705012227 163.47706461604733
    vertex -637.8666076710477 475.0764168081611 174.45193253501404
  endloop
endfacet
facet normal 1.0 0.0 0.0
  outer loop
    vertex -637.8666076710477 475.0764168081611 174.45193253501404
    vertex -637.8666076710477 473.664705012227 163.47706461604733
    vertex -637.8666076710477 475.78574779280547 174.11999175562661
  endloop
endfacet
facet normal 1.0 0.0 0.0
  outer loop
    vertex -637.8666076710477 475.78574779280547 174.11999175562661
    vertex -637.8666076710477 473.664705012227 163.47706461604733
    vertex -637.8666076710477 476.5568215058121 173.98294995212507
  endloop
endfacet
facet normal 1.0 0.0 0.0
  outer loop
    vertex -637.8666076710477 476.5568215058121 173.98294995212507
    vertex -637.8666076710477 473.664705012227 163.47706461604733
    vertex -637.8666076710477 538.6647050122272 163.47706461604733
  endloop
endfacet
facet normal 1.0 0.0 0.0
  outer loop
    vertex -637.8666076710477 476.5568215058121 173.98294995212507
    vertex -637.8666076710477 538.6647050122272 163.47706461604733
    vertex -637.8666076710477 477.33709054789915 174.05014629694574
  endloop
endfacet
facet normal 1.0 0.0 0.0
  outer loop
    vertex -637.8666076710477 477.33709054789915 174.05014629694574
    vertex -637.8666076710477 538.6647050122272 163.47706461604733
    vertex -637.8666076710477 478.073380873304 174.31700147023628
  endloop
endfacet
facet normal 1.0 0.0 0.0
  outer loop
    vertex -637.8666076710477 478.073380873304 174.31700147023628
    vertex -637.8666076710477 538.6647050122272 163.47706461604733
    vertex -637.8666076710477 478.7155155131277 174.76532973293595
  endloop
endfacet
facet normal 1.0 0.0 0.0
  outer loop
    vertex -637.8666076710477 478.7155155131277 174.76532973293595
    vertex -637.8666076710477 538.6647050122272 163.47706461604733
    vertex -637.8666076710477 479.2197340528438 175.3645782548393
  endloop
endfacet
facet normal 1.0 0.0 0.0
  outer loop
    vertex -637.8666076710477 479.2197340528438 175.3645782548393
    vertex -637.8666076710477 538.6647050122272 163.47706461604733
    vertex -637.8666076710477 479.55167483223113 176.07390923948358
  endloop
endfacet
facet normal 1.0 0.0 0.0
  outer loop
    vertex -637.8666076710477 479.55167483223113 176.07390923948358
    vertex -637.8666076710477 538.6647050122272 163.47706461604733
    vertex -637.8666076710477 479.6887166357327 176.8449829524902
  endloop
endfacet
facet normal 1.0 0.0 0.0
  outer loop
    vertex -637.8666076710477 473.664705012227 181.97706461604733
    vertex -637.8666076710477 476.82668363536754 179.97687808241085
    vertex -637.8666076710477 538.6647050122272 181.97706461604733
  endloop
endfacet
facet normal 1.0 0.0 0.0
  outer loop
    vertex -637.8666076710477 476.82668363536754 179.97687808241085
    vertex -637.8666076710477 473.664705012227 181.97706461604733
    vertex -637.8666076710477 476.0464145932805 179.9096817375902
  endloop
endfacet
facet normal 1.0 0.0 0.0
  outer loop
    vertex -637.8666076710477 476.0464145932805 179.9096817375902
    vertex -637.8666076710477 473.664705012227 181.97706461604733
    vertex -637.8666076710477 475.3101242678756 179.64282656429967
  endloop
endfacet
facet normal 1.0 0.0 0.0
  outer loop
    vertex -637.8666076710477 475.3101242678756 179.64282656429967
    vertex -637.8666076710477 473.664705012227 181.97706461604733
    vertex -637.8666076710477 474.66798962805194 179.19449830159996
  endloop
endfacet
facet normal 1.0 0.0 0.0
  outer loop
    vertex -637.8666076710477 474.66798962805194 179.19449830159996
    vertex -637.8666076710477 473.664705012227 181.97706461604733
    vertex -637.8666076710477 474.1637710883358 178.59524977969662
  endloop
endfacet
facet normal 1.0 0.0 0.0
  outer loop
    vertex -637.8666076710477 474.1637710883358 178.59524977969662
    vertex -637.8666076710477 473.664705012227 181.97706461604733
    vertex -637.8666076710477 473.8318303089485 177.8859187950523
  endloop
endfacet
facet normal 1.0 0.0 0.0
  outer loop
    vertex -637.8666076710477 473.8318303089485 177.8859187950523
    vertex -637.8666076710477 473.664705012227 181.97706461604733
    vertex -637.8666076710477 473.69478850544687 177.11484508204572
  endloop
endfacet
facet normal 1.0 0.0 0.0
  outer loop
    vertex -637.8666076710477 538.6647050122272 181.97706461604733
    vertex -637.8666076710477 476.82668363536754 179.97687808241085
    vertex -637.8666076710477 477.59775734837416 179.8398362789093
  endloop
endfacet
facet normal 1.0 0.0 0.0
  outer loop
    vertex -637.8666076710477 538.6647050122272 181.97706461604733
    vertex -637.8666076710477 477.59775734837416 179.8398362789093
    vertex -637.8666076710477 478.3070883330185 179.5078954995219
  endloop
endfacet
facet normal 1.0 0.0 0.0
  outer loop
    vertex -637.8666076710477 538.6647050122272 181.97706461604733
    vertex -637.8666076710477 478.3070883330185 179.5078954995219
    vertex -637.8666076710477 478.90633685492185 179.00367695980583
  endloop
endfacet
facet normal 1.0 0.0 0.0
  outer loop
    vertex -637.8666076710477 538.6647050122272 181.97706461604733
    vertex -637.8666076710477 478.90633685492185 179.00367695980583
    vertex -637.8666076710477 479.3546651176215 178.3615423199822
  endloop
endfacet
facet normal 1.0 0.0 0.0
  outer loop
    vertex -637.8666076710477 538.6647050122272 181.97706461604733
    vertex -637.8666076710477 479.3546651176215 178.3615423199822
    vertex -637.8666076710477 479.6215202909121 177.62525199457733
  endloop
endfacet
facet normal 1.0 0.0 0.0
  outer loop
    vertex -637.8666076710477 538.6647050122272 181.97706461604733
    vertex -637.8666076710477 479.6215202909121 177.62525199457733
    vertex -637.8666076710477 479.6887166357327 176.8449829524902
  endloop
endfacet
facet normal 1.0 0.0 0.0
  outer loop
    vertex -637.8666076710477 538.6647050122272 181.97706461604733
    vertex -637.8666076710477 479.6887166357327 176.8449829524902
    vertex -637.8666076710477 538.6647050122272 163.47706461604733
  endloop
endfacet
facet normal 0.0 -1.0 0.0
  outer loop
    vertex -563.7066076710479 538.6647050122272 181.97706461604733
    vertex -637.8666076710477 538.6647050122272 163.47706461604733
    vertex -563.7066076710479 538.6647050122272 163.47706461604733
  endloop
endfacet
facet normal 0.0 -1.0 0.0
  outer loop
    vertex -637.8666076710477 538.6647050122272 163.47706461604733
    vertex -563.7066076710479 538.6647050122272 181.97706461604733
    vertex -637.8666076710477 538.6647050122272 181.97706461604733
  endloop
endfacet
facet normal -1.0 0.0 0.0
  outer loop
    vertex -563.7066076710479 473.664705012227 181.97706461604733
    vertex -563.7066076710479 473.73004012512246 177.72992818571132
    vertex -563.7066076710479 473.664705012227 177.26699907634847
  endloop
endfacet
facet normal -1.0 0.0 0.0
  outer loop
    vertex -563.7066076710479 473.73004012512246 177.72992818571132
    vertex -563.7066076710479 473.664705012227 181.97706461604733
    vertex -563.7066076710479 474.0364633636308 178.45064999452444
  endloop
endfacet
facet normal -1.0 0.0 0.0
  outer loop
    vertex -563.7066076710479 474.0364633636308 178.45064999452444
    vertex -563.7066076710479 473.664705012227 181.97706461604733
    vertex -563.7066076710479 474.5189820138228 179.06750563323882
  endloop
endfacet
facet normal -1.0 0.0 0.0
  outer loop
    vertex -563.7066076710479 474.5189820138228 179.06750563323882
    vertex -563.7066076710479 473.664705012227 181.97706461604733
    vertex -563.7066076710479 475.14471322708744 179.53845740947827
  endloop
endfacet
facet normal -1.0 0.0 0.0
  outer loop
    vertex -563.7066076710479 475.14471322708744 179.53845740947827
    vertex -563.7066076710479 473.664705012227 181.97706461604733
    vertex -563.7066076710479 475.87101445531056 179.83141073797665
  endloop
endfacet
facet normal -1.0 0.0 0.0
  outer loop
    vertex -563.7066076710479 475.87101445531056 179.83141073797665
    vertex -563.7066076710479 473.664705012227 181.97706461604733
    vertex -563.7066076710479 476.64838947005836 179.9264013335251
  endloop
endfacet
facet normal -1.0 0.0 0.0
  outer loop
    vertex -563.7066076710479 476.64838947005836 179.9264013335251
    vertex -563.7066076710479 473.664705012227 181.97706461604733
    vertex -563.7066076710479 538.6647050122272 181.97706461604733
  endloop
endfacet
facet normal -1.0 0.0 0.0
  outer loop
    vertex -563.7066076710479 476.64838947005836 179.9264013335251
    vertex -563.7066076710479 538.6647050122272 181.97706461604733
    vertex -563.7066076710479 477.4238614487487 179.81695574401633
  endloop
endfacet
facet normal -1.0 0.0 0.0
  outer loop
    vertex -563.7066076710479 477.4238614487487 179.81695574401633
    vertex -563.7066076710479 538.6647050122272 181.97706461604733
    vertex -563.7066076710479 478.1445832575618 179.51053250550797
  endloop
endfacet
facet normal -1.0 0.0 0.0
  outer loop
    vertex -563.7066076710479 478.1445832575618 179.51053250550797
    vertex -563.7066076710479 538.6647050122272 181.97706461604733
    vertex -563.7066076710479 478.76143889627616 179.02801385531606
  endloop
endfacet
facet normal -1.0 0.0 0.0
  outer loop
    vertex -563.7066076710479 478.76143889627616 179.02801385531606
    vertex -563.7066076710479 538.6647050122272 181.97706461604733
    vertex -563.7066076710479 479.23239067251563 178.40228264205138
  endloop
endfacet
facet normal -1.0 0.0 0.0
  outer loop
    vertex -563.7066076710479 479.23239067251563 178.40228264205138
    vertex -563.7066076710479 538.6647050122272 181.97706461604733
    vertex -563.7066076710479 479.52534400101405 177.6759814138282
  endloop
endfacet
facet normal -1.0 0.0 0.0
  outer loop
    vertex -563.7066076710479 479.52534400101405 177.6759814138282
    vertex -563.7066076710479 538.6647050122272 181.97706461604733
    vertex -563.7066076710479 479.6203345965625 176.89860639908042
  endloop
endfacet
facet normal -1.0 0.0 0.0
  outer loop
    vertex -563.7066076710479 479.6203345965625 176.89860639908042
    vertex -563.7066076710479 538.6647050122272 181.97706461604733
    vertex -563.7066076710479 520.8647050122271 177.07706461604732
  endloop
endfacet
facet normal -1.0 0.0 0.0
  outer loop
    vertex -563.7066076710479 520.8647050122271 177.07706461604732
    vertex -563.7066076710479 538.6647050122272 181.97706461604733
    vertex -563.7066076710479 528.8647050122271 177.07706461604732
  endloop
endfacet
facet normal -1.0 0.0 0.0
  outer loop
    vertex -563.7066076710479 528.8647050122271 177.07706461604732
    vertex -563.7066076710479 538.6647050122272 181.97706461604733
    vertex -563.7066076710479 528.8647050122271 169.07706461604732
  endloop
endfacet
facet normal -1.0 0.0 0.0
  outer loop
    vertex -563.7066076710479 473.7155851311621 176.17708119227325
    vertex -563.7066076710479 473.664705012227 163.47706461604733
    vertex -563.7066076710479 473.664705012227 176.59346907761258
  endloop
endfacet
facet normal -1.0 0.0 0.0
  outer loop
    vertex -563.7066076710479 473.664705012227 163.47706461604733
    vertex -563.7066076710479 473.7155851311621 176.17708119227325
    vertex -563.7066076710479 474.00853845966054 175.45077996405007
  endloop
endfacet
facet normal -1.0 0.0 0.0
  outer loop
    vertex -563.7066076710479 473.664705012227 163.47706461604733
    vertex -563.7066076710479 474.00853845966054 175.45077996405007
    vertex -563.7066076710479 474.47949023589996 174.82504875078538
  endloop
endfacet
facet normal -1.0 0.0 0.0
  outer loop
    vertex -563.7066076710479 473.664705012227 163.47706461604733
    vertex -563.7066076710479 474.47949023589996 174.82504875078538
    vertex -563.7066076710479 475.0963458746143 174.34253010059348
  endloop
endfacet
facet normal -1.0 0.0 0.0
  outer loop
    vertex -563.7066076710479 473.664705012227 163.47706461604733
    vertex -563.7066076710479 475.0963458746143 174.34253010059348
    vertex -563.7066076710479 475.81706768342747 174.03610686208512
  endloop
endfacet
facet normal -1.0 0.0 0.0
  outer loop
    vertex -563.7066076710479 473.664705012227 163.47706461604733
    vertex -563.7066076710479 475.81706768342747 174.03610686208512
    vertex -563.7066076710479 538.6647050122272 163.47706461604733
  endloop
endfacet
facet normal -1.0 0.0 0.0
  outer loop
    vertex -563.7066076710479 538.6647050122272 163.47706461604733
    vertex -563.7066076710479 475.81706768342747 174.03610686208512
    vertex -563.7066076710479 476.5925396621178 173.92666127257633
  endloop
endfacet
facet normal -1.0 0.0 0.0
  outer loop
    vertex -563.7066076710479 538.6647050122272 163.47706461604733
    vertex -563.7066076710479 476.5925396621178 173.92666127257633
    vertex -563.7066076710479 477.36991467686556 174.02165186812476
  endloop
endfacet
facet normal -1.0 0.0 0.0
  outer loop
    vertex -563.7066076710479 538.6647050122272 163.47706461604733
    vertex -563.7066076710479 477.36991467686556 174.02165186812476
    vertex -563.7066076710479 478.09621590508874 174.31460519662318
  endloop
endfacet
facet normal -1.0 0.0 0.0
  outer loop
    vertex -563.7066076710479 538.6647050122272 163.47706461604733
    vertex -563.7066076710479 478.09621590508874 174.31460519662318
    vertex -563.7066076710479 478.7219471183534 174.78555697286262
  endloop
endfacet
facet normal -1.0 0.0 0.0
  outer loop
    vertex -563.7066076710479 538.6647050122272 163.47706461604733
    vertex -563.7066076710479 478.7219471183534 174.78555697286262
    vertex -563.7066076710479 479.20446576854533 175.402412611577
  endloop
endfacet
facet normal -1.0 0.0 0.0
  outer loop
    vertex -563.7066076710479 538.6647050122272 163.47706461604733
    vertex -563.7066076710479 479.20446576854533 175.402412611577
    vertex -563.7066076710479 479.51088900705366 176.12313442039013
  endloop
endfacet
facet normal -1.0 0.0 0.0
  outer loop
    vertex -563.7066076710479 538.6647050122272 163.47706461604733
    vertex -563.7066076710479 479.51088900705366 176.12313442039013
    vertex -563.7066076710479 479.6203345965625 176.89860639908042
  endloop
endfacet
facet normal -1.0 0.0 0.0
  outer loop
    vertex -563.7066076710479 538.6647050122272 163.47706461604733
    vertex -563.7066076710479 479.6203345965625 176.89860639908042
    vertex -563.7066076710479 520.8647050122271 169.07706461604732
  endloop
endfacet
facet normal -1.0 0.0 0.0
  outer loop
    vertex -563.7066076710479 520.8647050122271 169.07706461604732
    vertex -563.7066076710479 479.6203345965625 176.89860639908042
    vertex -563.7066076710479 520.8647050122271 177.07706461604732
  endloop
endfacet
facet normal -1.0 0.0 0.0
  outer loop
    vertex -563.7066076710479 538.6647050122272 163.47706461604733
    vertex -563.7066076710479 520.8647050122271 169.07706461604732
    vertex -563.7066076710479 528.8647050122271 169.07706461604732
  endloop
endfacet
facet normal -1.0 0.0 0.0
  outer loop
    vertex -563.7066076710479 538.6647050122272 163.47706461604733
    vertex -563.7066076710479 528.8647050122271 169.07706461604732
    vertex -563.7066076710479 538.6647050122272 181.97706461604733
  endloop
endfacet
facet normal 0.0022032042069820173 -0.6013488240717005 0.7989835653371133
  outer loop
    vertex -560.6166076710477 478.6052131956538 174.6891773832377
    vertex -563.7066076710479 478.7219471183534 174.78555697286262
    vertex -563.7066076710479 478.09621590508874 174.31460519662318
  endloop
endfacet
facet normal 0.0 0.0 1.0
  outer loop
    vertex -560.6166076710477 520.8647050122271 169.07706461604732
    vertex -563.7066076710479 528.8647050122271 169.07706461604732
    vertex -563.7066076710479 520.8647050122271 169.07706461604732
  endloop
endfacet
facet normal 0.0 0.0 1.0
  outer loop
    vertex -563.7066076710479 528.8647050122271 169.07706461604732
    vertex -560.6166076710477 520.8647050122271 169.07706461604732
    vertex -560.6166076710477 528.8647050122271 169.07706461604732
  endloop
endfacet
facet normal 0.003879142510132309 -0.9774213627359035 0.21126389166366263
  outer loop
    vertex -560.6166076710477 479.65463208458584 176.73143053458662
    vertex -563.7066076710479 479.51088900705366 176.12313442039013
    vertex -560.6166076710477 479.489178011731 175.96595024315351
  endloop
endfacet
facet normal 0.02484646635214144 -0.13970606139800323 -0.9898812401083623
  outer loop
    vertex -560.6166076710477 476.91033909368764 179.96699168840624
    vertex -563.7066076710479 476.64838947005836 179.9264013335251
    vertex -563.7066076710479 477.4238614487487 179.81695574401633
  endloop
endfacet
facet normal -0.012648367311073494 -0.5417158820177316 0.8404664906908041
  outer loop
    vertex -560.6166076710477 478.6052131956538 174.6891773832377
    vertex -563.7066076710479 478.09621590508874 174.31460519662318
    vertex -560.6166076710477 477.94694319382614 174.26489477519132
  endloop
endfacet
facet normal 0.01442797659827939 -0.4569963785423614 -0.8893515297622457
  outer loop
    vertex -560.6166076710477 477.6758193851208 179.80153761555138
    vertex -563.7066076710479 478.1445832575618 179.51053250550797
    vertex -560.6166076710477 478.3723939029867 179.44360037544263
  endloop
endfacet
facet normal 0.027301719153244704 -0.39112075328850987 -0.9199343305249055
  outer loop
    vertex -560.6166076710477 477.6758193851208 179.80153761555138
    vertex -563.7066076710479 477.4238614487487 179.81695574401633
    vertex -563.7066076710479 478.1445832575618 179.51053250550797
  endloop
endfacet
facet normal 0.00843976551817644 -0.998767598205466 -0.0489086406771148
  outer loop
    vertex -560.6166076710477 479.6163275685476 177.51365038274176
    vertex -563.7066076710479 479.6203345965625 176.89860639908042
    vertex -560.6166076710477 479.65463208458584 176.73143053458662
  endloop
endfacet
facet normal -0.01785021682677104 -0.30570436977065824 0.9519591420131234
  outer loop
    vertex -560.6166076710477 477.94694319382614 174.26489477519132
    vertex -563.7066076710479 477.36991467686556 174.02165186812476
    vertex -560.6166076710477 477.20129077892136 174.02544205972669
  endloop
endfacet
facet normal 0.0 -1.0 0.0
  outer loop
    vertex -560.6166076710477 528.8647050122271 177.07706461604732
    vertex -563.7066076710479 528.8647050122271 169.07706461604732
    vertex -560.6166076710477 528.8647050122271 169.07706461604732
  endloop
endfacet
facet normal 0.0 -1.0 0.0
  outer loop
    vertex -563.7066076710479 528.8647050122271 169.07706461604732
    vertex -560.6166076710477 528.8647050122271 177.07706461604732
    vertex -563.7066076710479 528.8647050122271 177.07706461604732
  endloop
endfacet
facet normal 0.004533081231733019 0.3057499432914621 -0.9521010573210255
  outer loop
    vertex -560.6166076710477 475.3824668306278 179.68923445690334
    vertex -563.7066076710479 475.87101445531056 179.83141073797665
    vertex -560.6166076710477 476.12811924553256 179.92868717236797
  endloop
endfacet
facet normal 0.015070554542317281 -0.6715993517140795 -0.7407612227722341
  outer loop
    vertex -560.6166076710477 478.3723939029867 179.44360037544263
    vertex -563.7066076710479 478.76143889627616 179.02801385531606
    vertex -560.6166076710477 478.9525922450366 178.91757279947416
  endloop
endfacet
facet normal 0.027922763404717207 -0.798673966988789 -0.6011158072603275
  outer loop
    vertex -563.7066076710479 478.76143889627616 179.02801385531606
    vertex -563.7066076710479 479.23239067251563 178.40228264205138
    vertex -560.6166076710477 478.9525922450366 178.91757279947416
  endloop
endfacet
facet normal 0.013435933100146548 -0.9201943044536723 0.3912312842204096
  outer loop
    vertex -563.7066076710479 479.51088900705366 176.12313442039013
    vertex -563.7066076710479 479.20446576854533 175.402412611577
    vertex -560.6166076710477 479.489178011731 175.96595024315351
  endloop
endfacet
facet normal 0.02115174273495012 0.12126473409818257 -0.9923948145991955
  outer loop
    vertex -560.6166076710477 476.12811924553256 179.92868717236797
    vertex -563.7066076710479 475.87101445531056 179.83141073797665
    vertex -563.7066076710479 476.64838947005836 179.9264013335251
  endloop
endfacet
facet normal 0.011971060390951093 -0.9520426155720986 -0.30573117578643144
  outer loop
    vertex -560.6166076710477 479.37687485308294 178.25930279764657
    vertex -563.7066076710479 479.52534400101405 177.6759814138282
    vertex -560.6166076710477 479.6163275685476 177.51365038274176
  endloop
endfacet
facet normal -0.0013999462185547674 -0.8894432392295153 0.4570435037712411
  outer loop
    vertex -560.6166076710477 479.489178011731 175.96595024315351
    vertex -563.7066076710479 479.20446576854533 175.402412611577
    vertex -560.6166076710477 479.1312407716223 175.26937572528763
  endloop
endfacet
facet normal 0.02604643852532836 -0.9270870039431904 -0.3739401959669289
  outer loop
    vertex -563.7066076710479 479.23239067251563 178.40228264205138
    vertex -563.7066076710479 479.52534400101405 177.6759814138282
    vertex -560.6166076710477 479.37687485308294 178.25930279764657
  endloop
endfacet
facet normal -0.0031509502123271173 -0.37406524726369167 0.9273970359572606
  outer loop
    vertex -560.6166076710477 477.94694319382614 174.26489477519132
    vertex -563.7066076710479 478.09621590508874 174.31460519662318
    vertex -563.7066076710479 477.36991467686556 174.02165186812476
  endloop
endfacet
facet normal -0.007836301803940715 -0.12128814571566994 0.9925864083710255
  outer loop
    vertex -560.6166076710477 477.20129077892136 174.02544205972669
    vertex -563.7066076710479 477.36991467686556 174.02165186812476
    vertex -563.7066076710479 476.5925396621178 173.92666127257633
  endloop
endfacet
facet normal 0.0 0.0 -1.0
  outer loop
    vertex -560.6166076710477 528.8647050122271 177.07706461604732
    vertex -563.7066076710479 520.8647050122271 177.07706461604732
    vertex -563.7066076710479 528.8647050122271 177.07706461604732
  endloop
endfacet
facet normal 0.0 0.0 -1.0
  outer loop
    vertex -563.7066076710479 520.8647050122271 177.07706461604732
    vertex -560.6166076710477 528.8647050122271 177.07706461604732
    vertex -560.6166076710477 520.8647050122271 177.07706461604732
  endloop
endfacet
facet normal 0.01854814145782465 -0.9900165882909535 0.13972516365065096
  outer loop
    vertex -563.7066076710479 479.6203345965625 176.89860639908042
    vertex -563.7066076710479 479.51088900705366 176.12313442039013
    vertex -560.6166076710477 479.65463208458584 176.73143053458662
  endloop
endfacet
facet normal 0.008973657712740382 0.048908413311307054 -0.9987629551473288
  outer loop
    vertex -560.6166076710477 476.12811924553256 179.92868717236797
    vertex -563.7066076710479 476.64838947005836 179.9264013335251
    vertex -560.6166076710477 476.91033909368764 179.96699168840624
  endloop
endfacet
facet normal 0.02835086479952719 -0.6158721679129442 -0.7873358249535768
  outer loop
    vertex -560.6166076710477 478.3723939029867 179.44360037544263
    vertex -563.7066076710479 478.1445832575618 179.51053250550797
    vertex -563.7066076710479 478.76143889627616 179.02801385531606
  endloop
endfacet
facet normal 0.012348538383968646 -0.21124937303391428 -0.9773541916790237
  outer loop
    vertex -560.6166076710477 476.91033909368764 179.96699168840624
    vertex -563.7066076710479 477.4238614487487 179.81695574401633
    vertex -560.6166076710477 477.6758193851208 179.80153761555138
  endloop
endfacet
facet normal 0.022849175834852558 -0.9923577370210808 -0.12126020343899978
  outer loop
    vertex -563.7066076710479 479.52534400101405 177.6759814138282
    vertex -563.7066076710479 479.6203345965625 176.89860639908042
    vertex -560.6166076710477 479.6163275685476 177.51365038274176
  endloop
endfacet
facet normal 0.01646866561825512 0.3740163741195499 -0.927275867767095
  outer loop
    vertex -560.6166076710477 475.3824668306278 179.68923445690334
    vertex -563.7066076710479 475.14471322708744 179.53845740947827
    vertex -563.7066076710479 475.87101445531056 179.83141073797665
  endloop
endfacet
facet normal -0.0 1.0 -0.0
  outer loop
    vertex -563.7066076710479 520.8647050122271 177.07706461604732
    vertex -560.6166076710477 520.8647050122271 169.07706461604732
    vertex -563.7066076710479 520.8647050122271 169.07706461604732
  endloop
endfacet
facet normal -0.0 1.0 -0.0
  outer loop
    vertex -560.6166076710477 520.8647050122271 169.07706461604732
    vertex -563.7066076710479 520.8647050122271 177.07706461604732
    vertex -560.6166076710477 520.8647050122271 177.07706461604732
  endloop
endfacet
facet normal 0.007860862716103862 -0.7876280987466563 0.6161007911876806
  outer loop
    vertex -563.7066076710479 479.20446576854533 175.402412611577
    vertex -563.7066076710479 478.7219471183534 174.78555697286262
    vertex -560.6166076710477 479.1312407716223 175.26937572528763
  endloop
endfacet
facet normal -0.007037354224164445 -0.7408270133754143 0.6716589997154713
  outer loop
    vertex -560.6166076710477 479.1312407716223 175.26937572528763
    vertex -563.7066076710479 478.7219471183534 174.78555697286262
    vertex -560.6166076710477 478.6052131956538 174.6891773832377
  endloop
endfacet
facet normal 0.014232596462513483 -0.8404485917491502 -0.5417043453995968
  outer loop
    vertex -560.6166076710477 478.9525922450366 178.91757279947416
    vertex -563.7066076710479 479.23239067251563 178.40228264205138
    vertex -560.6166076710477 479.37687485308294 178.25930279764657
  endloop
endfacet
facet normal -0.011919139176685217 0.8893809287445338 -0.4570114853116907
  outer loop
    vertex -560.6166076710477 474.19816925283163 178.68475350680703
    vertex -560.6166076710477 473.84023201272294 177.98817898894114
    vertex -563.7066076710479 474.0364633636308 178.45064999452444
  endloop
endfacet
facet normal -0.027738734280513832 0.4568680844537075 0.8891018591973109
  outer loop
    vertex -560.6166076710477 475.6535906393331 174.15259161654328
    vertex -563.7066076710479 475.0963458746143 174.34253010059348
    vertex -560.6166076710477 474.95701612146723 174.51052885665203
  endloop
endfacet
facet normal 0.011116037107112573 0.6013131291264715 -0.7989361391620514
  outer loop
    vertex -560.6166076710477 474.72419682880013 179.26495184885695
    vertex -563.7066076710479 474.5189820138228 179.06750563323882
    vertex -563.7066076710479 475.14471322708744 179.53845740947827
  endloop
endfacet
facet normal -0.005231327780307409 0.9901733824947965 -0.13974729266954863
  outer loop
    vertex -563.7066076710479 473.73004012512246 177.72992818571132
    vertex -560.6166076710477 473.6747779398681 177.22269869750804
    vertex -563.7066076710479 473.664705012227 177.26699907634847
  endloop
endfacet
facet normal -0.0008540902715564198 0.08580183431500016 -0.9963118566784144
  outer loop
    vertex -637.8666076710477 476.0464145932805 179.9096817375902
    vertex -640.9566076710479 476.6711688503335 179.96613414234014
    vertex -637.8666076710477 476.82668363536754 179.97687808241085
  endloop
endfacet
facet normal 0.021102098722038425 -0.6436846821622833 -0.7649998244308074
  outer loop
    vertex -637.8666076710477 478.3070883330185 179.5078954995219
    vertex -640.9566076710479 478.7693999962693 179.03366216052663
    vertex -637.8666076710477 478.90633685492185 179.00367695980583
  endloop
endfacet
facet normal -0.025660960640176544 0.21119591218520836 0.9771068527931228
  outer loop
    vertex -560.6166076710477 476.4190709307663 173.98713754368842
    vertex -563.7066076710479 475.81706768342747 174.03610686208512
    vertex -560.6166076710477 475.6535906393331 174.15259161654328
  endloop
endfacet
facet normal -0.009534775824695231 0.9925717645682457 0.12128635633018299
  outer loop
    vertex -563.7066076710479 473.664705012227 176.59346907761258
    vertex -560.6166076710477 473.7130824559063 176.4404788493529
    vertex -563.7066076710479 473.7155851311621 176.17708119227325
  endloop
endfacet
facet normal -0.0275435178864236 0.8402148341683707 0.5415536788406646
  outer loop
    vertex -560.6166076710477 473.952535171371 175.6948264344481
    vertex -560.6166076710477 474.3768177794173 175.0365564326205
    vertex -563.7066076710479 474.00853845966054 175.45077996405007
  endloop
endfacet
facet normal -0.01719656194270938 0.9772841826654124 -0.2112342409964524
  outer loop
    vertex -560.6166076710477 473.84023201272294 177.98817898894114
    vertex -560.6166076710477 473.6747779398681 177.22269869750804
    vertex -563.7066076710479 473.73004012512246 177.72992818571132
  endloop
endfacet
facet normal -0.00011721251103495719 0.9202773680947532 -0.3912665996910823
  outer loop
    vertex -563.7066076710479 474.0364633636308 178.45064999452444
    vertex -560.6166076710477 473.84023201272294 177.98817898894114
    vertex -563.7066076710479 473.73004012512246 177.72992818571132
  endloop
endfacet
facet normal 0.018827705469318546 -0.40603913305308525 -0.9136617207349008
  outer loop
    vertex -637.8666076710477 477.59775734837416 179.8398362789093
    vertex -640.9566076710479 477.4447677325644 179.84415096231987
    vertex -640.9566076710479 478.1604353019282 179.52610213437407
  endloop
endfacet
facet normal -0.025283766317309588 0.9518064637030372 0.30565533990743665
  outer loop
    vertex -560.6166076710477 473.7130824559063 176.4404788493529
    vertex -560.6166076710477 473.952535171371 175.6948264344481
    vertex -563.7066076710479 473.7155851311621 176.17708119227325
  endloop
endfacet
facet normal -0.003259829812613526 0.9999946867406811 -1.0119469712229373e-18
  outer loop
    vertex -563.7066076710479 473.664705012227 177.26699907634847
    vertex -560.6166076710477 473.6747779398681 177.22269869750804
    vertex -563.7066076710479 473.664705012227 176.59346907761258
  endloop
endfacet
facet normal -0.013990597028428255 0.3912283078674868 0.9201873039321566
  outer loop
    vertex -560.6166076710477 475.6535906393331 174.15259161654328
    vertex -563.7066076710479 475.81706768342747 174.03610686208512
    vertex -563.7066076710479 475.0963458746143 174.34253010059348
  endloop
endfacet
facet normal -0.022288414342770207 -0.04889823244467649 0.9985550507858201
  outer loop
    vertex -560.6166076710477 477.20129077892136 174.02544205972669
    vertex -563.7066076710479 476.5925396621178 173.92666127257633
    vertex -560.6166076710477 476.4190709307663 173.98713754368842
  endloop
endfacet
facet normal -0.0 1.0 -0.0
  outer loop
    vertex -637.8666076710477 473.664705012227 181.97706461604733
    vertex -563.7066076710479 473.664705012227 163.47706461604733
    vertex -637.8666076710477 473.664705012227 163.47706461604733
  endloop
endfacet
facet normal -0.0 1.0 -0.0
  outer loop
    vertex -563.7066076710479 473.664705012227 163.47706461604733
    vertex -637.8666076710477 473.664705012227 181.97706461604733
    vertex -563.7066076710479 473.664705012227 176.59346907761258
  endloop
endfacet
facet normal -0.0 1.0 -0.0
  outer loop
    vertex -563.7066076710479 473.664705012227 176.59346907761258
    vertex -637.8666076710477 473.664705012227 181.97706461604733
    vertex -563.7066076710479 473.664705012227 177.26699907634847
  endloop
endfacet
facet normal -0.0 1.0 -0.0
  outer loop
    vertex -563.7066076710479 473.664705012227 177.26699907634847
    vertex -637.8666076710477 473.664705012227 181.97706461604733
    vertex -563.7066076710479 473.664705012227 181.97706461604733
  endloop
endfacet
facet normal 0.005458746576140164 0.7876406996028682 -0.6161106478668599
  outer loop
    vertex -563.7066076710479 474.5189820138228 179.06750563323882
    vertex -560.6166076710477 474.19816925283163 178.68475350680703
    vertex -563.7066076710479 474.0364633636308 178.45064999452444
  endloop
endfacet
facet normal -0.011533438673902299 0.13973990988294954 0.9901210720807131
  outer loop
    vertex -560.6166076710477 476.4190709307663 173.98713754368842
    vertex -563.7066076710479 476.5925396621178 173.92666127257633
    vertex -563.7066076710479 475.81706768342747 174.03610686208512
  endloop
endfacet
facet normal -0.028380762963546524 0.67140507106403 0.7405469349360052
  outer loop
    vertex -560.6166076710477 474.95701612146723 174.51052885665203
    vertex -563.7066076710479 474.47949023589996 174.82504875078538
    vertex -560.6166076710477 474.3768177794173 175.0365564326205
  endloop
endfacet
facet normal 0.0031038238180467505 0.10520879851430325 -0.9944453102070939
  outer loop
    vertex -637.8666076710477 476.0464145932805 179.9096817375902
    vertex -640.9566076710479 475.89235814062687 179.88373872230315
    vertex -640.9566076710479 476.6711688503335 179.96613414234014
  endloop
endfacet
facet normal 0.011272915292745805 -0.15574834313883748 -0.9877324409931617
  outer loop
    vertex -637.8666076710477 476.82668363536754 179.97687808241085
    vertex -640.9566076710479 476.6711688503335 179.96613414234014
    vertex -640.9566076710479 477.4447677325644 179.84415096231987
  endloop
endfacet
facet normal 0.007288797085985417 -0.17498169121255666 -0.9845447075564587
  outer loop
    vertex -637.8666076710477 476.82668363536754 179.97687808241085
    vertex -640.9566076710479 477.4447677325644 179.84415096231987
    vertex -637.8666076710477 477.59775734837416 179.8398362789093
  endloop
endfacet
facet normal -1.0 0.0 0.0
  outer loop
    vertex -563.7066076710479 473.664705012227 176.59346907761258
    vertex -563.7066076710479 473.6205945356137 176.95445620702102
    vertex -563.7066076710479 473.664705012227 177.26699907634847
  endloop
endfacet
facet normal 0.025252993009003178 -0.6285876709051305 -0.7773286475681639
  outer loop
    vertex -637.8666076710477 478.3070883330185 179.5078954995219
    vertex -640.9566076710479 478.1604353019282 179.52610213437407
    vertex -640.9566076710479 478.7693999962693 179.03366216052663
  endloop
endfacet
facet normal -0.01321461741519878 0.9987159586696138 0.0489061119411924
  outer loop
    vertex -560.6166076710477 473.6747779398681 177.22269869750804
    vertex -560.6166076710477 473.7130824559063 176.4404788493529
    vertex -563.7066076710479 473.664705012227 176.59346907761258
  endloop
endfacet
facet normal -0.0062822810426738564 0.740830738910082 -0.6716623774120766
  outer loop
    vertex -560.6166076710477 474.72419682880013 179.26495184885695
    vertex -560.6166076710477 474.19816925283163 178.68475350680703
    vertex -563.7066076710479 474.5189820138228 179.06750563323882
  endloop
endfacet
facet normal -0.0006705541750948921 0.5417590975958178 -0.8405335392054643
  outer loop
    vertex -560.6166076710477 474.72419682880013 179.26495184885695
    vertex -563.7066076710479 475.14471322708744 179.53845740947827
    vertex -560.6166076710477 475.3824668306278 179.68923445690334
  endloop
endfacet
facet normal 0.01477782717356835 -0.423803231183396 -0.9056337212485748
  outer loop
    vertex -637.8666076710477 477.59775734837416 179.8398362789093
    vertex -640.9566076710479 478.1604353019282 179.52610213437407
    vertex -637.8666076710477 478.3070883330185 179.5078954995219
  endloop
endfacet
facet normal -0.012734312046604803 0.9273264417891647 0.37403677313246436
  outer loop
    vertex -563.7066076710479 473.7155851311621 176.17708119227325
    vertex -560.6166076710477 473.952535171371 175.6948264344481
    vertex -563.7066076710479 474.00853845966054 175.45077996405007
  endloop
endfacet
facet normal -0.014612161475968957 0.7989002021671158 0.6012860814240936
  outer loop
    vertex -563.7066076710479 474.00853845966054 175.45077996405007
    vertex -560.6166076710477 474.3768177794173 175.0365564326205
    vertex -563.7066076710479 474.47949023589996 174.82504875078538
  endloop
endfacet
facet normal -0.015040630434330281 0.6160501340489425 0.7875633382620205
  outer loop
    vertex -560.6166076710477 474.95701612146723 174.51052885665203
    vertex -563.7066076710479 475.0963458746143 174.34253010059348
    vertex -563.7066076710479 474.47949023589996 174.82504875078538
  endloop
endfacet
facet normal 0.019075994674284735 -0.765030975072659 0.6437108928754923
  outer loop
    vertex -637.8666076710477 479.2197340528438 175.3645782548393
    vertex -640.9566076710479 478.66124422463713 174.79240028119605
    vertex -637.8666076710477 478.7155155131277 174.76532973293595
  endloop
endfacet
facet normal 0.009696383341314048 -0.35899013323402434 0.9332909859152801
  outer loop
    vertex -637.8666076710477 478.073380873304 174.31700147023628
    vertex -640.9566076710479 478.0279720753103 174.33163839943526
    vertex -640.9566076710479 477.29702420094895 174.05047949105176
  endloop
endfacet
facet normal 0.033074651890314506 -0.9328242205426418 -0.3588105920556797
  outer loop
    vertex -640.9566076710479 479.2301618780301 178.40039001119982
    vertex -640.9566076710479 479.5113207864136 177.66944213683846
    vertex -637.8666076710477 479.3546651176215 178.3615423199822
  endloop
endfacet
facet normal -0.020681362739961868 0.6286537096519322 0.7774103128825101
  outer loop
    vertex -637.8666076710477 475.0764168081611 174.45193253501404
    vertex -640.9566076710479 475.0289470396476 174.40811607898087
    vertex -640.9566076710479 474.41998234530655 174.90055605282828
  endloop
endfacet
facet normal -0.025541856480569558 0.8083505894851248 0.5881470377776099
  outer loop
    vertex -640.9566076710479 473.9592204635457 175.5338282021551
    vertex -637.8666076710477 474.4771682862578 174.9561510747301
    vertex -640.9566076710479 474.41998234530655 174.90055605282828
  endloop
endfacet
facet normal 0.017414688692097877 -0.5882497613195679 0.8084917729483887
  outer loop
    vertex -637.8666076710477 478.7155155131277 174.76532973293595
    vertex -640.9566076710479 478.66124422463713 174.79240028119605
    vertex -640.9566076710479 478.0279720753103 174.33163839943526
  endloop
endfacet
facet normal 0.012295546790517909 -0.572419431118259 0.8198687787733906
  outer loop
    vertex -637.8666076710477 478.7155155131277 174.76532973293595
    vertex -640.9566076710479 478.0279720753103 174.33163839943526
    vertex -637.8666076710477 478.073380873304 174.31700147023628
  endloop
endfacet
facet normal 0.02935089761395632 -0.9958829784734373 -0.08576489955762925
  outer loop
    vertex -637.8666076710477 479.6215202909121 177.62525199457733
    vertex -640.9566076710479 479.5937162064506 176.89063142713186
    vertex -637.8666076710477 479.6887166357327 176.8449829524902
  endloop
endfacet
facet normal 0.02790316413375847 -0.984187499877925 0.1749182052142208
  outer loop
    vertex -637.8666076710477 479.6887166357327 176.8449829524902
    vertex -640.9566076710479 479.47173302643034 176.11703254490092
    vertex -637.8666076710477 479.55167483223113 176.07390923948358
  endloop
endfacet
facet normal 0.0045195572321613114 -0.3407393352666568 0.9401469454316502
  outer loop
    vertex -637.8666076710477 478.073380873304 174.31700147023628
    vertex -640.9566076710479 477.29702420094895 174.05047949105176
    vertex -637.8666076710477 477.33709054789915 174.05014629694574
  endloop
endfacet
facet normal 0.029296665519824034 -0.9134314531794883 0.4059368001694696
  outer loop
    vertex -640.9566076710479 479.47173302643034 176.11703254490092
    vertex -640.9566076710479 479.15368419848454 175.40136497553715
    vertex -637.8666076710477 479.55167483223113 176.07390923948358
  endloop
endfacet
facet normal 0.028644329551804473 -0.9397707702351235 -0.34060299733885263
  outer loop
    vertex -637.8666076710477 479.3546651176215 178.3615423199822
    vertex -640.9566076710479 479.5113207864136 177.66944213683846
    vertex -637.8666076710477 479.6215202909121 177.62525199457733
  endloop
endfacet
facet normal 0.0339411753575679 -0.9938771303425428 -0.10514868709317973
  outer loop
    vertex -640.9566076710479 479.5113207864136 177.66944213683846
    vertex -640.9566076710479 479.5937162064506 176.89063142713186
    vertex -637.8666076710477 479.6215202909121 177.62525199457733
  endloop
endfacet
facet normal 0.0240997551791672 -0.7773507823761994 0.6286055702421155
  outer loop
    vertex -640.9566076710479 479.15368419848454 175.40136497553715
    vertex -640.9566076710479 478.66124422463713 174.79240028119605
    vertex -637.8666076710477 479.2197340528438 175.3645782548393
  endloop
endfacet
facet normal -0.019351078787031007 0.42377014904796995 0.9055630273623365
  outer loop
    vertex -637.8666076710477 475.78574779280547 174.11999175562661
    vertex -640.9566076710479 475.0289470396476 174.40811607898087
    vertex -637.8666076710477 475.0764168081611 174.45193253501404
  endloop
endfacet
facet normal -0.0304010679724794 0.8195517720613352 0.5721981020391957
  outer loop
    vertex -637.8666076710477 474.02884002355813 175.59828571455373
    vertex -637.8666076710477 474.4771682862578 174.9561510747301
    vertex -640.9566076710479 473.9592204635457 175.5338282021551
  endloop
endfacet
facet normal -0.03321301609672911 0.9396378589749265 0.3405548260453446
  outer loop
    vertex -637.8666076710477 473.76198485026754 176.33457603995862
    vertex -637.8666076710477 474.02884002355813 175.59828571455373
    vertex -640.9566076710479 473.67806155516223 176.26477607651645
  endloop
endfacet
facet normal 0.032652835922127525 -0.9872684689476241 0.155675182762241
  outer loop
    vertex -640.9566076710479 479.5937162064506 176.89063142713186
    vertex -640.9566076710479 479.47173302643034 176.11703254490092
    vertex -637.8666076710477 479.6887166357327 176.8449829524902
  endloop
endfacet
facet normal -0.029372801485379612 0.994021021164692 0.10516391023351757
  outer loop
    vertex -640.9566076710479 473.5956661351252 177.04358678622305
    vertex -637.8666076710477 473.76198485026754 176.33457603995862
    vertex -640.9566076710479 473.67806155516223 176.26477607651645
  endloop
endfacet
facet normal 0.025831242238731705 -0.819657163567474 -0.572271684724072
  outer loop
    vertex -637.8666076710477 478.90633685492185 179.00367695980583
    vertex -640.9566076710479 479.2301618780301 178.40039001119982
    vertex -637.8666076710477 479.3546651176215 178.3615423199822
  endloop
endfacet
facet normal -0.028505906753772046 0.9329555781249909 0.358861118715318
  outer loop
    vertex -640.9566076710479 473.67806155516223 176.26477607651645
    vertex -637.8666076710477 474.02884002355813 175.59828571455373
    vertex -640.9566076710479 473.9592204635457 175.5338282021551
  endloop
endfacet
facet normal -0.014254333152741088 0.4060698589284422 0.9137308595293288
  outer loop
    vertex -637.8666076710477 475.78574779280547 174.11999175562661
    vertex -640.9566076710479 475.7446146090114 174.09006725103504
    vertex -640.9566076710479 475.0289470396476 174.40811607898087
  endloop
endfacet
facet normal -0.033919280993681904 0.9957389177387858 0.08575249312564415
  outer loop
    vertex -637.8666076710477 473.69478850544687 177.11484508204572
    vertex -637.8666076710477 473.76198485026754 176.33457603995862
    vertex -640.9566076710479 473.5956661351252 177.04358678622305
  endloop
endfacet
facet normal 0.02439905838515423 -0.9054629876706467 0.4237233341562207
  outer loop
    vertex -637.8666076710477 479.55167483223113 176.07390923948358
    vertex -640.9566076710479 479.15368419848454 175.40136497553715
    vertex -637.8666076710477 479.2197340528438 175.3645782548393
  endloop
endfacet
facet normal 0.030111793253837393 -0.8082477204513917 -0.5880721913950424
  outer loop
    vertex -640.9566076710479 478.7693999962693 179.03366216052663
    vertex -640.9566076710479 479.2301618780301 178.40039001119982
    vertex -637.8666076710477 478.90633685492185 179.00367695980583
  endloop
endfacet
facet normal -0.011863417676005593 0.1749740252042763 0.984501574313042
  outer loop
    vertex -637.8666076710477 476.5568215058121 173.98294995212507
    vertex -640.9566076710479 475.7446146090114 174.09006725103504
    vertex -637.8666076710477 475.78574779280547 174.11999175562661
  endloop
endfacet
facet normal -0.028083913783966238 0.987405589865657 -0.15569680436228864
  outer loop
    vertex -640.9566076710479 473.7176493151455 177.817185668454
    vertex -637.8666076710477 473.69478850544687 177.11484508204572
    vertex -640.9566076710479 473.5956661351252 177.04358678622305
  endloop
endfacet
facet normal -0.006698219478846965 0.1557547460492976 0.9877730472830953
  outer loop
    vertex -637.8666076710477 476.5568215058121 173.98294995212507
    vertex -640.9566076710479 476.5182134912423 173.96808407101477
    vertex -640.9566076710479 475.7446146090114 174.09006725103504
  endloop
endfacet
facet normal -0.003721145542243601 -0.08580127156193872 0.9963053221147663
  outer loop
    vertex -637.8666076710477 477.33709054789915 174.05014629694574
    vertex -640.9566076710479 476.5182134912423 173.96808407101477
    vertex -637.8666076710477 476.5568215058121 173.98294995212507
  endloop
endfacet
facet normal 0.0014714215270175504 -0.10520919140072676 0.9944490238134357
  outer loop
    vertex -637.8666076710477 477.33709054789915 174.05014629694574
    vertex -640.9566076710479 477.29702420094895 174.05047949105176
    vertex -640.9566076710479 476.5182134912423 173.96808407101477
  endloop
endfacet
facet normal -0.025673595199452517 0.6436158266886612 0.7649179917778152
  outer loop
    vertex -637.8666076710477 475.0764168081611 174.45193253501404
    vertex -640.9566076710479 474.41998234530655 174.90055605282828
    vertex -637.8666076710477 474.4771682862578 174.9561510747301
  endloop
endfacet
facet normal -0.03247216133983458 0.9840516383572968 -0.17489405874482966
  outer loop
    vertex -637.8666076710477 473.8318303089485 177.8859187950523
    vertex -637.8666076710477 473.69478850544687 177.11484508204572
    vertex -640.9566076710479 473.7176493151455 177.817185668454
  endloop
endfacet
facet normal -0.02364811314619124 0.7649562237665883 -0.6436479957751644
  outer loop
    vertex -637.8666076710477 474.66798962805194 179.19449830159996
    vertex -637.8666076710477 474.1637710883358 178.59524977969662
    vertex -640.9566076710479 474.52813811693875 179.14181793215886
  endloop
endfacet
facet normal -0.012841009274789731 0.5882904732186482 -0.8085477274725247
  outer loop
    vertex -637.8666076710477 474.66798962805194 179.19449830159996
    vertex -640.9566076710479 474.52813811693875 179.14181793215886
    vertex -640.9566076710479 475.16141026626553 179.60257981391965
  endloop
endfacet
facet normal -0.007106617442346225 0.3498494502900826 -0.9367789804005294
  outer loop
    vertex -637.8666076710477 476.0464145932805 179.9096817375902
    vertex -640.9566076710479 475.16141026626553 179.60257981391965
    vertex -640.9566076710479 475.89235814062687 179.88373872230315
  endloop
endfacet
facet normal -0.007106617442346225 0.3498494502900826 -0.9367789804005294
  outer loop
    vertex -640.9566076710479 475.16141026626553 179.60257981391965
    vertex -637.8666076710477 476.0464145932805 179.9096817375902
    vertex -637.8666076710477 475.3101242678756 179.64282656429967
  endloop
endfacet
facet normal -0.019527770522775413 0.7774283504549638 -0.6286682957548311
  outer loop
    vertex -640.9566076710479 474.52813811693875 179.14181793215886
    vertex -637.8666076710477 474.1637710883358 178.59524977969662
    vertex -640.9566076710479 474.03569814309134 178.53285323781776
  endloop
endfacet
facet normal -0.028969422445654244 0.9053524878781108 -0.42367162432251754
  outer loop
    vertex -637.8666076710477 474.1637710883358 178.59524977969662
    vertex -637.8666076710477 473.8318303089485 177.8859187950523
    vertex -640.9566076710479 474.03569814309134 178.53285323781776
  endloop
endfacet
facet normal -0.024726422030259952 0.9135443055775438 -0.40598695274654445
  outer loop
    vertex -640.9566076710479 474.03569814309134 178.53285323781776
    vertex -637.8666076710477 473.8318303089485 177.8859187950523
    vertex -640.9566076710479 473.7176493151455 177.817185668454
  endloop
endfacet
facet normal -0.01686933740357845 0.5723812453919928 -0.8198140858628105
  outer loop
    vertex -637.8666076710477 474.66798962805194 179.19449830159996
    vertex -640.9566076710479 475.16141026626553 179.60257981391965
    vertex -637.8666076710477 475.3101242678756 179.64282656429967
  endloop
endfacet
endsolid AutoSave_AutoSave_update-122021
